<?xml version="1.0" encoding="UTF-8" standalone="no"?>
<!-- Generator: visioncortex VTracer -->

<svg
   id="svg"
   version="1.1"
   style="display: block;"
   viewBox="0 0 340 340"
   sodipodi:docname="favicon.svg"
   inkscape:version="1.2.2 (b0a8486541, 2022-12-01)"
   inkscape:export-filename="favicon.png"
   inkscape:export-xdpi="96"
   inkscape:export-ydpi="96"
   xmlns:inkscape="http://www.inkscape.org/namespaces/inkscape"
   xmlns:sodipodi="http://sodipodi.sourceforge.net/DTD/sodipodi-0.dtd"
   xmlns="http://www.w3.org/2000/svg"
   xmlns:svg="http://www.w3.org/2000/svg">
  <defs
     id="defs21" />
  <sodipodi:namedview
     id="namedview19"
     pagecolor="#ffffff"
     bordercolor="#666666"
     borderopacity="1.0"
     inkscape:showpageshadow="2"
     inkscape:pageopacity="0.0"
     inkscape:pagecheckerboard="0"
     inkscape:deskcolor="#d1d1d1"
     showgrid="false"
     inkscape:zoom="2.6117647"
     inkscape:cx="162.34234"
     inkscape:cy="137.07207"
     inkscape:window-width="1452"
     inkscape:window-height="1205"
     inkscape:window-x="26"
     inkscape:window-y="23"
     inkscape:window-maximized="0"
     inkscape:current-layer="svg" />
  <path
     d="m 71,10 c 4.172788,11.4302 12.128221,21.670973 23.936035,25.833252 21.747315,6.371489 45.669855,8.989853 63.923445,23.744211 22.22188,16.91694 28.15842,46.701787 26.38295,73.129417 -1.34186,10.22489 -3.1705,22.87684 -6.24237,32.29312 C 170.43794,125.8883 137.36032,95.770014 100,84 c 38.62113,18.89939 68.06749,55.28093 77.85014,97.21181 6.83236,29.58631 9.87778,59.92156 13.01213,90.08062 1.20577,18.07902 4.88204,53.78429 0.28693,56.31544 -7.30617,4.02451 -8.63578,-14.61859 -8.57124,-22.68113 -0.37827,-39.4733 -0.0272,-79.91482 -11.88224,-117.96857 -5.56473,-16.62352 -19.00307,-30.66728 -36.4648,-34.46166 C 113.09143,147.16523 90.639663,141.43138 74.893732,125.25808 53.10571,104.07582 46.764545,70.596059 55.367273,41.963084 58.842514,30.722352 63.264436,18.987728 71,10 Z"
     style="fill:#a5c100;fill-opacity:1"
     id="path4"
     sodipodi:nodetypes="ccccccccscccccc" />
  <path
     d="m 267,68 c 9.69603,9.041602 12.98136,22.858278 13.37261,35.66595 -0.002,14.20042 -5.24902,28.56214 -14.97026,38.9722 -10.75733,10.52913 -25.87648,14.01434 -39.87796,18.00216 C 216.36416,163.45376 206.37212,167.88208 202,177 c -2.11831,-7.85236 2.63015,-15.29865 5.75,-22.1875 7.83226,-14.46932 20.13639,-26.15961 34.03577,-34.77334 0.99185,-0.78623 8.76727,-5.23335 4.24756,-3.27478 -17.90915,6.84237 -33.93238,19.47908 -42.86577,36.65694 -2.70252,4.9369 -4.60043,10.25742 -6.50293,15.53925 -3.57672,-17.78155 -6.02869,-37.18511 1.86601,-54.21554 5.7054,-13.37767 19.27052,-21.202708 32.67183,-25.131093 9.85033,-3.484726 21.42892,-3.689831 29.44834,-11.146219 C 263.87131,75.781007 265.19784,71.648668 267,68 Z"
     style="fill:#a5c100;fill-opacity:1"
     id="path6"
     sodipodi:nodetypes="ccccccccccccccccc" />
  <path
     d="M 0,0 C 5.7660953,4.7485491 10.083858,11.515473 11.32666,18.955566 12.230637,28.4828 11.064089,37.013239 5.6210937,45.03125 0.59781317,50.905341 -6.2420175,54.001534 -13.121338,57.236328 -19.148823,60.341527 -23.327637,64.538758 -26.763334,68.556236 -27.468224,57.747927 -23.416582,48.504819 -17,40 c 3.111963,-3.490418 6.024663,-6.024663 9,-9 -10.266722,7.449776 -16.559688,16.089585 -21.527344,28.257812 -1.07422,2.631294 -1.112878,2.724049 -2.192368,5.07312 C -36.617678,43.387983 -35.164169,32.900383 -33.183594,28.957031 -28.073403,20.507507 -20.837472,16.338012 -11.6875,12.9375 -7.4741253,11.3302 -4.792314,9.6649122 -2,6 -0.66436389,2.8329858 -0.66436389,2.8329858 0,0 Z"
     transform="translate(223,22)"
     style="fill:#a5c100;fill-opacity:1"
     id="path8"
     sodipodi:nodetypes="cccccccsccccc" />
</svg>
