<svg width="10mm" height="10mm" version="1.2" baseProfile="tiny-ps" viewBox="0 0 10 10" xmlns="http://www.w3.org/2000/svg"><title>Jean-Pierre Cadiat</title><g fill="#b3fb96" fill-rule="evenodd" stroke="#000" stroke-width=".003"><path d="M.198.72S.284.433.427.338C.57.243.962.376.962.376s-.134.16-.268.26C.559.733.198.72.198.72z" transform="matrix(10 0 0 10.001 .003 .009)"/><path d="M.962.376S.677.416.543.47.198.72.198.72L.095.808" transform="matrix(10 0 0 10.001 .003 .009)"/></g><g fill="#447821" stroke="#000" stroke-width=".01"><path d="M2.828 1.721h.695v4.785q0 .93-.354 1.35-.352.421-1.134.421H1.77v-.586h.217q.462 0 .651-.258.19-.258.19-.927zM5.604 2.293v1.933h.875q.486 0 .751-.252.266-.251.266-.716 0-.462-.266-.714-.265-.251-.75-.251zm-.696-.572H6.48q.865 0 1.306.393.445.39.445 1.144 0 .76-.445 1.15-.44.39-1.306.39h-.875v2.067h-.696z"/></g></svg>
