<?xml version="1.0" encoding="UTF-8" standalone="no"?>
<svg
   version="1.1"
   style="font-family:Lato, 'Helvetica Neue', Helvetica, Arial, sans-serif;font-size:18px;background-color:white;text-rendering:geometricPrecision;-webkit-font-smoothing:antialiased"
   width="850"
   height="600"
   viewBox="0 0 850 600"
   id="svg277"
   sodipodi:docname="ghg-emissions-seafood (fr).svg"
   inkscape:version="1.1.1 (3bf5ae0d25, 2021-09-20)"
   xmlns:inkscape="http://www.inkscape.org/namespaces/inkscape"
   xmlns:sodipodi="http://sodipodi.sourceforge.net/DTD/sodipodi-0.dtd"
   xmlns="http://www.w3.org/2000/svg"
   xmlns:svg="http://www.w3.org/2000/svg">
  <defs
     id="defs281" />
  <sodipodi:namedview
     id="namedview279"
     pagecolor="#ffffff"
     bordercolor="#666666"
     borderopacity="1.0"
     inkscape:pageshadow="2"
     inkscape:pageopacity="0.0"
     inkscape:pagecheckerboard="0"
     showgrid="false"
     inkscape:zoom="1.4983333"
     inkscape:cx="510.90101"
     inkscape:cy="246.60735"
     inkscape:window-width="2650"
     inkscape:window-height="1344"
     inkscape:window-x="2714"
     inkscape:window-y="504"
     inkscape:window-maximized="0"
     inkscape:current-layer="svg277" />
  <g
     transform="matrix(0.29,0,0,0.29,774,7)"
     id="g17">
    <svg
       className="owidLog"
       width="210"
       height="120"
       viewBox="0 0 210 120"
       fill="none"
       version="1.1"
       id="svg15">
      <g
         clip-path="url(#clip0)"
         id="g8">
        <path
           d="M 0,0 H 210 V 107.89 H 0 Z"
           fill="#002147"
           id="path2" />
        <path
           d="m 40.98,32.25 c 0,2.36 -0.38,4.53 -1.12,6.51 a 14.26,14.26 0 0 1 -8.1,8.4 c -1.9,0.78 -4.02,1.17 -6.34,1.17 -2.31,0 -4.42,-0.39 -6.33,-1.17 a 14.31,14.31 0 0 1 -8.08,-8.4 18.29,18.29 0 0 1 -1.12,-6.51 c 0,-2.36 0.38,-4.53 1.12,-6.5 0.75,-1.97 1.8,-3.67 3.17,-5.1 a 14.32,14.32 0 0 1 4.9,-3.34 c 1.92,-0.8 4.03,-1.19 6.34,-1.19 2.32,0 4.43,0.4 6.34,1.19 1.92,0.8 3.56,1.9 4.93,3.34 a 14.87,14.87 0 0 1 3.17,5.1 18.1,18.1 0 0 1 1.12,6.5 z m -4.38,0 c 0,-1.94 -0.26,-3.68 -0.8,-5.22 a 10.91,10.91 0 0 0 -2.24,-3.89 9.68,9.68 0 0 0 -3.52,-2.46 11.95,11.95 0 0 0 -4.62,-0.86 c -1.68,0 -3.21,0.28 -4.6,0.86 a 9.88,9.88 0 0 0 -3.54,2.46 10.91,10.91 0 0 0 -2.24,3.9 c -0.53,1.53 -0.8,3.27 -0.8,5.2 0,1.94 0.27,3.68 0.8,5.22 a 11.17,11.17 0 0 0 2.24,3.9 10.01,10.01 0 0 0 3.55,2.44 c 1.38,0.56 2.9,0.83 4.6,0.83 1.7,0 3.24,-0.27 4.61,-0.83 a 9.8,9.8 0 0 0 3.52,-2.44 11.17,11.17 0 0 0 2.25,-3.9 c 0.53,-1.54 0.8,-3.28 0.8,-5.21 z M 62.82,25.71 V 48 H 60.5 c -0.56,0 -0.9,-0.27 -1.05,-0.81 l -0.31,-2.4 a 12.45,12.45 0 0 1 -3.26,2.6 c -1.2,0.64 -2.58,0.96 -4.13,0.96 -1.22,0 -2.3,-0.2 -3.24,-0.6 a 6.52,6.52 0 0 1 -2.33,-1.7 7.37,7.37 0 0 1 -1.43,-2.67 c -0.3,-1.04 -0.46,-2.2 -0.46,-3.45 V 25.7 h 3.91 v 14.22 c 0,1.68 0.38,2.99 1.15,3.91 0.77,0.93 1.96,1.39 3.54,1.39 1.16,0 2.24,-0.27 3.23,-0.82 a 10.42,10.42 0 0 0 2.8,-2.28 V 25.7 h 3.91 z m 8.61,4.47 a 9.94,9.94 0 0 1 2.6,-3.56 5.64,5.64 0 0 1 3.76,-1.3 c 0.47,0 0.92,0.05 1.34,0.15 0.44,0.1 0.83,0.27 1.17,0.49 L 80,28.88 c -0.09,0.37 -0.3,0.55 -0.66,0.55 -0.2,0 -0.5,-0.04 -0.9,-0.13 a 6.21,6.21 0 0 0 -3.24,0.18 4.23,4.23 0 0 0 -1.47,0.92 c -0.42,0.4 -0.81,0.9 -1.17,1.5 -0.33,0.58 -0.64,1.26 -0.92,2.02 V 48 H 67.7 V 25.71 h 2.25 c 0.42,0 0.72,0.08 0.88,0.25 0.16,0.16 0.27,0.44 0.33,0.83 l 0.26,3.39 z M 132.59,16.48 122.75,48 h -3.82 l -7.99,-24.05 a 21.95,21.95 0 0 1 -0.42,-1.58 38.36,38.36 0 0 1 -0.44,1.58 L 102.05,48 H 98.22 L 88.4,16.47 h 3.54 c 0.38,0 0.7,0.1 0.95,0.29 0.26,0.2 0.43,0.43 0.5,0.73 l 6.52,21.9 0.28,1.28 0.29,1.46 0.3,-1.46 0.38,-1.27 7.41,-21.91 c 0.1,-0.25 0.26,-0.48 0.51,-0.69 0.27,-0.22 0.58,-0.33 0.95,-0.33 h 1.23 c 0.38,0 0.69,0.1 0.92,0.29 a 1.77,1.77 0 0 1 0.53,0.73 l 7.4,21.9 a 28.4,28.4 0 0 1 0.68,2.62 29.52,29.52 0 0 1 0.52,-2.61 l 6.54,-21.91 a 1.31,1.31 0 0 1 0.48,-0.7 c 0.27,-0.21 0.58,-0.32 0.95,-0.32 h 3.32 z m 9.35,8.88 c 1.63,0 3.1,0.27 4.4,0.82 a 9.43,9.43 0 0 1 5.46,5.94 c 0.5,1.4 0.74,2.98 0.74,4.73 0,1.76 -0.25,3.34 -0.74,4.75 a 9.43,9.43 0 0 1 -5.46,5.92 c -1.3,0.52 -2.77,0.79 -4.4,0.79 -1.64,0 -3.12,-0.27 -4.44,-0.8 a 9.42,9.42 0 0 1 -3.35,-2.3 c -0.92,-1 -1.63,-2.2 -2.13,-3.61 -0.49,-1.41 -0.73,-3 -0.73,-4.75 0,-1.75 0.24,-3.33 0.73,-4.73 0.5,-1.43 1.2,-2.64 2.13,-3.63 0.93,-1 2.04,-1.77 3.35,-2.31 1.32,-0.55 2.8,-0.82 4.44,-0.82 z m 0,19.89 c 2.2,0 3.84,-0.73 4.93,-2.2 1.08,-1.48 1.63,-3.54 1.63,-6.18 0,-2.66 -0.55,-4.72 -1.63,-6.2 -1.09,-1.49 -2.73,-2.23 -4.93,-2.23 -1.12,0 -2.09,0.2 -2.93,0.57 a 5.71,5.71 0 0 0 -2.06,1.65 c -0.55,0.72 -0.96,1.61 -1.24,2.67 -0.26,1.04 -0.4,2.22 -0.4,3.54 0,2.64 0.55,4.7 1.64,6.18 1.1,1.47 2.76,2.2 4.99,2.2 z m 17.97,-15.07 a 9.94,9.94 0 0 1 2.6,-3.56 5.64,5.64 0 0 1 3.76,-1.3 c 0.47,0 0.91,0.05 1.34,0.15 0.44,0.1 0.83,0.27 1.16,0.49 l -0.28,2.92 c -0.09,0.37 -0.31,0.55 -0.66,0.55 -0.2,0 -0.5,-0.04 -0.9,-0.13 a 6.2,6.2 0 0 0 -3.24,0.18 4.23,4.23 0 0 0 -1.47,0.92 c -0.43,0.4 -0.82,0.9 -1.17,1.5 a 13.1,13.1 0 0 0 -0.92,2.02 V 48 h -3.94 V 25.71 h 2.24 c 0.43,0 0.72,0.08 0.88,0.25 0.17,0.16 0.28,0.44 0.33,0.83 z M 174.95,15.59 V 48 h -3.92 V 15.6 h 3.92 z m 19.55,15.43 a 6.22,6.22 0 0 0 -2.38,-2.05 6.7,6.7 0 0 0 -2.86,-0.6 c -2.07,0 -3.66,0.75 -4.77,2.23 -1.12,1.48 -1.68,3.6 -1.68,6.33 0,1.46 0.13,2.7 0.38,3.74 a 7.29,7.29 0 0 0 1.1,2.56 4.35,4.35 0 0 0 1.78,1.45 c 0.7,0.3 1.5,0.46 2.4,0.46 1.29,0 2.41,-0.3 3.36,-0.88 a 9.6,9.6 0 0 0 2.67,-2.49 z m 3.91,-15.43 V 48 h -2.33 c -0.56,0 -0.9,-0.27 -1.06,-0.81 l -0.35,-2.71 a 12.13,12.13 0 0 1 -3.25,2.77 8.28,8.28 0 0 1 -4.23,1.06 7.31,7.31 0 0 1 -6.14,-2.9 c -0.73,-0.96 -1.3,-2.15 -1.69,-3.57 a 18.35,18.35 0 0 1 0.07,-9.48 11.29,11.29 0 0 1 1.89,-3.7 8.7,8.7 0 0 1 7.06,-3.34 7.96,7.96 0 0 1 6.12,2.62 V 15.59 Z M 46.61,70.71 V 93 H 42.7 V 70.71 Z m 0.84,-7 c 0,0.39 -0.08,0.75 -0.24,1.09 -0.15,0.32 -0.35,0.61 -0.62,0.88 -0.25,0.25 -0.55,0.44 -0.9,0.59 a 2.67,2.67 0 0 1 -2.16,0 2.9,2.9 0 0 1 -1.45,-1.47 2.67,2.67 0 0 1 0,-2.16 c 0.15,-0.35 0.35,-0.65 0.6,-0.9 0.25,-0.27 0.53,-0.47 0.85,-0.62 a 2.67,2.67 0 0 1 2.16,0 c 0.35,0.15 0.65,0.35 0.9,0.62 0.27,0.25 0.47,0.55 0.62,0.9 0.16,0.34 0.24,0.7 0.24,1.08 z m 7.97,10.24 c 0.49,-0.54 1,-1.04 1.54,-1.48 a 9.85,9.85 0 0 1 3.66,-1.84 8.96,8.96 0 0 1 5.43,0.35 c 0.94,0.4 1.72,0.97 2.33,1.71 0.63,0.74 1.11,1.62 1.43,2.67 0.32,1.04 0.49,2.19 0.49,3.45 V 93 H 66.36 V 78.81 c 0,-1.69 -0.4,-3 -1.17,-3.92 -0.76,-0.93 -1.93,-1.4 -3.5,-1.4 -1.15,0 -2.24,0.27 -3.25,0.83 -1,0.56 -1.92,1.31 -2.77,2.27 V 93 H 51.73 V 70.71 h 2.35 c 0.56,0 0.9,0.28 1.04,0.82 z m 57.7,3.3 c 0,2.36 -0.37,4.5 -1.11,6.44 a 14.3,14.3 0 0 1 -3.17,4.98 c -1.37,1.37 -3,2.45 -4.93,3.2 -1.9,0.76 -4.02,1.13 -6.33,1.13 H 85.8 V 61.47 h 11.77 c 2.31,0 4.42,0.39 6.33,1.15 a 13.8,13.8 0 0 1 8.1,8.18 17.75,17.75 0 0 1 1.12,6.45 z m -4.37,0 c 0,-1.94 -0.26,-3.67 -0.8,-5.2 a 10.94,10.94 0 0 0 -2.23,-3.87 9.57,9.57 0 0 0 -3.53,-2.42 12.23,12.23 0 0 0 -4.61,-0.83 h -7.5 v 24.62 h 7.5 c 1.7,0 3.24,-0.28 4.61,-0.84 a 9.7,9.7 0 0 0 3.53,-2.4 10.94,10.94 0 0 0 2.24,-3.87 c 0.53,-1.53 0.8,-3.26 0.8,-5.2 z m 19.8,5.72 c -1.8,0.06 -3.34,0.2 -4.62,0.44 -1.26,0.22 -2.3,0.51 -3.1,0.88 -0.8,0.36 -1.37,0.8 -1.74,1.3 -0.35,0.5 -0.53,1.05 -0.53,1.67 0,0.58 0.1,1.1 0.3,1.52 a 3,3 0 0 0 0.76,1.05 c 0.34,0.27 0.73,0.46 1.17,0.6 a 6.13,6.13 0 0 0 1.45,0.17 7.28,7.28 0 0 0 3.5,-0.81 11.95,11.95 0 0 0 2.82,-2.2 V 82.97 Z M 115.9,73.86 a 12.73,12.73 0 0 1 3.98,-2.66 c 1.43,-0.59 3,-0.88 4.73,-0.88 1.25,0 2.36,0.2 3.33,0.61 a 6.81,6.81 0 0 1 3.94,4.38 c 0.33,1.04 0.5,2.19 0.5,3.43 V 93 h -1.74 a 1.8,1.8 0 0 1 -0.88,-0.18 c -0.2,-0.13 -0.36,-0.38 -0.48,-0.74 l -0.44,-2.12 -1.72,1.46 a 9.48,9.48 0 0 1 -3.74,1.7 c -0.69,0.15 -1.46,0.23 -2.3,0.23 -0.87,0 -1.69,-0.12 -2.45,-0.35 a 5.34,5.34 0 0 1 -3.34,-2.93 6.64,6.64 0 0 1 -0.49,-2.64 c 0,-0.88 0.25,-1.72 0.73,-2.53 a 6.33,6.33 0 0 1 2.35,-2.17 c 1.09,-0.63 2.5,-1.15 4.25,-1.54 1.75,-0.41 3.89,-0.65 6.42,-0.7 v -1.75 c 0,-1.73 -0.37,-3.03 -1.12,-3.91 -0.75,-0.9 -1.84,-1.34 -3.28,-1.34 -0.97,0 -1.78,0.12 -2.44,0.37 -0.64,0.23 -1.2,0.5 -1.7,0.81 l -1.23,0.82 c -0.33,0.23 -0.67,0.35 -1,0.35 -0.27,0 -0.5,-0.07 -0.69,-0.2 a 2.1,2.1 0 0 1 -0.48,-0.53 l -0.7,-1.25 z m 27.67,19.5 c -1.76,0 -3.12,-0.5 -4.07,-1.48 -0.94,-0.98 -1.41,-2.4 -1.41,-4.25 V 74 h -2.68 a 0.9,0.9 0 0 1 -0.6,-0.2 c -0.16,-0.14 -0.24,-0.36 -0.24,-0.66 v -1.56 l 3.65,-0.46 0.9,-6.89 c 0.05,-0.22 0.14,-0.4 0.29,-0.52 a 0.88,0.88 0 0 1 0.62,-0.22 H 142 v 7.67 h 6.44 V 74 H 142 v 13.38 c 0,0.94 0.22,1.63 0.68,2.09 0.45,0.45 1.04,0.68 1.76,0.68 a 3.21,3.21 0 0 0 1.85,-0.53 l 0.55,-0.35 c 0.16,-0.12 0.3,-0.18 0.41,-0.18 0.2,0 0.4,0.13 0.55,0.38 l 1.15,1.87 a 7.45,7.45 0 0 1 -2.44,1.5 8.53,8.53 0 0 1 -2.95,0.52 z m 19.68,-10.4 c -1.8,0.07 -3.34,0.21 -4.62,0.45 -1.26,0.22 -2.3,0.51 -3.1,0.88 -0.8,0.36 -1.37,0.8 -1.74,1.3 -0.35,0.5 -0.53,1.05 -0.53,1.67 0,0.58 0.1,1.1 0.3,1.52 a 2.9,2.9 0 0 0 0.76,1.05 c 0.34,0.27 0.73,0.46 1.17,0.6 a 6.13,6.13 0 0 0 1.45,0.17 7.3,7.3 0 0 0 3.5,-0.81 12.04,12.04 0 0 0 2.82,-2.2 v -4.62 z m -12.65,-9.1 a 12.72,12.72 0 0 1 3.99,-2.66 c 1.42,-0.59 3,-0.88 4.72,-0.88 1.25,0 2.36,0.2 3.33,0.61 a 6.81,6.81 0 0 1 3.94,4.38 c 0.33,1.04 0.5,2.19 0.5,3.43 V 93 h -1.74 a 1.8,1.8 0 0 1 -0.88,-0.18 c -0.2,-0.13 -0.36,-0.38 -0.48,-0.74 l -0.44,-2.12 -1.72,1.46 a 9.48,9.48 0 0 1 -3.74,1.7 c -0.69,0.15 -1.46,0.23 -2.3,0.23 -0.87,0 -1.69,-0.12 -2.45,-0.35 a 5.33,5.33 0 0 1 -3.34,-2.93 6.62,6.62 0 0 1 -0.49,-2.64 c 0,-0.88 0.25,-1.72 0.73,-2.53 a 6.33,6.33 0 0 1 2.35,-2.17 c 1.09,-0.63 2.5,-1.15 4.25,-1.54 1.74,-0.41 3.89,-0.65 6.42,-0.7 v -1.75 c 0,-1.73 -0.37,-3.03 -1.12,-3.91 -0.75,-0.9 -1.84,-1.34 -3.28,-1.34 -0.97,0 -1.78,0.12 -2.44,0.37 -0.64,0.23 -1.2,0.5 -1.7,0.81 l -1.22,0.82 c -0.34,0.23 -0.68,0.35 -1.02,0.35 -0.26,0 -0.49,-0.07 -0.68,-0.2 a 1.88,1.88 0 0 1 -0.48,-0.53 l -0.7,-1.25 z M 40.98,32.25 c 0,2.36 -0.38,4.53 -1.12,6.51 a 14.26,14.26 0 0 1 -8.1,8.4 c -1.9,0.78 -4.02,1.17 -6.34,1.17 -2.31,0 -4.42,-0.39 -6.33,-1.17 a 14.31,14.31 0 0 1 -8.08,-8.4 18.29,18.29 0 0 1 -1.12,-6.51 c 0,-2.36 0.38,-4.53 1.12,-6.5 0.75,-1.97 1.8,-3.67 3.17,-5.1 a 14.32,14.32 0 0 1 4.9,-3.34 c 1.92,-0.8 4.03,-1.19 6.34,-1.19 2.32,0 4.43,0.4 6.34,1.19 1.92,0.8 3.56,1.9 4.93,3.34 a 14.87,14.87 0 0 1 3.17,5.1 18.1,18.1 0 0 1 1.12,6.5 z m -4.38,0 c 0,-1.94 -0.26,-3.68 -0.8,-5.22 a 10.91,10.91 0 0 0 -2.24,-3.89 9.68,9.68 0 0 0 -3.52,-2.46 11.95,11.95 0 0 0 -4.62,-0.86 c -1.68,0 -3.21,0.28 -4.6,0.86 a 9.88,9.88 0 0 0 -3.54,2.46 10.91,10.91 0 0 0 -2.24,3.9 c -0.53,1.53 -0.8,3.27 -0.8,5.2 0,1.94 0.27,3.68 0.8,5.22 a 11.17,11.17 0 0 0 2.24,3.9 10.01,10.01 0 0 0 3.55,2.44 c 1.38,0.56 2.9,0.83 4.6,0.83 1.7,0 3.24,-0.27 4.61,-0.83 a 9.8,9.8 0 0 0 3.52,-2.44 11.17,11.17 0 0 0 2.25,-3.9 c 0.53,-1.54 0.8,-3.28 0.8,-5.21 z M 62.82,25.71 V 48 H 60.5 c -0.56,0 -0.9,-0.27 -1.05,-0.81 l -0.31,-2.4 a 12.45,12.45 0 0 1 -3.26,2.6 c -1.2,0.64 -2.58,0.96 -4.13,0.96 -1.22,0 -2.3,-0.2 -3.24,-0.6 a 6.52,6.52 0 0 1 -2.33,-1.7 7.37,7.37 0 0 1 -1.43,-2.67 c -0.3,-1.04 -0.46,-2.2 -0.46,-3.45 V 25.7 h 3.91 v 14.22 c 0,1.68 0.38,2.99 1.15,3.91 0.77,0.93 1.96,1.39 3.54,1.39 1.16,0 2.24,-0.27 3.23,-0.82 a 10.42,10.42 0 0 0 2.8,-2.28 V 25.7 h 3.91 z m 8.61,4.47 a 9.94,9.94 0 0 1 2.6,-3.56 5.64,5.64 0 0 1 3.76,-1.3 c 0.47,0 0.92,0.05 1.34,0.15 0.44,0.1 0.83,0.27 1.17,0.49 L 80,28.88 c -0.09,0.37 -0.3,0.55 -0.66,0.55 -0.2,0 -0.5,-0.04 -0.9,-0.13 a 6.21,6.21 0 0 0 -3.24,0.18 4.23,4.23 0 0 0 -1.47,0.92 c -0.42,0.4 -0.81,0.9 -1.17,1.5 -0.33,0.58 -0.64,1.26 -0.92,2.02 V 48 H 67.7 V 25.71 h 2.25 c 0.42,0 0.72,0.08 0.88,0.25 0.16,0.16 0.27,0.44 0.33,0.83 l 0.26,3.39 z M 132.59,16.48 122.75,48 h -3.82 l -7.99,-24.05 a 21.95,21.95 0 0 1 -0.42,-1.58 38.36,38.36 0 0 1 -0.44,1.58 L 102.05,48 H 98.22 L 88.4,16.47 h 3.54 c 0.38,0 0.7,0.1 0.95,0.29 0.26,0.2 0.43,0.43 0.5,0.73 l 6.52,21.9 0.28,1.28 0.29,1.46 0.3,-1.46 0.38,-1.27 7.41,-21.91 c 0.1,-0.25 0.26,-0.48 0.51,-0.69 0.27,-0.22 0.58,-0.33 0.95,-0.33 h 1.23 c 0.38,0 0.69,0.1 0.92,0.29 a 1.77,1.77 0 0 1 0.53,0.73 l 7.4,21.9 a 28.4,28.4 0 0 1 0.68,2.62 29.52,29.52 0 0 1 0.52,-2.61 l 6.54,-21.91 a 1.31,1.31 0 0 1 0.48,-0.7 c 0.27,-0.21 0.58,-0.32 0.95,-0.32 h 3.32 z m 9.35,8.88 c 1.63,0 3.1,0.27 4.4,0.82 a 9.43,9.43 0 0 1 5.46,5.94 c 0.5,1.4 0.74,2.98 0.74,4.73 0,1.76 -0.25,3.34 -0.74,4.75 a 9.43,9.43 0 0 1 -5.46,5.92 c -1.3,0.52 -2.77,0.79 -4.4,0.79 -1.64,0 -3.12,-0.27 -4.44,-0.8 a 9.42,9.42 0 0 1 -3.35,-2.3 c -0.92,-1 -1.63,-2.2 -2.13,-3.61 -0.49,-1.41 -0.73,-3 -0.73,-4.75 0,-1.75 0.24,-3.33 0.73,-4.73 0.5,-1.43 1.2,-2.64 2.13,-3.63 0.93,-1 2.04,-1.77 3.35,-2.31 1.32,-0.55 2.8,-0.82 4.44,-0.82 z m 0,19.89 c 2.2,0 3.84,-0.73 4.93,-2.2 1.08,-1.48 1.63,-3.54 1.63,-6.18 0,-2.66 -0.55,-4.72 -1.63,-6.2 -1.09,-1.49 -2.73,-2.23 -4.93,-2.23 -1.12,0 -2.09,0.2 -2.93,0.57 a 5.71,5.71 0 0 0 -2.06,1.65 c -0.55,0.72 -0.96,1.61 -1.24,2.67 -0.26,1.04 -0.4,2.22 -0.4,3.54 0,2.64 0.55,4.7 1.64,6.18 1.1,1.47 2.76,2.2 4.99,2.2 z m 17.97,-15.07 a 9.94,9.94 0 0 1 2.6,-3.56 5.64,5.64 0 0 1 3.76,-1.3 c 0.47,0 0.91,0.05 1.34,0.15 0.44,0.1 0.83,0.27 1.16,0.49 l -0.28,2.92 c -0.09,0.37 -0.31,0.55 -0.66,0.55 -0.2,0 -0.5,-0.04 -0.9,-0.13 a 6.2,6.2 0 0 0 -3.24,0.18 4.23,4.23 0 0 0 -1.47,0.92 c -0.43,0.4 -0.82,0.9 -1.17,1.5 a 13.1,13.1 0 0 0 -0.92,2.02 V 48 h -3.94 V 25.71 h 2.24 c 0.43,0 0.72,0.08 0.88,0.25 0.17,0.16 0.28,0.44 0.33,0.83 z M 174.95,15.59 V 48 h -3.92 V 15.6 h 3.92 z m 19.55,15.43 a 6.22,6.22 0 0 0 -2.38,-2.05 6.7,6.7 0 0 0 -2.86,-0.6 c -2.07,0 -3.66,0.75 -4.77,2.23 -1.12,1.48 -1.68,3.6 -1.68,6.33 0,1.46 0.13,2.7 0.38,3.74 a 7.29,7.29 0 0 0 1.1,2.56 4.35,4.35 0 0 0 1.78,1.45 c 0.7,0.3 1.5,0.46 2.4,0.46 1.29,0 2.41,-0.3 3.36,-0.88 a 9.6,9.6 0 0 0 2.67,-2.49 z m 3.91,-15.43 V 48 h -2.33 c -0.56,0 -0.9,-0.27 -1.06,-0.81 l -0.35,-2.71 a 12.13,12.13 0 0 1 -3.25,2.77 8.28,8.28 0 0 1 -4.23,1.06 7.31,7.31 0 0 1 -6.14,-2.9 c -0.73,-0.96 -1.3,-2.15 -1.69,-3.57 a 18.35,18.35 0 0 1 0.07,-9.48 11.29,11.29 0 0 1 1.89,-3.7 8.7,8.7 0 0 1 7.06,-3.34 7.96,7.96 0 0 1 6.12,2.62 V 15.59 Z M 46.61,70.71 V 93 H 42.7 V 70.71 Z m 0.84,-7 c 0,0.39 -0.08,0.75 -0.24,1.09 -0.15,0.32 -0.35,0.61 -0.62,0.88 -0.25,0.25 -0.55,0.44 -0.9,0.59 a 2.67,2.67 0 0 1 -2.16,0 2.9,2.9 0 0 1 -1.45,-1.47 2.67,2.67 0 0 1 0,-2.16 c 0.15,-0.35 0.35,-0.65 0.6,-0.9 0.25,-0.27 0.53,-0.47 0.85,-0.62 a 2.67,2.67 0 0 1 2.16,0 c 0.35,0.15 0.65,0.35 0.9,0.62 0.27,0.25 0.47,0.55 0.62,0.9 0.16,0.34 0.24,0.7 0.24,1.08 z m 7.97,10.24 c 0.49,-0.54 1,-1.04 1.54,-1.48 a 9.85,9.85 0 0 1 3.66,-1.84 8.96,8.96 0 0 1 5.43,0.35 c 0.94,0.4 1.72,0.97 2.33,1.71 0.63,0.74 1.11,1.62 1.43,2.67 0.32,1.04 0.49,2.19 0.49,3.45 V 93 H 66.36 V 78.81 c 0,-1.69 -0.4,-3 -1.17,-3.92 -0.76,-0.93 -1.93,-1.4 -3.5,-1.4 -1.15,0 -2.24,0.27 -3.25,0.83 -1,0.56 -1.92,1.31 -2.77,2.27 V 93 H 51.73 V 70.71 h 2.35 c 0.56,0 0.9,0.28 1.04,0.82 z m 57.7,3.3 c 0,2.36 -0.37,4.5 -1.11,6.44 a 14.3,14.3 0 0 1 -3.17,4.98 c -1.37,1.37 -3,2.45 -4.93,3.2 -1.9,0.76 -4.02,1.13 -6.33,1.13 H 85.8 V 61.47 h 11.77 c 2.31,0 4.42,0.39 6.33,1.15 a 13.8,13.8 0 0 1 8.1,8.18 17.75,17.75 0 0 1 1.12,6.45 z m -4.37,0 c 0,-1.94 -0.26,-3.67 -0.8,-5.2 a 10.94,10.94 0 0 0 -2.23,-3.87 9.57,9.57 0 0 0 -3.53,-2.42 12.23,12.23 0 0 0 -4.61,-0.83 h -7.5 v 24.62 h 7.5 c 1.7,0 3.24,-0.28 4.61,-0.84 a 9.7,9.7 0 0 0 3.53,-2.4 10.94,10.94 0 0 0 2.24,-3.87 c 0.53,-1.53 0.8,-3.26 0.8,-5.2 z m 19.8,5.72 c -1.8,0.06 -3.34,0.2 -4.62,0.44 -1.26,0.22 -2.3,0.51 -3.1,0.88 -0.8,0.36 -1.37,0.8 -1.74,1.3 -0.35,0.5 -0.53,1.05 -0.53,1.67 0,0.58 0.1,1.1 0.3,1.52 a 3,3 0 0 0 0.76,1.05 c 0.34,0.27 0.73,0.46 1.17,0.6 a 6.13,6.13 0 0 0 1.45,0.17 7.28,7.28 0 0 0 3.5,-0.81 11.95,11.95 0 0 0 2.82,-2.2 V 82.97 Z M 115.9,73.86 a 12.73,12.73 0 0 1 3.98,-2.66 c 1.43,-0.59 3,-0.88 4.73,-0.88 1.25,0 2.36,0.2 3.33,0.61 a 6.81,6.81 0 0 1 3.94,4.38 c 0.33,1.04 0.5,2.19 0.5,3.43 V 93 h -1.74 a 1.8,1.8 0 0 1 -0.88,-0.18 c -0.2,-0.13 -0.36,-0.38 -0.48,-0.74 l -0.44,-2.12 -1.72,1.46 a 9.48,9.48 0 0 1 -3.74,1.7 c -0.69,0.15 -1.46,0.23 -2.3,0.23 -0.87,0 -1.69,-0.12 -2.45,-0.35 a 5.34,5.34 0 0 1 -3.34,-2.93 6.64,6.64 0 0 1 -0.49,-2.64 c 0,-0.88 0.25,-1.72 0.73,-2.53 a 6.33,6.33 0 0 1 2.35,-2.17 c 1.09,-0.63 2.5,-1.15 4.25,-1.54 1.75,-0.41 3.89,-0.65 6.42,-0.7 v -1.75 c 0,-1.73 -0.37,-3.03 -1.12,-3.91 -0.75,-0.9 -1.84,-1.34 -3.28,-1.34 -0.97,0 -1.78,0.12 -2.44,0.37 -0.64,0.23 -1.2,0.5 -1.7,0.81 l -1.23,0.82 c -0.33,0.23 -0.67,0.35 -1,0.35 -0.27,0 -0.5,-0.07 -0.69,-0.2 a 2.1,2.1 0 0 1 -0.48,-0.53 l -0.7,-1.25 z m 27.67,19.5 c -1.76,0 -3.12,-0.5 -4.07,-1.48 -0.94,-0.98 -1.41,-2.4 -1.41,-4.25 V 74 h -2.68 a 0.9,0.9 0 0 1 -0.6,-0.2 c -0.16,-0.14 -0.24,-0.36 -0.24,-0.66 v -1.56 l 3.65,-0.46 0.9,-6.89 c 0.05,-0.22 0.14,-0.4 0.29,-0.52 a 0.88,0.88 0 0 1 0.62,-0.22 H 142 v 7.67 h 6.44 V 74 H 142 v 13.38 c 0,0.94 0.22,1.63 0.68,2.09 0.45,0.45 1.04,0.68 1.76,0.68 a 3.21,3.21 0 0 0 1.85,-0.53 l 0.55,-0.35 c 0.16,-0.12 0.3,-0.18 0.41,-0.18 0.2,0 0.4,0.13 0.55,0.38 l 1.15,1.87 a 7.45,7.45 0 0 1 -2.44,1.5 8.53,8.53 0 0 1 -2.95,0.52 z m 19.68,-10.4 c -1.8,0.07 -3.34,0.21 -4.62,0.45 -1.26,0.22 -2.3,0.51 -3.1,0.88 -0.8,0.36 -1.37,0.8 -1.74,1.3 -0.35,0.5 -0.53,1.05 -0.53,1.67 0,0.58 0.1,1.1 0.3,1.52 a 2.9,2.9 0 0 0 0.76,1.05 c 0.34,0.27 0.73,0.46 1.17,0.6 a 6.13,6.13 0 0 0 1.45,0.17 7.3,7.3 0 0 0 3.5,-0.81 12.04,12.04 0 0 0 2.82,-2.2 v -4.62 z m -12.65,-9.1 a 12.72,12.72 0 0 1 3.99,-2.66 c 1.42,-0.59 3,-0.88 4.72,-0.88 1.25,0 2.36,0.2 3.33,0.61 a 6.81,6.81 0 0 1 3.94,4.38 c 0.33,1.04 0.5,2.19 0.5,3.43 V 93 h -1.74 a 1.8,1.8 0 0 1 -0.88,-0.18 c -0.2,-0.13 -0.36,-0.38 -0.48,-0.74 l -0.44,-2.12 -1.72,1.46 a 9.48,9.48 0 0 1 -3.74,1.7 c -0.69,0.15 -1.46,0.23 -2.3,0.23 -0.87,0 -1.69,-0.12 -2.45,-0.35 a 5.33,5.33 0 0 1 -3.34,-2.93 6.62,6.62 0 0 1 -0.49,-2.64 c 0,-0.88 0.25,-1.72 0.73,-2.53 a 6.33,6.33 0 0 1 2.35,-2.17 c 1.09,-0.63 2.5,-1.15 4.25,-1.54 1.74,-0.41 3.89,-0.65 6.42,-0.7 v -1.75 c 0,-1.73 -0.37,-3.03 -1.12,-3.91 -0.75,-0.9 -1.84,-1.34 -3.28,-1.34 -0.97,0 -1.78,0.12 -2.44,0.37 -0.64,0.23 -1.2,0.5 -1.7,0.81 l -1.22,0.82 c -0.34,0.23 -0.68,0.35 -1.02,0.35 -0.26,0 -0.49,-0.07 -0.68,-0.2 a 1.88,1.88 0 0 1 -0.48,-0.53 l -0.7,-1.25 z M 40.98,32.25 c 0,2.36 -0.38,4.53 -1.12,6.51 a 14.26,14.26 0 0 1 -8.1,8.4 c -1.9,0.78 -4.02,1.17 -6.34,1.17 -2.31,0 -4.42,-0.39 -6.33,-1.17 a 14.31,14.31 0 0 1 -8.08,-8.4 18.29,18.29 0 0 1 -1.12,-6.51 c 0,-2.36 0.38,-4.53 1.12,-6.5 0.75,-1.97 1.8,-3.67 3.17,-5.1 a 14.32,14.32 0 0 1 4.9,-3.34 c 1.92,-0.8 4.03,-1.19 6.34,-1.19 2.32,0 4.43,0.4 6.34,1.19 1.92,0.8 3.56,1.9 4.93,3.34 a 14.87,14.87 0 0 1 3.17,5.1 18.1,18.1 0 0 1 1.12,6.5 z m -4.38,0 c 0,-1.94 -0.26,-3.68 -0.8,-5.22 a 10.91,10.91 0 0 0 -2.24,-3.89 9.68,9.68 0 0 0 -3.52,-2.46 11.95,11.95 0 0 0 -4.62,-0.86 c -1.68,0 -3.21,0.28 -4.6,0.86 a 9.88,9.88 0 0 0 -3.54,2.46 10.91,10.91 0 0 0 -2.24,3.9 c -0.53,1.53 -0.8,3.27 -0.8,5.2 0,1.94 0.27,3.68 0.8,5.22 a 11.17,11.17 0 0 0 2.24,3.9 10.01,10.01 0 0 0 3.55,2.44 c 1.38,0.56 2.9,0.83 4.6,0.83 1.7,0 3.24,-0.27 4.61,-0.83 a 9.8,9.8 0 0 0 3.52,-2.44 11.17,11.17 0 0 0 2.25,-3.9 c 0.53,-1.54 0.8,-3.28 0.8,-5.21 z M 62.82,25.71 V 48 H 60.5 c -0.56,0 -0.9,-0.27 -1.05,-0.81 l -0.31,-2.4 a 12.45,12.45 0 0 1 -3.26,2.6 c -1.2,0.64 -2.58,0.96 -4.13,0.96 -1.22,0 -2.3,-0.2 -3.24,-0.6 a 6.52,6.52 0 0 1 -2.33,-1.7 7.37,7.37 0 0 1 -1.43,-2.67 c -0.3,-1.04 -0.46,-2.2 -0.46,-3.45 V 25.7 h 3.91 v 14.22 c 0,1.68 0.38,2.99 1.15,3.91 0.77,0.93 1.96,1.39 3.54,1.39 1.16,0 2.24,-0.27 3.23,-0.82 a 10.42,10.42 0 0 0 2.8,-2.28 V 25.7 h 3.91 z m 8.61,4.47 a 9.94,9.94 0 0 1 2.6,-3.56 5.64,5.64 0 0 1 3.76,-1.3 c 0.47,0 0.92,0.05 1.34,0.15 0.44,0.1 0.83,0.27 1.17,0.49 L 80,28.88 c -0.09,0.37 -0.3,0.55 -0.66,0.55 -0.2,0 -0.5,-0.04 -0.9,-0.13 a 6.21,6.21 0 0 0 -3.24,0.18 4.23,4.23 0 0 0 -1.47,0.92 c -0.42,0.4 -0.81,0.9 -1.17,1.5 -0.33,0.58 -0.64,1.26 -0.92,2.02 V 48 H 67.7 V 25.71 h 2.25 c 0.42,0 0.72,0.08 0.88,0.25 0.16,0.16 0.27,0.44 0.33,0.83 l 0.26,3.39 z M 132.59,16.48 122.75,48 h -3.82 l -7.99,-24.05 a 21.95,21.95 0 0 1 -0.42,-1.58 38.36,38.36 0 0 1 -0.44,1.58 L 102.05,48 H 98.22 L 88.4,16.47 h 3.54 c 0.38,0 0.7,0.1 0.95,0.29 0.26,0.2 0.43,0.43 0.5,0.73 l 6.52,21.9 0.28,1.28 0.29,1.46 0.3,-1.46 0.38,-1.27 7.41,-21.91 c 0.1,-0.25 0.26,-0.48 0.51,-0.69 0.27,-0.22 0.58,-0.33 0.95,-0.33 h 1.23 c 0.38,0 0.69,0.1 0.92,0.29 a 1.77,1.77 0 0 1 0.53,0.73 l 7.4,21.9 a 28.4,28.4 0 0 1 0.68,2.62 29.52,29.52 0 0 1 0.52,-2.61 l 6.54,-21.91 a 1.31,1.31 0 0 1 0.48,-0.7 c 0.27,-0.21 0.58,-0.32 0.95,-0.32 h 3.32 z m 9.35,8.88 c 1.63,0 3.1,0.27 4.4,0.82 a 9.43,9.43 0 0 1 5.46,5.94 c 0.5,1.4 0.74,2.98 0.74,4.73 0,1.76 -0.25,3.34 -0.74,4.75 a 9.43,9.43 0 0 1 -5.46,5.92 c -1.3,0.52 -2.77,0.79 -4.4,0.79 -1.64,0 -3.12,-0.27 -4.44,-0.8 a 9.42,9.42 0 0 1 -3.35,-2.3 c -0.92,-1 -1.63,-2.2 -2.13,-3.61 -0.49,-1.41 -0.73,-3 -0.73,-4.75 0,-1.75 0.24,-3.33 0.73,-4.73 0.5,-1.43 1.2,-2.64 2.13,-3.63 0.93,-1 2.04,-1.77 3.35,-2.31 1.32,-0.55 2.8,-0.82 4.44,-0.82 z m 0,19.89 c 2.2,0 3.84,-0.73 4.93,-2.2 1.08,-1.48 1.63,-3.54 1.63,-6.18 0,-2.66 -0.55,-4.72 -1.63,-6.2 -1.09,-1.49 -2.73,-2.23 -4.93,-2.23 -1.12,0 -2.09,0.2 -2.93,0.57 a 5.71,5.71 0 0 0 -2.06,1.65 c -0.55,0.72 -0.96,1.61 -1.24,2.67 -0.26,1.04 -0.4,2.22 -0.4,3.54 0,2.64 0.55,4.7 1.64,6.18 1.1,1.47 2.76,2.2 4.99,2.2 z m 17.97,-15.07 a 9.94,9.94 0 0 1 2.6,-3.56 5.64,5.64 0 0 1 3.76,-1.3 c 0.47,0 0.91,0.05 1.34,0.15 0.44,0.1 0.83,0.27 1.16,0.49 l -0.28,2.92 c -0.09,0.37 -0.31,0.55 -0.66,0.55 -0.2,0 -0.5,-0.04 -0.9,-0.13 a 6.2,6.2 0 0 0 -3.24,0.18 4.23,4.23 0 0 0 -1.47,0.92 c -0.43,0.4 -0.82,0.9 -1.17,1.5 a 13.1,13.1 0 0 0 -0.92,2.02 V 48 h -3.94 V 25.71 h 2.24 c 0.43,0 0.72,0.08 0.88,0.25 0.17,0.16 0.28,0.44 0.33,0.83 z M 174.95,15.59 V 48 h -3.92 V 15.6 h 3.92 z m 19.55,15.43 a 6.22,6.22 0 0 0 -2.38,-2.05 6.7,6.7 0 0 0 -2.86,-0.6 c -2.07,0 -3.66,0.75 -4.77,2.23 -1.12,1.48 -1.68,3.6 -1.68,6.33 0,1.46 0.13,2.7 0.38,3.74 a 7.29,7.29 0 0 0 1.1,2.56 4.35,4.35 0 0 0 1.78,1.45 c 0.7,0.3 1.5,0.46 2.4,0.46 1.29,0 2.41,-0.3 3.36,-0.88 a 9.6,9.6 0 0 0 2.67,-2.49 z m 3.91,-15.43 V 48 h -2.33 c -0.56,0 -0.9,-0.27 -1.06,-0.81 l -0.35,-2.71 a 12.13,12.13 0 0 1 -3.25,2.77 8.28,8.28 0 0 1 -4.23,1.06 7.31,7.31 0 0 1 -6.14,-2.9 c -0.73,-0.96 -1.3,-2.15 -1.69,-3.57 a 18.35,18.35 0 0 1 0.07,-9.48 11.29,11.29 0 0 1 1.89,-3.7 8.7,8.7 0 0 1 7.06,-3.34 7.96,7.96 0 0 1 6.12,2.62 V 15.59 Z M 46.61,70.71 V 93 H 42.7 V 70.71 Z m 0.84,-7 c 0,0.39 -0.08,0.75 -0.24,1.09 -0.15,0.32 -0.35,0.61 -0.62,0.88 -0.25,0.25 -0.55,0.44 -0.9,0.59 a 2.67,2.67 0 0 1 -2.16,0 2.9,2.9 0 0 1 -1.45,-1.47 2.67,2.67 0 0 1 0,-2.16 c 0.15,-0.35 0.35,-0.65 0.6,-0.9 0.25,-0.27 0.53,-0.47 0.85,-0.62 a 2.67,2.67 0 0 1 2.16,0 c 0.35,0.15 0.65,0.35 0.9,0.62 0.27,0.25 0.47,0.55 0.62,0.9 0.16,0.34 0.24,0.7 0.24,1.08 z m 7.97,10.24 c 0.49,-0.54 1,-1.04 1.54,-1.48 a 9.85,9.85 0 0 1 3.66,-1.84 8.96,8.96 0 0 1 5.43,0.35 c 0.94,0.4 1.72,0.97 2.33,1.71 0.63,0.74 1.11,1.62 1.43,2.67 0.32,1.04 0.49,2.19 0.49,3.45 V 93 H 66.36 V 78.81 c 0,-1.69 -0.4,-3 -1.17,-3.92 -0.76,-0.93 -1.93,-1.4 -3.5,-1.4 -1.15,0 -2.24,0.27 -3.25,0.83 -1,0.56 -1.92,1.31 -2.77,2.27 V 93 H 51.73 V 70.71 h 2.35 c 0.56,0 0.9,0.28 1.04,0.82 z m 57.7,3.3 c 0,2.36 -0.37,4.5 -1.11,6.44 a 14.3,14.3 0 0 1 -3.17,4.98 c -1.37,1.37 -3,2.45 -4.93,3.2 -1.9,0.76 -4.02,1.13 -6.33,1.13 H 85.8 V 61.47 h 11.77 c 2.31,0 4.42,0.39 6.33,1.15 a 13.8,13.8 0 0 1 8.1,8.18 17.75,17.75 0 0 1 1.12,6.45 z m -4.37,0 c 0,-1.94 -0.26,-3.67 -0.8,-5.2 a 10.94,10.94 0 0 0 -2.23,-3.87 9.57,9.57 0 0 0 -3.53,-2.42 12.23,12.23 0 0 0 -4.61,-0.83 h -7.5 v 24.62 h 7.5 c 1.7,0 3.24,-0.28 4.61,-0.84 a 9.7,9.7 0 0 0 3.53,-2.4 10.94,10.94 0 0 0 2.24,-3.87 c 0.53,-1.53 0.8,-3.26 0.8,-5.2 z m 19.8,5.72 c -1.8,0.06 -3.34,0.2 -4.62,0.44 -1.26,0.22 -2.3,0.51 -3.1,0.88 -0.8,0.36 -1.37,0.8 -1.74,1.3 -0.35,0.5 -0.53,1.05 -0.53,1.67 0,0.58 0.1,1.1 0.3,1.52 a 3,3 0 0 0 0.76,1.05 c 0.34,0.27 0.73,0.46 1.17,0.6 a 6.13,6.13 0 0 0 1.45,0.17 7.28,7.28 0 0 0 3.5,-0.81 11.95,11.95 0 0 0 2.82,-2.2 V 82.97 Z M 115.9,73.86 a 12.73,12.73 0 0 1 3.98,-2.66 c 1.43,-0.59 3,-0.88 4.73,-0.88 1.25,0 2.36,0.2 3.33,0.61 a 6.81,6.81 0 0 1 3.94,4.38 c 0.33,1.04 0.5,2.19 0.5,3.43 V 93 h -1.74 a 1.8,1.8 0 0 1 -0.88,-0.18 c -0.2,-0.13 -0.36,-0.38 -0.48,-0.74 l -0.44,-2.12 -1.72,1.46 a 9.48,9.48 0 0 1 -3.74,1.7 c -0.69,0.15 -1.46,0.23 -2.3,0.23 -0.87,0 -1.69,-0.12 -2.45,-0.35 a 5.34,5.34 0 0 1 -3.34,-2.93 6.64,6.64 0 0 1 -0.49,-2.64 c 0,-0.88 0.25,-1.72 0.73,-2.53 a 6.33,6.33 0 0 1 2.35,-2.17 c 1.09,-0.63 2.5,-1.15 4.25,-1.54 1.75,-0.41 3.89,-0.65 6.42,-0.7 v -1.75 c 0,-1.73 -0.37,-3.03 -1.12,-3.91 -0.75,-0.9 -1.84,-1.34 -3.28,-1.34 -0.97,0 -1.78,0.12 -2.44,0.37 -0.64,0.23 -1.2,0.5 -1.7,0.81 l -1.23,0.82 c -0.33,0.23 -0.67,0.35 -1,0.35 -0.27,0 -0.5,-0.07 -0.69,-0.2 a 2.1,2.1 0 0 1 -0.48,-0.53 l -0.7,-1.25 z m 27.67,19.5 c -1.76,0 -3.12,-0.5 -4.07,-1.48 -0.94,-0.98 -1.41,-2.4 -1.41,-4.25 V 74 h -2.68 a 0.9,0.9 0 0 1 -0.6,-0.2 c -0.16,-0.14 -0.24,-0.36 -0.24,-0.66 v -1.56 l 3.65,-0.46 0.9,-6.89 c 0.05,-0.22 0.14,-0.4 0.29,-0.52 a 0.88,0.88 0 0 1 0.62,-0.22 H 142 v 7.67 h 6.44 V 74 H 142 v 13.38 c 0,0.94 0.22,1.63 0.68,2.09 0.45,0.45 1.04,0.68 1.76,0.68 a 3.21,3.21 0 0 0 1.85,-0.53 l 0.55,-0.35 c 0.16,-0.12 0.3,-0.18 0.41,-0.18 0.2,0 0.4,0.13 0.55,0.38 l 1.15,1.87 a 7.45,7.45 0 0 1 -2.44,1.5 8.53,8.53 0 0 1 -2.95,0.52 z m 19.68,-10.4 c -1.8,0.07 -3.34,0.21 -4.62,0.45 -1.26,0.22 -2.3,0.51 -3.1,0.88 -0.8,0.36 -1.37,0.8 -1.74,1.3 -0.35,0.5 -0.53,1.05 -0.53,1.67 0,0.58 0.1,1.1 0.3,1.52 a 2.9,2.9 0 0 0 0.76,1.05 c 0.34,0.27 0.73,0.46 1.17,0.6 a 6.13,6.13 0 0 0 1.45,0.17 7.3,7.3 0 0 0 3.5,-0.81 12.04,12.04 0 0 0 2.82,-2.2 v -4.62 z m -12.65,-9.1 a 12.72,12.72 0 0 1 3.99,-2.66 c 1.42,-0.59 3,-0.88 4.72,-0.88 1.25,0 2.36,0.2 3.33,0.61 a 6.81,6.81 0 0 1 3.94,4.38 c 0.33,1.04 0.5,2.19 0.5,3.43 V 93 h -1.74 a 1.8,1.8 0 0 1 -0.88,-0.18 c -0.2,-0.13 -0.36,-0.38 -0.48,-0.74 l -0.44,-2.12 -1.72,1.46 a 9.48,9.48 0 0 1 -3.74,1.7 c -0.69,0.15 -1.46,0.23 -2.3,0.23 -0.87,0 -1.69,-0.12 -2.45,-0.35 a 5.33,5.33 0 0 1 -3.34,-2.93 6.62,6.62 0 0 1 -0.49,-2.64 c 0,-0.88 0.25,-1.72 0.73,-2.53 a 6.33,6.33 0 0 1 2.35,-2.17 c 1.09,-0.63 2.5,-1.15 4.25,-1.54 1.74,-0.41 3.89,-0.65 6.42,-0.7 v -1.75 c 0,-1.73 -0.37,-3.03 -1.12,-3.91 -0.75,-0.9 -1.84,-1.34 -3.28,-1.34 -0.97,0 -1.78,0.12 -2.44,0.37 -0.64,0.23 -1.2,0.5 -1.7,0.81 l -1.22,0.82 c -0.34,0.23 -0.68,0.35 -1.02,0.35 -0.26,0 -0.49,-0.07 -0.68,-0.2 a 1.88,1.88 0 0 1 -0.48,-0.53 l -0.7,-1.25 z"
           fill="#ffffff"
           id="path4" />
        <path
           fill="#d42b21"
           d="M 0,106.79 H 210 V 120 H 0 Z"
           id="path6" />
      </g>
      <defs
         id="defs13">
        <clipPath
           id="clip0">
          <path
             fill="#ffffff"
             d="M 0,0 H 210 V 120 H 0 Z"
             id="path10" />
        </clipPath>
      </defs>
    </svg>
  </g>
  <a
     href="https://ourworldindata.org/grapher/ghg-emissions-seafood?country=Bivalves+%28farmed%29~Bivalves+%28wild%29~Carp+%28farmed%29~Cod%2C+haddock+%28wild%29~Catfish+%28farmed%29~Flounder+%28wild%29~Herring%2C+sardines+%28wild%29~Jack+fish+%28wild%29~Lobster+%28wild%29~Milkfish+%28farmed%29~Other+freshwater+fish+%28farmed%29~Other+marine+fish+%28farmed%29~Tuna+%28wild%29~Trout+%28farmed%29~Tilapia+%28farmed%29~Squid+%28wild%29~Silver%2Fbighead+%28farmed%29~Shrimp+%28wild%29~Shrimp+%28farmed%29~Seaweed+%28farmed%29~Salmon%2C+trout+%28wild%29~Salmon+%28farmed%29~Redfish%2C+bass+%28wild%29~Chicken"
     style="font-family:'Playfair Display', Georgia, 'Times New Roman', serif"
     target="_blank"
     rel="noopener"
     id="a23">
    <text
       font-size="25.2px"
       x="15"
       y="35.200001"
       fill="#555555"
       id="text21"><tspan
         x="15"
         y="35.16"
         id="tspan19">Gaz à effet de serre par kilo de fruits de mer</tspan></text>
  </a>
  <text
     font-size="14.4px"
     x="15"
     y="55.700001"
     fill="#666666"
     id="text31"><tspan
       x="15"
       y="55.720001"
       id="tspan25"
       rotate="0 0 0 0 0 0 0 0 0 0 0 0 0 0 0 0 0 0 0 0 0 0 0 0 0 0 0 0 0 0 0 0 0 0 0 0 0 0 0 0 0 0 0 0 0 0 0 0 0 0 0 0 0 0 0 0 0 0 0 0 0 0 0 0 0 0 0 0 0 0 0 0 0 0 0 0 0 0 0 0 0 0 0 0 0 0 0 0 0 0 0 0 0 0 0 0 0 0 0 0 0 0 0 0 0 0 0 0 0 0 0 0 0 0 0 0 0 0 0 0 0 0">Basé sur une meta-analyse de 1690 élevages de poissons et 1000 enregistrements uniques de pêche. Les impacts son donnés par</tspan><tspan
       x="15"
       y="73"
       id="tspan27">kilogramme de poids comestible. Les poissons d'élevage sont en rouge et les poissons sauvages sont en bleu. Le poulet - la viande</tspan><tspan
       x="15"
       y="90.279999"
       id="tspan29">avec le moins d'impact - est en jaune pour comparaison.</tspan></text>
  <g
     class="DiscreteBarChart"
     id="g253">
    <rect
       x="15"
       y="107.8"
       width="810"
       height="411.29999999999995"
       opacity="0"
       fill="rgba(255,255,255,0)"
       id="rect35" />
    <g
       class="HorizontalAxis"
       id="g47">
      <text
         x="208.86"
         y="519.0999999999999"
         fill="#666"
         text-anchor="start"
         font-size="16.2"
         id="text37">0 kg</text>
      <text
         x="347.7"
         y="519.0999999999999"
         fill="#666"
         text-anchor="middle"
         font-size="16.2"
         id="text39">5 kg</text>
      <text
         x="486.5"
         y="519.0999999999999"
         fill="#666"
         text-anchor="middle"
         font-size="16.2"
         id="text41">10 kg</text>
      <text
         x="625.4"
         y="519.0999999999999"
         fill="#666"
         text-anchor="middle"
         font-size="16.2"
         id="text43">15 kg</text>
      <text
         x="772.89"
         y="519.0999999999999"
         fill="#666"
         text-anchor="end"
         font-size="16.2"
         id="text45">20 kg</text>
    </g>
    <g
       class="AxisGridLines verticalLines"
       id="g59">
      <line
         x1="208.9"
         y1="497.90"
         x2="208.9"
         y2="107.80"
         stroke="#999"
         id="line49" />
      <line
         x1="347.7"
         y1="497.90"
         x2="347.7"
         y2="107.80"
         stroke="#ddd"
         stroke-dasharray="3,2"
         id="line51" />
      <line
         x1="486.5"
         y1="497.90"
         x2="486.5"
         y2="107.80"
         stroke="#ddd"
         stroke-dasharray="3,2"
         id="line53" />
      <line
         x1="625.4"
         y1="497.90"
         x2="625.4"
         y2="107.80"
         stroke="#ddd"
         stroke-dasharray="3,2"
         id="line55" />
      <line
         x1="764.2"
         y1="497.90"
         x2="764.2"
         y2="107.80"
         stroke="#ddd"
         stroke-dasharray="3,2"
         id="line57" />
    </g>
    <g
       class="bar"
       transform="translate(0, 114.30166666666666)"
       id="g67">
      <text
         x="0"
         y="0"
         transform="translate(203.9)"
         fill="#555555"
         dominant-baseline="middle"
         text-anchor="end"
         font-size="13.5px"
         font-weight="700"
         id="text61">Sole (sauvage)</text>
      <rect
         x="0"
         y="0"
         transform="translate(208.9, -6.501666666666666)"
         width="564"
         height="13.003333333333332"
         fill="#3c4e66"
         opacity="0.85"
         style="transition:height 200ms ease"
         id="rect63" />
      <text
         x="0"
         y="0"
         transform="translate(777.9, 0)"
         fill="#666"
         dominant-baseline="middle"
         text-anchor="start"
         font-size="13.5"
         font-weight="400"
         id="text65">20.31 kg</text>
    </g>
    <g
       class="bar"
       transform="translate(0, 130.55583333333334)"
       id="g75">
      <text
         x="0"
         y="0"
         transform="translate(203.9)"
         fill="#555555"
         dominant-baseline="middle"
         text-anchor="end"
         font-size="13.5px"
         font-weight="700"
         id="text69">Homard (sauvage)</text>
      <rect
         x="0"
         y="0"
         transform="translate(208.9, -6.501666666666666)"
         width="539.9"
         height="13.003333333333332"
         fill="#3c4e66"
         opacity="0.85"
         style="transition:height 200ms ease"
         id="rect71" />
      <text
         x="0"
         y="0"
         transform="translate(753.8, 0)"
         fill="#666"
         dominant-baseline="middle"
         text-anchor="start"
         font-size="13.5"
         font-weight="400"
         id="text73">19.44 kg</text>
    </g>
    <g
       class="bar"
       transform="translate(0, 146.81)"
       id="g83">
      <text
         x="0"
         y="0"
         transform="translate(203.9)"
         fill="#555555"
         dominant-baseline="middle"
         text-anchor="end"
         font-size="13.5px"
         font-weight="700"
         id="text77">Autre poisson eau douce (élevage)</text>
      <rect
         x="0"
         y="0"
         transform="translate(208.9, -6.501666666666666)"
         width="524.9"
         height="13.003333333333332"
         fill="#a70e24"
         opacity="0.85"
         style="transition:height 200ms ease"
         id="rect79" />
      <text
         x="0"
         y="0"
         transform="translate(738.8, 0)"
         fill="#666"
         dominant-baseline="middle"
         text-anchor="start"
         font-size="13.5"
         font-weight="400"
         id="text81">18.91 kg</text>
    </g>
    <g
       class="bar"
       transform="translate(0, 163.06416666666667)"
       id="g91">
      <text
         x="0"
         y="0"
         transform="translate(203.9)"
         fill="#555555"
         dominant-baseline="middle"
         text-anchor="end"
         font-size="13.5px"
         font-weight="700"
         id="text85">Crevette (sauvage)</text>
      <rect
         x="0"
         y="0"
         transform="translate(208.9, -6.501666666666666)"
         width="332"
         height="13.003333333333332"
         fill="#3c4e66"
         opacity="0.85"
         style="transition:height 200ms ease"
         id="rect87" />
      <text
         x="0"
         y="0"
         transform="translate(545.9, 0)"
         fill="#666"
         dominant-baseline="middle"
         text-anchor="start"
         font-size="13.5"
         font-weight="400"
         id="text89">11.96 kg</text>
    </g>
    <g
       class="bar"
       transform="translate(0, 179.31833333333333)"
       id="g99">
      <text
         x="0"
         y="0"
         transform="translate(203.9)"
         fill="#555555"
         dominant-baseline="middle"
         text-anchor="end"
         font-size="13.5px"
         font-weight="700"
         id="text93">Autres poissons de mer (élevage)</text>
      <rect
         x="0"
         y="0"
         transform="translate(208.9, -6.501666666666666)"
         width="321.9"
         height="13.003333333333332"
         fill="#a70e24"
         opacity="0.85"
         style="transition:height 200ms ease"
         id="rect95" />
      <text
         x="0"
         y="0"
         transform="translate(535.8, 0)"
         fill="#666"
         dominant-baseline="middle"
         text-anchor="start"
         font-size="13.5"
         font-weight="400"
         id="text97">11.6 kg</text>
    </g>
    <g
       class="bar"
       transform="translate(0, 195.5725)"
       id="g107">
      <text
         x="0"
         y="0"
         transform="translate(203.9)"
         fill="#555555"
         dominant-baseline="middle"
         text-anchor="end"
         font-size="13.5px"
         font-weight="700"
         id="text101">Bivalves (sauvage)</text>
      <rect
         x="0"
         y="0"
         transform="translate(208.9, -6.501666666666666)"
         width="316.5"
         height="13.003333333333332"
         fill="#3c4e66"
         opacity="0.85"
         style="transition:height 200ms ease"
         id="rect103" />
      <text
         x="0"
         y="0"
         transform="translate(530.4, 0)"
         fill="#666"
         dominant-baseline="middle"
         text-anchor="start"
         font-size="13.5"
         font-weight="400"
         id="text105">11.4 kg</text>
    </g>
    <g
       class="bar"
       transform="translate(0, 211.82666666666665)"
       id="g115">
      <text
         x="0"
         y="0"
         transform="translate(203.9)"
         fill="#555555"
         dominant-baseline="middle"
         text-anchor="end"
         font-size="13.5px"
         font-weight="700"
         id="text109">Tilapia (élevage)</text>
      <rect
         x="0"
         y="0"
         transform="translate(208.9, -6.501666666666666)"
         width="296.4"
         height="13.003333333333332"
         fill="#a70e24"
         opacity="0.85"
         style="transition:height 200ms ease"
         id="rect111" />
      <text
         x="0"
         y="0"
         transform="translate(510.3, 0)"
         fill="#666"
         dominant-baseline="middle"
         text-anchor="start"
         font-size="13.5"
         font-weight="400"
         id="text113">10.68 kg</text>
    </g>
    <g
       class="bar"
       transform="translate(0, 228.08083333333332)"
       id="g123">
      <text
         x="0"
         y="0"
         transform="translate(203.9)"
         fill="#555555"
         dominant-baseline="middle"
         text-anchor="end"
         font-size="13.5px"
         font-weight="700"
         id="text117">Bar (sauvage)</text>
      <rect
         x="0"
         y="0"
         transform="translate(208.9, -6.501666666666666)"
         width="275.29999999999995"
         height="13.003333333333332"
         fill="#3c4e66"
         opacity="0.85"
         style="transition:height 200ms ease"
         id="rect119" />
      <text
         x="0"
         y="0"
         transform="translate(489.2, 0)"
         fill="#666"
         dominant-baseline="middle"
         text-anchor="start"
         font-size="13.5"
         font-weight="400"
         id="text121">9.91 kg</text>
    </g>
    <g
       class="bar"
       transform="translate(0, 244.33499999999998)"
       id="g131">
      <text
         x="0"
         y="0"
         transform="translate(203.9)"
         fill="#555555"
         dominant-baseline="middle"
         text-anchor="end"
         font-size="13.5px"
         font-weight="700"
         id="text125">Carangue (sauvage)</text>
      <rect
         x="0"
         y="0"
         transform="translate(208.9, -6.501666666666666)"
         width="268.29999999999995"
         height="13.003333333333332"
         fill="#3c4e66"
         opacity="0.85"
         style="transition:height 200ms ease"
         id="rect127" />
      <text
         x="0"
         y="0"
         transform="translate(482.2, 0)"
         fill="#666"
         dominant-baseline="middle"
         text-anchor="start"
         font-size="13.5"
         font-weight="400"
         id="text129">9.67 kg</text>
    </g>
    <g
       class="bar"
       transform="translate(0, 260.58916666666664)"
       id="g139">
      <text
         x="0"
         y="0"
         transform="translate(203.9)"
         fill="#555555"
         dominant-baseline="middle"
         text-anchor="end"
         font-size="13.5px"
         font-weight="700"
         id="text133">Crevette (élevage)</text>
      <rect
         x="0"
         y="0"
         transform="translate(208.9, -6.501666666666666)"
         width="261.70000000000005"
         height="13.003333333333332"
         fill="#a70e24"
         opacity="0.85"
         style="transition:height 200ms ease"
         id="rect135" />
      <text
         x="0"
         y="0"
         transform="translate(475.6, 0)"
         fill="#666"
         dominant-baseline="middle"
         text-anchor="start"
         font-size="13.5"
         font-weight="400"
         id="text137">9.43 kg</text>
    </g>
    <g
       class="bar"
       transform="translate(0, 276.8433333333333)"
       id="g147">
      <text
         x="0"
         y="0"
         transform="translate(203.9)"
         fill="#555555"
         dominant-baseline="middle"
         text-anchor="end"
         font-size="13.5px"
         font-weight="700"
         id="text141">Poulet</text>
      <rect
         x="0"
         y="0"
         transform="translate(208.9, -6.501666666666666)"
         width="231.4"
         height="13.003333333333332"
         fill="#bc8e5a"
         opacity="0.85"
         style="transition:height 200ms ease"
         id="rect143" />
      <text
         x="0"
         y="0"
         transform="translate(445.3, 0)"
         fill="#666"
         dominant-baseline="middle"
         text-anchor="start"
         font-size="13.5"
         font-weight="400"
         id="text145">8.34 kg</text>
    </g>
    <g
       class="bar"
       transform="translate(0, 293.09749999999997)"
       id="g155">
      <text
         x="0"
         y="0"
         transform="translate(203.9)"
         fill="#555555"
         dominant-baseline="middle"
         text-anchor="end"
         font-size="13.5px"
         font-weight="700"
         id="text149">Calamar (sauvage)</text>
      <rect
         x="0"
         y="0"
         transform="translate(208.9, -6.501666666666666)"
         width="227.20000000000002"
         height="13.003333333333332"
         fill="#3c4e66"
         opacity="0.85"
         style="transition:height 200ms ease"
         id="rect151" />
      <text
         x="0"
         y="0"
         transform="translate(441.1, 0)"
         fill="#666"
         dominant-baseline="middle"
         text-anchor="start"
         font-size="13.5"
         font-weight="400"
         id="text153">8.18 kg</text>
    </g>
    <g
       class="bar"
       transform="translate(0, 309.35166666666663)"
       id="g163">
      <text
         x="0"
         y="0"
         transform="translate(203.9)"
         fill="#555555"
         dominant-baseline="middle"
         text-anchor="end"
         font-size="13.5px"
         font-weight="700"
         id="text157">Poisson chat (élevage)</text>
      <rect
         x="0"
         y="0"
         transform="translate(208.9, -6.501666666666666)"
         width="215.79999999999998"
         height="13.003333333333332"
         fill="#a70e24"
         opacity="0.85"
         style="transition:height 200ms ease"
         id="rect159" />
      <text
         x="0"
         y="0"
         transform="translate(429.7, 0)"
         fill="#666"
         dominant-baseline="middle"
         text-anchor="start"
         font-size="13.5"
         font-weight="400"
         id="text161">7.77 kg</text>
    </g>
    <g
       class="bar"
       transform="translate(0, 325.6058333333333)"
       id="g171">
      <text
         x="0"
         y="0"
         transform="translate(203.9)"
         fill="#555555"
         dominant-baseline="middle"
         text-anchor="end"
         font-size="13.5px"
         font-weight="700"
         id="text165">Thon (sauvage)</text>
      <rect
         x="0"
         y="0"
         transform="translate(208.9, -6.501666666666666)"
         width="211.79999999999998"
         height="13.003333333333332"
         fill="#3c4e66"
         opacity="0.85"
         style="transition:height 200ms ease"
         id="rect167" />
      <text
         x="0"
         y="0"
         transform="translate(425.7, 0)"
         fill="#666"
         dominant-baseline="middle"
         text-anchor="start"
         font-size="13.5"
         font-weight="400"
         id="text169">7.63 kg</text>
    </g>
    <g
       class="bar"
       transform="translate(0, 341.85999999999996)"
       id="g179">
      <text
         x="0"
         y="0"
         transform="translate(203.9)"
         fill="#555555"
         dominant-baseline="middle"
         text-anchor="end"
         font-size="13.5px"
         font-weight="700"
         id="text173">Carpe (élevage)</text>
      <rect
         x="0"
         y="0"
         transform="translate(208.9, -6.501666666666666)"
         width="192.9"
         height="13.003333333333332"
         fill="#a70e24"
         opacity="0.85"
         style="transition:height 200ms ease"
         id="rect175" />
      <text
         x="0"
         y="0"
         transform="translate(406.8, 0)"
         fill="#666"
         dominant-baseline="middle"
         text-anchor="start"
         font-size="13.5"
         font-weight="400"
         id="text177">6.95 kg</text>
    </g>
    <g
       class="bar"
       transform="translate(0, 358.1141666666666)"
       id="g187">
      <text
         x="0"
         y="0"
         transform="translate(203.9)"
         fill="#555555"
         dominant-baseline="middle"
         text-anchor="end"
         font-size="13.5px"
         font-weight="700"
         id="text181">Saumon (sauvage)</text>
      <rect
         x="0"
         y="0"
         transform="translate(208.9, -6.501666666666666)"
         width="190.99999999999997"
         height="13.003333333333332"
         fill="#3c4e66"
         opacity="0.85"
         style="transition:height 200ms ease"
         id="rect183" />
      <text
         x="0"
         y="0"
         transform="translate(404.9, 0)"
         fill="#666"
         dominant-baseline="middle"
         text-anchor="start"
         font-size="13.5"
         font-weight="400"
         id="text185">6.88 kg</text>
    </g>
    <g
       class="bar"
       transform="translate(0, 374.3683333333333)"
       id="g195">
      <text
         x="0"
         y="0"
         transform="translate(203.9)"
         fill="#555555"
         dominant-baseline="middle"
         text-anchor="end"
         font-size="13.5px"
         font-weight="700"
         id="text189">Chano (élevage)</text>
      <rect
         x="0"
         y="0"
         transform="translate(208.9, -6.501666666666666)"
         width="178.6"
         height="13.003333333333332"
         fill="#a70e24"
         opacity="0.85"
         style="transition:height 200ms ease"
         id="rect191" />
      <text
         x="0"
         y="0"
         transform="translate(392.5, 0)"
         fill="#666"
         dominant-baseline="middle"
         text-anchor="start"
         font-size="13.5"
         font-weight="400"
         id="text193">6.43 kg</text>
    </g>
    <g
       class="bar"
       transform="translate(0, 390.62249999999995)"
       id="g203">
      <text
         x="0"
         y="0"
         transform="translate(203.9)"
         fill="#555555"
         dominant-baseline="middle"
         text-anchor="end"
         font-size="13.5px"
         font-weight="700"
         id="text197">Truite (élevage)</text>
      <rect
         x="0"
         y="0"
         transform="translate(208.9, -6.501666666666666)"
         width="150.20000000000002"
         height="13.003333333333332"
         fill="#a70e24"
         opacity="0.85"
         style="transition:height 200ms ease"
         id="rect199" />
      <text
         x="0"
         y="0"
         transform="translate(364.1, 0)"
         fill="#666"
         dominant-baseline="middle"
         text-anchor="start"
         font-size="13.5"
         font-weight="400"
         id="text201">5.41 kg</text>
    </g>
    <g
       class="bar"
       transform="translate(0, 406.8766666666666)"
       id="g211">
      <text
         x="0"
         y="0"
         transform="translate(203.9)"
         fill="#555555"
         dominant-baseline="middle"
         text-anchor="end"
         font-size="13.5px"
         font-weight="700"
         id="text205">Morue, aiglefin (sauvage)</text>
      <rect
         x="0"
         y="0"
         transform="translate(208.9, -6.501666666666666)"
         width="142.29999999999998"
         height="13.003333333333332"
         fill="#3c4e66"
         opacity="0.85"
         style="transition:height 200ms ease"
         id="rect207" />
      <text
         x="0"
         y="0"
         transform="translate(356.2, 0)"
         fill="#666"
         dominant-baseline="middle"
         text-anchor="start"
         font-size="13.5"
         font-weight="400"
         id="text209">5.13 kg</text>
    </g>
    <g
       class="bar"
       transform="translate(0, 423.13083333333327)"
       id="g219">
      <text
         x="0"
         y="0"
         transform="translate(203.9)"
         fill="#555555"
         dominant-baseline="middle"
         text-anchor="end"
         font-size="13.5px"
         font-weight="700"
         id="text213">Saumon (élevage)</text>
      <rect
         x="0"
         y="0"
         transform="translate(208.9, -6.501666666666666)"
         width="141.6"
         height="13.003333333333332"
         fill="#a70e24"
         opacity="0.85"
         style="transition:height 200ms ease"
         id="rect215" />
      <text
         x="0"
         y="0"
         transform="translate(355.5, 0)"
         fill="#666"
         dominant-baseline="middle"
         text-anchor="start"
         font-size="13.5"
         font-weight="400"
         id="text217">5.1 kg</text>
    </g>
    <g
       class="bar"
       transform="translate(0, 439.38499999999993)"
       id="g227">
      <text
         x="0"
         y="0"
         transform="translate(203.9)"
         fill="#555555"
         dominant-baseline="middle"
         text-anchor="end"
         font-size="13.5px"
         font-weight="700"
         id="text221">Hareng, sardines (sauvage)</text>
      <rect
         x="0"
         y="0"
         transform="translate(208.9, -6.501666666666666)"
         width="107.6"
         height="13.003333333333332"
         fill="#3c4e66"
         opacity="0.85"
         style="transition:height 200ms ease"
         id="rect223" />
      <text
         x="0"
         y="0"
         transform="translate(321.5, 0)"
         fill="#666"
         dominant-baseline="middle"
         text-anchor="start"
         font-size="13.5"
         font-weight="400"
         id="text225">3.88 kg</text>
    </g>
    <g
       class="bar"
       transform="translate(0, 455.6391666666666)"
       id="g235">
      <text
         x="0"
         y="0"
         transform="translate(203.9)"
         fill="#555555"
         dominant-baseline="middle"
         text-anchor="end"
         font-size="13.5px"
         font-weight="700"
         id="text229">Carpe à grosse tête (élevage)</text>
      <rect
         x="0"
         y="0"
         transform="translate(208.9, -6.501666666666666)"
         width="97.4"
         height="13.003333333333332"
         fill="#a70e24"
         opacity="0.85"
         style="transition:height 200ms ease"
         id="rect231" />
      <text
         x="0"
         y="0"
         transform="translate(311.3, 0)"
         fill="#666"
         dominant-baseline="middle"
         text-anchor="start"
         font-size="13.5"
         font-weight="400"
         id="text233">3.51 kg</text>
    </g>
    <g
       class="bar"
       transform="translate(0, 471.89333333333326)"
       id="g243">
      <text
         x="0"
         y="0"
         transform="translate(203.9)"
         fill="#555555"
         dominant-baseline="middle"
         text-anchor="end"
         font-size="13.5px"
         font-weight="700"
         id="text237">Bivalves (élevage)</text>
      <rect
         x="0"
         y="0"
         transform="translate(208.9, -6.501666666666666)"
         width="38.79999999999998"
         height="13.003333333333332"
         fill="#a70e24"
         opacity="0.85"
         style="transition:height 200ms ease"
         id="rect239" />
      <text
         x="0"
         y="0"
         transform="translate(252.7, 0)"
         fill="#666"
         dominant-baseline="middle"
         text-anchor="start"
         font-size="13.5"
         font-weight="400"
         id="text241">1.4 kg</text>
    </g>
    <g
       class="bar"
       transform="translate(0, 488.1474999999999)"
       id="g251">
      <text
         x="0"
         y="0"
         transform="translate(203.9)"
         fill="#555555"
         dominant-baseline="middle"
         text-anchor="end"
         font-size="13.5px"
         font-weight="700"
         id="text245">Algues (élevage)</text>
      <rect
         x="0"
         y="0"
         transform="translate(208.9, -6.501666666666666)"
         width="30.099999999999994"
         height="13.003333333333332"
         fill="#a70e24"
         opacity="0.85"
         style="transition:height 200ms ease"
         id="rect247" />
      <text
         x="0"
         y="0"
         transform="translate(244, 0)"
         fill="#666"
         dominant-baseline="middle"
         text-anchor="start"
         font-size="13.5"
         font-weight="400"
         id="text249">1.09 kg</text>
    </g>
  </g>
  <g
     class="SourcesFooter"
     style="fill:#777"
     id="g275">
    <g
       style="fill:#777"
       id="g259">
      <text
         font-size="12.60"
         x="15.0"
         y="554.2"
         id="text257"><tspan
           x="15"
           y="554.1800000000001"
           id="tspan255">Source: Gephart et al. (2021). Environmental performance of blue foods. Nature.</tspan></text>
    </g>
    <text
       font-size="12.6px"
       x="15"
       y="568.79999"
       id="text265"><tspan
         x="15"
         y="568.78003"
         id="tspan261">Note: Inclus les émissions intra et extra élevages mais pas les émissions post-élevage. Cela signifie qu'il faut ajouter les impacts tels que le transport vers</tspan><tspan
         x="15"
         y="582.64001"
         id="tspan263">les distributeurs, l'emballage, les traitements ou la cuisine.</tspan></text>
    <text
       font-size="12.60"
       x="646.9"
       y="554.2"
       id="text273"><tspan
         x="646.8820000000001"
         y="554.1800000000001"
         id="tspan271"><a
   target="_blank"
   style="fill: #777;"
   href="https://ourworldindata.org/fish"
   id="a267">OurWorldInData.org/fish</a> • <a
   style="fill: #777;"
   class="cclogo"
   href="http://creativecommons.org/licenses/by/4.0/deed.en_US"
   target="_blank"
   id="a269">CC BY</a></tspan></text>
  </g>
</svg>
