<?xml version="1.0" encoding="UTF-8" standalone="no"?>
<!-- Created with Inkscape (http://www.inkscape.org/) -->

<svg
   width="133mm"
   height="157mm"
   viewBox="0 0 133 157"
   version="1.1"
   id="svg5"
   inkscape:version="1.1.1 (3bf5ae0d25, 2021-09-20)"
   sodipodi:docname="Empreinte carbone Wallonie.svg"
   xmlns:inkscape="http://www.inkscape.org/namespaces/inkscape"
   xmlns:sodipodi="http://sodipodi.sourceforge.net/DTD/sodipodi-0.dtd"
   xmlns="http://www.w3.org/2000/svg"
   xmlns:svg="http://www.w3.org/2000/svg">
  <sodipodi:namedview
     id="namedview7"
     pagecolor="#ffffff"
     bordercolor="#666666"
     borderopacity="1.0"
     inkscape:pageshadow="2"
     inkscape:pageopacity="0.0"
     inkscape:pagecheckerboard="0"
     inkscape:document-units="mm"
     showgrid="false"
     inkscape:zoom="1"
     inkscape:cx="13"
     inkscape:cy="179.5"
     inkscape:window-width="2741"
     inkscape:window-height="1082"
     inkscape:window-x="2313"
     inkscape:window-y="1041"
     inkscape:window-maximized="0"
     inkscape:current-layer="layer1" />
  <defs
     id="defs2">
    <marker
       refX="0"
       refY="0"
       orient="auto"
       id="Dot_s"
       style="overflow:visible">
      <path
         d="m -2.5,-1 c 0,2.76 -2.24,5 -5,5 -2.76,0 -5,-2.24 -5,-5 0,-2.76 2.24,-5 5,-5 2.76,0 5,2.24 5,5 z"
         transform="matrix(0.2,0,0,0.2,1.48,0.2)"
         id="path4903"
         style="fill-rule:evenodd;stroke:#000000;stroke-width:1pt;marker-start:none;marker-end:none" />
    </marker>
    <marker
       refX="0"
       refY="0"
       orient="auto"
       id="StopS"
       style="overflow:visible">
      <path
         d="M 0,5.65 0,-5.65"
         transform="scale(0.2,0.2)"
         id="path4858"
         style="fill:none;stroke:#000000;stroke-width:1pt" />
    </marker>
  </defs>
  <g
     inkscape:label="Calque 1"
     inkscape:groupmode="layer"
     id="layer1">
    <path
       style="fill:none;fill-rule:evenodd;stroke:#c4c4c4;stroke-width:0.264583px;stroke-linecap:butt;stroke-linejoin:miter;stroke-opacity:1"
       d="m 25.094375,144.52199 93.566445,0.005"
       id="path888" />
    <path
       style="fill:none;fill-rule:evenodd;stroke:#c4c4c4;stroke-width:0.264583px;stroke-linecap:butt;stroke-linejoin:miter;stroke-opacity:1"
       d="m 25.094381,128.35247 93.566439,0.005"
       id="path888-4" />
    <path
       style="fill:none;fill-rule:evenodd;stroke:#c4c4c4;stroke-width:0.264583px;stroke-linecap:butt;stroke-linejoin:miter;stroke-opacity:1"
       d="m 25.094381,112.15505 93.566449,0.005"
       id="path888-8" />
    <path
       style="fill:none;fill-rule:evenodd;stroke:#c4c4c4;stroke-width:0.264583px;stroke-linecap:butt;stroke-linejoin:miter;stroke-opacity:1"
       d="m 25.094389,95.591474 93.566441,0.005"
       id="path888-1" />
    <path
       style="fill:none;fill-rule:evenodd;stroke:#c4c4c4;stroke-width:0.264583px;stroke-linecap:butt;stroke-linejoin:miter;stroke-opacity:1"
       d="m 25.094389,79.497278 93.566441,0.005"
       id="path888-2" />
    <path
       style="fill:none;fill-rule:evenodd;stroke:#c4c4c4;stroke-width:0.264583px;stroke-linecap:butt;stroke-linejoin:miter;stroke-opacity:1"
       d="m 25.094397,63.326888 93.566443,0.005"
       id="path888-9" />
    <path
       style="fill:none;fill-rule:evenodd;stroke:#c4c4c4;stroke-width:0.264583px;stroke-linecap:butt;stroke-linejoin:miter;stroke-opacity:1"
       d="m 25.094397,47.048993 93.566443,0.005"
       id="path888-3" />
    <path
       style="fill:none;fill-rule:evenodd;stroke:#c4c4c4;stroke-width:0.264583px;stroke-linecap:butt;stroke-linejoin:miter;stroke-opacity:1"
       d="m 25.094397,30.777983 93.566443,0.005"
       id="path888-90" />
    <path
       style="fill:none;fill-rule:evenodd;stroke:#c4c4c4;stroke-width:0.264583px;stroke-linecap:butt;stroke-linejoin:miter;stroke-opacity:1"
       d="m 25.094397,14.413947 93.566443,0.005"
       id="path888-88" />
    <rect
       style="fill:#ffc000;fill-opacity:1;stroke:none;stroke-width:0.282001;stroke-linecap:square;stroke-opacity:1"
       id="rect158159"
       width="62.343964"
       height="26.120157"
       x="40.794804"
       y="118.4792" />
    <rect
       style="fill:#d0cece;fill-opacity:1;stroke:none;stroke-width:0.282063;stroke-linecap:square;stroke-opacity:1"
       id="rect158183"
       width="62.343964"
       height="23.474472"
       x="40.794804"
       y="95.00473" />
    <rect
       style="fill:#00b0f0;fill-opacity:1;stroke:none;stroke-width:0.282038;stroke-linecap:square;stroke-opacity:1"
       id="rect158185"
       width="62.34396"
       height="22.671347"
       x="40.794804"
       y="72.333382" />
    <rect
       style="fill:#ff6600;fill-opacity:1;stroke:none;stroke-width:0.281796;stroke-linecap:square;stroke-opacity:1"
       id="rect158187"
       width="62.343956"
       height="21.340076"
       x="40.794804"
       y="50.993305" />
    <rect
       style="fill:#bdd7ee;fill-opacity:1;stroke:none;stroke-width:0.28196;stroke-linecap:square;stroke-opacity:1"
       id="rect158189"
       width="62.343956"
       height="17.828241"
       x="40.794804"
       y="33.165066" />
    <rect
       style="fill:#92d050;fill-opacity:1;stroke:none;stroke-width:0.281957;stroke-linecap:square;stroke-opacity:1"
       id="rect158191"
       width="62.34396"
       height="11.307701"
       x="40.794804"
       y="21.857365" />
    <rect
       style="fill:#ffff00;fill-opacity:1;stroke:none;stroke-width:0.282032;stroke-linecap:square;stroke-opacity:1"
       id="rect158193"
       width="62.34396"
       height="4.1050491"
       x="40.794804"
       y="17.752316" />
    <text
       xml:space="preserve"
       style="font-style:normal;font-weight:normal;font-size:3.52778px;line-height:463%;font-family:Sans;letter-spacing:0px;word-spacing:0px;fill:#000000;fill-opacity:1;stroke:none;stroke-width:0.264583px;stroke-linecap:butt;stroke-linejoin:miter;stroke-opacity:1"
       x="20.777281"
       y="15.287241"
       id="text6150"><tspan
         sodipodi:role="line"
         id="tspan6148"
         style="font-style:normal;font-variant:normal;font-weight:normal;font-stretch:normal;font-size:3.52778px;font-family:sans-serif;-inkscape-font-specification:sans-serif;text-align:end;text-anchor:end;stroke-width:0.264583px"
         x="20.777281"
         y="15.287241">16000</tspan><tspan
         sodipodi:role="line"
         style="font-style:normal;font-variant:normal;font-weight:normal;font-stretch:normal;font-size:3.52778px;font-family:sans-serif;-inkscape-font-specification:sans-serif;text-align:end;text-anchor:end;stroke-width:0.264583px"
         x="20.777281"
         y="31.620863"
         id="tspan6152">14000</tspan><tspan
         sodipodi:role="line"
         style="font-style:normal;font-variant:normal;font-weight:normal;font-stretch:normal;font-size:3.52778px;font-family:sans-serif;-inkscape-font-specification:sans-serif;text-align:end;text-anchor:end;stroke-width:0.264583px"
         x="20.777281"
         y="47.954487"
         id="tspan6154">12000</tspan><tspan
         sodipodi:role="line"
         style="font-style:normal;font-variant:normal;font-weight:normal;font-stretch:normal;font-size:3.52778px;font-family:sans-serif;-inkscape-font-specification:sans-serif;text-align:end;text-anchor:end;stroke-width:0.264583px"
         x="20.777281"
         y="64.288109"
         id="tspan6156">10000</tspan><tspan
         sodipodi:role="line"
         style="font-style:normal;font-variant:normal;font-weight:normal;font-stretch:normal;font-size:3.52778px;font-family:sans-serif;-inkscape-font-specification:sans-serif;text-align:end;text-anchor:end;stroke-width:0.264583px"
         x="20.777281"
         y="80.621727"
         id="tspan6158">8000</tspan><tspan
         sodipodi:role="line"
         style="font-style:normal;font-variant:normal;font-weight:normal;font-stretch:normal;font-size:3.52778px;font-family:sans-serif;-inkscape-font-specification:sans-serif;text-align:end;text-anchor:end;stroke-width:0.264583px"
         x="20.777281"
         y="96.955353"
         id="tspan6160">6000</tspan><tspan
         sodipodi:role="line"
         style="font-style:normal;font-variant:normal;font-weight:normal;font-stretch:normal;font-size:3.52778px;font-family:sans-serif;-inkscape-font-specification:sans-serif;text-align:end;text-anchor:end;stroke-width:0.264583px"
         x="20.777281"
         y="113.28897"
         id="tspan6162">4000</tspan><tspan
         sodipodi:role="line"
         style="font-style:normal;font-variant:normal;font-weight:normal;font-stretch:normal;font-size:3.52778px;font-family:sans-serif;-inkscape-font-specification:sans-serif;text-align:end;text-anchor:end;stroke-width:0.264583px"
         x="20.777281"
         y="129.62259"
         id="tspan6164">2000</tspan><tspan
         sodipodi:role="line"
         style="font-style:normal;font-variant:normal;font-weight:normal;font-stretch:normal;font-size:3.52778px;font-family:sans-serif;-inkscape-font-specification:sans-serif;text-align:end;text-anchor:end;stroke-width:0.264583px"
         x="20.777281"
         y="145.95622"
         id="tspan6166">0</tspan></text>
    <text
       xml:space="preserve"
       style="font-style:normal;font-weight:normal;font-size:4.58611px;line-height:463%;font-family:Sans;letter-spacing:0px;word-spacing:0px;fill:#000000;fill-opacity:1;stroke:none;stroke-width:0.264583px;stroke-linecap:butt;stroke-linejoin:miter;stroke-opacity:1"
       x="-138.24524"
       y="6.9923234"
       id="text17542"
       transform="rotate(-90)"><tspan
         sodipodi:role="line"
         id="tspan17540"
         style="font-style:normal;font-variant:normal;font-weight:normal;font-stretch:normal;font-size:4.58611px;font-family:Sans;-inkscape-font-specification:Sans;stroke-width:0.264583px"
         x="-138.24524"
         y="6.9923234">Émissions de gaz à effet de serre (kg/an/personne)</tspan></text>
    <text
       xml:space="preserve"
       style="font-style:normal;font-variant:normal;font-weight:bold;font-stretch:normal;font-size:4.58611px;line-height:463%;font-family:Sans;-inkscape-font-specification:'Sans Bold';letter-spacing:0px;word-spacing:0px;fill:#000000;fill-opacity:1;stroke:none;stroke-width:0.264583px;stroke-linecap:butt;stroke-linejoin:miter;stroke-opacity:1"
       x="65.522209"
       y="153.7177"
       id="text34400"><tspan
         sodipodi:role="line"
         id="tspan34398"
         style="font-style:normal;font-variant:normal;font-weight:bold;font-stretch:normal;font-size:4.58611px;font-family:Sans;-inkscape-font-specification:'Sans Bold';stroke-width:0.264583px"
         x="65.522209"
         y="153.7177">2018</tspan></text>
    <text
       xml:space="preserve"
       style="font-style:normal;font-weight:normal;font-size:4.58611px;line-height:463%;font-family:Sans;letter-spacing:0px;word-spacing:0px;fill:#000000;fill-opacity:1;stroke:none;stroke-width:0.264583px;stroke-linecap:butt;stroke-linejoin:miter;stroke-opacity:1"
       x="23.585924"
       y="5.3276834"
       id="text54192"><tspan
         sodipodi:role="line"
         id="tspan54190"
         style="font-style:normal;font-variant:normal;font-weight:bold;font-stretch:normal;font-size:4.58611px;font-family:sans-serif;-inkscape-font-specification:'sans-serif Bold';stroke-width:0.264583px"
         x="23.585924"
         y="5.3276834">Empreinte carbone moyenne (Wallonie)</tspan></text>
    <rect
       style="fill:#f4b183;fill-opacity:1;stroke:none;stroke-width:0.282179;stroke-linecap:square;stroke-opacity:1"
       id="rect158195"
       width="62.34396"
       height="3.3760684"
       x="40.794804"
       y="14.376247" />
    <text
       xml:space="preserve"
       style="font-style:normal;font-weight:normal;font-size:3.175px;line-height:463%;font-family:Sans;letter-spacing:0px;word-spacing:0px;fill:#000000;fill-opacity:1;stroke:none;stroke-width:0.264583px;stroke-linecap:butt;stroke-linejoin:miter;stroke-opacity:1"
       x="62.51326"
       y="17.247931"
       id="text65988"><tspan
         sodipodi:role="line"
         id="tspan65986"
         style="font-style:normal;font-variant:normal;font-weight:normal;font-stretch:normal;font-size:3.175px;font-family:sans-serif;-inkscape-font-specification:sans-serif;stroke-width:0.264583px"
         x="62.51326"
         y="17.247931">Avion</tspan></text>
    <text
       xml:space="preserve"
       style="font-style:normal;font-weight:normal;font-size:3.175px;line-height:463%;font-family:Sans;letter-spacing:0px;word-spacing:0px;fill:#000000;fill-opacity:1;stroke:none;stroke-width:0.264583px;stroke-linecap:butt;stroke-linejoin:miter;stroke-opacity:1"
       x="96.397995"
       y="17.220024"
       id="text65988-9"><tspan
         sodipodi:role="line"
         id="tspan65986-2"
         style="font-style:normal;font-variant:normal;font-weight:bold;font-stretch:normal;font-size:3.175px;font-family:sans-serif;-inkscape-font-specification:'sans-serif Bold';stroke-width:0.264583px"
         x="96.397995"
         y="17.220024">500</tspan></text>
    <text
       xml:space="preserve"
       style="font-style:normal;font-weight:normal;font-size:3.175px;line-height:463%;font-family:Sans;letter-spacing:0px;word-spacing:0px;fill:#000000;fill-opacity:1;stroke:none;stroke-width:0.264583px;stroke-linecap:butt;stroke-linejoin:miter;stroke-opacity:1"
       x="96.397995"
       y="20.960583"
       id="text65988-9-2"><tspan
         sodipodi:role="line"
         id="tspan65986-2-4"
         style="font-style:normal;font-variant:normal;font-weight:bold;font-stretch:normal;font-size:3.175px;font-family:sans-serif;-inkscape-font-specification:'sans-serif Bold';stroke-width:0.264583px"
         x="96.397995"
         y="20.960583">500</tspan></text>
    <text
       xml:space="preserve"
       style="font-style:normal;font-weight:normal;font-size:3.175px;line-height:463%;font-family:Sans;letter-spacing:0px;word-spacing:0px;fill:#000000;fill-opacity:1;stroke:none;stroke-width:0.264583px;stroke-linecap:butt;stroke-linejoin:miter;stroke-opacity:1"
       x="94.188828"
       y="28.666958"
       id="text65988-9-7"><tspan
         sodipodi:role="line"
         id="tspan65986-2-7"
         style="font-style:normal;font-variant:normal;font-weight:bold;font-stretch:normal;font-size:3.175px;font-family:sans-serif;-inkscape-font-specification:'sans-serif Bold';stroke-width:0.264583px"
         x="94.188828"
         y="28.666958">1400</tspan></text>
    <text
       xml:space="preserve"
       style="font-style:normal;font-weight:normal;font-size:3.175px;line-height:463%;font-family:Sans;letter-spacing:0px;word-spacing:0px;fill:#000000;fill-opacity:1;stroke:none;stroke-width:0.264583px;stroke-linecap:butt;stroke-linejoin:miter;stroke-opacity:1"
       x="41.215336"
       y="20.680756"
       id="text65988-3"><tspan
         sodipodi:role="line"
         id="tspan65986-8"
         style="font-style:normal;font-variant:normal;font-weight:normal;font-stretch:normal;font-size:3.175px;font-family:sans-serif;-inkscape-font-specification:sans-serif;stroke-width:0.264583px"
         x="41.215336"
         y="20.680756">Autres usages dans le logement</tspan></text>
    <text
       xml:space="preserve"
       style="font-style:normal;font-weight:normal;font-size:3.175px;line-height:100%;font-family:Sans;letter-spacing:0px;word-spacing:0px;fill:#000000;fill-opacity:1;stroke:none;stroke-width:0.264583px;stroke-linecap:butt;stroke-linejoin:miter;stroke-opacity:1"
       x="66.663399"
       y="26.799631"
       id="text65988-6"><tspan
         sodipodi:role="line"
         id="tspan65986-0"
         style="font-style:normal;font-variant:normal;font-weight:normal;font-stretch:normal;font-size:3.175px;font-family:sans-serif;-inkscape-font-specification:sans-serif;text-align:center;text-anchor:middle;stroke-width:0.264583px"
         x="66.663399"
         y="26.799631"
         dy="0">Divers biens et services acquis</tspan><tspan
         sodipodi:role="line"
         style="font-style:normal;font-variant:normal;font-weight:normal;font-stretch:normal;font-size:3.175px;font-family:sans-serif;-inkscape-font-specification:sans-serif;text-align:center;text-anchor:middle;stroke-width:0.264583px"
         x="66.663399"
         y="29.97463"
         id="tspan83126">par les ménages</tspan></text>
    <text
       xml:space="preserve"
       style="font-style:normal;font-weight:normal;font-size:3.175px;line-height:100%;font-family:Sans;letter-spacing:0px;word-spacing:0px;fill:#000000;fill-opacity:1;stroke:none;stroke-width:0.264583px;stroke-linecap:butt;stroke-linejoin:miter;stroke-opacity:1"
       x="66.740913"
       y="40.151398"
       id="text65988-6-8"><tspan
         sodipodi:role="line"
         style="font-style:normal;font-variant:normal;font-weight:normal;font-stretch:normal;font-size:3.175px;font-family:sans-serif;-inkscape-font-specification:sans-serif;text-align:center;text-anchor:middle;stroke-width:0.264583px"
         x="66.740913"
         y="40.151398"
         id="tspan83126-8">Loisirs, appareils ménagers,</tspan><tspan
         sodipodi:role="line"
         style="font-style:normal;font-variant:normal;font-weight:normal;font-stretch:normal;font-size:3.175px;font-family:sans-serif;-inkscape-font-specification:sans-serif;text-align:center;text-anchor:middle;stroke-width:0.264583px"
         x="66.740913"
         y="43.326397"
         id="tspan91089">Alcool, tabac, moyens de</tspan><tspan
         sodipodi:role="line"
         style="font-style:normal;font-variant:normal;font-weight:normal;font-stretch:normal;font-size:3.175px;font-family:sans-serif;-inkscape-font-specification:sans-serif;text-align:center;text-anchor:middle;stroke-width:0.264583px"
         x="66.740913"
         y="46.501396"
         id="tspan91091">communication</tspan></text>
    <text
       xml:space="preserve"
       style="font-style:normal;font-weight:normal;font-size:3.175px;line-height:100%;font-family:Sans;letter-spacing:0px;word-spacing:0px;fill:#000000;fill-opacity:1;stroke:none;stroke-width:0.264583px;stroke-linecap:butt;stroke-linejoin:miter;stroke-opacity:1"
       x="66.788971"
       y="61.136246"
       id="text65988-6-8-7"><tspan
         sodipodi:role="line"
         style="font-style:normal;font-variant:normal;font-weight:normal;font-stretch:normal;font-size:3.175px;font-family:sans-serif;-inkscape-font-specification:sans-serif;text-align:center;text-anchor:middle;stroke-width:0.264583px"
         x="66.788971"
         y="61.136246"
         id="tspan91091-4">Chauffage des bâtiments (1700)</tspan><tspan
         sodipodi:role="line"
         style="font-style:normal;font-variant:normal;font-weight:normal;font-stretch:normal;font-size:3.175px;font-family:sans-serif;-inkscape-font-specification:sans-serif;text-align:center;text-anchor:middle;stroke-width:0.264583px"
         x="66.788971"
         y="64.311249"
         id="tspan92439">construction et rénovation (900)</tspan></text>
    <text
       xml:space="preserve"
       style="font-style:normal;font-weight:normal;font-size:3.175px;line-height:100%;font-family:Sans;letter-spacing:0px;word-spacing:0px;fill:#000000;fill-opacity:1;stroke:none;stroke-width:0.264583px;stroke-linecap:butt;stroke-linejoin:miter;stroke-opacity:1"
       x="66.823853"
       y="82.957474"
       id="text65988-6-8-0"><tspan
         sodipodi:role="line"
         style="font-style:normal;font-variant:normal;font-weight:normal;font-stretch:normal;font-size:3.175px;font-family:sans-serif;-inkscape-font-specification:sans-serif;text-align:center;text-anchor:middle;stroke-width:0.264583px"
         x="66.823853"
         y="82.957474"
         id="tspan91091-9">Transport de personnes</tspan><tspan
         sodipodi:role="line"
         style="font-style:normal;font-variant:normal;font-weight:normal;font-stretch:normal;font-size:3.175px;font-family:sans-serif;-inkscape-font-specification:sans-serif;text-align:center;text-anchor:middle;stroke-width:0.264583px"
         x="66.823853"
         y="86.132477"
         id="tspan94467">(surtout par route)</tspan></text>
    <text
       xml:space="preserve"
       style="font-style:normal;font-weight:normal;font-size:3.175px;line-height:100%;font-family:Sans;letter-spacing:0px;word-spacing:0px;fill:#000000;fill-opacity:1;stroke:none;stroke-width:0.264583px;stroke-linecap:butt;stroke-linejoin:miter;stroke-opacity:1"
       x="66.864159"
       y="106.15131"
       id="text65988-6-8-2"><tspan
         sodipodi:role="line"
         style="font-style:normal;font-variant:normal;font-weight:normal;font-stretch:normal;font-size:3.175px;font-family:sans-serif;-inkscape-font-specification:sans-serif;text-align:center;text-anchor:middle;stroke-width:0.264583px"
         x="66.864159"
         y="106.15131"
         id="tspan91091-0">Alimentation (2200)</tspan><tspan
         sodipodi:role="line"
         style="font-style:normal;font-variant:normal;font-weight:normal;font-stretch:normal;font-size:3.175px;font-family:sans-serif;-inkscape-font-specification:sans-serif;text-align:center;text-anchor:middle;stroke-width:0.264583px"
         x="66.864159"
         y="109.32632"
         id="tspan97649">Horeca (700)</tspan></text>
    <text
       xml:space="preserve"
       style="font-style:normal;font-weight:normal;font-size:3.175px;line-height:100%;font-family:Sans;letter-spacing:0px;word-spacing:0px;fill:#000000;fill-opacity:1;stroke:none;stroke-width:0.264583px;stroke-linecap:butt;stroke-linejoin:miter;stroke-opacity:1"
       x="66.728508"
       y="126.18612"
       id="text65988-6-8-5"><tspan
         sodipodi:role="line"
         style="font-style:normal;font-variant:normal;font-weight:normal;font-stretch:normal;font-size:3.175px;font-family:sans-serif;-inkscape-font-specification:sans-serif;text-align:center;text-anchor:middle;stroke-width:0.264583px"
         x="66.728508"
         y="126.18612"
         id="tspan91091-6">Biens et services non</tspan><tspan
         sodipodi:role="line"
         style="font-style:normal;font-variant:normal;font-weight:normal;font-stretch:normal;font-size:3.175px;font-family:sans-serif;-inkscape-font-specification:sans-serif;text-align:center;text-anchor:middle;stroke-width:0.264583px"
         x="66.728508"
         y="129.36111"
         id="tspan98413">payés par le consommateurs</tspan><tspan
         sodipodi:role="line"
         style="font-style:normal;font-variant:normal;font-weight:normal;font-stretch:normal;font-size:3.175px;font-family:sans-serif;-inkscape-font-specification:sans-serif;text-align:center;text-anchor:middle;stroke-width:0.264583px"
         x="66.728508"
         y="132.53612"
         id="tspan100161">(services publics,</tspan><tspan
         sodipodi:role="line"
         style="font-style:normal;font-variant:normal;font-weight:normal;font-stretch:normal;font-size:3.175px;font-family:sans-serif;-inkscape-font-specification:sans-serif;text-align:center;text-anchor:middle;stroke-width:0.264583px"
         x="66.728508"
         y="135.71112"
         id="tspan118185">enseignements, </tspan><tspan
         sodipodi:role="line"
         style="font-style:normal;font-variant:normal;font-weight:normal;font-stretch:normal;font-size:3.175px;font-family:sans-serif;-inkscape-font-specification:sans-serif;text-align:center;text-anchor:middle;stroke-width:0.264583px"
         x="66.728508"
         y="138.88612"
         id="tspan100165">investissements industriels…)</tspan></text>
    <text
       xml:space="preserve"
       style="font-style:normal;font-weight:normal;font-size:3.175px;line-height:463%;font-family:Sans;letter-spacing:0px;word-spacing:0px;fill:#000000;fill-opacity:1;stroke:none;stroke-width:0.264583px;stroke-linecap:butt;stroke-linejoin:miter;stroke-opacity:1"
       x="94.188828"
       y="43.234928"
       id="text65988-9-5"><tspan
         sodipodi:role="line"
         id="tspan65986-2-48"
         style="font-style:normal;font-variant:normal;font-weight:bold;font-stretch:normal;font-size:3.175px;font-family:sans-serif;-inkscape-font-specification:'sans-serif Bold';stroke-width:0.264583px"
         x="94.188828"
         y="43.234928">2200</tspan></text>
    <text
       xml:space="preserve"
       style="font-style:normal;font-weight:normal;font-size:3.175px;line-height:463%;font-family:Sans;letter-spacing:0px;word-spacing:0px;fill:#000000;fill-opacity:1;stroke:none;stroke-width:0.264583px;stroke-linecap:butt;stroke-linejoin:miter;stroke-opacity:1"
       x="94.188828"
       y="62.819088"
       id="text65988-9-1"><tspan
         sodipodi:role="line"
         id="tspan65986-2-2"
         style="font-style:normal;font-variant:normal;font-weight:bold;font-stretch:normal;font-size:3.175px;font-family:sans-serif;-inkscape-font-specification:'sans-serif Bold';stroke-width:0.264583px"
         x="94.188828"
         y="62.819088">2600</tspan></text>
    <text
       xml:space="preserve"
       style="font-style:normal;font-weight:normal;font-size:3.175px;line-height:463%;font-family:Sans;letter-spacing:0px;word-spacing:0px;fill:#000000;fill-opacity:1;stroke:none;stroke-width:0.264583px;stroke-linecap:butt;stroke-linejoin:miter;stroke-opacity:1"
       x="94.188828"
       y="84.824799"
       id="text65988-9-8"><tspan
         sodipodi:role="line"
         id="tspan65986-2-9"
         style="font-style:normal;font-variant:normal;font-weight:bold;font-stretch:normal;font-size:3.175px;font-family:sans-serif;-inkscape-font-specification:'sans-serif Bold';stroke-width:0.264583px"
         x="94.188828"
         y="84.824799">2800</tspan></text>
    <text
       xml:space="preserve"
       style="font-style:normal;font-weight:normal;font-size:3.175px;line-height:463%;font-family:Sans;letter-spacing:0px;word-spacing:0px;fill:#000000;fill-opacity:1;stroke:none;stroke-width:0.264583px;stroke-linecap:butt;stroke-linejoin:miter;stroke-opacity:1"
       x="94.188828"
       y="107.89771"
       id="text65988-9-3"><tspan
         sodipodi:role="line"
         id="tspan65986-2-6"
         style="font-style:normal;font-variant:normal;font-weight:bold;font-stretch:normal;font-size:3.175px;font-family:sans-serif;-inkscape-font-specification:'sans-serif Bold';stroke-width:0.264583px"
         x="94.188828"
         y="107.89771">2900</tspan></text>
    <text
       xml:space="preserve"
       style="font-style:normal;font-weight:normal;font-size:3.175px;line-height:463%;font-family:Sans;letter-spacing:0px;word-spacing:0px;fill:#000000;fill-opacity:1;stroke:none;stroke-width:0.264583px;stroke-linecap:butt;stroke-linejoin:miter;stroke-opacity:1"
       x="94.188828"
       y="132.69502"
       id="text65988-9-80"><tspan
         sodipodi:role="line"
         id="tspan65986-2-21"
         style="font-style:normal;font-variant:normal;font-weight:bold;font-stretch:normal;font-size:3.175px;font-family:sans-serif;-inkscape-font-specification:'sans-serif Bold';stroke-width:0.264583px"
         x="94.188828"
         y="132.69502">3200</tspan></text>
    <path
       style="fill:#000000;stroke-width:0.024422"
       d="m 111.06056,140.90945 c -3.37818,-0.7042 -3.10917,-5.55695 0.32772,-5.91188 3.06089,-0.31609 4.52309,3.76223 1.95689,5.45806 -0.51131,0.33789 -1.57941,0.65543 -1.57941,0.46955 0,-0.19679 0.34553,-1.07789 0.60229,-1.53585 0.7905,-1.40992 0.7775,-1.9486 -0.0786,-3.259 -0.32863,-0.50299 -0.44147,-0.69696 -0.54838,-0.94263 -0.0948,-0.21783 -0.0951,-0.21783 -0.13747,-5.3e-4 -0.0712,0.36505 -0.026,0.63341 0.18417,1.09426 0.32092,0.70366 0.33885,1.34095 0.0533,1.89426 -0.14669,0.28424 -0.41813,0.65344 -0.45406,0.61759 -0.0699,-0.0697 -0.0251,-0.36683 0.12072,-0.80153 0.22001,-0.65583 0.19834,-0.94805 -0.0948,-1.27768 l -0.0863,-0.0971 -10e-4,0.10069 c -0.003,0.2712 -0.18343,0.70044 -0.53403,1.26869 -0.57477,0.93159 -0.48845,1.51496 0.39682,2.68192 0.0965,0.12714 0.18374,0.24485 0.19399,0.26157 0.0256,0.0417 -0.0453,0.0372 -0.32178,-0.0204 z"
       id="path854" />
    <g
       id="g2563"
       transform="matrix(0.12651541,0,0,0.12651541,118.15555,129.90462)">
      <path
         d="M 81.363,34.621 42.245,6.608 C 41.571,6.125 40.664,6.125 39.991,6.607 L 0.81,34.62 C 0.302,34.983 0,35.57 0,36.195 V 73.99 c 0,1.069 0.867,1.937 1.937,1.937 h 31.401 c 1.07,0 1.937,-0.867 1.937,-1.937 V 61.314 H 46.899 V 73.99 c 0,1.069 0.867,1.937 1.937,1.937 h 31.401 c 1.069,0 1.937,-0.867 1.937,-1.937 V 36.195 C 82.172,35.571 81.871,34.984 81.363,34.621 Z M 78.299,72.053 H 50.771 V 59.377 c 0,-1.069 -0.867,-1.937 -1.937,-1.937 H 33.338 c -1.07,0 -1.937,0.867 -1.937,1.937 V 72.053 H 3.873 V 37.191 L 41.116,10.564 78.299,37.19 Z M 43.023,20.284 v 4.766 h 4.766 v 3.873 h -4.766 v 4.766 H 39.15 V 28.923 H 34.384 V 25.05 h 4.766 v -4.766 z"
         id="path2510" />
      <g
         id="g2512">
</g>
      <g
         id="g2514">
</g>
      <g
         id="g2516">
</g>
      <g
         id="g2518">
</g>
      <g
         id="g2520">
</g>
      <g
         id="g2522">
</g>
      <g
         id="g2524">
</g>
      <g
         id="g2526">
</g>
      <g
         id="g2528">
</g>
      <g
         id="g2530">
</g>
      <g
         id="g2532">
</g>
      <g
         id="g2534">
</g>
      <g
         id="g2536">
</g>
      <g
         id="g2538">
</g>
      <g
         id="g2540">
</g>
    </g>
    <g
       id="g2685"
       transform="matrix(0.02254198,0,0,0.02254198,105.44776,119.42531)">
      <path
         d="m 154.57289,297.73642 -37.94609,96.97913 c 79.41071,-11.11861 121.22165,25.98017 139.8574,82.98189 63.09613,-100.81289 145.25302,-78.48652 195.60924,-29.87647 -8.54845,-49.73945 -17.26175,-99.47284 -25.91843,-149.20144 -97.49784,37.61966 -190.75726,52.16346 -271.60212,-0.88311 z"
         id="path1888"
         style="fill:#000000;stroke:#000000;stroke-width:1.57201px;stroke-linecap:butt;stroke-linejoin:miter;stroke-opacity:1" />
      <path
         d="M 296.59375,127.29 10,241.88375 v 16.375 l 286.59375,114.625 286.03125,-114.375 V 241.665 Z"
         id="rect1874"
         style="fill:#000000" />
      <path
         d="m 489.75321,286.67226 11.11168,48.48733"
         id="path2131"
         style="fill:none;stroke:#000000;stroke-width:16;stroke-linecap:butt;stroke-linejoin:miter;stroke-miterlimit:4;stroke-dasharray:none;stroke-opacity:1" />
      <path
         d="m 504.89602,316.96737 c 5.7021,46.71521 43.14135,84.8069 77.90173,91.23517"
         id="path3911"
         style="fill:none;stroke:#000000;stroke-width:3.55595;stroke-linecap:round;stroke-linejoin:miter;stroke-miterlimit:4;stroke-dasharray:none;stroke-opacity:1;marker-end:url(#Dot_s)" />
      <path
         d="m 499.21572,328.8353 c 5.7021,46.71521 43.14135,84.8069 77.90173,91.23517"
         id="path4982"
         style="fill:none;stroke:#000000;stroke-width:3.54175;stroke-linecap:round;stroke-linejoin:miter;stroke-miterlimit:4;stroke-dasharray:none;stroke-opacity:1;marker-end:url(#Dot_s)" />
      <path
         d="m 493.1548,343.98759 c 5.7021,46.71521 43.14135,84.8069 77.90173,91.23517"
         id="path4984"
         style="fill:none;stroke:#000000;stroke-width:3.54175;stroke-linecap:round;stroke-linejoin:miter;stroke-miterlimit:4;stroke-dasharray:none;stroke-opacity:1;marker-end:url(#Dot_s)" />
      <path
         d="m 489.1142,349.03835 c 5.7021,46.71521 43.14135,84.8069 77.90173,91.23517"
         id="path4986"
         style="fill:none;stroke:#000000;stroke-width:3.54175;stroke-linecap:round;stroke-linejoin:miter;stroke-miterlimit:4;stroke-dasharray:none;stroke-opacity:1;marker-end:url(#Dot_s)" />
      <path
         d="m 503.17011,318.64755 c 6.07406,39.73263 45.95559,72.1307 82.98349,77.59813"
         id="path4988"
         style="fill:none;stroke:#000000;stroke-width:3.38472;stroke-linecap:round;stroke-linejoin:miter;stroke-miterlimit:4;stroke-dasharray:none;stroke-opacity:1;marker-end:url(#Dot_s)" />
      <path
         d="m 486.16904,356.07218 c 4.72497,43.89622 35.74852,79.68931 64.55226,85.72967"
         id="path4990"
         style="fill:none;stroke:#000000;stroke-width:3.12525;stroke-linecap:round;stroke-linejoin:miter;stroke-miterlimit:4;stroke-dasharray:none;stroke-opacity:1;marker-end:url(#Dot_s)" />
      <path
         d="m 500.22587,330.8556 c 5.7021,46.71521 43.14135,84.8069 77.90173,91.23517"
         id="path4992"
         style="fill:none;stroke:#000000;stroke-width:3.54175;stroke-linecap:round;stroke-linejoin:miter;stroke-miterlimit:4;stroke-dasharray:none;stroke-opacity:1;marker-end:url(#Dot_s)" />
      <path
         d="m 504.46913,334.50507 c 10.76679,45.81376 52.13991,79.59156 87.39424,82.18748"
         id="path6764"
         style="fill:none;stroke:#000000;stroke-width:3.54175;stroke-linecap:round;stroke-linejoin:miter;stroke-miterlimit:4;stroke-dasharray:none;stroke-opacity:1;marker-end:url(#Dot_s)" />
      <path
         d="m 496.50233,347.5098 c 10.76679,45.81376 52.13991,79.59156 87.39424,82.18748"
         id="path6766"
         style="fill:none;stroke:#000000;stroke-width:3.54175;stroke-linecap:round;stroke-linejoin:miter;stroke-miterlimit:4;stroke-dasharray:none;stroke-opacity:1;marker-end:url(#Dot_s)" />
      <path
         d="m 525.96914,339.61227 a 23.550255,23.550255 0 1 1 -47.10051,0 23.550255,23.550255 0 1 1 47.10051,0 z"
         id="path3021"
         style="fill:#000000;fill-opacity:1;stroke:none" />
    </g>
    <g
       id="g2794"
       transform="matrix(0.02671063,0,0,0.02671063,110.11343,103.27075)">
      <path
         d="M 0,0 H 512 V 512 H 0 Z"
         fill="#ffffff"
         fill-opacity="1"
         id="path2779" />
      <g
         class=""
         id="g2783">
        <path
           d="m 128,30 c -10.8,0 -19,5.73 -24.9,11.79 -5.83,6.05 -10.34,13.22 -14.59,21.44 -8.5,16.44 -15.67,37.27 -21.88,60.07 -8.17,30 -14.5,62.8 -17.88,91.7 h 36.4 c 3.3,-25.9 9.02,-55.9 16.25,-82.3 5.8,-21.2 12.6,-40.37 19.1,-52.93 3.2,-6.28 6.5,-10.86 8.5,-12.93 0.7,-0.73 0.8,-0.73 0.9,-0.84 h 252.2 c 0.1,0.11 0.2,0.11 0.9,0.84 2,2.07 5.3,6.65 8.5,12.93 6.5,12.56 13.3,31.73 19.1,52.93 7.2,26.4 13,56.4 16.2,82.3 h 36.4 C 459.9,186.1 453.5,153.3 445.4,123.3 439.2,100.5 432,79.67 423.5,63.23 419.2,55.01 414.7,47.84 408.9,41.79 403,35.73 394.8,30 384,30 Z M 32,233 c -20,0 -20,46 0,46 h 448 c 20,0 20,-46 0,-46 z m 27.2,64 c 0.45,2.2 0.88,4.5 1.3,6.8 l 3.51,3.5 10.23,-10.3 z m 40.6,0 -23.04,23 51.24,51.2 51.2,-51.2 -23,-23 z m 82,0 10.2,10.2 10.2,-10.2 z m 46,0 -23,23 51.2,51.2 51.2,-51.2 -23,-23 z m 82,0 10.2,10.2 10.2,-10.2 z m 46,0 -23,23 51.2,51.2 51.2,-51.2 -23,-23 z m 82,0 10.2,10.2 3.5,-3.5 c 0.4,-2.3 0.9,-4.5 1.3,-6.7 z M 192,332.8 140.7,384 191.9,435.2 243.2,384 Z m 128,0 -51.2,51.2 51.2,51.2 51.2,-51.2 z m -254.58,1.4 c 3.82,25.9 7.56,54.3 13.36,79.8 0.4,1.8 0.83,3.5 1.25,5.2 L 115.2,384 Z m 381.08,0.1 -49.7,49.7 35.2,35.2 c 0.4,-1.8 0.8,-3.5 1.2,-5.2 5.8,-25.5 9.6,-53.8 13.3,-79.7 z M 128,396.7 85.63,439.1 c 3.64,11.2 7.86,21 12.71,28.6 8.26,12.9 17.06,19.3 29.66,19.3 h 12.2 l 39,-39.1 z m 128,0.1 -51.2,51.3 38.9,38.9 h 24.6 l 38.9,-39 z m 128,0 -51.2,51.2 39,39 H 384 c 12.6,0 21.4,-6.4 29.7,-19.3 4.8,-7.6 9,-17.4 12.6,-28.6 z m -191.9,64 -26.3,26.2 h 52.5 z m 127.9,0 -26.2,26.2 h 52.4 z"
           fill="#000000"
           fill-opacity="1"
           id="path2781" />
      </g>
    </g>
    <g
       transform="matrix(0.00149535,0,0,-0.00149535,107.60272,87.868761)"
       fill="#000000"
       stroke="none"
       id="g2884">
      <path
         d="M 7390,6279 C 6212,6230 5251,5948 4435,5413 4117,5203 3880,5005 3439,4577 3106,4254 2986,4146 2905,4099 2775,4023 2445,3943 1900,3856 1518,3795 1356,3748 1115,3630 729,3441 456,3193 222,2816 25,2501 -25,2299 10,1965 c 47,-459 251,-750 586,-835 70,-18 111,-20 427,-20 h 349 l -6,33 c -112,533 49,1074 434,1457 230,231 485,370 807,443 85,19 128,22 323,22 252,0 335,-13 533,-81 464,-162 835,-539 987,-1004 57,-173 80,-317 80,-503 0,-134 -17,-302 -36,-351 -6,-15 160,-16 2076,-16 h 2082 l -6,23 c -42,153 -46,477 -6,660 107,501 436,917 897,1133 116,55 288,107 419,128 144,23 381,21 526,-3 698,-120 1230,-682 1319,-1395 14,-118 7,-357 -16,-465 -8,-41 -13,-76 -11,-78 5,-6 197,17 278,33 397,78 660,313 729,649 19,93 20,136 17,1258 l -3,1162 -23,75 c -38,123 -96,222 -177,303 -78,79 -144,122 -257,169 -70,30 -82,31 -263,38 -278,11 -467,56 -674,159 -133,67 -195,111 -436,307 -440,357 -618,480 -895,620 -491,247 -1055,362 -1935,394 -299,11 -469,11 -745,-1 z m 1551,-659 c 411,-41 890,-217 1254,-461 499,-335 640,-690 380,-955 -142,-143 -369,-254 -619,-302 -81,-15 -168,-17 -761,-17 -663,0 -671,0 -716,21 -53,25 -92,71 -109,129 -8,29 -10,197 -8,615 4,514 6,581 22,635 52,176 163,294 311,331 64,16 117,17 246,4 z m -1487,-54 c 76,-37 140,-101 174,-174 l 27,-57 3,-558 c 2,-358 -1,-578 -8,-615 -20,-109 -95,-233 -161,-268 -24,-12 -233,-14 -1494,-14 H 4529 l -77,26 c -190,63 -279,170 -252,300 21,101 127,242 329,436 422,407 1012,695 1789,873 273,62 495,84 852,81 l 225,-1 z"
         id="path2878" />
      <path
         d="m 2710,2815 c -289,-49 -538,-179 -746,-390 -187,-189 -308,-418 -365,-688 -29,-136 -31,-369 -5,-507 95,-493 439,-888 909,-1045 273,-91 576,-93 849,-4 491,159 842,575 925,1094 19,121 13,360 -12,475 -56,258 -172,473 -357,665 -209,218 -465,352 -763,400 -108,18 -331,18 -435,0 z m 385,-722 c 221,-55 402,-237 460,-462 21,-81 21,-236 0,-316 -44,-173 -177,-336 -335,-414 -159,-78 -319,-90 -486,-37 -314,100 -506,438 -426,754 34,133 75,205 172,302 173,174 380,232 615,173 z"
         id="path2880" />
      <path
         d="m 9990,2816 c -232,-41 -439,-133 -628,-278 -75,-58 -208,-201 -269,-290 -103,-148 -180,-330 -220,-518 -27,-126 -25,-400 4,-530 94,-421 350,-753 730,-943 190,-96 381,-140 603,-140 281,0 511,69 760,230 104,68 294,256 365,363 228,343 292,753 179,1148 -33,118 -139,328 -218,433 -125,165 -327,330 -508,413 -89,41 -200,79 -301,101 -98,23 -396,29 -497,11 z m 385,-722 c 202,-52 381,-222 446,-424 33,-101 37,-255 10,-355 -33,-121 -84,-209 -171,-295 -154,-155 -369,-219 -582,-175 -192,41 -356,169 -441,346 -56,116 -71,188 -65,316 9,170 68,303 189,424 160,159 390,220 614,163 z"
         id="path2882" />
    </g>
    <g
       transform="matrix(0.001059,0,0,-0.001059,111.90993,70.398297)"
       fill="#000000"
       stroke="none"
       id="g2986">
      <path
         d="m 7412,12753 c -122,-285 -383,-924 -430,-1054 -251,-690 -394,-1545 -418,-2494 -13,-491 30,-824 142,-1115 114,-297 259,-545 561,-960 328,-450 558,-825 654,-1065 44,-111 87,-262 106,-375 22,-129 22,-393 -1,-520 -58,-329 -150,-569 -442,-1145 -201,-396 -326,-663 -411,-875 -78,-193 -206,-540 -202,-545 15,-14 923,-355 930,-348 24,25 786,1450 836,1567 271,620 416,1692 318,2349 -22,144 -58,284 -114,444 -112,316 -188,472 -287,583 -164,186 -492,625 -595,798 -252,423 -400,1025 -400,1622 0,275 14,429 62,695 46,251 65,314 385,1277 141,422 253,772 250,777 -8,13 -316,176 -455,240 -61,29 -187,82 -279,118 -92,36 -172,67 -178,70 -6,2 -20,-18 -32,-44 z"
         id="path2978" />
      <path
         d="m 5025,12720 c -2,-4 -35,-96 -74,-206 -117,-334 -205,-564 -345,-896 -35,-84 -81,-200 -101,-258 -141,-407 -243,-1049 -306,-1925 -16,-224 -16,-705 0,-835 16,-128 47,-259 102,-422 78,-234 128,-341 269,-578 193,-322 309,-484 529,-738 201,-232 212,-245 273,-337 153,-229 255,-514 310,-860 17,-110 22,-182 22,-340 0,-414 -69,-708 -306,-1305 -94,-236 -163,-377 -302,-620 -183,-316 -396,-759 -383,-794 3,-7 46,-41 97,-75 134,-92 274,-156 642,-292 l 77,-28 93,112 c 209,250 299,386 563,851 162,287 237,410 302,503 63,89 98,174 143,346 78,302 142,641 177,942 23,207 23,627 0,820 -53,428 -149,721 -342,1040 -99,164 -149,237 -357,513 -264,351 -406,576 -558,887 -139,285 -223,518 -269,750 -67,335 -49,712 54,1175 51,227 98,387 285,955 288,875 410,1258 405,1263 -12,12 -996,359 -1000,352 z"
         id="path2980" />
      <path
         d="m 2644,12558 c -4,-13 -90,-219 -191,-458 -102,-239 -202,-478 -223,-530 -163,-411 -335,-1164 -449,-1965 -87,-607 -80,-879 29,-1266 108,-381 237,-618 650,-1199 339,-477 568,-827 664,-1017 143,-283 201,-636 176,-1068 -34,-584 -109,-933 -279,-1290 -111,-233 -243,-445 -540,-864 -95,-134 -175,-250 -178,-256 -5,-15 318,-327 438,-423 77,-62 188,-135 306,-203 l 41,-24 184,181 c 101,100 196,189 211,199 44,28 135,176 255,412 127,252 198,405 254,553 181,474 296,1084 349,1841 15,230 7,711 -15,849 -60,366 -233,701 -661,1280 -280,378 -514,759 -645,1047 -95,211 -141,365 -177,594 -24,156 -24,529 0,718 63,480 150,814 372,1426 209,579 266,780 285,1003 17,218 21,272 18,272 -2,0 -192,47 -423,105 -231,58 -425,105 -432,105 -6,0 -15,-10 -19,-22 z"
         id="path2982" />
      <path
         d="m 10110,1253 c -969,-17 -2120,-41 -3515,-73 -236,-6 -722,-17 -1080,-25 -835,-19 -1405,-33 -2775,-65 -228,-5 -613,-14 -855,-20 -242,-6 -615,-15 -830,-20 -214,-5 -540,-13 -724,-16 L -3,1027 3,911 C 7,847 15,626 21,420 28,214 37,34 42,21 l 9,-24 477,7 c 432,6 944,16 2377,46 1559,33 2279,48 2800,60 237,5 629,14 873,20 243,5 641,15 885,20 243,6 636,15 872,20 237,5 637,14 890,20 253,6 640,15 860,20 220,5 540,13 712,16 172,4 317,10 322,14 7,4 -1,164 -25,501 -20,271 -37,495 -39,497 -18,19 -397,25 -945,15 z"
         id="path2984" />
    </g>
    <g
       id="g3009"
       transform="matrix(0.0323443,0,0,0.0323443,107.08605,26.351833)">
      <rect
         y="381.62088"
         x="167.68532"
         height="324.25897"
         width="287.89346"
         id="rect2996"
         style="fill:#000000;fill-opacity:1;stroke:none" />
      <rect
         ry="10.101525"
         y="307.05234"
         x="167.68532"
         height="68.690376"
         width="287.89346"
         id="rect2998"
         style="fill:#000000;fill-opacity:1;stroke:none" />
      <rect
         ry="7.5761437"
         y="316.97113"
         x="179.80716"
         height="46.467018"
         width="80.812202"
         id="rect3000"
         style="fill:#ffffff;fill-opacity:1;stroke:none" />
      <circle
         transform="translate(-174.28571,-120)"
         id="path3021-3"
         style="fill:#ffffff;fill-opacity:1;stroke:none"
         cx="506.07144"
         cy="461.29074"
         r="12.5" />
      <circle
         transform="translate(-135.36417,-120.61792)"
         id="path3021-7"
         style="fill:#ffffff;fill-opacity:1;stroke:none"
         cx="506.07144"
         cy="461.29074"
         r="12.5" />
      <path
         inkscape:connector-curvature="0"
         id="path3021-4"
         d="m 427.28414,322.89333 -3.8007,3.8007 c -6.80695,-4.6021 -16.11476,-3.9052 -22.14128,2.12132 -6.02664,6.02665 -6.74583,15.3564 -2.14342,22.16338 l -3.33666,3.33666 4.48571,4.48571 3.31456,-3.31456 c 6.82907,4.81283 16.31944,4.18666 22.42855,-1.92245 6.10989,-6.10989 6.73728,-15.59929 1.92244,-22.42854 l 3.75651,-3.75651 z"
         style="fill:#ffffff;fill-opacity:1;stroke:none" />
      <circle
         transform="matrix(1.2516556,0,0,1.2516556,295.82751,-47.790554)"
         id="path3051"
         style="fill:#ffffff;fill-opacity:1;stroke:none"
         cx="12.626906"
         cy="450.81635"
         r="76.266518" />
      <path
         inkscape:connector-curvature="0"
         id="path3051-9"
         d="m 310.65625,441.03125 c -23.20255,0 -43.93906,10.46188 -57.78125,26.9375 10.7147,13.02907 17.125,29.72056 17.125,47.90625 0,18.47097 -6.63757,35.38353 -17.65625,48.5 13.83954,16.82905 34.82297,27.5625 58.3125,27.5625 41.67508,0 75.46875,-33.79367 75.46875,-75.46875 0,-41.67508 -33.79367,-75.4375 -75.46875,-75.4375 z"
         style="fill:#000000;fill-opacity:1;stroke:none" />
      <rect
         ry="7.5761437"
         y="640.05591"
         x="357.86191"
         height="46.467018"
         width="80.812202"
         id="rect3000-1"
         style="fill:#ffffff;fill-opacity:1;stroke:none" />
    </g>
    <g
       transform="matrix(0.0011749,0,0,-0.0011749,110.10333,33.232745)"
       fill="#000000"
       stroke="none"
       id="g3204">
      <path
         d="m 5930,10719 c -231,-10 -379,-25 -660,-65 -106,-16 -600,-112 -720,-140 -126,-30 -628,-192 -915,-294 C 3122,10037 2534,9732 2020,9382 1536,9053 975,8571 892,8414 c -84,-161 -80,-365 10,-537 38,-73 161,-201 232,-242 172,-100 356,-107 531,-21 76,38 119,73 306,245 451,415 1062,823 1617,1080 391,182 1056,407 1442,490 414,88 954,141 1440,141 520,0 861,-44 1515,-195 433,-100 887,-263 1312,-472 625,-307 1138,-661 1656,-1141 121,-112 202,-160 315,-187 136,-33 299,-4 423,76 128,83 228,217 264,355 9,34 15,101 15,165 0,127 -21,206 -74,283 -59,85 -414,407 -691,627 -765,606 -1706,1084 -2660,1353 -441,124 -735,184 -1130,231 -71,8 -184,22 -250,30 -290,34 -785,44 -1235,24 z"
         id="path3196" />
      <path
         d="m 6095,8609 c -219,-11 -356,-27 -570,-66 -501,-91 -760,-158 -1093,-282 -733,-275 -1433,-715 -1943,-1221 -150,-149 -178,-192 -206,-323 -31,-148 0,-300 88,-432 94,-141 212,-226 367,-266 95,-24 159,-24 256,1 106,27 163,60 274,160 375,338 582,493 897,675 657,380 1485,605 2225,605 256,0 642,-41 915,-96 801,-163 1551,-552 2186,-1134 149,-137 212,-178 316,-205 122,-32 284,-12 396,47 80,43 203,161 250,239 119,202 106,454 -33,634 -44,57 -323,312 -470,429 -847,679 -1878,1098 -2985,1216 -262,27 -573,34 -870,19 z"
         id="path3198" />
      <path
         d="m 6145,6494 c -102,-9 -344,-45 -460,-70 -511,-109 -994,-325 -1394,-624 -151,-113 -382,-320 -448,-402 -166,-206 -172,-446 -18,-678 178,-268 514,-348 770,-185 28,17 104,81 170,141 149,135 223,194 344,273 305,200 624,318 992,366 153,20 494,20 641,-1 392,-54 775,-218 1123,-479 39,-29 130,-107 203,-174 187,-171 270,-207 452,-199 155,7 274,60 386,173 185,184 234,440 128,665 -30,64 -53,92 -157,195 -472,464 -1084,789 -1752,929 -256,53 -394,68 -670,71 -143,1 -282,1 -310,-1 z"
         id="path3200" />
      <path
         d="m 6255,4530 c -415,-59 -769,-316 -961,-697 -145,-287 -165,-642 -53,-946 157,-425 547,-746 983,-806 99,-14 273,-14 373,0 448,62 867,437 998,894 56,195 56,465 0,660 -147,508 -625,881 -1150,899 -71,3 -157,1 -190,-4 z"
         id="path3202" />
    </g>
    <path
       d="m 117.88172,10.224001 c 0.001,0.742959 -0.004,1.156345 -0.017,1.375112 -0.0114,0.17189 -0.0213,0.315367 -0.0241,0.316788 -0.004,0.0057 -1.24016,0.07529 -4.85551,0.277011 l -1.07537,0.05966 -0.2486,-0.2486 -0.24718,-0.248599 -0.0312,-0.277012 c -0.017,-0.152001 -0.0312,-0.278432 -0.0327,-0.279852 -0.001,-0.0028 -0.38639,-0.04688 -0.41338,-0.04688 -0.0156,0 -0.0213,0.01421 -0.0213,0.04972 0,0.02699 -0.004,0.04972 -0.01,0.04972 -0.006,0 -0.35088,-0.340937 -0.76711,-0.755744 -0.72591,-0.7244907 -0.75859,-0.7557426 -0.80546,-0.7529027 -0.11365,0.00994 -0.64921,0.085235 -0.65631,0.092338 -0.004,0.00426 0.0753,0.1789917 0.17615,0.3892367 0.90064,1.860947 1.08248,2.238819 1.07821,2.243081 -0.003,0.0028 -0.0554,0.01279 -0.1179,0.01989 -0.1932,0.02415 -0.35799,0.08523 -0.38924,0.140636 -0.0213,0.04262 -0.017,0.241497 0.009,0.326731 0.027,0.09234 0.0952,0.170469 0.20456,0.231553 l 0.0824,0.04688 -0.58244,0.454583 c -0.31963,0.250021 -0.58811,0.463107 -0.59664,0.47305 -0.009,0.0099 -0.0114,0.02131 -0.007,0.02557 0.004,0.0043 0.16337,-0.01279 0.3523,-0.03694 l 0.3452,-0.04546 0.60943,-0.296899 c 0.33525,-0.163366 0.61653,-0.2969 0.62647,-0.2969 0.01,0 0.0739,0.01989 0.1449,0.04262 0.33809,0.115067 1.72741,0.497201 1.90925,0.524191 0.18467,0.02841 0.6563,0.06393 1.59103,0.122169 1.25437,0.07813 1.80839,0.120749 2.01721,0.157684 0.0668,0.01136 0.17758,0.02699 0.2486,0.03551 0.0696,0.0085 0.12928,0.01705 0.1307,0.01847 0.007,0.0071 -0.15058,0.258544 -0.331,0.527032 l -0.18893,0.284114 -0.32247,0.29832 c -0.91769,0.849501 -3.13804,2.922113 -3.1423,2.933478 -0.009,0.02557 0.10086,0.126431 0.16194,0.150581 0.0753,0.02841 0.18325,0.01989 0.28269,-0.02273 0.17473,-0.07529 1.15493,-0.758586 3.10253,-2.164951 l 0.5455,-0.393498 0.4489,0.09944 c 0.61937,0.137796 0.82109,0.163366 1.41631,0.186095 0.19178,0.0071 0.36366,0.0071 0.38071,0 0.0412,-0.01563 0.0994,-0.08097 0.13354,-0.15058 0.0497,-0.09802 0.0923,-0.335255 0.0909,-0.504303 -0.001,-0.211665 -0.0312,-0.328152 -0.11365,-0.447479 -0.0582,-0.08523 -0.0767,-0.100861 -0.13779,-0.12359 -0.13637,-0.0483 -0.44037,-0.01989 -0.97167,0.0895 -0.0739,0.01563 -0.13495,0.02699 -0.1378,0.02415 -0.002,-0.0014 0.20741,-0.177571 0.46595,-0.390657 l 0.46879,-0.386395 h 0.12501 c 0.0696,0 0.17615,-0.0071 0.23724,-0.01563 0.16478,-0.02273 0.56254,-0.127851 0.82819,-0.218768 0.12927,-0.04404 0.26991,-0.08523 0.31252,-0.09234 0.21167,-0.03409 1.09527,-0.07387 3.2176,-0.142057 1.36943,-0.04404 1.52285,-0.05256 1.70468,-0.09234 0.49578,-0.110805 1.23022,-0.379292 1.43478,-0.525611 0.17757,-0.12501 0.20314,-0.181833 0.18041,-0.377872 -0.01,-0.07813 -0.027,-0.164786 -0.0384,-0.193197 -0.0554,-0.130693 -0.16194,-0.218768 -0.43327,-0.357984 -0.14348,-0.07387 -0.21735,-0.12217 -0.34236,-0.228712 -0.22445,-0.190357 -0.30116,-0.24718 -0.43895,-0.318208 -0.24292,-0.126431 -0.59522,-0.188936 -1.36375,-0.242918 l -0.33383,-0.02415 -2.16637,0.122169 c -1.19186,0.06677 -2.19763,0.12217 -2.23456,0.12217 -0.0426,0 -0.0668,-0.0057 -0.0668,-0.01705 0,-0.01563 -0.15342,-0.519929 -0.64068,-2.1052855 -0.0682,-0.2258724 -0.12785,-0.4119669 -0.12927,-0.4133868 -0.006,-0.00284 -0.61368,-0.1349536 -0.62505,-0.1349536 -0.004,0 -0.007,0.4773106 -0.006,1.0611659 z"
       id="path3299"
       style="fill:#000000;stroke:none;stroke-width:0.00142057" />
  </g>
</svg>
