<svg width="264mm" height="171mm" viewBox="0 0 26400 17100" stroke-width="28.222" stroke-linejoin="round" xml:space="preserve" xmlns="http://www.w3.org/2000/svg"><path fill="none" stroke="#B3B3B3" d="M14149 13683H2675V2820h22949v10863H14149zM25624 13682H2675M25624 11871H2675M25624 10060H2675M25624 8251H2675"/><path fill="none" stroke="#b3b3b3" d="m7422.76 16811.997-1.964-13999.996" style="stroke-width:28.20000018;stroke-miterlimit:4;stroke-dasharray:none"/><path fill="none" stroke="#b3b3b3" d="m15337.759 16802.372-1.963-13999.996M19292.761 16804.845l-1.963-13999.996M20875.874 16805.807l-1.963-13999.997M22457.549 16805.785l-1.963-13999.997M24041.399 16805.333l-1.963-13999.997" style="stroke-width:28.2;stroke-miterlimit:4;stroke-dasharray:none"/><path fill="none" stroke="#B3B3B3" d="M25624 6440H2675M25624 4629H2675M25624 2818H2675M2675 13832v-150M2675 13832v-150M3466 13832v-150M3466 13832v-150M4257 13832v-150M4257 13832v-150M5049 13832v-150M5049 13832v-150M5840 13832v-150M5840 13832v-150M6631 13832v-150M6631 13832v-150M7423 13832v-150M7423 13832v-150M8214 13832v-150M8214 13832v-150M9006 13832v-150M9006 13832v-150M9797 13832v-150M9797 13832v-150M10588 13832v-150M10588 13832v-150M11380 13832v-150M11380 13832v-150M12171 13832v-150M12171 13832v-150M12962 13832v-150M12962 13832v-150M13753 13832v-150M13753 13832v-150M14544 13832v-150M14544 13832v-150M15336 13832v-150M15336 13832v-150M16127 13832v-150M16127 13832v-150M16918 13832v-150M16918 13832v-150M17710 13832v-150M17710 13832v-150M18501 13832v-150M18501 13832v-150M19292 13832v-150M19292 13832v-150M20084 13832v-150M20084 13832v-150M20875 13832v-150M20875 13832v-150M21667 13832v-150M21667 13832v-150M22458 13832v-150M22458 13832v-150M23249 13832v-150M23249 13832v-150M24041 13832v-150M24041 13832v-150M24832 13832v-150M24832 13832v-150M25624 13832v-150M25624 13832v-150M2675 13682h22949M2525 13682h150M2525 13682h150M2525 11871h150M2525 11871h150M2525 10060h150M2525 10060h150M2525 8251h150M2525 8251h150M2525 6440h150M2525 6440h150M2525 4629h150M2525 4629h150M2525 2818h150M2525 2818h150M2675 13682V2818"/><path fill="#7CFC00" d="M2945 13155h250l-125-250-125 250z"/><path fill="none" stroke="#7CFC00" d="M2945 13155h250l-125-250-125 250z"/><path fill="#7CFC00" d="M3737 13517h250l-125-250-125 250z"/><path fill="none" stroke="#7CFC00" d="M3737 13517h250l-125-250-125 250z"/><path fill="#7CFC00" d="M4528 13807h250l-125-250-125 250z"/><path fill="none" stroke="#7CFC00" d="M4528 13807h250l-125-250-125 250z"/><path fill="#7CFC00" d="M5319 10692h250l-125-250-125 250z"/><path fill="none" stroke="#7CFC00" d="M5319 10692h250l-125-250-125 250z"/><path fill="#7CFC00" d="M6111 13770h250l-125-250-125 250z"/><path fill="none" stroke="#7CFC00" d="M6111 13770h250l-125-250-125 250z"/><path fill="#7CFC00" d="M6902 10837h250l-125-250-125 250z"/><path fill="none" stroke="#7CFC00" d="M6902 10837h250l-125-250-125 250z"/><path fill="#7CFC00" d="M7693 7289h250l-125-250-125 250z"/><path fill="none" stroke="#7CFC00" d="M7693 7289h250l-125-250-125 250z"/><path fill="#7CFC00" d="M8485 10547h250l-125-250-125 250z"/><path fill="none" stroke="#7CFC00" d="M8485 10547h250l-125-250-125 250z"/><path fill="#7CFC00" d="M9276 11634h250l-125-250-125 250z"/><path fill="none" stroke="#7CFC00" d="M9276 11634h250l-125-250-125 250z"/><path fill="#7CFC00" d="M10068 12177h250l-125-250-125 250z"/><path fill="none" stroke="#7CFC00" d="M10068 12177h250l-125-250-125 250z"/><path fill="#7CFC00" d="M10859 12503h250l-125-250-125 250z"/><path fill="none" stroke="#7CFC00" d="M10859 12503h250l-125-250-125 250z"/><path fill="#7CFC00" d="M11650 8013h250l-125-250-125 250z"/><path fill="none" stroke="#7CFC00" d="M11650 8013h250l-125-250-125 250z"/><path fill="#7CFC00" d="M12442 10909h250l-125-250-125 250z"/><path fill="none" stroke="#7CFC00" d="M12442 10909h250l-125-250-125 250z"/><path fill="#7CFC00" d="M13232 11875h250l-125-250-125 250z"/><path fill="none" stroke="#7CFC00" d="M13232 11875h250l-125-250-125 250z"/><path fill="#7CFC00" d="M14024 12358h250l-125-250-125 250z"/><path fill="none" stroke="#7CFC00" d="M14024 12358h250l-125-250-125 250z"/><path fill="#7CFC00" d="M14815 12648h250l-125-250-125 250z"/><path fill="none" stroke="#7CFC00" d="M14815 12648h250l-125-250-125 250z"/><path fill="#7CFC00" d="M15606 12744h250l-125-250-125 250z"/><path fill="none" stroke="#7CFC00" d="M15606 12744h250l-125-250-125 250z"/><path fill="#7CFC00" d="M16398 13275h250l-125-250-125 250z"/><path fill="none" stroke="#7CFC00" d="M16398 13275h250l-125-250-125 250z"/><path fill="#7CFC00" d="M17189 13452h250l-125-250-125 250z"/><path fill="none" stroke="#7CFC00" d="M17189 13452h250l-125-250-125 250z"/><path fill="#7CFC00" d="M17980 13541h250l-125-250-125 250z"/><path fill="none" stroke="#7CFC00" d="M17980 13541h250l-125-250-125 250z"/><path fill="#7CFC00" d="M18772 13594h250l-125-250-125 250z"/><path fill="none" stroke="#7CFC00" d="M18772 13594h250l-125-250-125 250z"/><path fill="#7CFC00" d="M19563 12177h250l-125-250-125 250z"/><path fill="none" stroke="#7CFC00" d="M19563 12177h250l-125-250-125 250z"/><path fill="#7CFC00" d="M20355 12992h250l-125-250-125 250z"/><path fill="none" stroke="#7CFC00" d="M20355 12992h250l-125-250-125 250z"/><path fill="#7CFC00" d="M21146 12779h250l-125-250-125 250z"/><path fill="none" stroke="#7CFC00" d="M21146 12779h250l-125-250-125 250z"/><path fill="#7CFC00" d="M21937 13293h250l-125-250-125 250z"/><path fill="none" stroke="#7CFC00" d="M21937 13293h250l-125-250-125 250z"/><path fill="#7CFC00" d="M22729 13736h250l-125-250-125 250z"/><path fill="none" stroke="#7CFC00" d="M22729 13736h250l-125-250-125 250z"/><path fill="#7CFC00" d="M23520 13771h250l-125-250-125 250z"/><path fill="none" stroke="#7CFC00" d="M23520 13771h250l-125-250-125 250z"/><path fill="#7CFC00" d="M24311 12648h250l-125-250-125 250z"/><path fill="none" stroke="#7CFC00" d="M24311 12648h250l-125-250-125 250z"/><path fill="#7CFC00" d="M25103 13227h250l-125-250-125 250z"/><path fill="none" stroke="#7CFC00" d="M25103 13227h250l-125-250-125 250z"/><path fill="red" d="m2945 8776 125 250 125-250h-250z"/><path fill="none" stroke="red" d="m2945 8776 125 250 125-250h-250z"/><path fill="red" d="m3737 9573 125 250 125-250h-250z"/><path fill="none" stroke="red" d="m3737 9573 125 250 125-250h-250z"/><path fill="red" d="m4528 11396 125 250 125-250h-250z"/><path fill="none" stroke="red" d="m4528 11396 125 250 125-250h-250z"/><path fill="red" d="m5319 5591 125 250 125-250h-250z"/><path fill="none" stroke="red" d="m5319 5591 125 250 125-250h-250z"/><path fill="red" d="m6111 13375 125 250 125-250h-250z"/><path fill="none" stroke="red" d="m6111 13375 125 250 125-250h-250z"/><path fill="red" d="m6902 4504 125 250 125-250h-250z"/><path fill="none" stroke="red" d="m6902 4504 125 250 125-250h-250z"/><path fill="red" d="m7693 3780 125 250 125-250h-250z"/><path fill="none" stroke="red" d="m7693 3780 125 250 125-250h-250z"/><path fill="red" d="m8485 8668 125 250 125-250h-250z"/><path fill="none" stroke="red" d="m8485 8668 125 250 125-250h-250z"/><path fill="red" d="m9276 10297 125 250 125-250h-250z"/><path fill="none" stroke="red" d="m9276 10297 125 250 125-250h-250z"/><path fill="red" d="m10068 11112 125 250 125-250h-250z"/><path fill="none" stroke="red" d="m10068 11112 125 250 125-250h-250z"/><path fill="red" d="m10859 11601 125 250 125-250h-250z"/><path fill="none" stroke="red" d="m10859 11601 125 250 125-250h-250z"/><path fill="red" d="m11650 6315 125 250 125-250h-250z"/><path fill="none" stroke="red" d="m11650 6315 125 250 125-250h-250z"/><path fill="red" d="m12442 9935 125 250 125-250h-250z"/><path fill="none" stroke="red" d="m12442 9935 125 250 125-250h-250z"/><path fill="red" d="m13232 11142 125 250 125-250h-250z"/><path fill="none" stroke="red" d="m13232 11142 125 250 125-250h-250z"/><path fill="red" d="m14024 11746 125 250 125-250h-250z"/><path fill="none" stroke="red" d="m14024 11746 125 250 125-250h-250z"/><path fill="red" d="m14815 12108 125 250 125-250h-250z"/><path fill="none" stroke="red" d="m14815 12108 125 250 125-250h-250z"/><path fill="red" d="m15606 12494 125 250 125-250h-250z"/><path fill="none" stroke="red" d="m15606 12494 125 250 125-250h-250z"/><path fill="red" d="m16398 13025 125 250 125-250h-250z"/><path fill="none" stroke="red" d="m16398 13025 125 250 125-250h-250z"/><path fill="red" d="m17189 13202 125 250 125-250h-250z"/><path fill="none" stroke="red" d="m17189 13202 125 250 125-250h-250z"/><path fill="red" d="m17980 13291 125 250 125-250h-250z"/><path fill="none" stroke="red" d="m17980 13291 125 250 125-250h-250z"/><path fill="red" d="m18772 13344 125 250 125-250h-250z"/><path fill="none" stroke="red" d="m18772 13344 125 250 125-250h-250z"/><path fill="red" d="m19563 11384 125 250 125-250h-250z"/><path fill="none" stroke="red" d="m19563 11384 125 250 125-250h-250z"/><path fill="red" d="m20355 12470 125 250 125-250h-250z"/><path fill="none" stroke="red" d="m20355 12470 125 250 125-250h-250z"/><path fill="red" d="m21146 12240 125 250 125-250h-250z"/><path fill="none" stroke="red" d="m21146 12240 125 250 125-250h-250z"/><path fill="red" d="m21937 12898 125 250 125-250h-250z"/><path fill="none" stroke="red" d="m21937 12898 125 250 125-250h-250z"/><path fill="red" d="m22729 13378 125 250 125-250h-250z"/><path fill="none" stroke="red" d="m22729 13378 125 250 125-250h-250z"/><path fill="red" d="m23520 13467 125 250 125-250h-250z"/><path fill="none" stroke="red" d="m23520 13467 125 250 125-250h-250z"/><path fill="red" d="m24311 11275 125 250 125-250h-250z"/><path fill="none" stroke="red" d="m24311 11275 125 250 125-250h-250z"/><path fill="red" d="m25103 12416 125 250 125-250h-250z"/><path fill="none" stroke="red" d="m25103 12416 125 250 125-250h-250z"/><path fill="#FFD320" d="M3195 11690v-11l-1-6-1-5-1-5-1-6-2-5-1-5-2-5-3-5-2-5-3-5-2-4-3-5-4-4-3-5-4-4-3-4-4-3-4-4-5-3-4-4-5-3-4-2-5-3-5-3-5-2-5-2-5-1-5-2-6-1-5-1-5-1-6-1h-22l-5 1-6 1-5 1-5 1-5 2-6 1-5 2-5 2-5 3-4 3-5 2-5 3-4 4-4 3-4 4-4 3-4 4-4 4-3 5-3 4-3 5-3 4-3 5-2 5-2 5-2 5-2 5-2 5-1 6-1 5-1 5v6l-1 5v11l1 6v5l1 5 1 6 1 5 2 5 2 6 2 5 2 5 2 4 3 5 3 5 3 4 3 5 3 4 4 4 4 4 4 4 4 4 4 3 4 3 5 3 5 3 4 3 5 2 5 2 5 2 6 2 5 2 5 1 5 1 6 1h5l6 1h11l5-1h6l5-1 5-1 6-1 5-2 5-2 5-2 5-2 5-2 5-3 4-3 5-3 4-3 5-3 4-4 4-4 3-4 4-4 3-4 4-5 3-4 2-5 3-5 2-4 3-5 2-5 1-6 2-5 1-5 1-6 1-5 1-5v-11z"/><path fill="none" stroke="#FFD320" d="M3195 11690v-11l-1-6-1-5-1-5-1-6-2-5-1-5-2-5-3-5-2-5-3-5-2-4-3-5-4-4-3-5-4-4-3-4-4-3-4-4-5-3-4-4-5-3-4-2-5-3-5-3-5-2-5-2-5-1-5-2-6-1-5-1-5-1-6-1h-22l-5 1-6 1-5 1-5 1-5 2-6 1-5 2-5 2-5 3-4 3-5 2-5 3-4 4-4 3-4 4-4 3-4 4-4 4-3 5-3 4-3 5-3 4-3 5-2 5-2 5-2 5-2 5-2 5-1 6-1 5-1 5v6l-1 5v11l1 6v5l1 5 1 6 1 5 2 5 2 6 2 5 2 5 2 4 3 5 3 5 3 4 3 5 3 4 4 4 4 4 4 4 4 4 4 3 4 3 5 3 5 3 4 3 5 2 5 2 5 2 6 2 5 2 5 1 5 1 6 1h5l6 1h11l5-1h6l5-1 5-1 6-1 5-2 5-2 5-2 5-2 5-2 5-3 4-3 5-3 4-3 5-3 4-4 4-4 3-4 4-4 3-4 4-5 3-4 2-5 3-5 2-4 3-5 2-5 1-6 2-5 1-5 1-6 1-5 1-5v-11z"/><path fill="#FFD320" d="m3987 12740-1-5v-6l-1-5v-6l-1-5-2-5-1-6-2-5-2-5-2-5-3-5-2-5-3-4-3-5-3-4-4-4-3-4-4-4-4-4-4-4-4-3-5-3-4-3-5-3-5-3-5-2-5-3-5-2-5-1-5-2-5-1-6-1-5-1-6-1h-21l-6 1-5 1-5 1-6 1-5 2-5 1-5 2-5 3-5 2-5 3-5 3-4 3-5 3-4 3-4 4-4 4-4 4-3 4-4 4-3 4-3 5-3 4-2 5-3 5-2 5-2 5-2 5-1 6-1 5-2 5v6l-1 5v22l1 5v6l2 5 1 5 1 6 2 5 2 5 2 5 3 5 2 4 3 5 3 5 3 4 4 4 3 4 4 4 4 4 4 4 4 3 5 3 4 3 5 3 5 3 5 2 5 2 5 2 5 2 5 2 6 1 5 1 5 1h6l5 1h11l5-1h6l5-1 6-1 5-1 5-2 5-2 5-2 5-2 5-2 5-3 5-3 4-3 5-3 4-3 4-4 4-4 4-4 3-4 4-4 3-4 3-5 3-5 2-4 3-5 2-5 2-5 2-5 1-6 2-5 1-5v-6l1-5v-6l1-5z"/><path fill="none" stroke="#FFD320" d="m3987 12740-1-5v-6l-1-5v-6l-1-5-2-5-1-6-2-5-2-5-2-5-3-5-2-5-3-4-3-5-3-4-4-4-3-4-4-4-4-4-4-4-4-3-5-3-4-3-5-3-5-3-5-2-5-3-5-2-5-1-5-2-5-1-6-1-5-1-6-1h-21l-6 1-5 1-5 1-6 1-5 2-5 1-5 2-5 3-5 2-5 3-5 3-4 3-5 3-4 3-4 4-4 4-4 4-3 4-4 4-3 4-3 5-3 4-2 5-3 5-2 5-2 5-2 5-1 6-1 5-2 5v6l-1 5v22l1 5v6l2 5 1 5 1 6 2 5 2 5 2 5 3 5 2 4 3 5 3 5 3 4 4 4 3 4 4 4 4 4 4 4 4 3 5 3 4 3 5 3 5 3 5 2 5 2 5 2 5 2 5 2 6 1 5 1 5 1h6l5 1h11l5-1h6l5-1 6-1 5-1 5-2 5-2 5-2 5-2 5-2 5-3 5-3 4-3 5-3 4-3 4-4 4-4 4-4 3-4 4-4 3-4 3-5 3-5 2-4 3-5 2-5 2-5 2-5 1-6 2-5 1-5v-6l1-5v-6l1-5z"/><path fill="#FFD320" d="M4778 12776v-5l-1-6v-5l-1-6-1-5-1-5-2-5-2-6-2-5-2-5-2-5-3-4-3-5-3-5-3-4-3-4-4-4-4-4-4-4-4-4-4-3-4-3-5-3-5-3-4-3-5-2-5-2-5-2-5-2-6-2-5-1-5-1-6-1h-5l-6-1h-11l-5 1h-5l-6 1-5 1-5 1-6 2-5 2-5 2-5 2-5 2-5 3-4 3-5 3-4 3-4 3-5 4-3 4-4 4-4 4-3 4-3 4-3 5-3 5-3 4-2 5-3 5-2 5-1 6-2 5-1 5-1 5-1 6-1 5v22l1 5 1 6 1 5 1 6 2 5 1 5 2 5 3 5 2 5 3 5 3 4 3 5 3 4 3 5 4 4 4 4 3 3 5 4 4 3 4 4 5 3 4 2 5 3 5 2 5 3 5 2 5 1 6 2 5 1 5 1 6 1 5 1h22l5-1 6-1 5-1 5-1 6-2 5-1 5-2 5-3 5-2 4-3 5-2 5-3 4-4 4-3 4-4 4-3 4-4 4-4 3-5 3-4 3-5 3-4 3-5 2-5 2-5 2-5 2-5 2-5 1-6 1-5 1-6v-5l1-5v-6z"/><path fill="none" stroke="#FFD320" d="M4778 12776v-5l-1-6v-5l-1-6-1-5-1-5-2-5-2-6-2-5-2-5-2-5-3-4-3-5-3-5-3-4-3-4-4-4-4-4-4-4-4-4-4-3-4-3-5-3-5-3-4-3-5-2-5-2-5-2-5-2-6-2-5-1-5-1-6-1h-5l-6-1h-11l-5 1h-5l-6 1-5 1-5 1-6 2-5 2-5 2-5 2-5 2-5 3-4 3-5 3-4 3-4 3-5 4-3 4-4 4-4 4-3 4-3 4-3 5-3 5-3 4-2 5-3 5-2 5-1 6-2 5-1 5-1 5-1 6-1 5v22l1 5 1 6 1 5 1 6 2 5 1 5 2 5 3 5 2 5 3 5 3 4 3 5 3 4 3 5 4 4 4 4 3 3 5 4 4 3 4 4 5 3 4 2 5 3 5 2 5 3 5 2 5 1 6 2 5 1 5 1 6 1 5 1h22l5-1 6-1 5-1 5-1 6-2 5-1 5-2 5-3 5-2 4-3 5-2 5-3 4-4 4-3 4-4 4-3 4-4 4-4 3-5 3-4 3-5 3-4 3-5 2-5 2-5 2-5 2-5 2-5 1-6 1-5 1-6v-5l1-5v-6z"/><path fill="#FFD320" d="M5569 9336v-11l-1-5-1-6-1-5-1-5-1-6-2-5-2-5-2-5-3-5-2-5-3-4-3-5-4-4-3-4-4-5-3-3-4-4-4-4-5-3-4-3-5-4-4-2-5-3-5-2-5-3-5-2-5-1-5-2-6-1-5-1-5-1-6-1h-22l-5 1-5 1-6 1-5 1-5 2-5 1-6 2-4 3-5 2-5 3-5 2-4 4-5 3-4 3-4 4-4 4-4 3-3 5-4 4-3 4-3 5-3 4-3 5-2 5-2 5-2 5-2 5-1 6-2 5-1 5-1 6v5l-1 5v11l1 6v5l1 6 1 5 2 5 1 5 2 6 2 5 2 5 2 5 3 4 3 5 3 5 3 4 4 4 3 4 4 4 4 4 4 4 4 3 5 3 4 3 5 3 5 3 5 2 4 2 6 2 5 2 5 2 5 1 6 1 5 1h5l6 1h11l5-1h6l5-1 5-1 6-1 5-2 5-2 5-2 5-2 5-2 5-3 4-3 5-3 4-3 5-3 4-4 4-4 3-4 4-4 3-4 4-4 3-5 3-5 2-4 3-5 2-5 2-5 2-6 1-5 1-5 1-5 1-6 1-5v-11z"/><path fill="none" stroke="#FFD320" d="M5569 9336v-11l-1-5-1-6-1-5-1-5-1-6-2-5-2-5-2-5-3-5-2-5-3-4-3-5-4-4-3-4-4-5-3-3-4-4-4-4-5-3-4-3-5-4-4-2-5-3-5-2-5-3-5-2-5-1-5-2-6-1-5-1-5-1-6-1h-22l-5 1-5 1-6 1-5 1-5 2-5 1-6 2-4 3-5 2-5 3-5 2-4 4-5 3-4 3-4 4-4 4-4 3-3 5-4 4-3 4-3 5-3 4-3 5-2 5-2 5-2 5-2 5-1 6-2 5-1 5-1 6v5l-1 5v11l1 6v5l1 6 1 5 2 5 1 5 2 6 2 5 2 5 2 5 3 4 3 5 3 5 3 4 4 4 3 4 4 4 4 4 4 4 4 3 5 3 4 3 5 3 5 3 5 2 4 2 6 2 5 2 5 2 5 1 6 1 5 1h5l6 1h11l5-1h6l5-1 5-1 6-1 5-2 5-2 5-2 5-2 5-2 5-3 4-3 5-3 4-3 5-3 4-4 4-4 3-4 4-4 3-4 4-4 3-5 3-5 2-4 3-5 2-5 2-5 2-6 1-5 1-5 1-5 1-6 1-5v-11z"/><path fill="#FFD320" d="M6361 13573v-6l-1-5v-5l-1-6-1-5-2-5-1-6-2-5-2-5-2-5-2-5-3-5-3-4-3-5-3-4-4-4-3-5-4-4-4-3-4-4-4-3-5-4-4-3-5-2-5-3-4-2-5-3-6-2-5-1-5-2-5-1-6-1-5-1-5-1h-22l-6 1-5 1-5 1-6 1-5 2-5 1-5 2-5 3-5 2-5 3-4 2-5 3-4 4-5 3-4 4-4 3-3 4-4 5-3 4-4 4-3 5-3 4-2 5-3 5-2 5-2 5-2 5-1 6-1 5-1 5-1 6-1 5v22l1 5 1 6 1 5 1 5 1 5 2 6 2 5 2 5 3 5 2 4 3 5 3 5 4 4 3 4 4 4 3 4 4 4 4 4 5 3 4 3 5 3 4 3 5 3 5 2 5 2 5 2 5 2 5 2 6 1 5 1 5 1h6l5 1h11l6-1h5l5-1 6-1 5-1 5-2 5-2 6-2 5-2 4-2 5-3 5-3 4-3 5-3 4-3 4-4 4-4 4-4 3-4 4-4 3-4 3-5 3-5 3-4 2-5 2-5 2-5 2-6 1-5 2-5 1-5 1-6v-5l1-6v-5z"/><path fill="none" stroke="#FFD320" d="M6361 13573v-6l-1-5v-5l-1-6-1-5-2-5-1-6-2-5-2-5-2-5-2-5-3-5-3-4-3-5-3-4-4-4-3-5-4-4-4-3-4-4-4-3-5-4-4-3-5-2-5-3-4-2-5-3-6-2-5-1-5-2-5-1-6-1-5-1-5-1h-22l-6 1-5 1-5 1-6 1-5 2-5 1-5 2-5 3-5 2-5 3-4 2-5 3-4 4-5 3-4 4-4 3-3 4-4 5-3 4-4 4-3 5-3 4-2 5-3 5-2 5-2 5-2 5-1 6-1 5-1 5-1 6-1 5v22l1 5 1 6 1 5 1 5 1 5 2 6 2 5 2 5 3 5 2 4 3 5 3 5 4 4 3 4 4 4 3 4 4 4 4 4 5 3 4 3 5 3 4 3 5 3 5 2 5 2 5 2 5 2 5 2 6 1 5 1 5 1h6l5 1h11l6-1h5l5-1 6-1 5-1 5-2 5-2 6-2 5-2 4-2 5-3 5-3 4-3 5-3 4-3 4-4 4-4 4-4 3-4 4-4 3-4 3-5 3-5 3-4 2-5 2-5 2-5 2-6 1-5 2-5 1-5 1-6v-5l1-6v-5z"/><path fill="#FFD320" d="M7152 7164v-11l-1-5-1-6-1-5-1-5-2-5-1-6-2-5-3-5-2-5-3-4-2-5-4-5-3-4-3-4-4-4-4-4-3-4-5-4-4-3-4-3-5-3-4-3-5-3-5-2-5-2-5-2-5-2-6-2-5-1-5-1-6-1h-5l-5-1h-11l-6 1h-5l-6 1-5 1-5 1-6 2-5 2-5 2-5 2-5 2-4 3-5 3-5 3-4 3-4 3-4 4-4 4-4 4-4 4-3 4-3 4-3 5-3 5-3 4-2 5-2 5-2 5-2 6-2 5-1 5-1 5-1 6v5l-1 6v11l1 5v5l1 6 1 5 1 5 2 6 2 5 2 5 2 5 2 5 3 5 3 4 3 5 3 4 3 4 4 5 4 3 4 4 4 4 4 3 4 3 5 4 5 2 4 3 5 2 5 3 5 2 5 1 6 2 5 1 5 1 6 1 5 1h22l5-1 6-1 5-1 5-1 6-2 5-1 5-2 5-3 5-2 5-3 4-2 5-4 4-3 4-3 5-4 3-4 4-3 4-5 3-4 3-4 4-5 2-4 3-5 2-5 3-5 2-5 1-5 2-6 1-5 1-5 1-6 1-5v-11z"/><path fill="none" stroke="#FFD320" d="M7152 7164v-11l-1-5-1-6-1-5-1-5-2-5-1-6-2-5-3-5-2-5-3-4-2-5-4-5-3-4-3-4-4-4-4-4-3-4-5-4-4-3-4-3-5-3-4-3-5-3-5-2-5-2-5-2-5-2-6-2-5-1-5-1-6-1h-5l-5-1h-11l-6 1h-5l-6 1-5 1-5 1-6 2-5 2-5 2-5 2-5 2-4 3-5 3-5 3-4 3-4 3-4 4-4 4-4 4-4 4-3 4-3 4-3 5-3 5-3 4-2 5-2 5-2 5-2 6-2 5-1 5-1 5-1 6v5l-1 6v11l1 5v5l1 6 1 5 1 5 2 6 2 5 2 5 2 5 2 5 3 5 3 4 3 5 3 4 3 4 4 5 4 3 4 4 4 4 4 3 4 3 5 4 5 2 4 3 5 2 5 3 5 2 5 1 6 2 5 1 5 1 6 1 5 1h22l5-1 6-1 5-1 5-1 6-2 5-1 5-2 5-3 5-2 5-3 4-2 5-4 4-3 4-3 5-4 3-4 4-3 4-5 3-4 3-4 4-5 2-4 3-5 2-5 3-5 2-5 1-5 2-6 1-5 1-5 1-6 1-5v-11z"/><path fill="#FFD320" d="M7943 6078v-11l-1-6v-5l-1-5-2-6-1-5-2-5-2-5-2-5-3-5-2-5-3-4-3-5-3-4-4-5-3-4-4-4-4-3-4-4-4-3-5-4-4-3-5-3-5-2-5-3-5-2-5-2-5-2-5-1-5-1-6-1-5-1-6-1h-21l-6 1-5 1-6 1-5 1-5 1-5 2-5 2-5 2-5 3-5 2-5 3-4 3-5 4-4 3-4 4-4 3-4 4-3 4-4 5-3 4-3 5-3 4-2 5-3 5-2 5-2 5-2 5-1 5-2 6-1 5v5l-1 6v5l-1 6 1 5v6l1 5v5l1 6 2 5 1 5 2 5 2 6 2 5 3 4 2 5 3 5 3 4 3 5 4 4 3 4 4 4 4 4 4 3 4 4 5 3 4 3 5 3 5 3 5 2 5 2 5 2 5 2 5 1 5 2 6 1 5 1h6l5 1h11l5-1h6l5-1 6-1 5-2 5-1 5-2 5-2 5-2 5-2 5-3 5-3 4-3 5-3 4-4 4-3 4-4 4-4 3-4 4-4 3-5 3-4 3-5 2-5 3-4 2-5 2-6 2-5 1-5 2-5 1-6v-5l1-5v-11z"/><path fill="none" stroke="#FFD320" d="M7943 6078v-11l-1-6v-5l-1-5-2-6-1-5-2-5-2-5-2-5-3-5-2-5-3-4-3-5-3-4-4-5-3-4-4-4-4-3-4-4-4-3-5-4-4-3-5-3-5-2-5-3-5-2-5-2-5-2-5-1-5-1-6-1-5-1-6-1h-21l-6 1-5 1-6 1-5 1-5 1-5 2-5 2-5 2-5 3-5 2-5 3-4 3-5 4-4 3-4 4-4 3-4 4-3 4-4 5-3 4-3 5-3 4-2 5-3 5-2 5-2 5-2 5-1 5-2 6-1 5v5l-1 6v5l-1 6 1 5v6l1 5v5l1 6 2 5 1 5 2 5 2 6 2 5 3 4 2 5 3 5 3 4 3 5 4 4 3 4 4 4 4 4 4 3 4 4 5 3 4 3 5 3 5 3 5 2 5 2 5 2 5 2 5 1 5 2 6 1 5 1h6l5 1h11l5-1h6l5-1 6-1 5-2 5-1 5-2 5-2 5-2 5-2 5-3 5-3 4-3 5-3 4-4 4-3 4-4 4-4 3-4 4-4 3-5 3-4 3-5 2-5 3-4 2-5 2-6 2-5 1-5 2-5 1-6v-5l1-5v-11z"/><path fill="#FFD320" d="M8735 9879v-5l-1-6v-5l-1-6-1-5-1-5-2-5-2-6-2-5-2-5-2-5-3-4-3-5-3-5-3-4-3-4-4-4-4-4-4-4-4-4-4-3-4-3-5-3-5-3-4-3-5-2-5-2-5-2-6-2-5-2-5-1-5-1-6-1h-5l-6-1h-11l-5 1h-5l-6 1-5 1-6 1-5 2-5 2-5 2-5 2-5 2-5 3-4 3-5 3-4 3-5 3-4 4-4 4-3 4-4 4-3 4-4 4-3 5-2 5-3 4-2 5-3 5-2 5-1 6-2 5-1 5-1 5-1 6-1 5v22l1 5 1 6 1 5 1 5 2 6 1 5 2 5 3 5 2 5 3 5 2 4 3 5 4 4 3 4 4 5 3 3 4 4 4 4 5 3 4 3 5 4 4 2 5 3 5 2 5 3 5 2 5 1 5 2 6 1 5 1 6 1 5 1h22l5-1 6-1 5-1 5-1 5-2 6-1 5-2 5-3 5-2 4-3 5-2 5-4 4-3 4-3 4-4 4-4 4-3 4-5 3-4 3-4 3-5 3-4 3-5 2-5 2-5 2-5 2-5 2-6 1-5 1-5 1-6v-5l1-5v-6z"/><path fill="none" stroke="#FFD320" d="M8735 9879v-5l-1-6v-5l-1-6-1-5-1-5-2-5-2-6-2-5-2-5-2-5-3-4-3-5-3-5-3-4-3-4-4-4-4-4-4-4-4-4-4-3-4-3-5-3-5-3-4-3-5-2-5-2-5-2-6-2-5-2-5-1-5-1-6-1h-5l-6-1h-11l-5 1h-5l-6 1-5 1-6 1-5 2-5 2-5 2-5 2-5 2-5 3-4 3-5 3-4 3-5 3-4 4-4 4-3 4-4 4-3 4-4 4-3 5-2 5-3 4-2 5-3 5-2 5-1 6-2 5-1 5-1 5-1 6-1 5v22l1 5 1 6 1 5 1 5 2 6 1 5 2 5 3 5 2 5 3 5 2 4 3 5 4 4 3 4 4 5 3 3 4 4 4 4 5 3 4 3 5 4 4 2 5 3 5 2 5 3 5 2 5 1 5 2 6 1 5 1 6 1 5 1h22l5-1 6-1 5-1 5-1 5-2 6-1 5-2 5-3 5-2 4-3 5-2 5-4 4-3 4-3 4-4 4-4 4-3 4-5 3-4 3-4 3-5 3-4 3-5 2-5 2-5 2-5 2-5 2-6 1-5 1-5 1-6v-5l1-5v-6z"/><path fill="#FFD320" d="M9526 11147v-11l-1-6-1-5-1-5-1-6-2-5-1-5-2-5-2-5-3-5-3-5-2-5-3-4-4-5-3-4-4-4-3-4-4-4-4-3-5-4-4-3-5-3-4-3-5-2-5-3-5-2-5-2-5-2-5-1-6-1-5-2h-5l-6-1h-22l-5 1h-5l-6 2-5 1-5 1-6 2-5 2-5 2-4 3-5 2-5 3-4 3-5 3-4 4-4 3-4 4-4 4-4 4-3 4-3 5-3 4-3 5-3 5-2 5-2 5-2 5-2 5-2 5-1 6-1 5-1 5v6l-1 5v11l1 5v6l1 5 1 6 1 5 2 5 2 5 2 5 2 5 2 5 3 5 3 5 3 4 3 5 3 4 4 4 4 4 4 4 4 3 4 4 5 3 4 3 5 3 5 2 4 3 5 2 5 2 6 2 5 1 5 2 6 1h5l5 1h6l5 1 6-1h5l6-1h5l5-1 6-2 5-1 5-2 5-2 5-2 5-3 5-2 4-3 5-3 4-3 5-4 4-3 4-4 3-4 4-4 3-4 4-5 3-4 2-5 3-5 3-5 2-5 2-5 1-5 2-5 1-5 1-6 1-5 1-6v-10z"/><path fill="none" stroke="#FFD320" d="M9526 11147v-11l-1-6-1-5-1-5-1-6-2-5-1-5-2-5-2-5-3-5-3-5-2-5-3-4-4-5-3-4-4-4-3-4-4-4-4-3-5-4-4-3-5-3-4-3-5-2-5-3-5-2-5-2-5-2-5-1-6-1-5-2h-5l-6-1h-22l-5 1h-5l-6 2-5 1-5 1-6 2-5 2-5 2-4 3-5 2-5 3-4 3-5 3-4 4-4 3-4 4-4 4-4 4-3 4-3 5-3 4-3 5-3 5-2 5-2 5-2 5-2 5-2 5-1 6-1 5-1 5v6l-1 5v11l1 5v6l1 5 1 6 1 5 2 5 2 5 2 5 2 5 2 5 3 5 3 5 3 4 3 5 3 4 4 4 4 4 4 4 4 3 4 4 5 3 4 3 5 3 5 2 4 3 5 2 5 2 6 2 5 1 5 2 6 1h5l5 1h6l5 1 6-1h5l6-1h5l5-1 6-2 5-1 5-2 5-2 5-2 5-3 5-2 4-3 5-3 4-3 5-4 4-3 4-4 3-4 4-4 3-4 4-5 3-4 2-5 3-5 3-5 2-5 2-5 1-5 2-5 1-5 1-6 1-5 1-6v-10z"/><path fill="#FFD320" d="m10318 11780-1-5v-11l-1-5-1-6-2-5-1-5-2-5-2-6-2-5-3-4-2-5-3-5-3-4-3-5-4-4-3-4-4-4-4-4-4-3-4-4-5-3-4-3-5-3-5-3-5-2-5-2-5-2-5-2-5-1-5-2-6-1-5-1h-6l-5-1h-11l-5 1h-6l-5 1-5 1-6 2-5 1-5 2-5 2-5 2-5 2-5 3-5 3-4 3-4 3-5 4-4 3-4 4-4 4-3 4-4 4-3 5-3 4-3 5-2 5-3 4-2 5-2 6-2 5-1 5-1 5-1 6-1 5-1 5v22l1 6 1 5 1 5 1 6 1 5 2 5 2 5 2 5 3 5 2 5 3 4 3 5 3 4 4 5 3 4 4 4 4 3 4 4 5 3 4 4 4 3 5 3 5 2 5 3 5 2 5 2 5 2 5 1 6 1 5 1 5 1 6 1h21l6-1 5-1 6-1 5-1 5-1 5-2 5-2 5-2 5-3 5-2 5-3 4-3 5-4 4-3 4-4 4-3 4-4 3-4 4-5 3-4 3-5 3-4 2-5 3-5 2-5 2-5 2-5 1-5 2-6 1-5 1-5v-11l1-6z"/><path fill="none" stroke="#FFD320" d="m10318 11780-1-5v-11l-1-5-1-6-2-5-1-5-2-5-2-6-2-5-3-4-2-5-3-5-3-4-3-5-4-4-3-4-4-4-4-4-4-3-4-4-5-3-4-3-5-3-5-3-5-2-5-2-5-2-5-2-5-1-5-2-6-1-5-1h-6l-5-1h-11l-5 1h-6l-5 1-5 1-6 2-5 1-5 2-5 2-5 2-5 2-5 3-5 3-4 3-4 3-5 4-4 3-4 4-4 4-3 4-4 4-3 5-3 4-3 5-2 5-3 4-2 5-2 6-2 5-1 5-1 5-1 6-1 5-1 5v22l1 6 1 5 1 5 1 6 1 5 2 5 2 5 2 5 3 5 2 5 3 4 3 5 3 4 4 5 3 4 4 4 4 3 4 4 5 3 4 4 4 3 5 3 5 2 5 3 5 2 5 2 5 2 5 1 6 1 5 1 5 1 6 1h21l6-1 5-1 6-1 5-1 5-1 5-2 5-2 5-2 5-3 5-2 5-3 4-3 5-4 4-3 4-4 4-3 4-4 3-4 4-5 3-4 3-5 3-4 2-5 3-5 2-5 2-5 2-5 1-5 2-6 1-5 1-5v-11l1-6z"/><path fill="#FFD320" d="M11109 12161v-11l-1-6-1-5-1-6-1-5-2-5-2-5-2-5-2-5-2-5-3-5-3-5-3-4-3-5-3-4-4-4-4-4-4-4-4-3-4-4-4-3-5-3-5-3-4-2-5-3-5-2-5-2-5-2-6-1-5-1-5-2h-6l-5-1h-22l-5 1h-6l-5 2-5 1-6 1-5 2-5 2-5 2-5 3-5 2-4 3-5 3-4 3-4 4-4 3-4 4-4 4-4 4-3 4-3 5-3 4-3 5-3 5-2 5-3 5-1 5-2 5-2 5-1 5-1 6-1 5-1 6v21l1 6 1 5 1 6 1 5 2 5 2 5 1 5 3 5 2 5 3 5 3 5 3 4 3 5 3 4 4 4 4 4 4 4 4 3 4 4 4 3 5 3 4 3 5 2 5 3 5 2 5 2 5 2 6 1 5 2 5 1h6l5 1h6l5 1 5-1h6l5-1h6l5-1 5-2 6-1 5-2 5-2 5-2 5-3 4-2 5-3 5-3 4-3 4-4 4-3 4-4 4-4 4-4 3-4 3-5 3-4 3-5 3-5 2-5 2-5 2-5 2-5 2-5 1-5 1-6 1-5 1-6v-10z"/><path fill="none" stroke="#FFD320" d="M11109 12161v-11l-1-6-1-5-1-6-1-5-2-5-2-5-2-5-2-5-2-5-3-5-3-5-3-4-3-5-3-4-4-4-4-4-4-4-4-3-4-4-4-3-5-3-5-3-4-2-5-3-5-2-5-2-5-2-6-1-5-1-5-2h-6l-5-1h-22l-5 1h-6l-5 2-5 1-6 1-5 2-5 2-5 2-5 3-5 2-4 3-5 3-4 3-4 4-4 3-4 4-4 4-4 4-3 4-3 5-3 4-3 5-3 5-2 5-3 5-1 5-2 5-2 5-1 5-1 6-1 5-1 6v21l1 6 1 5 1 6 1 5 2 5 2 5 1 5 3 5 2 5 3 5 3 5 3 4 3 5 3 4 4 4 4 4 4 4 4 3 4 4 4 3 5 3 4 3 5 2 5 3 5 2 5 2 5 2 6 1 5 2 5 1h6l5 1h6l5 1 5-1h6l5-1h6l5-1 5-2 6-1 5-2 5-2 5-2 5-3 4-2 5-3 5-3 4-3 4-4 4-3 4-4 4-4 4-4 3-4 3-5 3-4 3-5 3-5 2-5 2-5 2-5 2-5 2-5 1-5 1-6 1-5 1-6v-10z"/><path fill="#FFD320" d="M11900 7164v-11l-1-5-1-6-1-5-1-5-1-5-2-6-2-5-2-5-3-5-2-4-3-5-3-5-3-4-4-4-3-4-4-4-4-4-4-4-5-3-4-3-4-3-5-3-5-3-5-2-5-2-5-2-5-2-5-2-6-1-5-1-5-1h-6l-5-1h-11l-6 1h-5l-5 1-6 1-5 1-5 2-5 2-5 2-5 2-5 2-5 3-5 3-4 3-5 3-4 3-4 4-4 4-4 4-3 4-4 4-3 4-3 5-3 5-3 4-2 5-2 5-2 5-2 6-1 5-2 5-1 5-1 6v5l-1 6v11l1 5v5l1 6 1 5 2 5 1 6 2 5 2 5 2 5 2 5 3 5 3 4 3 5 3 4 4 4 3 5 4 3 4 4 4 4 4 3 5 3 4 4 5 2 5 3 5 2 5 3 5 2 5 1 5 2 5 1 6 1 5 1 5 1h22l6-1 5-1 5-1 6-1 5-2 5-1 5-2 5-3 5-2 5-3 5-2 4-4 4-3 5-3 4-4 4-4 4-3 3-5 4-4 3-4 3-5 3-4 2-5 3-5 2-5 2-5 2-5 1-6 1-5 1-5 1-6 1-5v-11z"/><path fill="none" stroke="#FFD320" d="M11900 7164v-11l-1-5-1-6-1-5-1-5-1-5-2-6-2-5-2-5-3-5-2-4-3-5-3-5-3-4-4-4-3-4-4-4-4-4-4-4-5-3-4-3-4-3-5-3-5-3-5-2-5-2-5-2-5-2-5-2-6-1-5-1-5-1h-6l-5-1h-11l-6 1h-5l-5 1-6 1-5 1-5 2-5 2-5 2-5 2-5 2-5 3-5 3-4 3-5 3-4 3-4 4-4 4-4 4-3 4-4 4-3 4-3 5-3 5-3 4-2 5-2 5-2 5-2 6-1 5-2 5-1 5-1 6v5l-1 6v11l1 5v5l1 6 1 5 2 5 1 6 2 5 2 5 2 5 2 5 3 5 3 4 3 5 3 4 4 4 3 5 4 3 4 4 4 4 4 3 5 3 4 4 5 2 5 3 5 2 5 3 5 2 5 1 5 2 5 1 6 1 5 1 5 1h22l6-1 5-1 5-1 6-1 5-2 5-1 5-2 5-3 5-2 5-3 5-2 4-4 4-3 5-3 4-4 4-4 4-3 3-5 4-4 3-4 3-5 3-4 2-5 3-5 2-5 2-5 2-5 1-6 1-5 1-5 1-6 1-5v-11z"/><path fill="#FFD320" d="M12692 10422v-5l-1-6v-5l-1-5-1-6-2-5-1-5-2-5-2-6-2-5-2-4-3-5-3-5-3-4-3-5-4-4-3-4-4-4-4-4-4-3-4-4-5-3-4-3-5-3-5-3-4-2-5-2-6-2-5-2-5-1-5-2-6-1-5-1h-5l-6-1h-11l-5 1h-6l-5 1-5 1-6 2-5 1-5 2-5 2-5 2-5 2-5 3-4 3-5 3-4 3-5 4-4 3-4 4-3 4-4 4-3 4-4 5-3 4-3 5-2 5-3 4-2 5-2 6-1 5-2 5-1 5-1 6-1 5-1 5v22l1 6 1 5 1 5 1 6 2 5 1 5 2 5 2 5 3 5 2 5 3 4 3 5 4 4 3 5 4 4 3 4 4 3 4 4 5 3 4 4 5 3 4 3 5 2 5 3 5 2 5 2 5 2 5 1 6 1 5 1 5 1 6 1h22l5-1 5-1 6-1 5-1 5-1 5-2 6-2 5-2 4-3 5-2 5-3 4-3 5-4 4-3 4-4 4-3 4-4 3-4 4-5 3-4 3-5 3-4 3-5 2-5 2-5 2-5 2-5 1-5 2-6 1-5 1-5v-6l1-5v-6z"/><path fill="none" stroke="#FFD320" d="M12692 10422v-5l-1-6v-5l-1-5-1-6-2-5-1-5-2-5-2-6-2-5-2-4-3-5-3-5-3-4-3-5-4-4-3-4-4-4-4-4-4-3-4-4-5-3-4-3-5-3-5-3-4-2-5-2-6-2-5-2-5-1-5-2-6-1-5-1h-5l-6-1h-11l-5 1h-6l-5 1-5 1-6 2-5 1-5 2-5 2-5 2-5 2-5 3-4 3-5 3-4 3-5 4-4 3-4 4-3 4-4 4-3 4-4 5-3 4-3 5-2 5-3 4-2 5-2 6-1 5-2 5-1 5-1 6-1 5-1 5v22l1 6 1 5 1 5 1 6 2 5 1 5 2 5 2 5 3 5 2 5 3 4 3 5 4 4 3 5 4 4 3 4 4 3 4 4 5 3 4 4 5 3 4 3 5 2 5 3 5 2 5 2 5 2 5 1 6 1 5 1 5 1 6 1h22l5-1 5-1 6-1 5-1 5-1 5-2 6-2 5-2 4-3 5-2 5-3 4-3 5-4 4-3 4-4 4-3 4-4 3-4 4-5 3-4 3-5 3-4 3-5 2-5 2-5 2-5 2-5 1-5 2-6 1-5 1-5v-6l1-5v-6z"/><path fill="#FFD320" d="M13482 11509v-11l-1-6-1-5-1-5-1-6-2-5-1-5-2-5-3-5-2-5-3-5-2-4-3-5-4-4-3-5-4-4-3-4-4-3-5-4-4-3-4-4-5-3-4-3-5-2-5-3-5-2-5-2-5-2-6-1-5-1-5-1-6-1-5-1h-22l-5 1-6 1-5 1-5 1-5 1-6 2-5 2-5 2-5 3-4 2-5 3-5 3-4 4-4 3-4 4-4 3-4 4-4 4-3 5-3 4-3 5-3 4-3 5-2 5-2 5-2 5-2 5-2 5-1 6-1 5-1 5v6l-1 5v11l1 6v5l1 5 1 6 1 5 2 5 2 5 2 6 2 5 2 4 3 5 3 5 3 4 3 5 3 4 4 4 4 4 4 4 4 3 4 4 4 3 5 3 5 3 4 3 5 2 5 2 5 2 6 2 5 1 5 2 5 1 6 1h5l6 1h11l5-1h5l6-1 5-1 5-2 6-1 5-2 5-2 5-2 5-2 5-3 4-3 5-3 4-3 4-4 5-3 4-4 3-4 4-4 3-4 4-5 3-4 2-5 3-5 2-4 3-5 2-6 1-5 2-5 1-5 1-6 1-5 1-5v-11z"/><path fill="none" stroke="#FFD320" d="M13482 11509v-11l-1-6-1-5-1-5-1-6-2-5-1-5-2-5-3-5-2-5-3-5-2-4-3-5-4-4-3-5-4-4-3-4-4-3-5-4-4-3-4-4-5-3-4-3-5-2-5-3-5-2-5-2-5-2-6-1-5-1-5-1-6-1-5-1h-22l-5 1-6 1-5 1-5 1-5 1-6 2-5 2-5 2-5 3-4 2-5 3-5 3-4 4-4 3-4 4-4 3-4 4-4 4-3 5-3 4-3 5-3 4-3 5-2 5-2 5-2 5-2 5-2 5-1 6-1 5-1 5v6l-1 5v11l1 6v5l1 5 1 6 1 5 2 5 2 5 2 6 2 5 2 4 3 5 3 5 3 4 3 5 3 4 4 4 4 4 4 4 4 3 4 4 4 3 5 3 5 3 4 3 5 2 5 2 5 2 6 2 5 1 5 2 5 1 6 1h5l6 1h11l5-1h5l6-1 5-1 5-2 6-1 5-2 5-2 5-2 5-2 5-3 4-3 5-3 4-3 4-4 5-3 4-4 3-4 4-4 3-4 4-5 3-4 2-5 3-5 2-4 3-5 2-6 1-5 2-5 1-5 1-6 1-5 1-5v-11z"/><path fill="#FFD320" d="m14274 12052-1-6v-5l-1-5v-6l-1-5-2-5-1-6-2-5-2-5-2-5-3-5-2-5-3-4-3-5-3-4-4-4-3-5-4-3-4-4-4-4-4-3-5-3-4-4-5-2-5-3-5-2-5-3-5-2-5-1-5-2-5-1-6-1-5-1-6-1h-21l-6 1-5 1-6 1-5 1-5 2-5 1-5 2-5 3-5 2-5 3-5 2-4 4-5 3-4 3-4 4-4 4-4 3-3 5-4 4-3 4-3 5-3 4-2 5-3 5-2 5-2 5-2 5-1 6-2 5-1 5v6l-1 5v22l1 5v6l1 5 2 5 1 5 2 6 2 5 2 5 3 5 2 4 3 5 3 5 3 4 4 4 3 4 4 4 4 4 4 4 4 3 5 3 4 3 5 3 5 3 5 2 5 2 5 2 5 2 5 2 5 1 6 1 5 1h6l5 1h11l5-1h6l5-1 6-1 5-1 5-2 5-2 5-2 5-2 5-2 5-3 5-3 4-3 5-3 4-3 4-4 4-4 4-4 3-4 4-4 3-4 3-5 3-5 2-4 3-5 2-5 2-5 2-6 1-5 2-5 1-5v-6l1-5v-6l1-5z"/><path fill="none" stroke="#FFD320" d="m14274 12052-1-6v-5l-1-5v-6l-1-5-2-5-1-6-2-5-2-5-2-5-3-5-2-5-3-4-3-5-3-4-4-4-3-5-4-3-4-4-4-4-4-3-5-3-4-4-5-2-5-3-5-2-5-3-5-2-5-1-5-2-5-1-6-1-5-1-6-1h-21l-6 1-5 1-6 1-5 1-5 2-5 1-5 2-5 3-5 2-5 3-5 2-4 4-5 3-4 3-4 4-4 4-4 3-3 5-4 4-3 4-3 5-3 4-2 5-3 5-2 5-2 5-2 5-1 6-2 5-1 5v6l-1 5v22l1 5v6l1 5 2 5 1 5 2 6 2 5 2 5 3 5 2 4 3 5 3 5 3 4 4 4 3 4 4 4 4 4 4 4 4 3 5 3 4 3 5 3 5 3 5 2 5 2 5 2 5 2 5 2 5 1 6 1 5 1h6l5 1h11l5-1h6l5-1 6-1 5-1 5-2 5-2 5-2 5-2 5-2 5-3 5-3 4-3 5-3 4-3 4-4 4-4 4-4 3-4 4-4 3-4 3-5 3-5 2-4 3-5 2-5 2-5 2-6 1-5 2-5 1-5v-6l1-5v-6l1-5z"/><path fill="#FFD320" d="M15065 12378v-6l-1-5v-5l-1-6-1-5-1-6-2-5-2-5-2-5-2-5-2-5-3-5-3-4-3-5-3-4-3-5-4-4-4-4-4-3-4-4-4-3-4-4-5-3-5-2-4-3-5-2-5-3-5-2-6-1-5-2-5-1-5-1-6-1-5-1h-22l-5 1-6 1-5 1-5 1-6 2-5 1-5 2-5 3-5 2-5 3-4 2-5 3-4 4-4 3-5 4-4 3-3 4-4 4-3 5-4 4-3 5-2 4-3 5-2 5-3 5-2 5-1 5-2 5-1 6-1 5-1 6-1 5v22l1 5 1 6 1 5 1 5 2 5 1 6 2 5 3 5 2 5 3 4 2 5 3 5 4 4 3 4 4 4 3 4 4 4 5 4 4 3 4 3 5 3 4 3 5 3 5 2 5 2 5 2 5 2 6 2 5 1 5 1 6 1h5l5 1h11l6-1h5l6-1 5-1 5-1 5-2 6-2 5-2 5-2 5-2 4-3 5-3 5-3 4-3 4-3 4-4 4-4 4-4 4-4 3-4 3-4 3-5 3-5 3-4 2-5 2-5 2-5 2-6 2-5 1-5 1-5 1-6v-5l1-6v-5z"/><path fill="none" stroke="#FFD320" d="M15065 12378v-6l-1-5v-5l-1-6-1-5-1-6-2-5-2-5-2-5-2-5-2-5-3-5-3-4-3-5-3-4-3-5-4-4-4-4-4-3-4-4-4-3-4-4-5-3-5-2-4-3-5-2-5-3-5-2-6-1-5-2-5-1-5-1-6-1-5-1h-22l-5 1-6 1-5 1-5 1-6 2-5 1-5 2-5 3-5 2-5 3-4 2-5 3-4 4-4 3-5 4-4 3-3 4-4 4-3 5-4 4-3 5-2 4-3 5-2 5-3 5-2 5-1 5-2 5-1 6-1 5-1 6-1 5v22l1 5 1 6 1 5 1 5 2 5 1 6 2 5 3 5 2 5 3 4 2 5 3 5 4 4 3 4 4 4 3 4 4 4 5 4 4 3 4 3 5 3 4 3 5 3 5 2 5 2 5 2 5 2 6 2 5 1 5 1 6 1h5l5 1h11l6-1h5l6-1 5-1 5-1 5-2 6-2 5-2 5-2 5-2 4-3 5-3 5-3 4-3 4-3 4-4 4-4 4-4 4-4 3-4 3-4 3-5 3-5 3-4 2-5 2-5 2-5 2-6 2-5 1-5 1-5 1-6v-5l1-6v-5z"/><path fill="#FFD320" d="M15856 12619v-11l-1-5-1-5-1-6-1-5-2-5-1-6-2-5-2-5-3-4-2-5-3-5-3-4-4-5-3-4-4-4-3-4-4-4-4-4-5-3-4-3-5-3-4-3-5-3-5-2-5-2-5-2-5-2-5-1-6-2-5-1-5-1h-6l-5-1h-11l-6 1h-5l-5 1-6 1-5 2-5 1-5 2-6 2-5 2-4 2-5 3-5 3-4 3-5 3-4 3-4 4-4 4-4 4-3 4-4 4-3 5-3 4-3 5-3 5-2 4-2 5-2 5-2 6-1 5-2 5-1 6-1 5v5l-1 6v11l1 5v6l1 5 1 5 2 6 1 5 2 5 2 5 2 5 2 5 3 5 3 4 3 5 3 4 4 5 3 4 4 4 4 3 4 4 4 3 5 4 4 3 5 2 5 3 4 3 5 2 6 2 5 1 5 2 5 1 6 1 5 1 5 1h22l6-1 5-1 5-1 6-1 5-2 5-1 5-2 5-2 5-3 5-3 4-2 5-3 4-4 5-3 4-4 4-3 3-4 4-4 3-5 4-4 3-5 3-4 2-5 3-5 2-5 2-5 1-5 2-5 1-6 1-5 1-5 1-6v-11z"/><path fill="none" stroke="#FFD320" d="M15856 12619v-11l-1-5-1-5-1-6-1-5-2-5-1-6-2-5-2-5-3-4-2-5-3-5-3-4-4-5-3-4-4-4-3-4-4-4-4-4-5-3-4-3-5-3-4-3-5-3-5-2-5-2-5-2-5-2-5-1-6-2-5-1-5-1h-6l-5-1h-11l-6 1h-5l-5 1-6 1-5 2-5 1-5 2-6 2-5 2-4 2-5 3-5 3-4 3-5 3-4 3-4 4-4 4-4 4-3 4-4 4-3 5-3 4-3 5-3 5-2 4-2 5-2 5-2 6-1 5-2 5-1 6-1 5v5l-1 6v11l1 5v6l1 5 1 5 2 6 1 5 2 5 2 5 2 5 2 5 3 5 3 4 3 5 3 4 4 5 3 4 4 4 4 3 4 4 4 3 5 4 4 3 5 2 5 3 4 3 5 2 6 2 5 1 5 2 5 1 6 1 5 1 5 1h22l6-1 5-1 5-1 6-1 5-2 5-1 5-2 5-2 5-3 5-3 4-2 5-3 4-4 5-3 4-4 4-3 3-4 4-4 3-5 4-4 3-5 3-4 2-5 3-5 2-5 2-5 1-5 2-5 1-6 1-5 1-5 1-6v-11z"/><path fill="#FFD320" d="M16648 13150v-5l-1-6v-5l-1-5-1-6-2-5-1-5-2-5-2-5-2-5-2-5-3-5-3-5-3-4-3-5-4-4-3-4-4-4-4-4-4-3-4-4-5-3-4-3-5-3-5-3-5-2-5-2-5-2-5-2-5-1-5-2-6-1-5-1h-5l-6-1h-11l-5 1h-6l-5 1-5 1-6 2-5 1-5 2-5 2-5 2-5 2-5 3-5 3-4 3-4 3-5 4-4 3-4 4-4 4-3 4-4 4-3 5-3 4-3 5-2 5-3 5-2 5-2 5-2 5-1 5-1 5-1 6-1 5-1 5v22l1 6 1 5 1 5 1 6 1 5 2 5 2 5 2 5 3 5 2 5 3 5 3 4 3 4 4 5 3 4 4 4 4 4 4 3 5 4 4 3 4 3 5 3 5 2 5 3 5 2 5 2 5 2 5 1 6 1 5 1 5 1 6 1h22l5-1 5-1 6-1 5-1 5-1 5-2 5-2 5-2 5-3 5-2 5-3 4-3 5-3 4-4 4-3 4-4 4-4 3-4 4-5 3-4 3-4 3-5 3-5 2-5 2-5 2-5 2-5 1-5 2-6 1-5 1-5v-6l1-5v-6z"/><path fill="none" stroke="#FFD320" d="M16648 13150v-5l-1-6v-5l-1-5-1-6-2-5-1-5-2-5-2-5-2-5-2-5-3-5-3-5-3-4-3-5-4-4-3-4-4-4-4-4-4-3-4-4-5-3-4-3-5-3-5-3-5-2-5-2-5-2-5-2-5-1-5-2-6-1-5-1h-5l-6-1h-11l-5 1h-6l-5 1-5 1-6 2-5 1-5 2-5 2-5 2-5 2-5 3-5 3-4 3-4 3-5 4-4 3-4 4-4 4-3 4-4 4-3 5-3 4-3 5-2 5-3 5-2 5-2 5-2 5-1 5-1 5-1 6-1 5-1 5v22l1 6 1 5 1 5 1 6 1 5 2 5 2 5 2 5 3 5 2 5 3 5 3 4 3 4 4 5 3 4 4 4 4 4 4 3 5 4 4 3 4 3 5 3 5 2 5 3 5 2 5 2 5 2 5 1 6 1 5 1 5 1 6 1h22l5-1 5-1 6-1 5-1 5-1 5-2 5-2 5-2 5-3 5-2 5-3 4-3 5-3 4-4 4-3 4-4 4-4 3-4 4-5 3-4 3-4 3-5 3-5 2-5 2-5 2-5 2-5 1-5 2-6 1-5 1-5v-6l1-5v-6z"/><path fill="#FFD320" d="M17439 13327v-10l-1-6-1-5-1-6-1-5-2-5-2-5-1-5-3-5-2-5-3-5-3-5-3-4-3-5-3-4-4-4-4-4-4-4-4-3-4-4-4-3-5-3-4-3-5-2-5-3-5-2-5-2-5-2-6-1-5-2-5-1-6-1h-11l-5-1-5 1h-11l-6 1-5 1-5 2-6 1-5 2-5 2-5 2-5 3-4 2-5 3-5 3-4 3-4 4-4 3-4 4-4 4-4 4-3 4-3 5-3 4-3 5-3 5-2 5-2 5-2 5-2 5-2 5-1 5-1 6-1 5-1 6v21l1 6 1 5 1 5 1 6 2 5 2 5 2 5 2 5 2 5 3 5 3 5 3 4 3 5 3 4 4 4 4 4 4 4 4 3 4 4 4 3 5 3 5 3 4 2 5 3 5 2 5 2 5 2 6 1 5 1 5 2h6l5 1h22l5-1h6l5-2 5-1 6-1 5-2 5-2 5-2 5-3 5-2 4-3 5-3 4-3 4-4 4-3 4-4 4-4 4-4 3-4 3-5 3-4 3-5 3-5 2-5 3-5 1-5 2-5 2-5 1-6 1-5 1-5 1-6v-11z"/><path fill="none" stroke="#FFD320" d="M17439 13327v-10l-1-6-1-5-1-6-1-5-2-5-2-5-1-5-3-5-2-5-3-5-3-5-3-4-3-5-3-4-4-4-4-4-4-4-4-3-4-4-4-3-5-3-4-3-5-2-5-3-5-2-5-2-5-2-6-1-5-2-5-1-6-1h-11l-5-1-5 1h-11l-6 1-5 1-5 2-6 1-5 2-5 2-5 2-5 3-4 2-5 3-5 3-4 3-4 4-4 3-4 4-4 4-4 4-3 4-3 5-3 4-3 5-3 5-2 5-2 5-2 5-2 5-2 5-1 5-1 6-1 5-1 6v21l1 6 1 5 1 5 1 6 2 5 2 5 2 5 2 5 2 5 3 5 3 5 3 4 3 5 3 4 4 4 4 4 4 4 4 3 4 4 4 3 5 3 5 3 4 2 5 3 5 2 5 2 5 2 6 1 5 1 5 2h6l5 1h22l5-1h6l5-2 5-1 6-1 5-2 5-2 5-2 5-3 5-2 4-3 5-3 4-3 4-4 4-3 4-4 4-4 4-4 3-4 3-5 3-4 3-5 3-5 2-5 3-5 1-5 2-5 2-5 1-6 1-5 1-5 1-6v-11z"/><path fill="#FFD320" d="M18230 13416v-11l-1-5-1-6-1-5-1-5-1-6-2-5-2-5-2-5-3-5-2-5-3-4-3-5-3-4-4-4-3-5-4-3-4-4-4-4-5-3-4-3-4-3-5-3-5-3-5-2-5-3-5-2-5-1-5-2-6-1-5-1-5-1-6-1h-21l-6 1-5 1-6 1-5 1-5 2-5 1-5 2-5 3-5 2-5 3-5 3-4 3-5 3-4 3-4 4-4 4-4 3-3 5-4 4-3 4-3 5-3 4-2 5-3 5-2 5-2 5-2 5-1 6-2 5-1 5-1 6v10l-1 6 1 5v11l1 6 1 5 2 5 1 6 2 5 2 5 2 5 3 5 2 4 3 5 3 5 3 4 4 4 3 4 4 4 4 4 4 4 4 3 5 3 4 3 5 3 5 3 5 2 5 2 5 2 5 2 5 2 5 1 6 1 5 1h6l5 1h11l5-1h6l5-1 5-1 6-1 5-2 5-2 5-2 5-2 5-2 5-3 5-3 4-3 4-3 5-3 4-4 4-4 4-4 3-4 4-4 3-4 3-5 3-5 2-4 3-5 2-5 2-5 2-5 1-6 1-5 1-5 1-6 1-5v-11z"/><path fill="none" stroke="#FFD320" d="M18230 13416v-11l-1-5-1-6-1-5-1-5-1-6-2-5-2-5-2-5-3-5-2-5-3-4-3-5-3-4-4-4-3-5-4-3-4-4-4-4-5-3-4-3-4-3-5-3-5-3-5-2-5-3-5-2-5-1-5-2-6-1-5-1-5-1-6-1h-21l-6 1-5 1-6 1-5 1-5 2-5 1-5 2-5 3-5 2-5 3-5 3-4 3-5 3-4 3-4 4-4 4-4 3-3 5-4 4-3 4-3 5-3 4-2 5-3 5-2 5-2 5-2 5-1 6-2 5-1 5-1 6v10l-1 6 1 5v11l1 6 1 5 2 5 1 6 2 5 2 5 2 5 3 5 2 4 3 5 3 5 3 4 4 4 3 4 4 4 4 4 4 4 4 3 5 3 4 3 5 3 5 3 5 2 5 2 5 2 5 2 5 2 5 1 6 1 5 1h6l5 1h11l5-1h6l5-1 5-1 6-1 5-2 5-2 5-2 5-2 5-2 5-3 5-3 4-3 4-3 5-3 4-4 4-4 4-4 3-4 4-4 3-4 3-5 3-5 2-4 3-5 2-5 2-5 2-5 1-6 1-5 1-5 1-6 1-5v-11z"/><path fill="#FFD320" d="M19022 13469v-5l-1-6v-5l-1-6-1-5-1-5-2-6-2-5-2-5-2-5-2-5-3-4-3-5-3-5-3-4-3-4-4-4-4-4-4-4-4-4-4-3-5-3-4-3-5-3-5-3-4-2-5-2-5-2-6-2-5-2-5-1-6-1-5-1h-5l-6-1h-11l-5 1h-6l-5 1-5 1-6 1-5 2-5 2-5 2-5 2-5 2-5 3-4 3-5 3-4 3-5 3-4 4-4 4-3 4-4 4-3 4-4 4-3 5-2 5-3 4-3 5-2 5-2 5-1 5-2 6-1 5-1 5-1 6-1 5v22l1 5 1 6 1 5 1 5 2 6 1 5 2 5 2 5 3 5 3 5 2 4 3 5 4 4 3 4 4 4 3 4 4 4 4 4 5 3 4 3 5 3 4 3 5 3 5 2 5 3 5 2 5 1 5 2 6 1 5 1 5 1 6 1h22l5-1 5-1 6-1 5-1 5-2 6-1 5-2 5-3 4-2 5-3 5-3 4-3 5-3 4-3 4-4 4-4 4-4 4-4 3-4 3-4 3-5 3-4 3-5 2-5 2-5 2-5 2-5 2-6 1-5 1-5 1-6v-5l1-5v-6z"/><path fill="none" stroke="#FFD320" d="M19022 13469v-5l-1-6v-5l-1-6-1-5-1-5-2-6-2-5-2-5-2-5-2-5-3-4-3-5-3-5-3-4-3-4-4-4-4-4-4-4-4-4-4-3-5-3-4-3-5-3-5-3-4-2-5-2-5-2-6-2-5-2-5-1-6-1-5-1h-5l-6-1h-11l-5 1h-6l-5 1-5 1-6 1-5 2-5 2-5 2-5 2-5 2-5 3-4 3-5 3-4 3-5 3-4 4-4 4-3 4-4 4-3 4-4 4-3 5-2 5-3 4-3 5-2 5-2 5-1 5-2 6-1 5-1 5-1 6-1 5v22l1 5 1 6 1 5 1 5 2 6 1 5 2 5 2 5 3 5 3 5 2 4 3 5 4 4 3 4 4 4 3 4 4 4 4 4 5 3 4 3 5 3 4 3 5 3 5 2 5 3 5 2 5 1 5 2 6 1 5 1 5 1 6 1h22l5-1 5-1 6-1 5-1 5-2 6-1 5-2 5-3 4-2 5-3 5-3 4-3 5-3 4-3 4-4 4-4 4-4 4-4 3-4 3-4 3-5 3-4 3-5 2-5 2-5 2-5 2-5 2-6 1-5 1-5 1-6v-5l1-5v-6z"/><path fill="#FFD320" d="M19813 11871v-11l-1-5-1-6-1-5-1-6-2-5-1-5-2-5-3-5-2-5-3-5-2-4-3-5-4-4-3-5-4-4-3-4-4-3-4-4-5-3-4-4-5-3-4-2-5-3-5-2-5-3-5-2-5-1-5-2-6-1-5-1-6-1-5-1h-22l-5 1-6 1-5 1-5 1-5 2-6 1-5 2-5 3-5 2-4 3-5 2-5 3-4 4-4 3-4 4-4 3-4 4-4 4-3 5-3 4-3 5-3 4-3 5-2 5-2 5-2 5-2 5-2 5-1 6-1 5-1 6v5l-1 5v11l1 6v5l1 6 1 5 1 5 2 5 2 6 2 5 2 5 2 5 3 4 3 5 3 5 3 4 3 4 4 4 4 4 4 4 4 4 4 3 4 3 5 3 5 3 4 3 5 2 5 2 5 2 6 2 5 2 5 1 5 1 6 1h5l6 1h11l5-1h5l6-1 5-1 6-1 5-2 5-2 5-2 5-2 5-2 5-3 4-3 5-3 4-3 5-3 4-4 4-4 3-4 4-4 3-4 4-4 3-5 2-5 3-4 2-5 3-5 2-5 1-6 2-5 1-5 1-5 1-6 1-5v-11z"/><path fill="none" stroke="#FFD320" d="M19813 11871v-11l-1-5-1-6-1-5-1-6-2-5-1-5-2-5-3-5-2-5-3-5-2-4-3-5-4-4-3-5-4-4-3-4-4-3-4-4-5-3-4-4-5-3-4-2-5-3-5-2-5-3-5-2-5-1-5-2-6-1-5-1-6-1-5-1h-22l-5 1-6 1-5 1-5 1-5 2-6 1-5 2-5 3-5 2-4 3-5 2-5 3-4 4-4 3-4 4-4 3-4 4-4 4-3 5-3 4-3 5-3 4-3 5-2 5-2 5-2 5-2 5-2 5-1 6-1 5-1 6v5l-1 5v11l1 6v5l1 6 1 5 1 5 2 5 2 6 2 5 2 5 2 5 3 4 3 5 3 5 3 4 3 4 4 4 4 4 4 4 4 4 4 3 4 3 5 3 5 3 4 3 5 2 5 2 5 2 6 2 5 2 5 1 5 1 6 1h5l6 1h11l5-1h5l6-1 5-1 6-1 5-2 5-2 5-2 5-2 5-2 5-3 4-3 5-3 4-3 5-3 4-4 4-4 3-4 4-4 3-4 4-4 3-5 2-5 3-4 2-5 3-5 2-5 1-6 2-5 1-5 1-5 1-6 1-5v-11z"/><path fill="#FFD320" d="m20605 12776-1-5v-6l-1-5v-6l-1-5-2-5-1-5-2-6-2-5-2-5-3-5-2-4-3-5-3-5-3-4-4-4-3-4-4-4-4-4-4-4-4-3-5-3-4-3-5-3-5-3-5-2-5-2-5-2-5-2-5-2-5-1-6-1-5-1h-6l-5-1h-11l-5 1h-6l-5 1-6 1-5 1-5 2-5 2-5 2-5 2-5 2-5 3-5 3-4 3-5 3-4 3-4 4-4 4-4 4-3 4-4 4-3 4-3 5-3 5-2 4-3 5-2 5-2 5-2 6-1 5-2 5-1 5v6l-1 5v22l1 5v6l1 5 2 6 1 5 2 5 2 5 2 5 3 5 2 5 3 4 3 5 3 4 4 5 3 4 4 4 4 3 4 4 4 3 5 4 4 3 5 2 5 3 5 2 5 3 5 2 5 1 5 2 5 1 6 1 5 1 6 1h21l6-1 5-1 6-1 5-1 5-2 5-1 5-2 5-3 5-2 5-3 5-2 4-3 5-4 4-3 4-4 4-3 4-4 3-4 4-5 3-4 3-5 3-4 2-5 3-5 2-5 2-5 2-5 1-5 2-6 1-5v-6l1-5v-5l1-6z"/><path fill="none" stroke="#FFD320" d="m20605 12776-1-5v-6l-1-5v-6l-1-5-2-5-1-5-2-6-2-5-2-5-3-5-2-4-3-5-3-5-3-4-4-4-3-4-4-4-4-4-4-4-4-3-5-3-4-3-5-3-5-3-5-2-5-2-5-2-5-2-5-2-5-1-6-1-5-1h-6l-5-1h-11l-5 1h-6l-5 1-6 1-5 1-5 2-5 2-5 2-5 2-5 2-5 3-5 3-4 3-5 3-4 3-4 4-4 4-4 4-3 4-4 4-3 4-3 5-3 5-2 4-3 5-2 5-2 5-2 6-1 5-2 5-1 5v6l-1 5v22l1 5v6l1 5 2 6 1 5 2 5 2 5 2 5 3 5 2 5 3 4 3 5 3 4 4 5 3 4 4 4 4 3 4 4 4 3 5 4 4 3 5 2 5 3 5 2 5 3 5 2 5 1 5 2 5 1 6 1 5 1 6 1h21l6-1 5-1 6-1 5-1 5-2 5-1 5-2 5-3 5-2 5-3 5-2 4-3 5-4 4-3 4-4 4-3 4-4 3-4 4-5 3-4 3-5 3-4 2-5 3-5 2-5 2-5 2-5 1-5 2-6 1-5v-6l1-5v-5l1-6z"/><path fill="#FFD320" d="M21396 12510v-6l-1-5v-6l-1-5-1-6-1-5-2-5-2-5-2-5-2-5-2-5-3-5-3-5-3-4-3-5-3-4-4-4-4-4-4-4-4-3-4-4-4-3-5-3-5-3-4-2-5-3-5-2-5-2-5-2-6-1-5-2-5-1h-6l-5-1h-22l-5 1h-6l-5 1-5 2-6 1-5 2-5 2-5 2-5 3-5 2-4 3-5 3-4 3-4 4-5 3-3 4-4 4-4 4-3 4-3 5-4 4-2 5-3 5-2 5-3 5-2 5-1 5-2 5-1 5-1 6-1 5-1 6v21l1 6 1 5 1 6 1 5 2 5 1 5 2 5 3 5 2 5 3 5 2 5 4 4 3 5 3 4 4 4 4 4 3 4 5 3 4 4 4 3 5 3 4 3 5 2 5 3 5 2 5 2 5 2 6 1 5 2 5 1h6l5 1h5l6 1 5-1h6l5-1h6l5-1 5-2 6-1 5-2 5-2 5-2 5-3 4-2 5-3 5-3 4-3 4-4 4-3 4-4 4-4 4-4 3-4 3-5 3-4 3-5 3-5 2-5 2-5 2-5 2-5 2-5 1-5 1-6 1-5v-6l1-5v-5z"/><path fill="none" stroke="#FFD320" d="M21396 12510v-6l-1-5v-6l-1-5-1-6-1-5-2-5-2-5-2-5-2-5-2-5-3-5-3-5-3-4-3-5-3-4-4-4-4-4-4-4-4-3-4-4-4-3-5-3-5-3-4-2-5-3-5-2-5-2-5-2-6-1-5-2-5-1h-6l-5-1h-22l-5 1h-6l-5 1-5 2-6 1-5 2-5 2-5 2-5 3-5 2-4 3-5 3-4 3-4 4-5 3-3 4-4 4-4 4-3 4-3 5-4 4-2 5-3 5-2 5-3 5-2 5-1 5-2 5-1 5-1 6-1 5-1 6v21l1 6 1 5 1 6 1 5 2 5 1 5 2 5 3 5 2 5 3 5 2 5 4 4 3 5 3 4 4 4 4 4 3 4 5 3 4 4 4 3 5 3 4 3 5 2 5 3 5 2 5 2 5 2 6 1 5 2 5 1h6l5 1h5l6 1 5-1h6l5-1h6l5-1 5-2 6-1 5-2 5-2 5-2 5-3 4-2 5-3 5-3 4-3 4-4 4-3 4-4 4-4 4-4 3-4 3-5 3-4 3-5 3-5 2-5 2-5 2-5 2-5 2-5 1-5 1-6 1-5v-6l1-5v-5z"/><path fill="#FFD320" d="M22187 13096v-11l-1-6-1-5-1-6-1-5-1-5-2-5-2-5-2-5-3-5-2-5-3-5-3-4-4-5-3-4-4-4-3-4-4-4-4-3-5-4-4-3-5-3-4-3-5-2-5-3-5-2-5-2-5-2-5-1-6-2-5-1h-5l-6-1h-22l-5 1h-5l-6 1-5 2-5 1-5 2-6 2-5 2-4 3-5 2-5 3-4 3-5 3-4 4-4 3-4 4-4 4-3 4-4 4-3 5-3 4-3 5-3 5-2 5-2 5-2 5-2 5-1 5-2 5-1 6-1 5v6l-1 5v11l1 5v6l1 5 1 6 2 5 1 5 2 5 2 5 2 5 2 5 3 5 3 5 3 4 3 5 4 4 3 4 4 4 4 4 4 3 4 4 5 3 4 3 5 3 5 2 4 3 5 2 6 2 5 2 5 1 5 2 6 1h5l5 1h6l5 1 6-1h5l6-1h5l5-1 6-2 5-1 5-2 5-2 5-2 5-3 5-2 4-3 5-3 4-3 5-4 4-3 4-4 3-4 4-4 3-4 4-5 3-4 3-5 2-5 3-5 2-5 2-5 2-5 1-5 1-5 1-6 1-5 1-6v-10z"/><path fill="none" stroke="#FFD320" d="M22187 13096v-11l-1-6-1-5-1-6-1-5-1-5-2-5-2-5-2-5-3-5-2-5-3-5-3-4-4-5-3-4-4-4-3-4-4-4-4-3-5-4-4-3-5-3-4-3-5-2-5-3-5-2-5-2-5-2-5-1-6-2-5-1h-5l-6-1h-22l-5 1h-5l-6 1-5 2-5 1-5 2-6 2-5 2-4 3-5 2-5 3-4 3-5 3-4 4-4 3-4 4-4 4-3 4-4 4-3 5-3 4-3 5-3 5-2 5-2 5-2 5-2 5-1 5-2 5-1 6-1 5v6l-1 5v11l1 5v6l1 5 1 6 2 5 1 5 2 5 2 5 2 5 2 5 3 5 3 5 3 4 3 5 4 4 3 4 4 4 4 4 4 3 4 4 5 3 4 3 5 3 5 2 4 3 5 2 6 2 5 2 5 1 5 2 6 1h5l5 1h6l5 1 6-1h5l6-1h5l5-1 6-2 5-1 5-2 5-2 5-2 5-3 5-2 4-3 5-3 4-3 5-4 4-3 4-4 3-4 4-4 3-4 4-5 3-4 3-5 2-5 3-5 2-5 2-5 2-5 1-5 1-5 1-6 1-5 1-6v-10z"/><path fill="#FFD320" d="M22979 13561v-6l-1-5v-6l-1-5-1-5-2-6-1-5-2-5-2-5-2-5-2-5-3-5-3-4-3-5-3-4-4-5-3-4-4-4-4-3-4-4-4-3-5-4-4-3-5-2-5-3-5-2-4-3-6-2-5-1-5-2-5-1-6-1-5-1-5-1h-22l-6 1-5 1-5 1-6 1-5 2-5 1-5 2-5 3-5 2-5 3-4 2-5 3-4 4-5 3-4 4-4 3-3 4-4 4-3 5-4 4-3 5-3 4-2 5-3 5-2 5-2 5-2 5-1 5-1 6-1 5-1 5-1 6v22l1 5 1 5 1 6 1 5 1 5 2 6 2 5 2 5 3 5 2 4 3 5 3 4 4 5 3 4 4 4 3 4 4 4 4 4 5 3 4 3 5 3 4 3 5 3 5 2 5 2 5 2 5 2 5 2 6 1 5 1 5 1h6l5 1h11l6-1h5l5-1 6-1 5-1 5-2 5-2 6-2 4-2 5-2 5-3 5-3 4-3 5-3 4-3 4-4 4-4 4-4 3-4 4-4 3-5 3-4 3-5 3-4 2-5 2-5 2-5 2-6 1-5 2-5 1-6 1-5v-5l1-6v-5z"/><path fill="none" stroke="#FFD320" d="M22979 13561v-6l-1-5v-6l-1-5-1-5-2-6-1-5-2-5-2-5-2-5-2-5-3-5-3-4-3-5-3-4-4-5-3-4-4-4-4-3-4-4-4-3-5-4-4-3-5-2-5-3-5-2-4-3-6-2-5-1-5-2-5-1-6-1-5-1-5-1h-22l-6 1-5 1-5 1-6 1-5 2-5 1-5 2-5 3-5 2-5 3-4 2-5 3-4 4-5 3-4 4-4 3-3 4-4 4-3 5-4 4-3 5-3 4-2 5-3 5-2 5-2 5-2 5-1 5-1 6-1 5-1 5-1 6v22l1 5 1 5 1 6 1 5 1 5 2 6 2 5 2 5 3 5 2 4 3 5 3 4 4 5 3 4 4 4 3 4 4 4 4 4 5 3 4 3 5 3 4 3 5 3 5 2 5 2 5 2 5 2 5 2 6 1 5 1 5 1h6l5 1h11l6-1h5l5-1 6-1 5-1 5-2 5-2 6-2 4-2 5-2 5-3 5-3 4-3 5-3 4-3 4-4 4-4 4-4 3-4 4-4 3-5 3-4 3-5 3-4 2-5 2-5 2-5 2-6 1-5 2-5 1-6 1-5v-5l1-6v-5z"/><path fill="#FFD320" d="M23770 13621v-11l-1-5-1-6-1-5-1-5-2-5-1-6-2-5-3-5-2-5-3-4-3-5-3-5-3-4-3-4-4-4-4-4-3-4-5-4-4-3-4-3-5-3-4-3-5-3-5-2-5-2-5-2-5-2-6-2-5-1-5-1-6-1h-5l-5-1h-11l-6 1h-5l-6 1-5 1-5 1-6 2-5 2-5 2-5 2-5 2-4 3-5 3-5 3-4 3-4 3-4 4-4 4-4 4-4 4-3 4-3 4-3 5-3 5-3 4-2 5-2 5-2 5-2 6-2 5-1 5-1 5-1 6v5l-1 6v11l1 5v5l1 6 1 5 1 5 2 6 2 5 2 5 2 5 2 5 3 5 3 4 3 5 3 4 3 4 4 5 4 4 4 3 4 4 4 3 4 4 5 3 5 2 4 3 5 2 5 3 5 2 5 1 6 2 5 1 5 1 6 1 5 1h22l5-1 6-1 5-1 5-1 6-2 5-1 5-2 5-3 5-2 5-3 4-2 5-3 4-4 4-3 5-4 3-3 4-4 4-5 3-4 3-4 3-5 3-4 3-5 2-5 3-5 2-5 1-5 2-6 1-5 1-5 1-6 1-5v-11z"/><path fill="none" stroke="#FFD320" d="M23770 13621v-11l-1-5-1-6-1-5-1-5-2-5-1-6-2-5-3-5-2-5-3-4-3-5-3-5-3-4-3-4-4-4-4-4-3-4-5-4-4-3-4-3-5-3-4-3-5-3-5-2-5-2-5-2-5-2-6-2-5-1-5-1-6-1h-5l-5-1h-11l-6 1h-5l-6 1-5 1-5 1-6 2-5 2-5 2-5 2-5 2-4 3-5 3-5 3-4 3-4 3-4 4-4 4-4 4-4 4-3 4-3 4-3 5-3 5-3 4-2 5-2 5-2 5-2 6-2 5-1 5-1 5-1 6v5l-1 6v11l1 5v5l1 6 1 5 1 5 2 6 2 5 2 5 2 5 2 5 3 5 3 4 3 5 3 4 3 4 4 5 4 4 4 3 4 4 4 3 4 4 5 3 5 2 4 3 5 2 5 3 5 2 5 1 6 2 5 1 5 1 6 1 5 1h22l5-1 6-1 5-1 5-1 6-2 5-1 5-2 5-3 5-2 5-3 4-2 5-3 4-4 4-3 5-4 3-3 4-4 4-5 3-4 3-4 3-5 3-4 3-5 2-5 3-5 2-5 1-5 2-6 1-5 1-5 1-6 1-5v-11z"/><path fill="#FFD320" d="M24561 11943v-11l-1-5v-5l-2-6-1-5-1-5-2-5-2-6-2-5-3-4-2-5-3-5-3-4-3-5-4-4-3-4-4-4-4-4-4-3-4-4-5-3-4-3-5-3-5-3-5-2-5-2-5-2-5-2-5-1-6-2-5-1-5-1h-6l-5-1h-11l-5 1h-6l-5 1-6 1-5 2-5 1-5 2-5 2-5 2-5 2-5 3-5 3-4 3-5 3-4 4-4 3-4 4-4 4-3 4-4 4-3 5-3 4-3 5-2 5-3 4-2 5-2 6-2 5-1 5-2 5-1 6v5l-1 5v6l-1 5 1 6v5l1 6v5l1 5 2 6 1 5 2 5 2 5 2 5 3 5 2 5 3 4 3 5 3 4 4 5 3 4 4 4 4 3 4 4 4 3 5 4 4 3 5 3 5 2 5 3 5 2 5 2 5 1 5 2 5 1 6 1 5 1 6 1h21l6-1 5-1 5-1 6-1 5-2 5-1 5-2 5-2 5-3 5-2 5-3 4-3 5-4 4-3 4-4 4-3 4-4 3-4 4-5 3-4 3-5 3-4 2-5 3-5 2-5 2-5 2-5 1-5 1-6 2-5v-5l1-6v-11z"/><path fill="none" stroke="#FFD320" d="M24561 11943v-11l-1-5v-5l-2-6-1-5-1-5-2-5-2-6-2-5-3-4-2-5-3-5-3-4-3-5-4-4-3-4-4-4-4-4-4-3-4-4-5-3-4-3-5-3-5-3-5-2-5-2-5-2-5-2-5-1-6-2-5-1-5-1h-6l-5-1h-11l-5 1h-6l-5 1-6 1-5 2-5 1-5 2-5 2-5 2-5 2-5 3-5 3-4 3-5 3-4 4-4 3-4 4-4 4-3 4-4 4-3 5-3 4-3 5-2 5-3 4-2 5-2 6-2 5-1 5-2 5-1 6v5l-1 5v6l-1 5 1 6v5l1 6v5l1 5 2 6 1 5 2 5 2 5 2 5 3 5 2 5 3 4 3 5 3 4 4 5 3 4 4 4 4 3 4 4 4 3 5 4 4 3 5 3 5 2 5 3 5 2 5 2 5 1 5 2 5 1 6 1 5 1 6 1h21l6-1 5-1 5-1 6-1 5-2 5-1 5-2 5-2 5-3 5-2 5-3 4-3 5-4 4-3 4-4 4-3 4-4 3-4 4-5 3-4 3-5 3-4 2-5 3-5 2-5 2-5 2-5 1-5 1-6 2-5v-5l1-6v-11z"/><path fill="#FFD320" d="M25353 12812v-5l-1-6v-5l-1-5-1-6-1-5-2-5-2-5-2-5-2-5-2-5-3-5-3-5-3-4-3-5-3-4-4-4-4-4-4-4-4-3-4-4-4-3-5-3-5-3-4-2-5-3-5-2-5-2-6-2-5-1-5-2-5-1-6-1h-5l-6-1h-11l-5 1h-6l-5 1-5 1-6 2-5 1-5 2-5 2-5 2-5 3-5 2-4 3-5 3-4 3-5 4-4 3-4 4-3 4-4 4-3 4-4 5-3 4-2 5-3 5-2 5-3 5-2 5-1 5-2 5-1 5-1 6-1 5-1 5v22l1 6 1 5 1 5 1 6 2 5 1 5 2 5 3 5 2 5 3 5 2 5 3 4 4 4 3 5 4 4 3 4 4 4 4 3 5 4 4 3 5 3 4 3 5 2 5 3 5 2 5 2 5 2 5 1 6 1 5 1 5 1 6 1h22l5-1 6-1 5-1 5-1 5-1 6-2 5-2 5-2 5-3 4-2 5-3 5-3 4-3 4-4 4-3 4-4 4-4 4-4 3-5 3-4 3-4 3-5 3-5 2-5 2-5 2-5 2-5 2-5 1-6 1-5 1-5v-6l1-5v-6z"/><path fill="none" stroke="#FFD320" d="M25353 12812v-5l-1-6v-5l-1-5-1-6-1-5-2-5-2-5-2-5-2-5-2-5-3-5-3-5-3-4-3-5-3-4-4-4-4-4-4-4-4-3-4-4-4-3-5-3-5-3-4-2-5-3-5-2-5-2-6-2-5-1-5-2-5-1-6-1h-5l-6-1h-11l-5 1h-6l-5 1-5 1-6 2-5 1-5 2-5 2-5 2-5 3-5 2-4 3-5 3-4 3-5 4-4 3-4 4-3 4-4 4-3 4-4 5-3 4-2 5-3 5-2 5-3 5-2 5-1 5-2 5-1 5-1 6-1 5-1 5v22l1 6 1 5 1 5 1 6 2 5 1 5 2 5 3 5 2 5 3 5 2 5 3 4 4 4 3 5 4 4 3 4 4 4 4 3 5 4 4 3 5 3 4 3 5 2 5 3 5 2 5 2 5 2 5 1 6 1 5 1 5 1 6 1h22l5-1 6-1 5-1 5-1 5-1 6-2 5-2 5-2 5-3 4-2 5-3 5-3 4-3 4-4 4-3 4-4 4-4 4-4 3-5 3-4 3-4 3-5 3-5 2-5 2-5 2-5 2-5 2-5 1-6 1-5 1-5v-6l1-5v-6z"/><path fill="#696969" d="m3070 11676-111-111-14 14 111 111-111 111 14 14 111-111 111 111 14-14-111-111 111-111-14-14-111 111z"/><path fill="none" stroke="#696969" d="m3070 11676-111-111-14 14 111 111-111 111 14 14 111-111 111 111 14-14-111-111 111-111-14-14-111 111z"/><path fill="#696969" d="m3862 12473-112-112-13 14 111 111-111 112 13 13 112-111 111 111 14-13-112-112 112-111-14-14-111 112z"/><path fill="none" stroke="#696969" d="m3862 12473-112-112-13 14 111 111-111 112 13 13 112-111 111 111 14-13-112-112 112-111-14-14-111 112z"/><path fill="#696969" d="m4653 12328-111-111-14 13 111 112-111 111 14 14 111-112 111 112 14-14-111-111 111-112-14-13-111 111z"/><path fill="none" stroke="#696969" d="m4653 12328-111-111-14 13 111 112-111 111 14 14 111-112 111 112 14-14-111-111 111-112-14-13-111 111z"/><path fill="#696969" d="m5444 8960-111-111-14 14 112 111-112 111 14 14 111-111 112 111 13-14-111-111 111-111-13-14-112 111z"/><path fill="none" stroke="#696969" d="m5444 8960-111-111-14 14 112 111-112 111 14 14 111-111 112 111 13-14-111-111 111-111-13-14-112 111z"/><path fill="#696969" d="m6236 12762-111-111-14 14 111 111-111 111 14 14 111-111 111 111 14-14-111-111 111-111-14-14-111 111z"/><path fill="none" stroke="#696969" d="m6236 12762-111-111-14 14 111 111-111 111 14 14 111-111 111 111 14-14-111-111 111-111-14-14-111 111z"/><path fill="#696969" d="m7818 4724-111-111-14 14 112 111-112 111 14 14 111-111 112 111 13-14-111-111 111-111-13-14-112 111z"/><path fill="none" stroke="#696969" d="m7818 4724-111-111-14 14 112 111-112 111 14 14 111-111 112 111 13-14-111-111 111-111-13-14-112 111z"/><path fill="#696969" d="m8610 9195-111-111-14 14 111 111-111 111 14 14 111-111 111 111 14-14-111-111 111-111-14-14-111 111z"/><path fill="none" stroke="#696969" d="m8610 9195-111-111-14 14 111 111-111 111 14 14 111-111 111 111 14-14-111-111 111-111-14-14-111 111z"/><path fill="#696969" d="m9401 10686-111-111-14 14 111 111-111 111 14 14 111-111 111 111 14-14-111-111 111-111-14-14-111 111z"/><path fill="none" stroke="#696969" d="m9401 10686-111-111-14 14 111 111-111 111 14 14 111-111 111 111 14-14-111-111 111-111-14-14-111 111z"/><path fill="#696969" d="m10193 11432-112-112-13 14 111 111-111 112 13 13 112-111 111 111 14-13-112-112 112-111-14-14-111 112z"/><path fill="none" stroke="#696969" d="m10193 11432-112-112-13 14 111 111-111 112 13 13 112-111 111 111 14-13-112-112 112-111-14-14-111 112z"/><path fill="#696969" d="m10984 11879-111-111-14 13 111 112-111 111 14 14 111-112 111 112 14-14-111-111 111-112-14-13-111 111z"/><path fill="none" stroke="#696969" d="m10984 11879-111-111-14 13 111 112-111 111 14 14 111-112 111 112 14-14-111-111 111-112-14-13-111 111z"/><path fill="#696969" d="m11775 6245-111-111-14 14 112 111-112 111 14 14 111-111 112 111 13-14-111-111 111-111-13-14-112 111z"/><path fill="none" stroke="#696969" d="m11775 6245-111-111-14 14 112 111-112 111 14 14 111-111 112 111 13-14-111-111 111-111-13-14-112 111z"/><path fill="#696969" d="m12567 9956-111-111-14 13 111 112-111 111 14 14 111-112 111 112 14-14-111-111 111-112-14-13-111 111z"/><path fill="none" stroke="#696969" d="m12567 9956-111-111-14 13 111 112-111 111 14 14 111-112 111 112 14-14-111-111 111-112-14-13-111 111z"/><path fill="#696969" d="m13357 11193-111-111-14 14 111 111-111 111 14 14 111-111 111 111 14-14-111-111 111-111-14-14-111 111z"/><path fill="none" stroke="#696969" d="m13357 11193-111-111-14 14 111 111-111 111 14 14 111-111 111 111 14-14-111-111 111-111-14-14-111 111z"/><path fill="#696969" d="m14149 11812-112-111-13 13 111 112-111 111 13 14 112-112 111 112 14-14-112-111 112-112-14-13-111 111z"/><path fill="none" stroke="#696969" d="m14149 11812-112-111-13 13 111 112-111 111 13 14 112-112 111 112 14-14-112-111 112-112-14-13-111 111z"/><path fill="#696969" d="m14940 12183-111-111-14 14 111 111-111 111 14 14 111-111 111 111 14-14-111-111 111-111-14-14-111 111z"/><path fill="none" stroke="#696969" d="m14940 12183-111-111-14 14 111 111-111 111 14 14 111-111 111 111 14-14-111-111 111-111-14-14-111 111z"/><path fill="#696969" d="m15731 10686-111-111-14 14 111 111-111 111 14 14 111-111 111 111 14-14-111-111 111-111-14-14-111 111z"/><path fill="none" stroke="#696969" d="m15731 10686-111-111-14 14 111 111-111 111 14 14 111-111 111 111 14-14-111-111 111-111-14-14-111 111z"/><path fill="#696969" d="m16523 12177-112-111-13 14 111 111-111 111 13 14 112-111 111 111 14-14-112-111 112-111-14-14-111 111z"/><path fill="none" stroke="#696969" d="m16523 12177-112-111-13 14 111 111-111 111 13 14 112-111 111 111 14-14-112-111 112-111-14-14-111 111z"/><path fill="#696969" d="m17314 12674-111-111-14 13 111 112-111 111 14 14 111-112 111 112 14-14-111-111 111-112-14-13-111 111z"/><path fill="none" stroke="#696969" d="m17314 12674-111-111-14 13 111 112-111 111 14 14 111-112 111 112 14-14-111-111 111-112-14-13-111 111z"/><path fill="#696969" d="m18105 12922-111-111-14 14 112 111-112 111 14 14 111-111 112 111 13-14-111-111 111-111-13-14-112 111z"/><path fill="none" stroke="#696969" d="m18105 12922-111-111-14 14 112 111-112 111 14 14 111-111 112 111 13-14-111-111 111-111-13-14-112 111z"/><path fill="#696969" d="m18897 13071-111-111-14 14 111 111-111 111 14 14 111-111 111 111 14-14-111-111 111-111-14-14-111 111z"/><path fill="none" stroke="#696969" d="m18897 13071-111-111-14 14 111 111-111 111 14 14 111-111 111 111 14-14-111-111 111-111-14-14-111 111z"/><text class="SVGTextShape" transform="rotate(-90 3189 15071)"><tspan class="TextParagraph" font-family="Liberation Sans, sans-serif" font-size="353" font-weight="400"><tspan class="TextPosition" x="3189" y="15071"><tspan>Marche</tspan></tspan></tspan></text><text class="SVGTextShape" transform="rotate(-90 3981 14991)"><tspan class="TextParagraph" font-family="Liberation Sans, sans-serif" font-size="353" font-weight="400"><tspan class="TextPosition" x="3981" y="14991"><tspan>Cycles</tspan></tspan></tspan></text><text class="SVGTextShape" transform="rotate(-90 4772 15468)"><tspan class="TextParagraph" font-family="Liberation Sans, sans-serif" font-size="353" font-weight="400"><tspan class="TextPosition" x="4772" y="15468"><tspan>VAE-EDP</tspan></tspan></tspan></text><text class="SVGTextShape" transform="rotate(-90 5563 16526)"><tspan class="TextParagraph" font-family="Liberation Sans, sans-serif" font-size="353" font-weight="400"><tspan class="TextPosition" x="5563" y="16526"><tspan>Scooter essence</tspan></tspan></tspan></text><text class="SVGTextShape" transform="rotate(-90 6355 16711)"><tspan class="TextParagraph" font-family="Liberation Sans, sans-serif" font-size="353" font-weight="400"><tspan class="TextPosition" x="6355" y="16711"><tspan>Scooter lectrique</tspan></tspan></tspan></text><text class="SVGTextShape" transform="rotate(-90 7146 16103)"><tspan class="TextParagraph" font-family="Liberation Sans, sans-serif" font-size="353" font-weight="400"><tspan class="TextPosition" x="7146" y="16103"><tspan>Moto essence</tspan></tspan></tspan></text><text class="SVGTextShape" x="101.657" y="169.908"><tspan class="TextParagraph" font-family="'Liberation Sans', sans-serif" font-size="353" font-weight="400"><tspan class="TextPosition" x="8038.656" y="16589.906"><tspan>Voiture essence</tspan></tspan></tspan></text><text class="SVGTextShape" transform="rotate(-90)" x="-15656.38" y="7957.848"><tspan class="TextParagraph" font-family="'Liberation Sans', sans-serif" font-size="353" font-weight="400">1 passager<tspan class="TextPosition" x="-6927.378" y="24377.848"/></tspan></text><text class="SVGTextShape" transform="rotate(-90)" x="-15825.985" y="8734.005"><tspan class="TextParagraph" font-family="'Liberation Sans', sans-serif" font-size="353" font-weight="400">2 passagers</tspan></text><text class="SVGTextShape" transform="rotate(-90)" x="-15825.985" y="9510.162"><tspan class="TextParagraph" font-family="'Liberation Sans', sans-serif" font-size="353" font-weight="400">3 passagers</tspan></text><text class="SVGTextShape" x="382.011" y="566.907"><tspan class="TextParagraph" font-family="'Liberation Sans', sans-serif" font-size="353" font-weight="400"><tspan class="TextPosition" x="12276.011" y="16589.906"><tspan>Voiture diesel</tspan></tspan></tspan></text><text class="SVGTextShape" x="-73.757" y="-84.901"><tspan class="TextParagraph" font-family="'Liberation Sans', sans-serif" font-size="353" font-weight="400"><tspan class="TextPosition" x="15776.244" y="16520.1"><tspan>Voiture lectrique</tspan></tspan></tspan></text><text class="SVGTextShape" x="-21192.088" y="6555.467" style="line-height:1"><tspan x="-21192.088" y="6555.467">M</tspan><tspan x="-1385.086" y="22684.467"><tspan class="TextPosition" x="-1385.086" y="22684.467">diesel</tspan></tspan></text><text class="SVGTextShape" transform="rotate(-90)" x="-14677.701" y="20584.234"><tspan class="TextParagraph" font-family="'Liberation Sans', sans-serif" font-size="353" font-weight="400">Plein<tspan class="TextPosition" x="5921.298" y="36713.23"/></tspan></text><text class="SVGTextShape" transform="rotate(-90)" x="-15128.604" y="19800.404"><tspan class="TextParagraph" font-family="'Liberation Sans', sans-serif" font-size="353" font-weight="400">Mi-plein</tspan></text><text class="SVGTextShape"><tspan class="TextParagraph" font-family="Liberation Sans, sans-serif" font-size="353" font-weight="400"><tspan class="TextPosition" x="2240" y="13803"><tspan>0</tspan></tspan></tspan></text><text class="SVGTextShape"><tspan class="TextParagraph" font-family="Liberation Sans, sans-serif" font-size="353" font-weight="400"><tspan class="TextPosition" x="2055" y="11992"><tspan>50</tspan></tspan></tspan></text><text class="SVGTextShape"><tspan class="TextParagraph" font-family="Liberation Sans, sans-serif" font-size="353" font-weight="400"><tspan class="TextPosition" x="1869" y="10181"><tspan>100</tspan></tspan></tspan></text><text class="SVGTextShape"><tspan class="TextParagraph" font-family="Liberation Sans, sans-serif" font-size="353" font-weight="400"><tspan class="TextPosition" x="1869" y="8371"><tspan>150</tspan></tspan></tspan></text><text class="SVGTextShape"><tspan class="TextParagraph" font-family="Liberation Sans, sans-serif" font-size="353" font-weight="400"><tspan class="TextPosition" x="1869" y="6560"><tspan>200</tspan></tspan></tspan></text><text class="SVGTextShape"><tspan class="TextParagraph" font-family="Liberation Sans, sans-serif" font-size="353" font-weight="400"><tspan class="TextPosition" x="1869" y="4749"><tspan>250</tspan></tspan></tspan></text><text class="SVGTextShape"><tspan class="TextParagraph" font-family="Liberation Sans, sans-serif" font-size="353" font-weight="400"><tspan class="TextPosition" x="1869" y="2938"><tspan>300</tspan></tspan></tspan></text><text class="SVGTextShape"><tspan class="TextParagraph" font-family="Liberation Sans, sans-serif" font-size="459" font-weight="400"><tspan class="TextPosition" x="6415" y="1012"><tspan>missions CO2 du puits  la roue par passager (lectricit Belgique)</tspan></tspan></tspan></text><text class="SVGTextShape"><tspan class="TextParagraph" font-family="Liberation Sans, sans-serif" font-size="388" font-weight="400"><tspan class="TextPosition" x="9127" y="2083"><tspan>(et ordre de grandeur cycle de vie si disponible)</tspan></tspan></tspan></text><path fill="#FFF" d="M22689 5106h-2780V3014h5559v2092h-2779z"/><path fill="#7CFC00" d="M19992 3338h211l-106-211-105 211z"/><path fill="none" stroke="#7CFC00" d="M19992 3338h211l-106-211-105 211z"/><path fill="red" d="m19992 3545 105 211 106-211h-211z"/><path fill="none" stroke="red" d="m19992 3545 105 211 106-211h-211z"/><path fill="#FFD320" d="m20203 4068-1-5v-9l-1-4-1-5-1-4-1-5-2-4-2-4-1-5-2-4-3-4-2-4-3-4-2-3-3-4-3-3-3-4-4-3-3-3-4-3-3-2-4-3-4-2-4-3-4-2-5-1-4-2-4-2-5-1-4-1-5-1-4-1h-28l-4 1-5 1-4 1-5 1-4 2-4 2-5 1-4 2-4 3-4 2-4 3-3 2-4 3-3 3-4 3-3 4-3 3-3 4-2 3-3 4-2 4-3 4-2 4-1 5-2 4-2 4-1 5-1 4-1 5-1 4v28l1 4 1 5 1 4 1 5 2 4 2 4 1 5 2 4 3 4 2 4 3 4 2 3 3 4 3 3 3 4 4 3 3 3 4 3 3 2 4 3 4 2 4 3 4 2 5 1 4 2 4 2 5 1 4 1 5 1 4 1h9l5 1 5-1h9l4-1 5-1 4-1 5-1 4-2 4-2 5-1 4-2 4-3 4-2 4-3 3-2 4-3 3-3 4-3 3-4 3-3 3-4 2-3 3-4 2-4 3-4 2-4 1-5 2-4 2-4 1-5 1-4 1-5 1-4v-9l1-5z"/><path fill="none" stroke="#FFD320" d="m20203 4068-1-5v-9l-1-4-1-5-1-4-1-5-2-4-2-4-1-5-2-4-3-4-2-4-3-4-2-3-3-4-3-3-3-4-4-3-3-3-4-3-3-2-4-3-4-2-4-3-4-2-5-1-4-2-4-2-5-1-4-1-5-1-4-1h-28l-4 1-5 1-4 1-5 1-4 2-4 2-5 1-4 2-4 3-4 2-4 3-3 2-4 3-3 3-4 3-3 4-3 3-3 4-2 3-3 4-2 4-3 4-2 4-1 5-2 4-2 4-1 5-1 4-1 5-1 4v28l1 4 1 5 1 4 1 5 2 4 2 4 1 5 2 4 3 4 2 4 3 4 2 3 3 4 3 3 3 4 4 3 3 3 4 3 3 2 4 3 4 2 4 3 4 2 5 1 4 2 4 2 5 1 4 1 5 1 4 1h9l5 1 5-1h9l4-1 5-1 4-1 5-1 4-2 4-2 5-1 4-2 4-3 4-2 4-3 3-2 4-3 3-3 4-3 3-4 3-3 3-4 2-3 3-4 2-4 3-4 2-4 1-5 2-4 2-4 1-5 1-4 1-5 1-4v-9l1-5z"/><path fill="#696969" d="m20097 4474-94-93-11 11 93 94-93 94 11 12 94-94 94 94 12-12-94-94 94-94-12-11-94 93z"/><path fill="none" stroke="#696969" d="m20097 4474-94-93-11 11 93 94-93 94 11 12 94-94 94 94 12-12-94-94 94-94-12-11-94 93z"/><text class="SVGTextShape"><tspan class="TextParagraph" font-family="Liberation Sans, sans-serif" font-size="353" font-weight="400"><tspan class="TextPosition" x="20303" y="3352"><tspan>Minimum</tspan></tspan></tspan></text><text class="SVGTextShape"><tspan class="TextParagraph" font-family="Liberation Sans, sans-serif" font-size="353" font-weight="400"><tspan class="TextPosition" x="20303" y="3770"><tspan>Maximum</tspan></tspan></tspan></text><text class="SVGTextShape"><tspan class="TextParagraph" font-family="Liberation Sans, sans-serif" font-size="353" font-weight="400"><tspan class="TextPosition" x="20303" y="4188"><tspan>missions moyennes</tspan></tspan></tspan></text><text class="SVGTextShape"><tspan class="TextParagraph" font-family="Liberation Sans, sans-serif" font-size="353" font-weight="400"><tspan class="TextPosition" x="20303" y="4606"><tspan>missions moyenne cycle de vie </tspan></tspan><tspan class="TextPosition" x="20303" y="5003"><tspan>complet</tspan></tspan></tspan></text><text class="SVGTextShape" transform="rotate(-90 1166 11226)"><tspan class="TextParagraph" font-family="Liberation Sans, sans-serif" font-size="318" font-weight="400"><tspan class="TextPosition" x="1166" y="11226"><tspan>missions (gCO2/km)</tspan></tspan></tspan></text><text class="SVGTextShape" transform="rotate(-90)" x="-15825.985" y="10282.7"><tspan class="TextParagraph" font-family="'Liberation Sans', sans-serif" font-size="353" font-weight="400">4 passagers</tspan></text><text class="SVGTextShape" transform="rotate(-90)" x="-15825.985" y="11055.237"><tspan class="TextParagraph" font-family="'Liberation Sans', sans-serif" font-size="353" font-weight="400">5 passagers</tspan></text><text class="SVGTextShape" transform="rotate(-90)" x="-15656.38" y="15799.545"><tspan class="TextParagraph" font-family="'Liberation Sans', sans-serif" font-size="353" font-weight="400">1 passager<tspan class="TextPosition" x="-6927.378" y="32219.547"/></tspan></text><text class="SVGTextShape" transform="rotate(-90)" x="-15825.985" y="16575.703"><tspan class="TextParagraph" font-family="'Liberation Sans', sans-serif" font-size="353" font-weight="400">2 passagers</tspan></text><text class="SVGTextShape" transform="rotate(-90)" x="-15825.985" y="17351.859"><tspan class="TextParagraph" font-family="'Liberation Sans', sans-serif" font-size="353" font-weight="400">3 passagers</tspan></text><text class="SVGTextShape" transform="rotate(-90)" x="-15825.985" y="18124.398"><tspan class="TextParagraph" font-family="'Liberation Sans', sans-serif" font-size="353" font-weight="400">4 passagers</tspan></text><text class="SVGTextShape" transform="rotate(-90)" x="-15825.985" y="18896.936"><tspan class="TextParagraph" font-family="'Liberation Sans', sans-serif" font-size="353" font-weight="400">5 passagers</tspan></text><text class="SVGTextShape" transform="rotate(-90)" x="-15656.38" y="11894.389"><tspan class="TextParagraph" font-family="'Liberation Sans', sans-serif" font-size="353" font-weight="400">1 passager<tspan class="TextPosition" x="-6927.378" y="28314.389"/></tspan></text><text class="SVGTextShape" transform="rotate(-90)" x="-15825.985" y="12670.546"><tspan class="TextParagraph" font-family="'Liberation Sans', sans-serif" font-size="353" font-weight="400">2 passagers</tspan></text><text class="SVGTextShape" transform="rotate(-90)" x="-15825.985" y="13446.703"><tspan class="TextParagraph" font-family="'Liberation Sans', sans-serif" font-size="353" font-weight="400">3 passagers</tspan></text><text class="SVGTextShape" transform="rotate(-90)" x="-15825.985" y="14219.241"><tspan class="TextParagraph" font-family="'Liberation Sans', sans-serif" font-size="353" font-weight="400">4 passagers</tspan></text><text class="SVGTextShape" transform="rotate(-90)" x="-15825.985" y="14991.778"><tspan class="TextParagraph" font-family="'Liberation Sans', sans-serif" font-size="353" font-weight="400">5 passagers</tspan></text><text xml:space="preserve" style="font-style:normal;font-weight:400;font-size:352.778px;line-height:100%;font-family:Sans;letter-spacing:0;word-spacing:0;fill:#000;fill-opacity:1;stroke:none;stroke-width:26.4583px;stroke-linecap:butt;stroke-linejoin:miter;stroke-opacity:1" x="20091.645" y="16517.814"><tspan style="font-style:normal;font-variant:normal;font-weight:400;font-stretch:normal;font-size:352.778px;font-family:'Liberation Sans',sans-serif;-inkscape-font-specification:'Liberation Sans, sans-serif';text-align:center;text-anchor:middle;stroke-width:26.4583px" x="20091.645" y="16517.814">Minibus</tspan><tspan style="font-style:normal;font-variant:normal;font-weight:400;font-stretch:normal;font-size:352.778px;font-family:'Liberation Sans',sans-serif;-inkscape-font-specification:'Liberation Sans, sans-serif';text-align:center;text-anchor:middle;stroke-width:26.4583px" x="20091.645" y="16876.232">diesel</tspan></text><text class="SVGTextShape" transform="rotate(-90)" x="-14677.701" y="22132.135"><tspan class="TextParagraph" font-family="'Liberation Sans', sans-serif" font-size="353" font-weight="400">Plein<tspan class="TextPosition" x="5921.298" y="38261.133"/></tspan></text><text class="SVGTextShape" transform="rotate(-90)" x="-15128.604" y="21348.305"><tspan class="TextParagraph" font-family="'Liberation Sans', sans-serif" font-size="353" font-weight="400">Mi-plein</tspan></text><text xml:space="preserve" style="font-style:normal;font-weight:400;font-size:352.778px;line-height:100%;font-family:Sans;letter-spacing:0;word-spacing:0;fill:#000;fill-opacity:1;stroke:none;stroke-width:26.4583px;stroke-linecap:butt;stroke-linejoin:miter;stroke-opacity:1" x="21656.115" y="16517.814"><tspan style="font-style:normal;font-variant:normal;font-weight:400;font-stretch:normal;font-size:352.778px;font-family:'Liberation Sans',sans-serif;-inkscape-font-specification:'Liberation Sans, sans-serif';text-align:center;text-anchor:middle;stroke-width:26.4583px" x="21656.115" y="16517.814">Autocar</tspan><tspan style="font-style:normal;font-variant:normal;font-weight:400;font-stretch:normal;font-size:352.778px;font-family:'Liberation Sans',sans-serif;-inkscape-font-specification:'Liberation Sans, sans-serif';text-align:center;text-anchor:middle;stroke-width:26.4583px" x="21656.115" y="16876.232">diesel</tspan></text><text class="SVGTextShape" transform="rotate(-90)" x="-14677.701" y="23784.77"><tspan class="TextParagraph" font-family="'Liberation Sans', sans-serif" font-size="353" font-weight="400">Plein<tspan class="TextPosition" x="5921.298" y="39913.766"/></tspan></text><text class="SVGTextShape" transform="rotate(-90)" x="-15128.604" y="23000.939"><tspan class="TextParagraph" font-family="'Liberation Sans', sans-serif" font-size="353" font-weight="400">Mi-plein</tspan></text><text xml:space="preserve" style="font-style:normal;font-weight:400;font-size:352.778px;line-height:100%;font-family:Sans;letter-spacing:0;word-spacing:0;fill:#000;fill-opacity:1;stroke:none;stroke-width:26.4583px;stroke-linecap:butt;stroke-linejoin:miter;stroke-opacity:1" x="23252.951" y="16517.814"><tspan style="font-style:normal;font-variant:normal;font-weight:400;font-stretch:normal;font-size:352.778px;font-family:'Liberation Sans',sans-serif;-inkscape-font-specification:'Liberation Sans, sans-serif';text-align:center;text-anchor:middle;stroke-width:26.4583px" x="23252.951" y="16517.814">Train</tspan><tspan style="font-style:normal;font-variant:normal;font-weight:400;font-stretch:normal;font-size:352.778px;font-family:'Liberation Sans',sans-serif;-inkscape-font-specification:'Liberation Sans, sans-serif';text-align:center;text-anchor:middle;stroke-width:26.4583px" x="23252.951" y="16876.232">lectrique</tspan></text><text class="SVGTextShape" transform="rotate(-90)" x="-14677.701" y="25357.52"><tspan class="TextParagraph" font-family="'Liberation Sans', sans-serif" font-size="353" font-weight="400">Plein<tspan class="TextPosition" x="5921.298" y="41486.516"/></tspan></text><text class="SVGTextShape" transform="rotate(-90)" x="-15128.604" y="24573.689"><tspan class="TextParagraph" font-family="'Liberation Sans', sans-serif" font-size="353" font-weight="400">Mi-plein</tspan></text><text xml:space="preserve" style="font-style:normal;font-weight:400;font-size:352.778px;line-height:100%;font-family:Sans;letter-spacing:0;word-spacing:0;fill:#000;fill-opacity:1;stroke:none;stroke-width:26.4583px;stroke-linecap:butt;stroke-linejoin:miter;stroke-opacity:1" x="24864.93" y="16517.814"><tspan style="font-style:normal;font-variant:normal;font-weight:400;font-stretch:normal;font-size:352.778px;font-family:'Liberation Sans',sans-serif;-inkscape-font-specification:'Liberation Sans, sans-serif';text-align:center;text-anchor:middle;stroke-width:26.4583px" x="24864.93" y="16517.814">Train</tspan><tspan style="font-style:normal;font-variant:normal;font-weight:400;font-stretch:normal;font-size:352.778px;font-family:'Liberation Sans',sans-serif;-inkscape-font-specification:'Liberation Sans, sans-serif';text-align:center;text-anchor:middle;stroke-width:26.4583px" x="24864.93" y="16876.232">diesel</tspan></text></svg>