<?xml version="1.0" encoding="UTF-8" standalone="no"?>
<svg
   xmlns:dc="http://purl.org/dc/elements/1.1/"
   xmlns:cc="http://creativecommons.org/ns#"
   xmlns:rdf="http://www.w3.org/1999/02/22-rdf-syntax-ns#"
   xmlns:svg="http://www.w3.org/2000/svg"
   xmlns="http://www.w3.org/2000/svg"
   xmlns:sodipodi="http://sodipodi.sourceforge.net/DTD/sodipodi-0.dtd"
   xmlns:inkscape="http://www.inkscape.org/namespaces/inkscape"
   version="1.1"
   id="svg10"
   xml:space="preserve"
   width="6852.96"
   height="2533.5066"
   viewBox="0 0 6852.96 2533.5066"
   sodipodi:docname="logo.svg"
   inkscape:version="1.0.2-2 (e86c870879, 2021-01-15)"><metadata
     id="metadata16"><rdf:RDF><cc:Work
         rdf:about=""><dc:format>image/svg+xml</dc:format><dc:type
           rdf:resource="http://purl.org/dc/dcmitype/StillImage" /><dc:title></dc:title></cc:Work></rdf:RDF></metadata><defs
     id="defs14"><clipPath
       clipPathUnits="userSpaceOnUse"
       id="clipPath26"><path
         d="M 0,1900.128 H 5139.72 V 0 H 0 Z"
         id="path24" /></clipPath></defs><sodipodi:namedview
     pagecolor="#ffffff"
     bordercolor="#666666"
     borderopacity="1"
     objecttolerance="10"
     gridtolerance="10"
     guidetolerance="10"
     inkscape:pageopacity="0"
     inkscape:pageshadow="2"
     inkscape:window-width="772"
     inkscape:window-height="480"
     id="namedview12"
     showgrid="false"
     inkscape:zoom="0.15584507"
     inkscape:cx="3426.48"
     inkscape:cy="1266.7533"
     inkscape:window-x="2551"
     inkscape:window-y="918"
     inkscape:window-maximized="0"
     inkscape:current-layer="g18" /><g
     id="g18"
     inkscape:groupmode="layer"
     inkscape:label="Logo HD tagline_2"
     transform="matrix(1.3333333,0,0,-1.3333333,0,2533.5067)"><g
       id="g20"><g
         id="g22"
         clip-path="url(#clipPath26)"><g
           id="g28"
           transform="translate(389.7402,1838.9336)"><path
             d="m 0,0 702.803,-100.813 c 42.038,-6.012 71.226,-45 65.204,-87.048 l -140.351,-978.447 c -6.029,-42.067 -44.985,-71.252 -87.051,-65.227 l -702.806,100.793 c -42.022,6.039 -71.23,45.048 -65.204,87.061 L -87.061,-65.207 C -81.005,-23.166 -42.049,6.039 0,0"
             style="fill:#a7d9e2;fill-opacity:1;fill-rule:nonzero;stroke:none"
             id="path30" /></g><g
           id="g32"
           transform="translate(149.9765,1685.5986)"><path
             d="m 0,0 680.604,202.174 c 40.73,12.057 83.526,-11.143 95.628,-51.859 l 281.426,-947.574 c 12.092,-40.717 -11.122,-83.509 -51.827,-95.629 L 325.224,-1095.02 c -40.731,-12.105 -83.547,11.124 -95.626,51.825 L -51.838,-95.621 C -63.923,-54.897 -40.713,-12.084 0,0"
             style="fill:#76c7cb;fill-opacity:1;fill-rule:nonzero;stroke:none"
             id="path34" /></g><g
           id="g36"
           transform="translate(29.875,1449.8281)"><path
             d="m 0,0 561.73,434.214 c 33.609,26.001 81.908,19.825 107.888,-13.786 l 604.525,-782.076 c 25.987,-33.612 19.797,-81.914 -13.8,-107.887 L 698.622,-903.749 c -33.615,-25.987 -81.918,-19.813 -107.898,13.799 L -13.807,-107.884 C -39.787,-74.286 -33.608,-25.986 0,0"
             style="fill:#36b7ba;fill-opacity:1;fill-rule:nonzero;stroke:none"
             id="path38" /></g><g
           id="g40"
           transform="translate(268.8115,512.4404)"><path
             d="m 0,0 c 53.601,-38.202 148.989,-84.151 250.619,-80.927 101.636,3.252 228.505,27.04 311.679,55.882 81.818,28.311 143.914,51.183 170.943,68.671 30.807,19.866 34.39,38.216 20.167,57.098 -15.385,20.426 -73.183,35.101 -101.364,30.415 -28.19,-4.714 -135.773,-44.966 -166.427,-25.66 -30.674,19.265 -31.448,73.685 -2.022,125.865 29.404,52.179 278.475,324.926 287.806,357.471 15.256,28.802 43.741,94.112 -36.028,91.065 -33.072,-1.272 -112.975,-72.648 -145.939,-105.712 -33.158,-33.311 -82.065,-79.413 -117.209,-92.079 -35.183,-12.639 -1.814,36.48 30.987,83.636 41.068,59.079 132.566,199.931 148.874,241.563 24.293,62.017 -11.484,103.553 -48.49,89.521 C 568.058,899.787 501.229,794.513 464.662,739.614 428.068,684.717 369.307,581.86 337.814,578.035 c -24.061,-2.897 -25.479,4.672 7.671,80.953 35.483,81.652 72.241,143.532 87.742,189.535 24.138,71.65 13.902,134.336 -53.672,93.197 C 331.464,913.997 247.859,740.653 212.635,687.64 174.772,636.896 132.19,524.896 94.07,615.048 55.441,718.368 56.951,784.635 22.649,822.522 -0.232,847.826 -18.039,838.754 -34.353,808.573 -50.663,778.418 -46.905,582.312 -57.765,519.513 -68.616,456.703 -103.146,247.247 -97.483,181.952 -90.877,105.793 -51.954,37.027 0,0"
             style="fill:#ffffff;fill-opacity:1;fill-rule:nonzero;stroke:none"
             id="path42" /></g><g
           id="g44"
           transform="translate(246.0009,528.1934)"><path
             d="m 0,0 c 53.601,-38.216 148.989,-84.137 250.619,-80.913 101.629,3.238 228.502,27.04 311.683,55.883 81.832,28.309 143.907,51.195 170.935,68.657 30.807,19.88 34.398,38.229 20.167,57.125 -15.388,20.427 -73.175,35.102 -101.363,30.4 -28.187,-4.713 -135.77,-44.964 -166.427,-25.673 -30.68,19.279 -31.456,73.686 -2.029,125.866 29.417,52.192 278.481,324.926 287.811,357.498 15.257,28.788 43.755,94.097 -36.031,91.064 C 702.298,678.623 622.392,607.233 589.43,574.183 556.273,540.871 507.376,494.77 472.221,482.104 c -35.179,-12.639 -1.811,36.466 30.984,83.649 41.075,59.079 132.566,199.891 148.881,241.55 24.289,62.03 -11.471,103.552 -48.501,89.52 C 568.051,899.802 501.228,794.527 464.655,739.643 428.065,684.73 369.304,581.861 337.8,578.062 c -24.054,-2.923 -25.468,4.661 7.685,80.941 35.48,81.65 72.251,143.531 87.742,189.535 24.131,71.635 13.909,134.335 -53.676,93.202 C 331.464,914.024 247.849,740.668 212.629,687.655 174.771,636.909 132.184,524.913 94.067,615.035 55.428,718.383 56.947,784.649 22.65,822.551 -0.239,847.827 -18.049,838.755 -34.335,808.601 -50.666,778.432 -46.896,582.34 -57.765,519.53 -68.619,456.704 -103.153,247.262 -97.486,181.979 -90.866,105.808 -51.964,37.041 0,0"
             style="fill:#e31313;fill-opacity:1;fill-rule:nonzero;stroke:none"
             id="path46" /></g><g
           id="g48"
           transform="translate(2425.1553,1440.5342)"><path
             d="m 0,0 c 38.115,0.379 67.203,-27.88 67.428,-65.503 0.218,-37.496 -28.85,-67.767 -65.628,-68.356 -36.19,-0.591 -67.183,29.834 -67.822,66.571 C -66.67,-30.017 -37.603,-0.395 0,0"
             style="fill:#e31313;fill-opacity:1;fill-rule:nonzero;stroke:none"
             id="path50" /></g><g
           id="g52"
           transform="translate(2350.0361,1891.8145)"><path
             d="m 0,0 h 152.958 c 0.31,-5.933 1.055,-11.654 0.837,-17.349 -4.14,-109.005 -40.52,-217.994 -44.083,-327.01 -0.611,-18.615 -6.488,-25.968 -25.658,-24.393 -19.043,1.561 -6.609,-0.562 -25.658,0.956 -5.322,0.422 -14.256,7.845 -14.461,12.372 C 38.551,-238.549 2.327,-121.641 -2.2,-4.724 -2.25,-3.599 -1.175,-2.432 0,0"
             style="fill:#e31313;fill-opacity:1;fill-rule:nonzero;stroke:none"
             id="path54" /></g><g
           id="g56"
           transform="translate(1640.5186,1900.043)"><path
             d="m 0,0 c 82.405,0 143.387,-25.545 199.423,-76.637 7.416,-6.591 7.416,-16.48 0.825,-23.075 l -64.277,-66.746 c -5.765,-5.77 -14.833,-5.77 -20.598,0 -30.491,27.191 -70.868,42.024 -111.252,42.024 -93.117,0 -161.516,-77.459 -161.516,-169.753 0,-91.473 69.224,-167.288 162.341,-167.288 38.734,0 80.762,14.011 110.427,39.555 5.765,4.947 16.477,4.947 21.423,-0.822 l 64.277,-68.398 c 5.766,-5.768 4.948,-16.48 -0.825,-22.249 C 144.213,-567.776 73.345,-593.324 0,-593.324 c -164.811,0 -297.486,131.027 -297.486,295.838 C -297.486,-132.672 -164.811,0 0,0"
             style="fill:#1d1d1b;fill-opacity:1;fill-rule:nonzero;stroke:none"
             id="path58" /></g><g
           id="g60"
           transform="translate(1939.6553,1876.1465)"><path
             d="m 0,0 c 0,8.241 6.591,15.658 15.658,15.658 h 98.064 c 8.242,0 15.658,-7.417 15.658,-15.658 v -440.048 h 196.128 c 9.06,0 15.658,-7.416 15.658,-15.658 v -89.821 c 0,-8.243 -6.598,-15.659 -15.658,-15.659 H 15.658 C 6.591,-561.186 0,-553.77 0,-545.527 Z"
             style="fill:#1d1d1b;fill-opacity:1;fill-rule:nonzero;stroke:none"
             id="path62" /></g><g
           id="g64"
           transform="translate(2689.5449,1886.8574)"><path
             d="m 0,0 c 0.825,7.417 8.242,13.186 14.833,13.186 h 13.188 c 4.121,0 11.538,-3.296 14.007,-8.239 l 191.181,-355.995 h 1.65 L 426.04,4.947 c 2.47,4.943 9.887,8.239 14.008,8.239 h 13.188 c 6.59,0 14.007,-5.769 14.832,-13.186 l 93.118,-553.769 c 1.651,-10.711 -5.766,-18.127 -15.659,-18.127 h -97.238 c -7.416,0 -14.832,6.593 -15.658,13.184 l -37.081,254.636 h -1.645 L 255.458,-571.071 c -2.47,-4.947 -9.887,-9.068 -14.008,-9.068 h -14.832 c -4.946,0 -11.537,4.121 -14.007,9.068 L 73.345,-304.076 H 71.693 L 35.438,-558.712 c -0.826,-6.591 -7.417,-13.184 -15.659,-13.184 h -97.238 c -9.893,0 -17.31,7.416 -15.658,18.127 z"
             style="fill:#1d1d1b;fill-opacity:1;fill-rule:nonzero;stroke:none"
             id="path66" /></g><g
           id="g68"
           transform="translate(3620.7422,1512.7354)"><path
             d="m 0,0 -62.626,135.971 h -0.825 L -125.259,0 Z m -338.688,-176.348 257.927,554.591 c 2.477,4.946 8.242,9.065 14.014,9.065 h 8.235 c 5.773,0 11.537,-4.119 14.014,-9.065 L 213.43,-176.348 c 4.946,-10.715 -1.645,-21.426 -14.007,-21.426 H 107.95 c -14.833,0 -21.424,4.942 -28.84,20.6 l -29.666,65.104 h -224.147 l -29.666,-65.929 c -4.12,-9.886 -13.181,-19.775 -29.665,-19.775 h -90.648 c -12.362,0 -18.953,10.711 -14.006,21.426"
             style="fill:#1d1d1b;fill-opacity:1;fill-rule:nonzero;stroke:none"
             id="path70" /></g><g
           id="g72"
           transform="translate(3946.2568,1770.666)"><path
             d="m 0,0 h -117.843 c -9.067,0 -15.658,7.417 -15.658,15.658 v 89.822 c 0,8.242 6.591,15.659 15.658,15.659 h 365.884 c 9.061,0 15.658,-7.417 15.658,-15.659 V 15.658 C 263.699,7.417 257.102,0 248.041,0 H 130.198 v -440.047 c 0,-8.242 -7.416,-15.658 -15.658,-15.658 H 15.651 C 7.416,-455.705 0,-448.289 0,-440.047 Z"
             style="fill:#1d1d1b;fill-opacity:1;fill-rule:nonzero;stroke:none"
             id="path74" /></g><g
           id="g76"
           transform="translate(4292.3613,1876.1465)"><path
             d="m 0,0 c 0,8.241 6.591,15.658 15.658,15.658 h 341.158 c 9.068,0 15.659,-7.417 15.659,-15.658 v -89.822 c 0,-8.241 -6.591,-15.658 -15.659,-15.658 H 128.555 v -102.185 h 187.884 c 8.243,0 15.659,-7.416 15.659,-15.654 v -89.826 c 0,-9.064 -7.416,-15.655 -15.659,-15.655 H 128.555 v -111.248 h 228.261 c 9.068,0 15.659,-7.416 15.659,-15.658 v -89.821 c 0,-8.243 -6.591,-15.659 -15.659,-15.659 H 15.658 C 6.591,-561.186 0,-553.77 0,-545.527 Z"
             style="fill:#1d1d1b;fill-opacity:1;fill-rule:nonzero;stroke:none"
             id="path78" /></g><g
           id="g80"
           transform="translate(1385.0605,1206.8145)"><path
             d="m 0,0 c 0,11.224 8.976,21.324 21.324,21.324 h 464.599 c 12.348,0 21.323,-10.1 21.323,-21.324 v -122.321 c 0,-11.225 -8.975,-21.325 -21.323,-21.325 H 175.069 v -161.6 h 255.868 c 11.223,0 21.323,-10.1 21.323,-21.324 v -122.322 c 0,-11.223 -10.1,-21.324 -21.323,-21.324 H 175.069 v -272.698 c 0,-11.224 -10.099,-21.323 -21.324,-21.323 H 21.324 C 8.976,-764.237 0,-754.138 0,-742.914 Z"
             style="fill:#1d1d1b;fill-opacity:1;fill-rule:nonzero;stroke:none"
             id="path82" /></g><g
           id="g84"
           transform="translate(2359.1543,892.5928)"><path
             d="m 0,0 c 46.011,0 85.295,42.643 85.295,89.778 0,47.131 -39.284,85.286 -85.295,85.286 H -166.084 V 0 Z m -342.277,314.222 c 0,11.223 8.975,21.324 21.324,21.324 h 335.55 c 134.66,0 244.643,-108.859 244.643,-242.404 0,-103.242 -68.46,-186.288 -166.094,-225.568 l 153.746,-285.047 c 7.86,-14.588 0,-32.543 -19.076,-32.543 H 78.559 c -8.976,0 -15.712,5.612 -17.951,10.1 l -149.257,297.391 h -77.435 v -286.167 c 0,-11.224 -10.1,-21.324 -21.324,-21.324 h -133.545 c -12.349,0 -21.324,10.1 -21.324,21.324 z"
             style="fill:#1d1d1b;fill-opacity:1;fill-rule:nonzero;stroke:none"
             id="path86" /></g><g
           id="g88"
           transform="translate(2768.7852,1206.8145)"><path
             d="m 0,0 c 0,11.224 8.976,21.324 21.324,21.324 h 464.599 c 12.348,0 21.323,-10.1 21.323,-21.324 v -122.321 c 0,-11.225 -8.975,-21.325 -21.323,-21.325 H 175.069 v -139.157 h 255.867 c 11.224,0 21.324,-10.099 21.324,-21.319 v -122.326 c 0,-12.344 -10.1,-21.32 -21.324,-21.32 H 175.069 v -151.501 h 310.854 c 12.348,0 21.323,-10.099 21.323,-21.323 v -122.322 c 0,-11.224 -8.975,-21.323 -21.323,-21.323 H 21.324 C 8.976,-764.237 0,-754.138 0,-742.914 Z"
             style="fill:#1d1d1b;fill-opacity:1;fill-rule:nonzero;stroke:none"
             id="path90" /></g><g
           id="g92"
           transform="translate(3381.5361,549.1865)"><path
             d="m 0,0 52.747,93.146 c 8.976,14.588 30.299,12.344 38.15,6.732 4.488,-2.244 85.295,-61.718 159.358,-61.718 44.887,0 77.434,28.056 77.434,67.33 0,47.136 -39.275,83.047 -115.585,113.346 -96.519,38.155 -217.716,113.347 -217.716,248.012 0,111.101 86.41,223.323 259.24,223.323 116.709,0 206.482,-59.474 240.154,-84.166 13.464,-7.857 11.215,-28.056 6.728,-35.911 l -57.226,-86.41 c -7.861,-12.344 -28.06,-22.444 -38.16,-14.588 -10.1,5.607 -92.022,67.33 -160.481,67.33 -40.4,0 -70.699,-26.931 -70.699,-57.231 0,-41.523 33.662,-72.946 122.322,-108.858 87.534,-34.786 226.692,-103.246 226.692,-255.866 0,-115.59 -99.883,-232.305 -264.843,-232.305 -145.893,0 -226.692,60.604 -252.504,86.415 C -5.612,-20.199 -8.976,-15.707 0,0"
             style="fill:#1d1d1b;fill-opacity:1;fill-rule:nonzero;stroke:none"
             id="path94" /></g><g
           id="g96"
           transform="translate(4041.4023,1201.2021)"><path
             d="M 0,0 C 0,14.593 11.225,26.937 26.937,26.937 H 158.233 C 172.82,26.937 185.169,14.593 185.169,0 V -295.146 L 434.31,15.712 c 4.487,5.612 14.586,11.225 21.313,11.225 h 141.406 c 21.325,0 32.539,-24.693 20.2,-41.524 L 354.626,-343.401 640.792,-715.982 c 12.349,-16.831 0,-41.519 -21.323,-41.519 H 464.608 c -7.86,0 -17.96,4.487 -20.199,7.855 l -259.24,352.377 v -334.425 c 0,-14.587 -12.349,-26.931 -26.936,-26.931 H 26.937 C 11.225,-758.625 0,-746.281 0,-731.694 Z"
             style="fill:#1d1d1b;fill-opacity:1;fill-rule:nonzero;stroke:none"
             id="path98" /></g><g
           id="g100"
           transform="translate(1421.957,221.7266)"><path
             d="m 0,0 -30.288,-94.102 h 60.283 z m 54.991,-169.971 -19.703,57.343 h -72.635 l -17.349,-57.343 H -75.281 L -11.763,26.172 H 16.468 L 80.28,-169.971 Z"
             style="fill:#1d1d1b;fill-opacity:1;fill-rule:nonzero;stroke:none"
             id="path102" /></g><path
           d="m 1530.463,247.898 h 22.643 V 51.755 h -22.643 z"
           style="fill:#1d1d1b;fill-opacity:1;fill-rule:nonzero;stroke:none"
           id="path104" /><path
           d="m 1598.096,247.898 h 22.643 V 51.755 h -22.643 z"
           style="fill:#1d1d1b;fill-opacity:1;fill-rule:nonzero;stroke:none"
           id="path106" /><g
           id="g108"
           transform="translate(1804.8213,49.4033)"><path
             d="m 0,0 c -9.999,-1.471 -14.704,-1.765 -21.468,-1.765 -27.347,0 -41.463,14.998 -41.463,44.111 v 87.338 h -25.584 v 17.644 h 25.584 l 0.882,36.464 21.173,1.765 V 147.328 H -8.234 V 129.684 H -40.876 V 38.817 c 0,-14.998 7.94,-22.643 23.525,-22.643 5.293,0 9.411,0.294 17.351,1.764 z"
             style="fill:#1d1d1b;fill-opacity:1;fill-rule:nonzero;stroke:none"
             id="path110" /></g><g
           id="g112"
           transform="translate(1919.5068,51.7559)"><path
             d="m 0,0 v 87.926 c 0,14.998 -0.588,20.291 -2.94,26.172 -3.824,9.705 -14.116,16.173 -25.29,16.173 -9.999,0 -20.879,-5.292 -28.231,-13.82 -8.527,-9.705 -12.057,-21.174 -12.057,-38.229 V 0 H -91.16 v 196.143 h 22.642 v -77.928 c 11.763,22.056 24.409,30.877 44.405,30.877 15.88,0 29.701,-6.764 37.934,-19.114 7.352,-10.586 8.823,-17.938 8.823,-42.052 V 0 Z"
             style="fill:#1d1d1b;fill-opacity:1;fill-rule:nonzero;stroke:none"
             id="path114" /></g><g
           id="g116"
           transform="translate(2081.5332,139.0937)"><path
             d="M 0,0 C -0.294,13.527 -2.353,20.291 -8.234,28.818 -15.586,39.111 -25.29,44.11 -38.229,44.11 -50.874,44.11 -61.46,38.817 -69.4,29.113 -75.87,20.879 -78.222,13.821 -79.692,0 Z m 22.055,-48.521 c -9.41,-26.76 -32.054,-42.64 -61.46,-42.64 -39.699,0 -66.459,30.289 -66.459,75.575 0,45.581 27.642,77.046 67.341,77.046 24.408,0 44.404,-12.351 54.697,-33.523 5.881,-12.645 8.233,-24.703 8.527,-44.699 h -105.57 c 0,-17.055 1.471,-24.701 5.882,-33.817 6.469,-13.234 21.466,-22.056 37.052,-22.056 11.763,0 22.937,4.705 30.289,13.234 3.235,3.528 5.587,7.645 8.822,15.291 z"
             style="fill:#1d1d1b;fill-opacity:1;fill-rule:nonzero;stroke:none"
             id="path118" /></g><g
           id="g120"
           transform="translate(2319.4248,99.1006)"><path
             d="m 0,0 c -3.529,-17.644 -7.646,-26.172 -17.057,-35.582 -10.292,-10.587 -22.936,-15.586 -39.11,-15.586 -37.053,0 -61.166,29.995 -61.166,76.164 0,45.874 24.701,76.457 62.342,76.457 29.701,0 49.109,-17.643 54.991,-50.579 l -20.291,-3.823 c -1.765,11.175 -3.823,16.468 -7.646,22.055 -6.469,8.822 -16.173,13.821 -27.348,13.821 -23.819,0 -38.523,-22.055 -38.523,-57.343 0,-36.464 14.116,-58.226 38.229,-58.226 18.232,0 30.583,12.352 35.288,36.171 z"
             style="fill:#1d1d1b;fill-opacity:1;fill-rule:nonzero;stroke:none"
             id="path122" /></g><g
           id="g124"
           transform="translate(2421.752,124.9785)"><path
             d="m 0,0 c -37.641,0 -58.226,-11.763 -58.226,-33.817 0,-15.586 12.057,-25.878 30.877,-25.878 26.467,0 46.757,21.76 46.757,49.697 0,2.646 0,5.587 -0.294,9.41 C 11.175,-0.294 3.529,0 0,0 m 21.761,-73.223 c -1.47,7.058 -1.47,9.704 -2.647,26.172 -11.762,-21.467 -26.172,-29.995 -50.873,-29.995 -29.995,0 -50.58,17.939 -50.58,43.817 0,16.467 9.41,32.053 24.408,39.699 13.233,7.057 32.936,10.586 58.225,10.586 5.293,0 9.704,0 18.82,-0.588 v 4.705 c 0,27.348 -10.292,37.347 -37.934,37.347 -21.761,0 -34.994,-9.117 -38.817,-26.466 l -20.879,3.528 c 2.059,10.881 4.705,16.468 10.88,22.644 11.469,11.762 29.701,17.643 53.815,17.643 21.761,0 36.465,-5.587 44.992,-17.056 7.058,-9.704 9.705,-21.172 9.705,-42.345 v -61.46 c 0,-10.586 0.882,-19.408 3.234,-28.231 z"
             style="fill:#1d1d1b;fill-opacity:1;fill-rule:nonzero;stroke:none"
             id="path126" /></g><g
           id="g128"
           transform="translate(2507.9082,51.7559)"><path
             d="m 0,0 v 144.976 h 19.702 v -33.819 c 7.058,14.409 9.704,18.821 14.997,25.29 6.47,7.646 17.351,12.645 28.525,12.645 1.764,0 5,-0.294 8.234,-0.588 V 127.037 C 44.109,129.39 23.231,107.629 22.643,76.752 V 0 Z"
             style="fill:#1d1d1b;fill-opacity:1;fill-rule:nonzero;stroke:none"
             id="path130" /></g><g
           id="g132"
           transform="translate(2691.1123,140.8584)"><path
             d="m 0,0 c -1.176,13.527 -2.94,19.702 -8.528,26.76 -6.763,9.116 -19.115,14.998 -30.583,14.998 -23.231,0 -38.229,-22.35 -38.229,-56.755 0,-37.641 13.821,-59.696 37.347,-59.696 10.881,0 21.467,5.587 29.407,14.703 7.057,8.528 9.41,15.292 10.586,29.701 z M 22.644,-89.103 H 2.059 v 24.702 C -9.998,-84.985 -22.937,-93.22 -43.816,-93.22 c -34.112,0 -58.225,31.172 -58.225,75.282 0,45.875 24.407,77.633 59.401,77.633 18.233,0 29.701,-6.469 42.64,-23.525 v 70.87 h 22.644 z"
             style="fill:#1d1d1b;fill-opacity:1;fill-rule:nonzero;stroke:none"
             id="path134" /></g><g
           id="g136"
           transform="translate(2760.8008,93.8076)"><path
             d="m 0,0 c 2.353,-8.234 4.705,-12.646 9.41,-16.468 8.235,-6.763 22.056,-10.881 35.583,-10.881 20.29,0 34.111,9.411 34.111,23.526 0,11.762 -8.528,19.114 -24.996,22.349 l -30.583,5.587 c -24.701,4.705 -39.11,19.408 -39.11,39.993 0,25.584 21.761,42.64 54.696,42.64 30.289,0 49.992,-12.644 57.049,-36.758 L 75.575,65.577 C 68.813,81.162 57.05,88.22 38.523,88.22 c -18.82,0 -31.17,-8.528 -31.17,-21.467 0,-10.88 7.351,-17.35 22.642,-20.29 L 58.52,41.464 c 29.701,-5.294 44.11,-19.409 44.11,-42.935 0,-26.466 -23.819,-44.404 -59.695,-44.404 -20.585,0 -37.053,5.294 -49.404,16.174 -7.646,6.47 -11.468,12.645 -14.998,25.29 z"
             style="fill:#1d1d1b;fill-opacity:1;fill-rule:nonzero;stroke:none"
             id="path138" /></g><g
           id="g140"
           transform="translate(3038.3926,124.9785)"><path
             d="m 0,0 c -37.641,0 -58.226,-11.763 -58.226,-33.817 0,-15.586 12.057,-25.878 30.877,-25.878 26.467,0 46.757,21.76 46.757,49.697 0,2.646 0,5.587 -0.294,9.41 C 11.175,-0.294 3.529,0 0,0 m 21.761,-73.223 c -1.47,7.058 -1.47,9.704 -2.647,26.172 -11.762,-21.467 -26.172,-29.995 -50.873,-29.995 -29.995,0 -50.58,17.939 -50.58,43.817 0,16.467 9.41,32.053 24.408,39.699 13.233,7.057 32.936,10.586 58.225,10.586 5.293,0 9.704,0 18.82,-0.588 v 4.705 c 0,27.348 -10.292,37.347 -37.934,37.347 -21.761,0 -34.994,-9.117 -38.817,-26.466 l -20.879,3.528 c 2.059,10.881 4.705,16.468 10.88,22.644 11.469,11.762 29.701,17.643 53.815,17.643 21.761,0 36.465,-5.587 44.992,-17.056 7.058,-9.704 9.705,-21.172 9.705,-42.345 v -61.46 c 0,-10.586 0.882,-19.408 3.234,-28.231 z"
             style="fill:#1d1d1b;fill-opacity:1;fill-rule:nonzero;stroke:none"
             id="path142" /></g><g
           id="g144"
           transform="translate(3124.5488,51.7559)"><path
             d="m 0,0 v 144.976 h 19.702 v -33.819 c 7.058,14.409 9.704,18.821 14.997,25.29 6.47,7.646 17.351,12.645 28.525,12.645 1.764,0 5,-0.294 8.234,-0.588 V 127.037 C 44.109,129.39 23.231,107.629 22.643,76.752 V 0 Z"
             style="fill:#1d1d1b;fill-opacity:1;fill-rule:nonzero;stroke:none"
             id="path146" /></g><g
           id="g148"
           transform="translate(3311.2783,139.0937)"><path
             d="M 0,0 C -0.294,13.527 -2.353,20.291 -8.234,28.818 -15.586,39.111 -25.29,44.11 -38.229,44.11 -50.874,44.11 -61.46,38.817 -69.4,29.113 -75.869,20.879 -78.223,13.821 -79.692,0 Z m 22.055,-48.521 c -9.41,-26.76 -32.053,-42.64 -61.46,-42.64 -39.699,0 -66.459,30.289 -66.459,75.575 0,45.581 27.641,77.046 67.341,77.046 24.408,0 44.404,-12.351 54.697,-33.523 5.881,-12.645 8.233,-24.703 8.527,-44.699 h -105.57 c 0,-17.055 1.471,-24.701 5.882,-33.817 6.469,-13.234 21.466,-22.056 37.052,-22.056 11.763,0 22.937,4.705 30.289,13.234 3.235,3.528 5.587,7.645 8.822,15.291 z"
             style="fill:#1d1d1b;fill-opacity:1;fill-rule:nonzero;stroke:none"
             id="path150" /></g><path
           d="m 3465.654,51.756 h -22.644 v 144.976 h 22.644 z m 0.882,171.147 h -24.407 v 24.995 h 24.407 z"
           style="fill:#1d1d1b;fill-opacity:1;fill-rule:nonzero;stroke:none"
           id="path152" /><g
           id="g154"
           transform="translate(3603.8604,51.7559)"><path
             d="m 0,0 v 93.22 c 0,23.525 -10.586,36.17 -29.994,36.17 -23.526,0 -40.582,-21.173 -40.582,-49.698 V 0 h -22.643 v 144.976 h 20.879 v -26.761 c 14.997,22.937 26.466,30.583 46.462,30.583 18.232,0 33.524,-9.41 41.758,-25.29 3.823,-7.352 5.293,-18.232 5.293,-39.698 l 0,-83.81 z"
             style="fill:#1d1d1b;fill-opacity:1;fill-rule:nonzero;stroke:none"
             id="path156" /></g><g
           id="g158"
           transform="translate(3784.7041,34.7002)"><path
             d="m 0,0 c -4.999,-13.821 -11.175,-22.937 -19.996,-29.113 -5.294,-3.823 -12.352,-5.587 -22.644,-5.587 -5.881,0 -9.41,0.588 -17.055,2.352 v 17.939 c 7.057,-1.471 10.586,-2.059 14.997,-2.059 10.292,0 17.644,3.822 22.937,12.351 2.941,4.705 5.587,10.881 9.704,23.819 l -50.285,142.329 h 22.937 L -0.588,52.932 39.111,162.031 h 19.115 z"
             style="fill:#1d1d1b;fill-opacity:1;fill-rule:nonzero;stroke:none"
             id="path160" /></g><g
           id="g162"
           transform="translate(3884.0967,166.1484)"><path
             d="m 0,0 c -6.469,-9.41 -9.998,-23.525 -9.998,-41.17 0,-37.347 14.703,-58.519 40.287,-58.519 25.29,0 40.582,21.466 40.582,57.343 0,19.702 -3.235,32.641 -10.293,42.64 C 53.227,9.998 41.758,15.879 29.995,15.879 18.526,15.879 6.764,9.704 0,0 m 95.572,-43.522 c 0,-43.522 -27.936,-74.694 -67.047,-74.694 -37.935,0 -63.224,30.583 -63.224,76.752 0,44.992 26.76,75.869 65.577,75.869 39.404,0 64.694,-30.583 64.694,-77.927"
             style="fill:#1d1d1b;fill-opacity:1;fill-rule:nonzero;stroke:none"
             id="path164" /></g><g
           id="g166"
           transform="translate(4107.29,51.7559)"><path
             d="M 0,0 V 27.643 C -10.293,7.058 -25.879,-3.823 -46.169,-3.823 c -29.407,0 -47.639,21.173 -47.639,56.167 v 92.632 h 22.643 V 52.344 c 0,-13.233 2.352,-21.761 7.352,-27.643 5.293,-6.469 13.233,-9.998 21.172,-9.998 22.35,0 40.287,21.762 40.287,48.522 v 81.751 H 20.29 L 20.29,0 Z"
             style="fill:#1d1d1b;fill-opacity:1;fill-rule:nonzero;stroke:none"
             id="path168" /></g><g
           id="g170"
           transform="translate(4172.5645,51.7559)"><path
             d="m 0,0 v 144.976 h 19.702 v -33.819 c 7.058,14.409 9.704,18.821 14.997,25.29 6.47,7.646 17.351,12.645 28.525,12.645 1.764,0 5,-0.294 8.234,-0.588 V 127.037 C 44.109,129.39 23.231,107.629 22.643,76.752 V 0 Z"
             style="fill:#1d1d1b;fill-opacity:1;fill-rule:nonzero;stroke:none"
             id="path172" /></g><g
           id="g174"
           transform="translate(4433.9844,51.7559)"><path
             d="m 0,0 v 87.926 c 0,14.998 -0.588,20.291 -2.94,26.172 -3.823,9.705 -14.116,16.173 -25.29,16.173 -9.999,0 -20.878,-5.292 -28.231,-13.82 -8.527,-9.705 -12.057,-21.174 -12.057,-38.229 V 0 H -91.16 v 196.143 h 22.642 v -77.928 c 11.763,22.056 24.409,30.877 44.405,30.877 15.88,0 29.701,-6.764 37.934,-19.114 7.352,-10.586 8.823,-17.938 8.823,-42.052 V 0 Z"
             style="fill:#1d1d1b;fill-opacity:1;fill-rule:nonzero;stroke:none"
             id="path176" /></g><g
           id="g178"
           transform="translate(4571.0146,124.9785)"><path
             d="m 0,0 c -37.641,0 -58.226,-11.763 -58.226,-33.817 0,-15.586 12.058,-25.878 30.878,-25.878 26.466,0 46.756,21.76 46.756,49.697 0,2.646 0,5.587 -0.294,9.41 C 11.175,-0.294 3.529,0 0,0 m 21.761,-73.223 c -1.47,7.058 -1.47,9.704 -2.647,26.172 -11.762,-21.467 -26.172,-29.995 -50.873,-29.995 -29.995,0 -50.58,17.939 -50.58,43.817 0,16.467 9.41,32.053 24.407,39.699 13.234,7.057 32.936,10.586 58.226,10.586 5.294,0 9.704,0 18.82,-0.588 v 4.705 c 0,27.348 -10.292,37.347 -37.934,37.347 -21.761,0 -34.994,-9.117 -38.817,-26.466 l -20.879,3.528 c 2.059,10.881 4.705,16.468 10.88,22.644 11.469,11.762 29.701,17.643 53.815,17.643 21.76,0 36.465,-5.587 44.992,-17.056 7.058,-9.704 9.704,-21.172 9.704,-42.345 v -61.46 c 0,-10.586 0.883,-19.408 3.235,-28.231 z"
             style="fill:#1d1d1b;fill-opacity:1;fill-rule:nonzero;stroke:none"
             id="path180" /></g><g
           id="g182"
           transform="translate(4750.3887,51.7559)"><path
             d="m 0,0 v 93.22 c 0,23.525 -10.586,36.17 -29.995,36.17 -23.526,0 -40.581,-21.173 -40.581,-49.698 V 0 h -22.643 v 144.976 h 20.878 v -26.761 c 14.998,22.937 26.467,30.583 46.463,30.583 18.232,0 33.524,-9.41 41.758,-25.29 3.823,-7.352 5.293,-18.232 5.293,-39.698 l 0,-83.81 z"
             style="fill:#1d1d1b;fill-opacity:1;fill-rule:nonzero;stroke:none"
             id="path184" /></g><g
           id="g186"
           transform="translate(4906.8271,140.8584)"><path
             d="m 0,0 c -1.176,13.527 -2.94,19.702 -8.528,26.76 -6.763,9.116 -19.115,14.998 -30.583,14.998 -23.231,0 -38.229,-22.35 -38.229,-56.755 0,-37.641 13.821,-59.696 37.347,-59.696 10.881,0 21.467,5.587 29.407,14.703 7.057,8.528 9.41,15.292 10.586,29.701 z M 22.644,-89.103 H 2.059 v 24.702 C -9.998,-84.985 -22.937,-93.22 -43.816,-93.22 c -34.112,0 -58.225,31.172 -58.225,75.282 0,45.875 24.407,77.633 59.401,77.633 18.233,0 29.701,-6.469 42.64,-23.525 v 70.87 h 22.644 z"
             style="fill:#1d1d1b;fill-opacity:1;fill-rule:nonzero;stroke:none"
             id="path188" /></g><g
           id="g190"
           transform="translate(4976.5156,93.8076)"><path
             d="m 0,0 c 2.353,-8.234 4.705,-12.646 9.41,-16.468 8.235,-6.763 22.056,-10.881 35.583,-10.881 20.29,0 34.111,9.411 34.111,23.526 0,11.762 -8.528,19.114 -24.996,22.349 l -30.583,5.587 c -24.701,4.705 -39.11,19.408 -39.11,39.993 0,25.584 21.761,42.64 54.696,42.64 30.289,0 49.992,-12.644 57.049,-36.758 L 75.575,65.577 C 68.813,81.162 57.05,88.22 38.523,88.22 c -18.82,0 -31.17,-8.528 -31.17,-21.467 0,-10.88 7.351,-17.35 22.642,-20.29 L 58.52,41.464 c 29.701,-5.294 44.11,-19.409 44.11,-42.935 0,-26.466 -23.819,-44.404 -59.695,-44.404 -20.585,0 -37.053,5.294 -49.404,16.174 -7.646,6.47 -11.468,12.645 -14.998,25.29 z"
             style="fill:#1d1d1b;fill-opacity:1;fill-rule:nonzero;stroke:none"
             id="path192" /></g><path
           d="m 5107.96,82.045 h 29.995 V 51.756 h -29.995 z m 8.528,18.526 -10.586,147.327 h 33.818 l -11.175,-147.327 z"
           style="fill:#1d1d1b;fill-opacity:1;fill-rule:nonzero;stroke:none"
           id="path194" /></g></g></g></svg>
