<?xml version="1.0" encoding="UTF-8" standalone="no"?>
<!-- Generator: visioncortex VTracer -->

<svg
   id="svg"
   version="1.1"
   style="display: block;"
   viewBox="0 0 1775 408"
   sodipodi:docname="logo-limit.svg"
   inkscape:version="1.2.2 (b0a8486541, 2022-12-01)"
   xmlns:inkscape="http://www.inkscape.org/namespaces/inkscape"
   xmlns:sodipodi="http://sodipodi.sourceforge.net/DTD/sodipodi-0.dtd"
   xmlns="http://www.w3.org/2000/svg"
   xmlns:svg="http://www.w3.org/2000/svg">
  <defs
     id="defs19" />
  <sodipodi:namedview
     id="namedview17"
     pagecolor="#ffffff"
     bordercolor="#666666"
     borderopacity="1.0"
     inkscape:showpageshadow="2"
     inkscape:pageopacity="0.0"
     inkscape:pagecheckerboard="0"
     inkscape:deskcolor="#d1d1d1"
     showgrid="false"
     inkscape:zoom="0.74929577"
     inkscape:cx="887.5"
     inkscape:cy="204.19173"
     inkscape:window-width="3774"
     inkscape:window-height="2091"
     inkscape:window-x="0"
     inkscape:window-y="0"
     inkscape:window-maximized="1"
     inkscape:current-layer="svg" />
  <path
     d="m 678.3252,0.59594727 c 26.94852,0.46074573 54.03498,-1.199357 80.89078,0.77011903 18.51017,9.7827817 25.22141,32.4059467 38.38928,47.9037787 26.96153,39.617763 54.18027,79.061325 80.91525,118.832695 20.05022,11.93789 26.55695,-27.86926 39.84107,-37.85742 27.51295,-39.852491 54.30102,-80.224656 82.11272,-119.858351 15.5851,-16.5068031 40.2245,-7.7596026 60.1707,-9.89786879 16.7547,3.04387209 46.5463,-9.12613691 51.5833,13.74362379 0.3377,127.263446 0.3819,254.553936 0.1149,381.815296 -9.3835,22.90026 -41.8733,8.2148 -61.51,12.41711 -17.4348,-1.38499 -53.22037,8.0069 -49.9962,-20.18676 -0.1801,-58.16559 -0.5627,-116.33198 -0.6374,-174.49704 -15.35903,-9.40408 -22.46549,23.29367 -32.64807,32.18972 -17.55725,26.1828 -34.61302,52.82054 -53.00905,78.36169 -18.64283,19.99777 -54.08049,12.85633 -65.9419,-11.17939 -22.17278,-33.92413 -45.22407,-67.26798 -67.53428,-101.09746 -19.14952,-3.40047 -4.712,31.15421 -9.28637,43.41252 -0.706,47.30236 0.8332,94.80201 -1.1995,141.98313 -14.01088,20.79438 -46.28184,6.51738 -68.05078,10.94621 -18.49327,1.737 -49.81322,2.93171 -42.91591,-24.72573 -0.0726,-123.47901 -0.11958,-246.95855 -0.11249,-370.437443 0.87142,-9.5712211 10.14809,-13.55164673 18.82395,-12.63842973 z"
     style="fill:#139f89"
     id="path2" />
  <path
     d="m 172.82593,-0.29052734 c 26.42697,0.11164876 52.88107,-0.51549836 79.29374,0.0137756 21.30271,5.66761325 10.35776,32.33101375 13.03561,48.34382075 0.2173,81.278051 0.0299,162.567931 0.47154,243.839021 2.59246,20.35573 28.05663,9.65125 41.57691,12.31194 25.31202,0.19219 50.65134,-0.30465 75.94483,0.26005 20.92007,5.09768 8.65757,32.39896 12.20909,47.46162 -0.18972,15.63846 0.89037,31.37259 -0.26614,46.94461 -7.07865,15.64556 -27.67543,7.17332 -40.96963,9.41258 -62.62794,-0.0744 -125.262,0.22339 -187.88613,-0.0194 -22.42501,-6.01072 -9.09272,-35.89477 -12.78525,-52.69806 0.14817,-115.45825 -0.48369,-230.95247 0.20801,-346.385914 1.89926,-8.41244704 12.0111,-9.82817688 19.16742,-9.48403334 z"
     style="fill:#139f88"
     id="path4" />
  <path
     d="m 1398.223,0.49206543 c 70.9223,0.10108421 141.865,-0.30892268 212.7753,0.20147404 21.017,6.88180193 7.2528,35.87815253 11.3057,52.50001453 0.061,114.519566 0.1719,229.039416 0.1946,343.558756 -3.9671,19.43719 -28.3963,8.78018 -42.0679,11.61582 -20.165,-0.48566 -40.522,1.2467 -60.5521,-0.74118 -16.0661,-8.39161 -6.7901,-30.21493 -9.2796,-44.79269 -0.33,-82.89051 0.3413,-165.84876 -0.5975,-248.69852 -7.6746,-18.118462 -32.7112,-6.10839 -48.0512,-9.608 -23.4334,-0.36199 -46.9463,0.55699 -70.3268,-0.70195 -16.9779,-4.043425 -10.5233,-24.943196 -11.8522,-37.569279 1.0217,-19.308469 -2.301,-39.186666 1.6689,-58.1230208 2.1647,-6.7724301 10.6784,-7.89272269 16.7828,-7.64142477 z"
     style="fill:#139f88"
     id="path6" />
  <path
     d="m 481.00366,0.61181641 c 28.17686,0.44600479 56.46892,-0.86119685 84.58632,0.52889059 17.1133,7.9711998 7.29751,31.145902 9.93011,45.922488 0.0113,116.234675 0.0499,232.469785 -0.0187,348.704245 -3.92857,20.03615 -28.66068,10.33965 -42.79803,12.68795 -19.92691,-0.58521 -40.07673,1.29835 -59.85782,-0.83713 -16.09835,-8.14477 -6.62657,-30.52777 -9.25131,-44.80779 -0.0346,-116.52779 -0.11637,-233.05597 -0.0944,-349.583566 1.26639,-8.961969 8.56801,-14.3525712 17.50379,-12.61508759 z"
     style="fill:#139f89"
     id="path8" />
  <path
     d="m 1212.1013,0.48242188 c 27.2898,0.17315806 54.6107,-0.36776794 81.8852,0.20550662 20.5008,4.7827159 9.6742,31.2589305 12.4197,46.1498005 -0.074,116.399841 0.3263,232.812341 -0.064,349.204471 -2.2165,16.47348 -22.2364,11.76263 -33.9016,12.39926 -21.8387,-0.17747 -43.7041,0.40349 -65.5271,-0.14081 -20.4159,-4.92707 -9.5401,-31.35278 -12.3033,-46.26373 -0.01,-116.30884 -0.039,-232.61793 0.014,-348.926651 0.7626,-8.9851898 8.901,-14.07119213 17.4774,-12.62784712 z"
     style="fill:#139f89"
     id="path10" />
  <path
     d="m 18.848633,303.823 c 24.05121,-0.005 48.117568,-0.46725 72.159434,-0.13737 6.423048,0.62318 13.429503,5.32232 13.168223,12.42297 0.72069,15.82396 0.15358,31.67773 0.44926,47.51432 -0.0207,10.7284 0.37831,21.4892 -0.11739,32.1979 -1.05517,6.48613 -7.028786,12.45106 -13.931227,11.38688 -26.360434,-0.11069 -52.731903,0.49691 -79.08499,0.0797 -6.5473865,-0.57818 -11.25462276,-6.5091 -11.41670071,-12.88373 -1.12288539,-9.60516 -0.14886786,-19.30106 -0.45477555,-28.94562 0.10752751,-15.75436 -0.33767425,-31.53523 0.25208046,-47.27249 0.5289558,-6.03643 4.0265694,-12.27833 10.3791748,-13.53955 2.793642,-0.77475 5.719351,-0.80676 8.596911,-0.82296 z"
     style="fill:#139f88"
     id="path12" />
  <path
     d="m 1689.2751,0.59594727 c 23.9222,-0.0424231 47.8471,-0.11675022 71.7679,-0.0880215 5.4794,0.35313363 11.9941,3.30953633 13.7871,8.80377783 1.1808,6.7087234 0.2865,13.6028704 0.57,20.3840404 -0.1025,21.118575 0.1891,42.247748 -0.1355,63.359466 -0.1667,5.377984 -4.145,10.28609 -9.6032,10.95354 -9.6248,0.91191 -19.3471,0.31547 -29.0128,0.54228 -17.4038,-0.0437 -34.8161,0.30216 -52.2138,0.12598 -6.3979,-0.57816 -13.1639,-5.855774 -12.6415,-12.798081 0.017,-25.844157 -0.282,-51.693349 -0.2369,-77.535141 0.1137,-6.7477073 5.3088,-13.3561583 12.345,-13.58326094 1.7845,-0.18895602 3.5819,-0.17259815 5.3737,-0.16457979 z"
     style="fill:#139f89"
     id="path14" />
</svg>
