<?xml version="1.0" encoding="UTF-8" standalone="no"?>
<svg
   version="1.1"
   viewBox="0.00 0.00 1128.00 713.00"
   id="svg13317"
   sodipodi:docname="fdnr.svg"
   inkscape:version="1.2.2 (b0a8486541, 2022-12-01)"
   xmlns:inkscape="http://www.inkscape.org/namespaces/inkscape"
   xmlns:sodipodi="http://sodipodi.sourceforge.net/DTD/sodipodi-0.dtd"
   xmlns="http://www.w3.org/2000/svg"
   xmlns:svg="http://www.w3.org/2000/svg">
  <defs
     id="defs13321" />
  <sodipodi:namedview
     id="namedview13319"
     pagecolor="#ffffff"
     bordercolor="#666666"
     borderopacity="1.0"
     inkscape:showpageshadow="2"
     inkscape:pageopacity="0.0"
     inkscape:pagecheckerboard="0"
     inkscape:deskcolor="#d1d1d1"
     showgrid="false"
     inkscape:zoom="1.614544"
     inkscape:cx="239.0768"
     inkscape:cy="378.43504"
     inkscape:window-width="3770"
     inkscape:window-height="2091"
     inkscape:window-x="0"
     inkscape:window-y="0"
     inkscape:window-maximized="1"
     inkscape:current-layer="svg13317" />
  <path
     style="fill:#ffef18;fill-opacity:1;stroke-width:73.6464;stroke-linecap:round;stroke-linejoin:round;stop-color:#000000;opacity:1"
     id="path14671-5"
     sodipodi:type="arc"
     sodipodi:cx="377.4"
     sodipodi:cy="377.4"
     sodipodi:rx="263.5"
     sodipodi:ry="263.5"
     sodipodi:start="2.3561945"
     sodipodi:end="4.712389"
     sodipodi:arc-type="slice"
     d="M 189.87527,564.92472 A 265.20001,265.20001 0 0 1 132.38713,275.91234 265.20001,265.20001 0 0 1 377.39999,112.19998 v 265.20001 z" />
  <ellipse
     style="opacity:1;fill:#4bb08d;fill-opacity:1;stroke-width:35.8643;stroke-linecap:round;stroke-linejoin:round;stop-color:#000000"
     id="path14671"
     ry="129"
     rx="129"
     cy="379.4"
     cx="379.40" />
  <path
     fill="#26619f"
     d="   M 703.45 308.45   Q 712.49 305.38 721.43 303.88   C 724.74 303.32 730.25 305.46 730.00 309.61   A 1.43 1.43 0.0 0 1 728.30 310.93   Q 722.82 309.87 717.26 311.99   Q 708.79 315.22 701.35 318.91   Q 700.88 319.14 700.80 319.66   Q 696.05 348.93 704.47 377.01   Q 704.77 378.00 703.81 378.40   C 694.90 382.03 690.03 371.90 688.02 365.15   Q 683.05 348.51 683.80 331.50   Q 683.87 329.87 683.97 328.17   Q 684.01 327.44 683.36 327.76   Q 682.10 328.37 680.76 329.02   C 677.51 330.61 672.79 326.58 673.01 323.18   Q 673.04 322.63 673.42 322.23   C 676.25 319.21 680.76 317.14 684.50 315.54   Q 685.12 315.28 685.21 314.62   Q 686.10 307.86 687.84 301.69   A 0.32 0.32 0.0 0 0 687.42 301.31   C 679.11 304.49 650.94 315.00 651.17 325.52   A 1.68 1.68 0.0 0 1 649.57 327.24   L 649.21 327.26   Q 648.33 327.30 648.26 326.42   C 647.11 310.62 670.30 297.99 682.73 292.40   Q 714.95 277.94 750.46 272.69   Q 754.85 272.04 759.75 271.72   Q 764.72 271.41 767.86 273.08   C 770.61 274.55 775.35 278.73 775.30 282.24   Q 775.27 284.64 772.93 284.15   Q 767.34 282.97 762.65 283.34   C 743.73 284.86 724.20 289.69 706.37 295.10   Q 705.91 295.24 705.80 295.71   L 702.95 308.00   Q 702.80 308.67 703.45 308.45   Z"
     id="path13269" />
  <path
     fill="#26619f"
     d="   M 586.90 378.29   Q 604.99 378.37 620.77 383.09   Q 630.24 385.92 635.81 390.68   C 640.21 394.43 639.52 401.27 635.33 404.59   C 633.71 405.88 631.19 405.85 629.51 404.58   C 615.79 394.21 599.58 386.12 582.26 386.23   A 1.04 1.04 0.0 0 0 581.42 386.66   C 577.54 391.99 572.26 395.79 565.66 395.24   C 558.43 394.64 554.17 387.15 561.44 382.54   Q 565.64 379.87 571.33 379.23   A 1.29 1.28 -85.6 0 0 572.42 378.29   Q 575.48 366.76 576.23 354.25   Q 577.80 327.64 578.95 301.00   C 579.22 294.73 585.74 291.34 591.12 292.43   Q 594.37 293.09 594.13 296.47   Q 593.93 299.31 593.80 302.26   Q 593.24 314.96 592.78 328.01   Q 591.98 350.62 589.46 367.38   Q 588.75 372.09 586.43 377.57   Q 586.13 378.28 586.90 378.29   Z   M 570.45 385.90   Q 570.57 385.76 570.65 385.60   Q 570.98 384.96 570.27 385.00   C 567.19 385.17 562.63 387.02 562.72 390.62   A 1.85 1.84 -16.0 0 0 565.51 392.16   Q 568.55 390.36 570.22 386.26   Q 570.30 386.06 570.45 385.90   Z"
     id="path13271" />
  <path
     fill="#26619f"
     d="   M 729.61 352.25   C 731.99 342.50 735.50 332.06 740.93 323.45   C 743.13 319.95 745.72 320.79 749.04 321.00   C 754.66 321.36 756.50 324.68 756.32 329.82   C 756.16 334.71 755.20 345.35 748.53 345.03   C 746.01 344.91 739.90 343.80 740.32 340.23   Q 740.80 336.18 741.58 332.31   Q 741.78 331.33 741.34 332.22   Q 735.94 343.09 732.15 355.50   Q 729.88 362.96 730.20 367.02   Q 730.54 371.33 732.45 376.20   A 2.03 2.03 0.0 0 1 731.31 378.83   C 722.66 382.26 718.18 368.43 717.33 362.75   Q 715.11 348.08 716.94 332.24   Q 717.43 327.99 719.06 323.76   A 2.30 2.29 12.6 0 1 721.38 322.29   C 726.59 322.67 731.65 325.14 730.64 331.29   C 729.81 336.32 728.70 341.45 728.73 346.58   Q 728.75 349.49 728.76 352.15   Q 728.77 355.71 729.61 352.25   Z"
     id="path13273" />
  <path
     fill="#26619f"
     d="   M 816.43 362.22   C 809.71 362.43 803.15 362.34 798.34 357.51   Q 797.96 357.13 797.75 357.63   C 794.14 366.44 787.60 374.99 776.99 374.00   C 767.76 373.14 760.68 366.61 757.93 357.80   Q 756.49 353.19 757.30 347.07   Q 758.99 334.38 766.29 324.99   C 769.83 320.44 778.63 320.39 783.49 321.95   C 790.25 324.14 790.12 335.13 788.61 340.64   C 786.81 347.18 781.90 350.57 774.94 349.28   Q 773.26 348.96 771.64 348.50   Q 770.73 348.24 770.75 349.18   Q 771.00 359.30 776.78 365.37   C 781.63 370.45 788.82 366.15 792.18 361.66   Q 794.66 358.36 796.24 354.73   Q 796.44 354.25 796.31 353.75   C 793.91 345.00 799.63 334.27 805.45 328.28   C 807.20 326.48 809.34 325.36 811.93 325.25   C 816.94 325.04 827.17 324.36 828.69 330.18   C 830.33 336.46 823.16 344.96 818.51 348.49   A 1.02 1.02 0.0 0 1 816.89 347.52   L 818.78 335.78   A 0.78 0.78 0.0 0 0 817.81 334.90   C 811.43 336.61 807.81 345.89 807.68 351.52   A 2.21 2.20 0.1 0 0 809.94 353.78   C 815.42 353.66 828.96 354.70 827.42 363.49   C 826.03 371.42 817.46 379.21 810.74 383.48   C 806.29 386.31 801.03 385.58 797.88 381.52   A 0.97 0.97 0.0 0 1 798.44 379.98   Q 800.97 379.44 803.08 377.85   Q 811.52 371.45 816.84 362.93   A 0.46 0.46 0.0 0 0 816.43 362.22   Z   M 771.70 346.24   Q 777.25 348.13 780.33 343.58   Q 784.18 337.89 782.31 331.43   A 2.19 2.19 0.0 0 0 779.86 329.88   C 774.12 330.81 771.83 340.74 771.19 345.40   A 0.78 0.76 -76.9 0 0 771.70 346.24   Z"
     id="path13275" />
  <path
     fill="#26619f"
     d="   M 940.87 349.61   Q 941.08 359.90 947.41 365.87   C 952.39 370.58 959.81 365.31 962.82 360.88   Q 966.90 354.85 968.92 347.00   Q 969.18 345.99 970.23 346.00   L 970.63 346.01   A 0.76 0.75 7.0 0 1 971.36 346.94   C 968.71 358.26 961.66 375.41 947.08 373.99   C 933.74 372.69 925.67 360.45 927.25 347.62   Q 928.67 336.08 934.97 326.67   Q 938.02 322.12 943.03 321.39   Q 948.00 320.66 952.52 321.63   C 959.84 323.19 960.21 333.63 958.92 339.44   C 957.02 348.05 950.69 351.40 942.25 348.59   Q 940.84 348.11 940.87 349.61   Z   M 941.68 346.21   C 945.39 347.63 948.87 346.35 950.80 343.02   Q 954.03 337.46 952.42 331.59   A 2.37 2.36 73.3 0 0 949.42 329.97   C 944.02 331.71 941.81 340.20 941.25 345.51   Q 941.20 346.02 941.68 346.21   Z"
     id="path13277" />
  <path
     fill="#26619f"
     d="   M 907.09 358.03   Q 907.27 356.10 906.57 357.90   Q 903.64 365.49 900.43 373.28   C 899.97 374.40 900.17 375.40 900.68 376.45   A 1.24 1.23 -15.1 0 1 899.66 378.22   Q 896.63 378.44 894.04 376.97   C 886.79 372.85 885.25 365.09 885.79 357.03   Q 885.86 355.96 885.34 356.90   Q 874.64 376.55 867.32 396.90   C 866.49 399.20 865.25 402.85 865.53 405.64   Q 865.72 407.55 865.51 409.46   A 2.17 2.17 0.0 0 1 863.20 411.39   C 858.87 411.08 857.51 405.06 857.03 401.57   C 855.27 388.56 856.68 375.54 858.84 362.71   Q 859.09 361.26 858.22 362.45   C 855.24 366.53 847.24 378.14 841.60 377.03   C 834.26 375.60 831.49 366.28 832.44 359.89   Q 834.00 349.35 839.85 339.05   C 845.90 328.38 855.49 320.78 868.41 325.17   C 873.18 326.79 875.42 331.48 875.03 336.37   Q 874.77 339.48 874.75 342.73   Q 874.73 345.25 874.07 347.47   C 869.78 362.00 866.36 376.43 865.50 391.21   Q 865.44 392.21 865.85 391.29   Q 874.55 371.73 884.76 352.10   Q 886.17 349.38 886.43 346.75   Q 887.18 339.31 887.99 331.60   Q 888.30 328.68 887.33 326.01   A 1.61 1.61 0.0 0 1 888.76 323.85   C 892.98 323.62 902.70 325.73 901.45 331.72   C 898.78 344.54 896.70 356.74 898.46 369.78   Q 898.63 371.10 899.17 369.88   Q 903.03 361.05 906.66 351.01   Q 907.67 348.20 907.78 345.62   Q 907.92 342.25 908.07 338.91   C 908.15 337.18 909.32 335.61 911.20 335.72   C 915.50 335.97 923.50 336.96 922.46 343.01   Q 921.58 348.09 921.13 353.83   Q 920.35 363.77 922.54 374.18   Q 922.95 376.13 920.96 376.06   Q 910.27 375.69 907.68 365.55   Q 906.74 361.87 907.09 358.03   Z   M 854.51 337.70   C 848.37 347.18 843.50 359.63 842.53 370.64   Q 842.40 372.11 843.13 373.69   A 0.91 0.90 -29.8 0 0 844.47 374.05   Q 845.82 373.11 846.83 371.68   Q 855.63 359.13 861.16 346.20   C 861.90 344.49 862.07 342.26 862.14 340.41   C 862.32 335.48 868.42 337.07 870.97 338.35   Q 871.52 338.62 871.43 338.02   C 871.05 335.29 869.66 330.43 866.87 329.45   C 862.41 327.88 857.02 333.82 854.51 337.70   Z"
     id="path13279" />
  <path
     fill="#26619f"
     d="   M 629.24 363.08   C 627.29 368.51 623.31 377.66 616.28 376.96   C 604.71 375.79 602.49 364.45 603.33 354.80   C 604.33 343.38 610.13 325.85 623.01 324.20   Q 628.31 323.52 634.21 324.55   C 641.03 325.75 642.87 332.22 642.52 338.24   Q 642.43 339.80 640.89 340.11   L 640.35 340.21   Q 638.72 340.53 638.76 338.87   C 638.84 335.68 637.89 326.80 632.31 329.04   C 620.51 333.78 616.31 352.79 616.49 364.01   C 616.55 367.88 616.39 370.26 618.18 372.88   A 1.45 1.45 0.0 0 0 620.56 372.90   Q 622.14 370.69 623.34 367.73   Q 627.90 356.62 628.87 346.50   Q 629.20 343.06 632.78 342.59   C 636.26 342.15 640.63 342.63 642.89 345.61   A 1.71 1.66 -63.9 0 1 643.23 346.66   C 643.21 348.43 643.60 350.17 643.54 351.95   Q 643.20 361.88 644.46 371.26   Q 644.67 372.81 645.68 374.08   A 0.57 0.57 0.0 0 0 646.61 374.03   Q 648.00 371.84 649.00 369.49   Q 654.59 356.38 659.76 341.05   A 1.43 1.34 -13.9 0 1 660.14 340.46   Q 661.31 339.41 661.89 339.85   Q 662.65 340.42 662.42 341.34   Q 657.98 358.87 650.02 374.09   C 647.52 378.88 642.44 384.45 636.93 378.87   C 633.06 374.94 631.47 368.57 630.07 363.12   Q 629.72 361.77 629.24 363.08   Z"
     id="path13281" />
  <path
     fill="#26619f"
     d="   M 766.53 430.25   Q 757.85 461.30 753.32 494.50   Q 753.18 495.52 753.67 496.42   A 0.66 0.66 0.0 0 1 753.18 497.39   Q 748.84 497.98 745.15 495.44   C 728.59 484.00 728.12 454.31 730.67 436.74   Q 731.82 428.76 733.08 420.09   C 733.50 417.17 735.97 416.14 738.56 417.14   C 743.44 419.03 750.15 423.50 749.29 429.53   Q 748.44 435.46 747.53 441.28   Q 744.14 463.13 748.84 483.63   Q 749.50 486.54 750.03 483.61   Q 755.41 453.99 764.19 425.80   Q 766.37 418.82 769.57 412.28   C 771.49 408.36 772.28 403.33 774.66 399.07   A 2.61 2.61 0.0 0 1 776.97 397.74   Q 780.09 397.78 782.76 399.03   C 788.90 401.92 787.75 408.29 786.01 413.65   Q 784.95 416.91 784.18 420.75   Q 780.05 441.25 781.41 463.15   C 781.99 472.60 784.10 481.47 787.38 489.80   A 1.63 1.63 0.0 0 1 786.13 492.01   C 773.05 494.13 768.81 479.95 767.37 469.51   Q 765.38 455.10 766.16 440.01   Q 766.42 435.03 766.80 430.30   Q 766.91 428.86 766.53 430.25   Z"
     id="path13283" />
  <path
     fill="#26619f"
     d="   M 602.72 479.99   C 599.69 484.91 595.36 491.51 588.64 491.02   C 579.89 490.39 574.40 483.98 573.86 475.47   Q 572.81 458.83 581.78 445.83   Q 585.78 440.03 591.93 438.47   C 595.09 437.67 602.19 437.36 605.64 439.53   Q 606.17 439.87 606.27 439.24   L 610.96 408.31   A 1.51 1.51 0.0 0 1 612.64 407.04   C 615.61 407.40 624.73 410.18 623.70 414.58   Q 620.96 426.15 619.08 436.00   Q 615.61 454.09 616.71 473.26   C 617.22 482.09 617.99 490.50 620.31 498.98   A 1.03 1.03 0.0 0 1 619.35 500.28   C 608.71 500.55 605.18 488.28 603.43 480.12   Q 603.23 479.17 602.72 479.99   Z   M 601.29 452.52   C 601.70 450.09 602.62 446.15 601.56 443.90   A 1.95 1.95 0.0 0 0 599.08 442.92   C 589.17 446.83 586.93 468.45 586.85 477.71   C 586.83 480.59 588.15 486.61 591.52 487.54   Q 592.07 487.69 592.45 487.27   Q 594.84 484.65 596.70 481.12   Q 600.97 473.02 603.23 465.93   C 604.36 462.38 603.96 458.45 604.45 454.77   A 0.55 0.54 -88.3 0 0 603.87 454.15   Q 602.70 454.22 601.78 453.63   Q 601.17 453.24 601.29 452.52   Z"
     id="path13285" />
  <path
     fill="#26619f"
     d="   M 686.91 448.96   Q 684.37 449.44 682.69 451.27   Q 676.97 457.49 676.66 465.46   A 2.22 2.21 -89.4 0 0 678.91 467.76   C 685.60 467.65 700.78 469.19 695.58 480.51   Q 691.86 488.61 682.74 495.43   C 680.03 497.45 676.62 499.71 673.10 499.11   Q 668.88 498.40 666.82 495.29   A 0.93 0.93 0.0 0 1 667.48 493.85   Q 669.57 493.60 671.27 492.37   Q 680.21 485.93 685.70 477.12   Q 686.29 476.17 685.17 476.22   C 678.67 476.50 672.17 476.23 667.39 471.53   Q 666.93 471.09 666.70 471.68   C 662.97 480.82 656.14 489.38 645.17 487.88   C 633.34 486.26 625.04 475.14 626.06 463.35   Q 627.19 450.44 634.40 440.03   C 638.24 434.47 646.37 434.25 652.38 435.89   Q 655.71 436.80 657.11 440.62   C 661.34 452.22 656.19 467.90 640.37 462.41   A 0.42 0.42 0.0 0 0 639.81 462.81   Q 639.68 472.36 645.34 478.85   C 647.01 480.77 649.25 482.00 651.84 481.57   C 658.50 480.47 662.64 474.74 665.13 468.91   A 2.06 2.05 49.9 0 0 665.24 467.59   C 663.01 458.86 668.55 448.42 674.49 442.21   C 676.33 440.28 678.71 439.18 681.46 439.20   C 685.50 439.23 694.03 438.51 696.74 442.26   C 701.24 448.48 692.16 458.92 687.34 462.61   A 0.75 0.74 -29.4 0 1 686.19 462.29   Q 685.82 461.35 686.02 460.30   Q 687.04 455.00 687.68 449.68   Q 687.79 448.79 686.91 448.96   Z   M 640.64 460.19   C 644.14 461.58 647.72 460.43 649.62 457.24   Q 653.22 451.18 651.20 445.22   A 2.05 2.05 0.0 0 0 648.87 443.86   C 643.13 444.96 640.76 454.47 640.22 459.49   Q 640.17 460.00 640.64 460.19   Z"
     id="path13289" />
  <path
     fill="#26619f"
     d="   M 890.79 476.72   Q 894.34 468.91 897.57 461.38   Q 902.86 449.05 903.69 435.70   A 0.76 0.75 -89.6 0 1 904.41 434.99   Q 905.86 434.93 907.01 435.79   C 911.68 439.35 912.73 446.76 911.61 452.01   C 908.87 464.77 903.40 478.20 897.86 489.94   A 1.49 1.48 20.2 0 1 896.12 490.74   Q 894.97 490.43 893.79 490.65   C 890.70 491.23 886.81 488.28 884.77 486.02   C 873.85 473.88 872.03 456.05 871.61 440.10   A 2.31 2.30 86.5 0 1 873.70 437.74   C 877.57 437.37 882.35 438.90 884.05 442.58   Q 885.08 444.84 885.12 448.96   Q 885.22 462.93 890.23 476.70   Q 890.49 477.40 890.79 476.72   Z"
     id="path13291" />
  <path
     fill="#26619f"
     d="   M 1014.61 483.98   Q 1018.57 474.59 1022.03 465.03   Q 1023.14 461.97 1023.19 458.75   C 1023.23 456.34 1022.92 451.73 1024.80 450.11   A 1.50 1.47 24.4 0 1 1025.81 449.74   C 1029.25 449.77 1038.95 450.85 1037.95 456.39   Q 1035.81 468.20 1036.66 480.18   Q 1036.95 484.16 1038.11 488.30   A 1.36 1.36 0.0 0 1 1036.83 490.03   C 1026.55 490.18 1021.74 482.01 1022.53 472.68   Q 1022.77 469.93 1021.74 472.50   L 1015.61 487.79   Q 1015.44 488.23 1015.57 488.68   Q 1015.80 489.48 1015.96 490.31   Q 1016.39 492.41 1014.24 492.27   C 1008.36 491.87 1003.87 487.38 1002.16 481.85   Q 1001.77 480.60 1001.27 481.82   Q 999.17 486.98 995.91 491.42   C 990.39 498.97 984.19 493.76 981.58 487.55   Q 979.43 482.43 978.26 477.02   Q 977.99 475.76 977.51 476.95   C 975.01 483.10 971.44 492.44 962.84 490.72   C 956.28 489.40 952.80 484.38 951.86 478.05   Q 951.73 477.15 951.25 477.91   C 947.34 484.04 942.20 488.56 934.42 488.01   C 921.42 487.10 912.64 475.37 913.93 462.57   Q 915.28 449.23 922.87 439.18   C 926.09 434.91 933.01 434.60 938.01 435.34   C 948.41 436.88 947.40 452.03 943.82 458.25   C 940.37 464.27 934.46 464.25 928.31 462.47   A 0.49 0.49 0.0 0 0 927.68 462.93   Q 927.58 473.80 934.34 479.97   C 935.86 481.37 938.08 481.94 940.10 481.52   Q 946.37 480.23 950.51 473.46   Q 951.34 472.12 951.42 470.41   C 952.00 459.44 956.47 444.32 967.01 439.35   Q 970.16 437.86 974.90 437.90   C 985.40 437.98 990.44 440.02 990.77 451.74   Q 990.82 453.52 989.12 454.03   Q 988.90 454.09 988.67 454.13   Q 986.95 454.38 986.93 452.64   C 986.89 450.08 986.17 442.36 982.12 442.75   C 976.67 443.28 972.29 449.00 969.91 453.97   Q 963.60 467.23 964.74 482.41   Q 964.95 485.17 966.66 487.14   A 1.22 1.21 -43.9 0 0 968.46 487.17   Q 969.74 485.80 970.50 484.05   Q 974.27 475.37 976.37 465.89   C 977.07 462.76 975.85 457.46 980.39 456.69   C 983.65 456.14 991.40 456.55 991.48 461.27   Q 991.65 469.88 991.88 477.85   C 991.97 480.69 992.11 485.46 993.71 487.92   A 0.69 0.69 0.0 0 0 994.90 487.87   Q 997.53 482.94 999.87 477.13   Q 1000.98 474.39 1001.15 471.11   Q 1001.83 457.98 1003.46 445.30   Q 1003.79 442.78 1002.75 440.23   A 1.78 1.78 0.0 0 1 1004.31 437.79   Q 1010.06 437.51 1014.85 440.90   C 1016.81 442.28 1017.19 443.78 1016.74 446.20   Q 1015.62 452.22 1014.47 458.76   Q 1012.59 469.55 1013.40 480.26   Q 1013.55 482.16 1013.96 483.93   Q 1014.20 484.95 1014.61 483.98   Z   M 928.38 460.17   C 937.02 463.76 940.43 452.74 939.48 446.59   C 939.28 445.28 938.24 443.52 936.66 443.84   C 930.85 445.00 928.50 454.69 927.98 459.50   Q 927.93 459.98 928.38 460.17   Z"
     id="path13293" />
  <path
     fill="#26619f"
     d="   M 851.40 471.75   L 844.94 488.02   Q 844.74 488.52 844.93 489.03   L 845.50 490.53   A 1.23 1.23 0.0 0 1 844.52 492.19   Q 842.15 492.50 839.87 491.43   C 831.88 487.67 829.96 479.53 830.47 471.26   Q 831.27 458.16 832.87 444.46   C 833.05 442.92 832.60 441.43 832.07 440.00   A 1.61 1.60 -12.0 0 1 833.48 437.84   C 837.63 437.60 847.28 439.64 846.23 445.58   Q 845.26 451.04 844.24 456.18   Q 841.50 470.03 843.17 483.49   Q 843.37 485.07 844.02 483.61   Q 847.97 474.70 851.58 464.46   C 852.78 461.05 852.69 457.43 852.72 453.93   C 852.74 452.01 853.40 449.65 855.81 449.75   C 860.10 449.92 868.25 451.15 867.28 456.52   Q 865.49 466.43 865.78 476.76   Q 865.96 482.84 867.45 488.31   A 1.33 1.33 0.0 0 1 866.25 489.99   C 858.43 490.49 852.71 484.78 852.03 477.09   Q 851.80 474.52 851.87 471.85   Q 851.91 470.47 851.40 471.75   Z"
     id="path13295" />
  <path
     fill="#26619f"
     d="   M 1063.65 462.15   Q 1069.54 453.39 1073.27 443.91   C 1073.51 443.30 1073.47 442.49 1073.51 441.85   A 1.25 1.24 13.7 0 1 1075.27 440.78   C 1077.92 441.98 1081.63 445.23 1080.96 448.61   Q 1080.38 451.51 1079.01 454.40   Q 1074.53 463.87 1068.48 472.28   Q 1068.20 472.67 1068.42 473.10   C 1071.68 479.44 1078.26 491.10 1086.12 492.10   Q 1086.99 492.21 1086.36 492.81   C 1083.14 495.89 1077.01 498.50 1072.49 496.64   C 1067.20 494.47 1062.63 488.87 1059.45 484.17   Q 1059.08 483.62 1058.64 484.12   C 1056.13 487.00 1053.20 489.48 1049.69 490.94   C 1046.23 492.39 1039.83 491.40 1039.16 486.88   A 1.39 1.39 0.0 0 1 1040.34 485.30   C 1045.34 484.58 1050.26 479.55 1053.40 475.79   Q 1053.79 475.32 1053.48 474.80   C 1048.39 466.09 1043.42 455.62 1041.81 445.65   C 1041.19 441.80 1049.29 438.45 1052.03 437.66   Q 1053.81 437.15 1054.32 438.93   Q 1057.46 450.01 1063.07 462.10   Q 1063.32 462.63 1063.65 462.15   Z"
     id="path13297" />
  <path
     fill="#26619f"
     d="   M 801.89 445.02   C 803.76 440.55 807.54 439.13 812.08 438.60   C 821.33 437.53 824.16 445.37 824.85 452.94   Q 826.30 468.66 820.97 480.98   C 818.49 486.72 813.40 491.49 806.72 491.29   C 793.61 490.90 791.94 474.60 792.59 464.12   C 792.98 457.97 794.15 448.53 800.95 445.94   Q 801.62 445.69 801.89 445.02   Z   M 812.15 446.88   C 811.08 450.66 811.38 454.59 809.24 457.64   Q 808.72 458.38 808.68 459.41   Q 808.38 467.34 808.11 474.86   Q 808.06 476.23 808.16 477.60   C 808.38 480.31 808.31 482.71 810.03 484.97   A 2.13 2.13 0.0 0 0 813.27 485.14   Q 814.85 483.49 815.66 481.18   Q 820.21 468.27 819.35 454.29   Q 819.05 449.51 816.76 446.13   A 2.58 2.58 0.0 0 0 812.15 446.88   Z"
     id="path13299" />
  <path
     fill="#26619f"
     d="   M 591.23 575.67   Q 591.98 592.97 599.83 607.95   Q 600.86 609.91 598.80 610.73   C 585.51 615.99 578.78 594.60 577.03 585.94   Q 571.99 561.03 575.18 534.62   C 575.61 531.02 576.75 524.18 579.58 521.64   A 1.60 1.59 -66.5 0 1 580.58 521.24   C 585.08 521.11 589.90 521.30 593.95 523.23   C 595.25 523.85 595.45 525.31 595.24 526.58   Q 592.02 545.54 591.28 564.43   Q 591.26 565.02 591.78 564.76   L 592.58 564.36   Q 593.16 564.07 593.19 563.42   C 593.58 553.46 596.88 511.37 611.18 510.67   Q 618.99 510.29 624.72 511.74   C 632.39 513.69 633.83 527.40 633.68 533.56   C 633.33 548.75 622.13 560.82 609.53 568.19   Q 609.02 568.49 609.28 569.02   C 616.33 583.96 625.88 600.21 636.24 612.44   C 641.08 618.14 647.77 624.37 655.61 624.65   A 1.16 1.15 -4.3 0 1 656.71 625.59   C 657.16 628.05 653.39 629.44 651.59 629.69   C 626.84 633.21 604.54 592.86 596.31 574.57   Q 596.07 574.05 595.52 574.18   L 591.66 575.10   A 0.56 0.56 0.0 0 0 591.23 575.67   Z   M 603.56 523.37   C 599.19 535.27 597.58 548.35 596.46 561.50   A 0.28 0.28 0.0 0 0 596.88 561.77   C 610.33 554.26 623.98 541.23 619.83 524.07   Q 618.08 516.84 610.89 515.99   C 607.02 515.52 604.67 520.34 603.56 523.37   Z"
     id="path13301" />
  <path
     fill="#4bb08d"
     d="m 724.54,542.93 -0.45,4.66 -0.45,4.66 c -0.98,8.68667 -1.60667,17.38667 -1.88,26.1 -0.16,5.02 0.63,9.56 2.01,14.26 0.24062,0.80876 -0.29448,1.64217 -1.13,1.76 -11.33,1.61 -11.07,-24.04 -10.86,-30.37 0.16,-4.98667 0.39,-9.85667 0.69,-14.61 l 0.73,-7.35 0.62,-7.3 c 0.0715,-0.78697 0.66423,-1.42493 1.44,-1.55 3.45333,-0.56 6.23,0.45667 8.33,3.05 1.37333,1.69333 1.69,3.92333 0.95,6.69 z"
     id="path13305"
     sodipodi:nodetypes="ccccccccccccc" />
  <path
     fill="#26619f"
     d="   M 648.14 544.97   C 651.87 543.38 654.54 540.21 657.56 537.52   C 660.14 535.22 664.79 538.87 665.89 541.05   A 1.07 1.06 53.3 0 1 665.72 542.26   Q 656.87 551.71 646.05 550.99   Q 644.12 550.86 642.61 549.75   A 0.99 0.97 26.6 0 1 642.25 548.69   C 642.89 546.48 646.30 545.76 648.14 544.97   Z"
     id="path13307" />
  <path
     id="path13309"
     d="M 743.84375 519.9707 C 741.16199 519.81065 739.89305 522.23883 739.7793 525.2207 C 739.7393 526.41403 739.61683 527.59 739.41016 528.75 C 738.56349 533.51 737.67047 538.2538 736.73047 542.98047 C 736.65714 543.36714 736.41953 543.5493 736.01953 543.5293 L 724.53906 542.92969 L 713.19922 542.03906 C 709.37256 541.70573 705.58341 541.14294 701.83008 540.34961 C 701.35008 540.24961 700.96945 540.26396 700.68945 540.39062 C 700.20945 540.61729 699.9924 541.00721 700.03906 541.56055 A 1.14 1.15 15.4 0 0 700.49023 542.35938 C 704.2969 545.19937 708.29071 547.54396 712.4707 549.39062 L 723.64062 552.25 L 734.46094 552.83008 C 734.83424 552.85008 734.98346 553.04039 734.91016 553.40039 C 732.91016 564.20705 731.71675 573.62063 731.33008 581.64062 C 730.80008 592.81061 731.81086 603.62978 737.13086 613.00977 C 739.20086 616.64976 742.95 620.53094 747.5 619.96094 C 748.15834 619.88009 748.55778 619.19156 748.30078 618.58008 C 746.51411 614.37341 745.27341 610.10596 744.58008 605.7793 C 743.42008 598.5793 743.22357 591.20062 743.99023 583.64062 C 745.02023 573.39064 746.77914 562.95905 748.61914 552.78906 C 748.70923 552.29363 749.12117 551.92442 749.61914 551.89062 C 761.95246 550.9573 774.10676 549.21348 786.08008 546.66016 C 787.94675 546.26683 789.76573 545.71023 791.53906 544.99023 C 791.85906 544.86356 792.09977 544.63411 792.25977 544.30078 C 792.39977 544.01411 792.41722 543.72302 792.31055 543.42969 C 792.17055 543.05636 791.9 542.87733 791.5 542.89062 L 750.76953 543.7793 C 750.42953 543.79263 750.28338 543.62597 750.33008 543.2793 C 750.86341 539.64597 751.4169 535.77659 751.99023 531.66992 C 752.70023 526.58993 750.63968 522.57953 745.92969 520.51953 C 745.15719 520.18203 744.46262 520.00764 743.84375 519.9707 z "
     style="fill:#26619f;fill-opacity:1" />
  <path
     fill="#26619f"
     d="   M 673.50 596.85   C 669.03 604.82 662.59 610.48 652.90 608.55   C 641.33 606.24 634.18 595.61 634.99 584.03   Q 635.71 573.76 641.49 563.47   Q 645.39 556.52 652.11 556.04   Q 656.67 555.71 660.25 556.45   C 668.03 558.04 668.15 569.31 666.49 575.30   C 664.07 583.96 657.53 585.84 649.39 583.28   Q 648.77 583.08 648.75 583.73   Q 648.51 592.42 653.67 599.04   Q 656.39 602.53 659.89 602.46   C 665.75 602.34 670.47 597.01 672.86 591.98   Q 673.09 591.50 673.00 590.97   C 671.48 581.61 673.85 571.44 679.52 563.43   C 682.52 559.19 688.31 558.11 692.98 559.23   C 696.39 560.05 698.99 569.24 699.00 572.51   Q 699.00 573.14 698.41 573.35   Q 696.76 573.95 695.85 572.44   Q 694.16 569.67 692.96 566.03   A 1.38 1.37 -13.4 0 0 691.44 565.10   Q 690.46 565.25 689.93 566.19   Q 687.91 569.75 687.05 574.20   Q 684.88 585.48 686.50 596.22   C 686.94 599.12 688.42 604.32 692.17 603.94   C 700.64 603.08 704.70 590.90 706.53 584.11   A 2.49 2.48 -85.8 0 1 708.63 582.29   L 709.19 582.23   Q 710.46 582.07 710.11 583.31   C 707.87 591.21 704.85 599.75 699.54 606.04   C 694.84 611.60 687.40 613.77 681.41 608.72   Q 676.53 604.61 674.31 596.94   Q 674.02 595.93 673.50 596.85   Z   M 656.41 565.16   C 651.59 567.42 649.73 575.32 649.05 580.33   A 0.66 0.66 0.0 0 0 649.50 581.04   C 658.29 583.80 661.61 574.25 660.55 567.53   Q 659.91 563.52 656.41 565.16   Z"
     id="path13311" />
  <path
     fill="#26619f"
     d="   M 770.21 602.03   C 757.96 603.30 746.51 598.10 750.72 583.58   C 752.42 577.74 756.25 570.42 761.41 566.66   Q 763.60 565.05 766.81 564.95   Q 773.23 564.74 777.84 565.73   Q 782.34 566.71 782.96 570.43   C 784.04 576.91 777.44 584.65 772.63 588.38   Q 771.93 588.92 771.48 588.17   Q 771.08 587.50 771.22 586.69   Q 772.02 582.04 772.68 577.05   Q 772.77 576.34 772.77 575.63   Q 772.77 574.28 771.52 574.79   C 765.36 577.29 761.91 585.58 761.91 591.55   A 1.93 1.92 1.6 0 0 763.73 593.47   C 768.54 593.74 773.18 593.85 777.52 595.94   C 791.01 602.41 768.15 624.74 759.72 624.98   Q 755.13 625.11 752.15 621.37   A 1.06 1.06 0.0 0 1 752.84 619.65   Q 754.91 619.37 756.62 618.11   Q 765.65 611.43 770.84 603.03   Q 771.55 601.89 770.21 602.03   Z"
     id="path13313" />
  <path
     fill="#4bb08d"
     d="   M 724.02 610.26   C 720.66 611.23 715.00 607.81 712.99 605.69   C 711.77 604.41 712.15 601.56 713.98 601.03   Q 722.11 598.71 725.71 605.82   Q 727.46 609.27 724.02 610.26   Z"
     id="path13315" />
  <path
     id="path14671-5-6"
     style="opacity:1;fill:#26619f;fill-opacity:1;stroke-width:95.1458;stroke-linecap:round;stroke-linejoin:round;stop-color:#000000"
     d="M 384.87891 41.763672 A 338.37738 339.13318 0 0 0 265.32227 60.826172 A 338.37738 339.13318 0 0 0 150.95312 128.89062 L 199.82617 183.25977 A 263.5 263.5 0 0 1 377.40039 113.90039 A 263.5 263.5 0 0 1 556.79297 184.50195 L 605.94141 130.71484 A 338.37738 339.13318 0 0 0 384.87891 41.763672 z M 148.9707 130.85547 A 338.37738 339.13318 0 0 0 123.58984 156.95312 A 338.37738 339.13318 0 0 1 148.9707 130.85547 z M 115.88281 166.24219 A 338.37738 339.13318 0 0 0 98.492188 189.51172 A 338.37738 339.13318 0 0 1 115.88281 166.24219 z M 91.863281 199.31836 A 338.37738 339.13318 0 0 0 72.458984 233.8418 A 338.37738 339.13318 0 0 1 91.863281 199.31836 z M 72.375 234.04102 A 338.37738 339.13318 0 0 0 57.664062 270.60742 A 338.37738 339.13318 0 0 1 72.375 234.04102 z M 54.160156 281.90625 A 338.37738 339.13318 0 0 0 46.876953 310.08008 A 338.37738 339.13318 0 0 1 54.160156 281.90625 z M 44.451172 321.88281 A 338.37738 339.13318 0 0 0 43.037109 328.76758 A 338.37738 339.13318 0 0 0 39.912109 358.47461 A 338.37738 339.13318 0 0 1 44.451172 321.88281 z M 39.617188 361.27734 A 338.37738 339.13318 0 0 0 39.857422 400.89062 A 338.37738 339.13318 0 0 1 39.617188 361.27734 z M 40.900391 412.33008 A 338.37738 339.13318 0 0 0 44.847656 441.28125 A 338.37738 339.13318 0 0 1 40.900391 412.33008 z M 120.19141 433.26172 L 46.199219 448.34961 A 338.37738 339.13318 0 0 0 173.76562 651.65625 L 220.79688 589.10547 A 263.5 263.5 0 0 1 120.19141 433.26172 z " />
</svg>
