<?xml version="1.0" encoding="UTF-8" standalone="no"?>
<!-- Generator: visioncortex VTracer -->

<svg
   id="svg"
   version="1.1"
   style="display: block;"
   viewBox="0 0 364 98"
   sodipodi:docname="logo-neibo.svg"
   inkscape:version="1.2.2 (b0a8486541, 2022-12-01)"
   xmlns:inkscape="http://www.inkscape.org/namespaces/inkscape"
   xmlns:sodipodi="http://sodipodi.sourceforge.net/DTD/sodipodi-0.dtd"
   xmlns="http://www.w3.org/2000/svg"
   xmlns:svg="http://www.w3.org/2000/svg">
  <defs
     id="defs35" />
  <sodipodi:namedview
     id="namedview33"
     pagecolor="#ffffff"
     bordercolor="#666666"
     borderopacity="1.0"
     inkscape:showpageshadow="2"
     inkscape:pageopacity="0.0"
     inkscape:pagecheckerboard="0"
     inkscape:deskcolor="#d1d1d1"
     showgrid="false"
     inkscape:zoom="3.6538462"
     inkscape:cx="178.30526"
     inkscape:cy="48.989474"
     inkscape:window-width="2313"
     inkscape:window-height="1205"
     inkscape:window-x="26"
     inkscape:window-y="23"
     inkscape:window-maximized="0"
     inkscape:current-layer="svg" />
  <path
     id="path6"
     style="fill:#0f2f3a"
     d="m 159.125,0.35351565 c -3.19216,0.1595416 -7.1405,0.1832239 -9.33158,2.83445985 -2.14641,2.9953351 -1.15302,6.9304885 -1.4224,10.4090035 -0.28891,25.363042 -0.6128,50.728641 -0.70254,76.092304 -0.15546,3.911424 1.56692,9.571488 6.58195,8.130122 C 163.75074,96.235018 173.42287,96.733626 183,96 c 6.83516,-2.094548 10.91897,-8.883423 12.36569,-15.529108 2.13325,-7.437607 1.55834,-15.783752 -2.62974,-22.412408 -2.34909,-4.115295 -3.42436,-8.991425 -2.24055,-13.656514 0.82559,-7.110444 0.95219,-14.315992 0.59731,-21.457658 C 190.15347,13.997328 182.98065,6.5762721 174.68614,3.7076397 169.65497,2.0152803 164.47891,0.42667285 159.125,0.35351565 Z M 163,14 c 6.99919,0.26199 14.51019,2.824247 18.51562,8.895501 2.67698,5.036631 2.47706,11.173249 1.25216,16.558444 -3.17382,6.245385 -9.75882,11.376931 -17.0446,10.733923 -3.70755,-0.327023 -5.61787,-4.860906 -6.22513,-8.17029 0.0713,-7.351815 -0.0854,-14.713155 0.2751,-22.055467 C 159.85891,17.522615 161.38015,15.665287 163,14 Z m 6.80859,45.664062 C 175.91839,59.430204 182.50001,61.754156 186,67 c 0.46745,4.250387 0.94771,9.608232 -2.09287,12.954449 -5.57586,5.360732 -13.80832,5.860581 -21.10282,5.227154 C 158.2409,85.073772 158.4939,79.081872 158.6875,75.75 158.3512,70.958735 159.1526,65.99036 162,62 c 2.2811,-1.578916 5.04373,-2.359515 7.80859,-2.335938 z" />
  <path
     id="path8"
     style="fill:#11313b"
     d="m 227.32422,0.77148438 c -6.18399,-0.191581 -12.0047,3.21963212 -15.77123,7.93205432 -5.8601,9.8491283 -4.64696,21.6396333 -4.7805,32.6370383 0.0825,12.067657 0.0303,24.137467 0.018,36.20315 0.26511,5.459862 1.05766,11.555452 5.11386,15.55626 2.94409,2.442798 6.06371,5.438958 10.16414,5.189812 5.63684,0.313515 11.79511,-1.228225 15.81731,-5.349616 6.34855,-7.523187 7.33608,-17.802678 8.16767,-27.226313 1.08933,-16.188292 3.92677,-32.999796 -1.34177,-48.773955 C 242.17666,10.604723 238.66383,3.7718931 232,1 230.44647,0.84888491 228.88573,0.75107377 227.32422,0.77148438 Z M 226.9375,13.9375 c 3.56839,0.702628 5.83382,3.839424 6.78624,7.144335 4.94617,13.900526 3.94089,29.103615 1.42203,43.395019 -1.14705,5.76292 -2.37838,11.576565 -4.4397,17.079176 -1.18594,1.89204 -1.99632,5.384489 -4.80171,4.144592 C 224.26957,85.467081 222.63479,85.233541 221,85 c -2.15657,-5.619717 -3.90786,-11.460044 -4.02755,-17.528441 -0.22125,-12.275844 -0.0929,-24.56197 0.11767,-36.838184 0.20545,-5.194517 0.16973,-11.313147 4.43867,-14.985441 1.57558,-1.2407 3.38686,-1.87998 5.40871,-1.710434 z" />
  <path
     d="m 12,1 c 9.804417,5.7084698 14.017774,16.986126 17.282422,27.245218 3.607735,12.108 8.179232,23.911648 11.512596,36.100906 0.543681,1.56224 3.426025,2.338848 1.945461,-0.38714 C 41.057591,50.499117 39.070562,37.040661 38.939925,23.449069 38.84946,17.782466 38.38518,12.099405 38.742878,6.44078 c 0.63322,-3.8844745 4.674501,-6.35324681 8.458264,-5.69343769 3.581959,0.20295025 5.982878,3.96987099 6.300063,7.31471519 -0.0411,23.1125775 0.01338,46.2268325 -0.141983,69.3387085 -0.01188,6.227192 -0.723183,12.716803 -4.395216,17.965157 -1.460052,2.912783 -7.207566,2.507294 -9.464394,0.902391 C 35.156537,89.295169 33.354128,81.156656 30.498906,73.531021 26.406685,61.352357 22.101303,49.234809 18.283962,36.971818 c -0.829278,-2.126405 -4.319306,-6.687684 -5.247237,-6.30765 1.095079,20.514482 1.292237,41.074181 1.121928,61.610323 -0.08411,3.712203 -2.352739,7.236697 -6.4006661,5.24839 C 3.2613082,96.605705 2.5865629,91.295983 2.4294311,87.49161 1.483923,60.632297 1.029017,33.758654 0.429961,6.8903809 0.536031,2.7266036 4.9934713,0.90510036 8.5646351,0.69995072 9.7171174,0.65067923 10.867824,0.79739668 12,1 Z"
     style="fill:#11313b"
     id="path10" />
  <path
     d="m 335,20 c 9.20891,3.249654 19.75632,5.3153 26.27073,13.265224 4.95494,5.445798 3.3368,14.194154 -1.27243,19.332556 -6.94861,8.468036 -17.2318,12.973042 -26.14218,18.982008 -11.61656,7.228393 -22.87824,15.032608 -34.61243,22.067085 -5.41616,3.074171 -11.78815,4.113398 -17.93383,3.69335 -2.95498,-1.019635 -9.16849,-2.55194 -7.82497,-6.45195 3.43042,-14.156343 6.07958,-28.556 10.83174,-42.351003 2.02575,-5.620596 5.37491,-10.610619 8.68337,-15.537267 1.86271,-0.542654 2.46997,0.627074 2.72027,2.283669 3.14536,9.420036 5.83297,19.006028 9.25399,28.32665 1.79039,4.062728 5.35022,8.932783 10.36694,7.105255 3.82121,0.237469 3.33501,-4.127435 4.61054,-6.591056 4.73105,-14.02577 9.22529,-28.135635 14.0823,-42.116674 C 334.32781,21.325152 334.67024,20.66547 335,20 Z"
     style="fill:#0f2f3a"
     id="path12" />
  <path
     d="m 86.125,0.8125 c 6.060833,0.16728594 12.217758,-0.29454003 18.193,0.8823266 4.22307,0.768324 6.21962,5.5430566 3.21363,8.7003984 -4.4591,4.098993 -10.772261,4.346288 -16.487774,4.250436 -3.540731,0.399496 -7.795696,-0.918293 -10.571171,1.983082 -1.451526,2.160266 -0.594278,5.181358 -0.748211,7.758513 0.106725,5.537232 0.15363,11.07565 0.275527,16.612748 5.823255,0.432113 12.282013,-0.106093 17,4 0.719754,3.283704 1.145071,7.73383 -2.457999,9.479574 -3.728597,1.854229 -8.398823,-0.02221 -11.88323,2.642492 -3.809627,2.833532 -4.78355,8.317994 -5.404548,12.814057 0.136006,4.216617 -0.902465,10.429637 1.742632,13.316183 5.229278,1.488515 10.502404,-0.856656 15.796112,-0.525982 4.579198,0.08045 9.499792,0.45502 13.559192,2.626425 3.69977,3.005042 2.08288,9.8347 -2.5057,10.995968 -9.145184,3.457826 -19.062316,1.485741 -28.580066,2.053618 C 73.54096,98.149085 68.808322,99.583637 66.123291,96.145752 63.696636,91.547218 65.101869,86.180963 64.909795,81.232295 65.773371,61.700464 66.331852,42.157623 66.554039,22.607553 66.732905,16.063625 66.021475,8.7829566 70.25,3.25 74.866875,0.06395235 80.839136,0.84017158 86.125,0.8125 Z"
     style="fill:#13333d"
     id="path14" />
  <path
     d="m 291.58203,2.7250977 c 9.20188,3.2303419 17.82222,7.9103523 27.15007,10.8136673 2.68426,0.522019 3.91727,2.099155 2.58404,4.719608 C 319.00648,28.06642 316.16747,37.804276 312,47 308.14351,42.95781 308.00099,37.036723 306.35794,31.963215 305.28472,26.595643 301.90119,22.217621 298.625,18 c -3.00931,-1.060176 -7.20639,-2.396304 -9.8017,0.04339 -6.09636,5.656232 -8.90358,13.75022 -12.10953,21.194326 C 272.0963,50.913771 268.68637,63.011233 265,75 c -2.46236,0.757967 -2.2471,-1.500013 -2.3988,-3.344566 -1.40043,-13.065136 -3.48858,-26.085223 -3.97826,-39.230378 -0.069,-7.409973 -0.83354,-15.448373 3.36127,-22.003101 1.52257,-2.8369976 4.34477,-4.4989284 6.76039,-6.4780177 6.84102,-4.09241244 15.47066,-3.10328854 22.83743,-1.2188396 z"
     style="fill:#10303b"
     id="path18" />
  <path
     d="m 126.625,1.75 c 1.82519,0.1382503 4.06686,-0.3566563 5.375,1.25 0.65757,18.958956 0.60228,37.936362 1.04049,56.901509 0.0386,9.471933 0.44418,18.94842 0.33177,28.41725 -0.15619,3.975914 -2.27015,8.2337 -6.38487,9.283928 -3.09419,1.223301 -7.54515,-0.19846 -8.12427,-3.702032 -0.78411,-8.895854 -0.17983,-17.84798 -0.36327,-26.766555 0.14036,-19.981235 -0.094,-39.96745 0.18491,-59.9454895 -0.0433,-3.5746789 3.64984,-5.970744 6.97796,-5.4686295 l 0.46666,0.013745 z"
     style="fill:#13333d"
     id="path20" />
</svg>
