<svg xmlns="http://www.w3.org/2000/svg" viewBox="0 0 700 1050"><defs><style>.jss2 {fill: none;height: 35px;stroke: rgb(12, 134, 155);paint-order: fill;stroke-width: 52;stroke-linecap: round;stroke-linejoin: round;}</style></defs><g class="jss2"><title>Effective Altruism Lightbulb</title><path d="M 299.209 567.046 C 299.209 567.046 208.658 490.017 208.658 410.063 C 208.658 358.904 237.235 325.959 281.748 325.959 C 321.607 325.959 360.912 378.543 360.912 408.707 C 360.912 421.736 355.854 428.342 348.836 428.342 C 341.818 428.342 336.936 420.419 336.936 408.898 C 336.936 378.34 381.84 326.598 422.309 326.598 C 465.764 326.598 490.931 364.731 490.931 401.243 C 490.931 470.953 449.522 539.012 393.485 614.471 C 333.21 695.636 311.182 688.474 276.989 688.474 C 242.796 688.474 220.894 683.307 205.038 670.603 C 172.264 644.343 183.182 607.484 144.088 546.257 C 104.994 485.03 68.425 464.854 62.857 347.013 C 57.032 223.728 154.194 52.093 349.567 52.093 C 572.38 52.093 647.105 259.873 637.479 352.978 C 637.479 352.978 640.445 444.741 569.083 534.657 C 497.721 624.573 513.387 695.609 506.459 732.234 C 493.447 801.021 330.908 814.563 240.51 814.487 C 330.496 814.487 493.729 810.066 494.406 875.024 C 495.08 939.703 349.567 928.024 243.221 927.138 C 348.799 928.407 451.739 923.675 496.056 997.347"></path></g></svg>
