<?xml version="1.0" encoding="UTF-8" standalone="no"?>
<!-- Generator: visioncortex VTracer -->

<svg
   id="svg"
   version="1.1"
   style="display: block;"
   viewBox="0 0 3507 733"
   sodipodi:docname="logo-nosse-moulin.svg"
   inkscape:version="1.2.2 (b0a8486541, 2022-12-01)"
   xmlns:inkscape="http://www.inkscape.org/namespaces/inkscape"
   xmlns:sodipodi="http://sodipodi.sourceforge.net/DTD/sodipodi-0.dtd"
   xmlns="http://www.w3.org/2000/svg"
   xmlns:svg="http://www.w3.org/2000/svg">
  <defs
     id="defs435" />
  <sodipodi:namedview
     id="namedview433"
     pagecolor="#ffffff"
     bordercolor="#666666"
     borderopacity="1.0"
     inkscape:showpageshadow="2"
     inkscape:pageopacity="0.0"
     inkscape:pagecheckerboard="0"
     inkscape:deskcolor="#d1d1d1"
     showgrid="false"
     inkscape:zoom="0.37924152"
     inkscape:cx="1641.4342"
     inkscape:cy="366.52105"
     inkscape:window-width="2357"
     inkscape:window-height="1205"
     inkscape:window-x="26"
     inkscape:window-y="23"
     inkscape:window-maximized="0"
     inkscape:current-layer="svg" />
  <path
     d="m 1935,111 c 30,0 60,0 90,0 10.9287,47.67124 20.925,95.55514 31.5444,143.29639 0.8475,18.03485 11.0657,-11.71392 16.2903,-15.09619 C 2101.6851,196.33706 2130.4326,153.34576 2160,111 c 30.3308,-0.25851 60.6671,0.0353 91,0 -2.5944,23.46663 -10.5193,45.99186 -14.723,69.20868 -17.6231,75.76952 -34.8214,151.64746 -52.5259,227.39284 -0.077,8.23956 -11.6325,2.86784 -17.3693,4.39848 -20.4606,0 -40.9212,0 -61.3818,0 4.6235,-30.54692 13.7206,-60.29451 19.874,-90.5849 6.7838,-34.34065 16.857,-68.01217 23.126,-102.4151 -24.5033,38.8573 -50.669,76.76119 -75.1404,115.56976 -8.0276,16.31376 -30.663,5.23947 -45.4172,7.82542 -17.2584,5.51723 -16.7469,-10.09258 -18.8309,-22.55291 -6.6959,-35.34885 -14.5684,-70.52627 -20.6283,-105.96288 -3.7145,-7.91597 -4.7024,20.39341 -7.6412,25.37362 -13.3161,56.8527 -26.1974,113.81095 -39.3864,170.68785 -3.7923,4.43259 -12.6338,0.95571 -18.5513,2.05914 -18.8014,0 -37.6029,0 -56.4043,0 5.679,-30.72156 13.9894,-60.91712 20.5226,-91.47871 C 1902.8322,250.71647 1918.6333,180.79159 1935,111 Z"
     style="fill:#4cb0a8"
     id="path380" />
  <path
     d="m 585.64555,110.87558 c 27.1181,0.0548 54.23633,0.0697 81.35445,0.12442 18.84736,40.94589 36.37904,82.5193 54.48437,123.81055 C 728.72916,250.80544 734.74279,267.62658 743,283 c 12.57836,-56.84518 26.30682,-113.43191 38.85654,-170.27928 15.04565,-4.34467 34.2053,-0.49988 50.79165,-1.76523 13.3698,-0.84815 28.21589,-2.63485 19.56284,14.65201 -25.31495,110.85598 -50.82845,221.6614 -76.45204,332.44694 -5.9228,13.1405 -2.39201,37.39475 -15.92574,42.94556 -11.74157,-7.69322 -13.91879,-28.14493 -21.4741,-40.8494 C 702.83925,375.65433 666.27983,291.59664 631,207 c -5.39508,12.9128 -6.79066,30.86887 -11.2391,45.39524 -12.59843,52.92666 -24.11972,106.11403 -36.65105,159.05325 -17.4559,3.85843 -38.36636,0.50064 -57.14428,1.58607 -12.82382,2.25604 -19.11774,-0.78136 -13.0472,-13.80126 19.2906,-84.29619 38.911,-168.51971 58.22933,-252.80983 6.03506,-9.64568 0.42593,-35.10082 14.49785,-35.54789 z"
     style="fill:#4cb0a8"
     id="path382" />
  <path
     id="path384"
     style="fill:#4cb0a8"
     d="m 2389.2285,167.20508 c -46.8625,0.89435 -95.0206,21.80068 -121.9796,61.21324 -22.0168,30.85094 -32.0636,69.98081 -28.6702,107.61588 2.5886,29.43434 22.6173,55.21699 49.0648,67.54556 37.7417,17.38798 82.7978,16.83593 121.1197,1.41857 40.3031,-14.92799 69.7182,-50.94795 82.8548,-91.11246 9.1332,-26.27749 12.0668,-55.34493 5.1211,-82.47025 -8.9586,-30.18415 -36.8945,-50.37176 -66.0968,-58.70268 -13.411,-3.96742 -27.4424,-5.70288 -41.4138,-5.50786 z m -4.0371,44.8125 c 19.4168,-1.26297 39.2391,9.87092 46.0896,28.52254 6.4962,18.10825 3.5672,38.15566 -0.4998,56.51247 -6.7277,25.8292 -22.0372,50.17773 -44.4724,65.01158 -17.8653,10.75224 -41.6422,13.14725 -60.4964,3.67428 -18.2327,-10.04083 -23.686,-32.3884 -21.8954,-51.76996 1.4762,-34.32553 16.4113,-69.93237 45.3156,-89.85823 10.6847,-6.98843 23.1213,-11.63854 35.9588,-12.09268 z" />
  <path
     id="path386"
     style="fill:#4cb0a8"
     d="m 1004.4277,166.86719 c -46.83787,-0.14988 -94.70991,20.8038 -122.16744,59.54603 -23.131,31.28789 -34.58714,71.52417 -30.45557,110.27393 2.01396,20.52298 12.14512,39.77802 28.00781,52.93785 27.23584,24.53047 66.18361,28.27637 101.24245,26.32073 56.74925,-5.05085 106.71495,-48.01895 123.69415,-101.88825 7.7489,-24.55802 11.1664,-51.16217 6.6693,-76.65815 -7.5306,-33.3943 -37.4802,-57.21718 -69.5651,-65.50839 -12.1661,-3.38835 -24.8051,-4.98562 -37.4256,-5.02375 z m -2.207,44.6875 c 21.9077,0.24628 42.5754,17.24357 45.195,39.38099 3.6333,30.80984 -5.4606,63.01005 -23.6181,88.07195 -12.4874,16.31673 -29.8913,30.08485 -50.90114,32.43519 -19.59126,2.89892 -42.40298,-4.67919 -50.78246,-23.91504 -9.32369,-19.121 -6.1053,-41.56608 -1.34792,-61.55131 7.04814,-27.71405 24.36335,-53.38119 50.30924,-66.4858 9.56625,-4.99947 20.27356,-8.23893 31.14538,-7.93598 z" />
  <path
     d="m 794,463 c 774.9545,-0.20383 1549.9092,-0.35055 2324.8637,-0.49946 24.2272,47.91837 -94.0829,12.77851 -126.8511,23.11805 C 2258.3418,485.37719 1524.6709,485.26449 791,485 l 0.83426,-11.10742 z"
     style="fill:#4bafa7"
     id="path388" />
  <path
     d="m 3130,172 c 23.6667,0 47.3333,0 71,0 19.2167,44.41615 38.2234,88.93783 58.037,133.08563 4.0259,8.41619 4.3487,-12.90177 6.7303,-17.73317 8.8253,-38.0676 17.5679,-76.17068 26.3045,-114.2484 5.7545,-2.40712 13.2961,-0.67426 19.8481,-1.19316 11.8653,1.41175 29.8213,-2.69571 37.8692,2.16092 -5.3518,33.10804 -15.1484,65.36045 -21.7862,98.23549 -16.0224,68.95699 -31.8458,137.95757 -47.4059,207.02114 -11.2499,13.99752 -16.7608,-15.32383 -21.1511,-22.81577 -28.8361,-68.18894 -57.8131,-136.33664 -86.8882,-204.41308 -3.8624,-12.39066 -3.3694,12.64106 -6.0142,16.35896 -11.1879,47.52224 -21.9547,95.1469 -33.0061,142.70428 -10.2066,6.66517 -27.8008,1.02675 -40.8511,2.88183 -8.6686,-0.40892 -22.6529,3.4769 -15.7703,-9.65359 15.9374,-72.27051 33.0253,-144.28716 49.5577,-216.42407 1.1801,-5.32131 2.3528,-10.64425 3.5263,-15.96701 z"
     style="fill:#4db0a8"
     id="path390" />
  <path
     d="m 2552,172 c 21,0 42,0 63,0 -3.1737,21.67817 -9.9525,42.66013 -14.0394,64.18404 -7.3485,31.53721 -15.0738,63.01955 -21.5871,94.727 -3.4062,16.28677 4.2641,35.99139 22.6265,38.08896 18.0624,1.06233 39.4934,1.56931 52.2476,-13.59912 C 2671.5446,331.73561 2672.0017,301.2471 2680,274 c 7.8734,-34.02909 15.7944,-68.04729 24,-102 21,0 42,0 63,0 -3.6634,23.51884 -10.636,46.35794 -15.3757,69.66853 -9.5512,36.83713 -15.2634,74.77887 -28.3348,110.62077 -10.0494,26.96575 -31.9968,49.73549 -59.9651,57.83265 -25.0134,9.28631 -52.2198,7.4545 -78.368,6.37865 -27.0626,-2.1692 -57.0427,-15.15895 -66.9557,-42.37469 -10.1607,-28.85626 1.4075,-58.90604 7.0952,-87.41672 C 2534.2356,248.51188 2542.7564,210.1752 2552,172 Z"
     style="fill:#4cb0a8"
     id="path392" />
  <path
     d="m 1298,169 c 17.0868,2.45199 33.8123,7.05353 50,13 1.8819,10.5899 -2.9415,20.90511 -4.4375,31.3125 -3.3523,9.69306 -1.5258,34.04747 -16.966,23.25129 -11.9465,-10.32273 -27.2556,-16.15286 -42.1527,-20.76666 -22.5624,-5.43835 -47.8005,-6.74413 -69.2016,3.5281 -12.4809,5.03688 -15.4607,21.96767 -7.0543,31.59326 20.3079,13.50565 45.3885,15.94835 67.844,24.38905 20.0121,7.69211 43.1112,16.94665 51.1737,38.77524 8.4069,26.1085 -0.3623,56.71774 -20.9986,74.78441 -25.2509,23.60395 -61.702,27.76842 -94.7709,28.40545 -31.4035,1.16709 -63.1036,-3.05142 -92.6623,-13.88136 -14.0469,-1.27762 -8.5069,-14.53363 -6.798,-24.06646 2.8385,-12.66857 5.3198,-25.42172 8.0709,-38.10134 12.6935,-4.90305 20.8163,13.25752 32.9142,16.24208 26.4573,13.46594 57.4439,16.42994 86.5609,12.29695 11.8125,-2.07381 25.6944,-9.17686 25.7632,-22.87343 2.5726,-11.26349 -7.5275,-18.67566 -17.2238,-21.49811 -18.1833,-8.4465 -38.3737,-11.14103 -57.288,-17.55466 -15.3257,-4.35498 -31.868,-10.23778 -40.1247,-24.98953 -16.5244,-21.81409 -16.4495,-54.53353 0.7704,-75.98357 19.7808,-27.02159 54.3554,-36.63003 86.1259,-39.91438 20.1306,-1.91424 40.4823,-0.98228 60.4552,2.05117 z"
     style="fill:#4db0a8"
     id="path394" />
  <path
     d="m 1574,182 c 2.3766,10.88574 -2.6512,22.83716 -4.3438,33.92405 -2.0652,7.63078 -2.6547,15.74449 -5.6562,23.07595 -15.2096,-0.32012 -25.5137,-16.66937 -41.1322,-18.96915 -25.9572,-9.36671 -56.4234,-13.17256 -81.8522,-0.34726 -12.8609,5.30597 -15.9896,25.08989 -3.9613,32.83458 22.6451,15.69812 51.8411,15.05281 76.3116,26.71214 18.0579,7.88982 37.5938,19.71286 42.2103,40.40978 5.5489,25.8178 -3.9321,54.5196 -25.1991,70.65387 -30.1875,24.22804 -70.8118,27.96651 -108.1375,26.85881 C 1392.4045,416.45987 1362.366,411.21622 1335,399 c 2.6814,-19.90214 7.8965,-39.36103 12,-59 11.7817,-1.60302 18.1541,11.1322 28.2984,14.95282 20.9827,12.10625 45.3335,17.59788 69.4863,16.37628 15.6003,-0.53483 36.0521,-0.61653 44.9783,-15.75628 7.9297,-13.26244 -1.8562,-27.25261 -15.4598,-30.57922 -29.7059,-12.31742 -64.0798,-14.39588 -89.6545,-35.62121 -14.1953,-10.30496 -20.8575,-28.35374 -18.713,-45.5148 0.042,-22.3378 12.0388,-43.92607 31.2689,-55.42575 38.4545,-25.57642 87.7105,-26.99565 131.8675,-19.32156 15.3448,2.81977 30.4681,7.00448 44.9279,12.88972 z"
     style="fill:#4cb0a8"
     id="path396" />
  <path
     d="m 1625,172 c 58.3333,0 116.6667,0 175,0 -2.8326,15.10662 -6.3945,30.06295 -10,45 -37.6667,0 -75.3333,0 -113,0 -1.9844,14.5214 -6.1279,28.6433 -9,43 34.3333,0 68.6667,0 103,0 -1.9251,15.59615 -5.9972,30.83231 -10,46 -35,0 -70,0 -105,0 -1.3271,18.57369 -8.1903,36.17648 -11.5271,54.41826 -5.2482,8.84129 3.7364,6.29027 9.1644,6.58174 33.4542,0 66.9085,0 100.3627,0 -0.685,15.38625 -5.6395,30.08095 -9,45 -58.3333,0 -116.6667,0 -175,0 3.657,-25.59832 11.8588,-50.2631 16.8214,-75.61616 C 1599.5333,281.5872 1611.9148,226.70754 1625,172 Z"
     style="fill:#4cb0a8"
     id="path398" />
  <path
     d="m 2808,171 c 21,0 42,0 63,0 -4.0906,23.60381 -10.9368,46.62478 -15.6179,70.11687 C 2845.1636,282.6418 2836.8503,324.63715 2826,366 c 37,0 74,0 111,0 -1.3751,15.6733 -5.5784,30.95574 -10,46 -58,0 -116,0 -174,0 5.9903,-34.85128 15.926,-68.88862 23.0321,-103.51971 9.7262,-41.31847 19.2425,-82.68595 28.6519,-124.07701 1.008,-4.49024 1.8461,-9.03224 3.316,-13.40328 z"
     style="fill:#4cb0a8"
     id="path400" />
  <path
     d="m 193,312 c 0,50 0,100 0,150 175,0.33333 350,0.66667 525,1 10.38678,14.82637 9.37432,27.13173 -10.99724,22.02542 -170.92718,0.0882 -341.86249,0.53522 -512.78413,0.30421 -28.0634,-0.89345 -23.86079,-33.09769 -23.58775,-52.77206 0.28569,-34.26871 -1.17884,-68.63138 0.0801,-102.84125 C 175.93473,322.16461 184.98481,316.33557 193,312 Z"
     style="fill:#4bafa7"
     id="path406" />
  <path
     d="m 3023.512,170.87975 c 20.1626,0.0349 40.3253,0.0721 60.488,0.12025 -9.1648,40.54296 -18.4537,81.06051 -28.0158,121.51112 -7.7926,32.96222 -15.3827,65.97081 -23.2478,98.91711 -1.57,6.85927 -3.1535,13.71544 -4.7364,20.57177 -21,0 -42,0 -63,0 6.5248,-30.72567 13.6593,-61.32893 20.8498,-91.9075 6.7696,-29.39689 13.3058,-58.84674 20.5035,-88.14466 4.6649,-19.69057 8.6855,-39.54527 13.5605,-59.17735 0.3824,-1.56595 2.1625,-2.10167 3.5982,-1.89074 z"
     style="fill:#4db0a8"
     id="path408" />
  <path
     d="m 268,46 c 17.16071,15.610856 30.89614,35.039088 40.82978,55.95703 18.62339,40.77475 21.72072,89.53928 3.58009,131.04876 C 303.14124,255.22263 288.35586,275.74536 268,289 c -0.82577,-8.30286 7.53399,-16.59613 8.82808,-25.42513 C 289.11596,226.58184 283.0916,185.1053 263.81129,151.5976 251.40202,129.71639 234.77743,109.96472 214.68054,94.774327 199.67934,83.687659 182.49722,76.041222 164.9873,69.884766 158.14145,66.147371 174.37295,65.789589 177.78889,63.902525 205.23323,57.494744 233.00743,52.546981 260.28149,45.4021 262.85721,44.951901 265.52303,45.167791 268,46 Z"
     style="fill:#efee19"
     id="path410" />
  <path
     d="m 208.6875,277.5 c 19.45398,-0.85647 38.42723,4.28775 56.3125,11.5 -4.39824,3.03774 -14.10467,1.37365 -20.17537,3.53053 -40.02426,6.68613 -75.92294,31.95999 -97.57666,65.9886 -20.80118,33.09086 -28.80085,73.26504 -24.5165,111.94293 -0.23872,5.21866 4.95383,19.27575 -0.41557,17.88078 -22.32217,-23.88871 -44.27594,-48.15087 -66.20917,-72.40397 -5.25245,-7.2772 0.46102,-16.92282 1.93643,-24.80566 9.57925,-28.05783 27.77313,-52.6691 49.26842,-72.78993 17.44049,-15.59809 37.45754,-28.80925 60.22907,-35.05907 13.33849,-3.9091 27.2473,-5.86753 41.14685,-5.78421 z"
     style="fill:#efee19"
     id="path412" />
  <path
     d="m 266,291 c 6.80158,7.44144 11.37091,16.73542 18.84217,23.68288 14.50438,17.26773 34.58337,28.98346 55.9726,35.60313 20.31519,6.66124 41.82571,10.3645 63.20829,7.66235 C 442.1138,353.79361 479.21995,337.59598 507,311 c 0.779,9.36166 -5.24882,18.37279 -6.83523,27.73783 C 493.987,362.62308 485.01731,385.762 479.79752,409.87526 476.58943,416.68951 467.40219,416.30209 461,418 405.80969,430.43267 344.42104,413.85049 304.38049,373.51187 282.85335,353.00011 268.26003,324.53584 265.98744,294.75002 265.97824,293.50003 265.97995,292.24989 266,291 Z"
     style="fill:#efee19"
     id="path414" />
  <path
     d="m 2907.625,519.6875 c 13.6558,-0.078 27.7291,0.68094 40.375,6.3125 -1.0847,8.84574 -3.1397,17.56243 -6,26 -9.4708,-1.46255 -17.0992,-8.35131 -26.6945,-9.50395 -8.0211,-1.01954 -16.5605,-1.79883 -24.2886,1.07327 -6.9513,0.8091 -8.7783,11.44409 -1.7415,13.32366 12.91,4.73016 26.9415,6.04248 39.49,11.80033 4.8762,2.63661 8.2084,7.57811 10.5078,12.43132 3.3865,12.07214 -1.5666,25.6252 -11.6125,33.02157 -14.2435,10.76439 -32.8866,12.65426 -50.1919,12.34513 -12.468,-0.41885 -24.8901,-2.9017 -36.6205,-7.08043 -3.2492,-2.84609 -1.0634,-8.11147 -0.3869,-11.91689 1.1912,-5.16196 2.3404,-10.33361 3.5386,-15.49401 3.6304,-1.70458 7.2336,-0.33333 9.9207,2.27251 12.4121,8.69867 28.4489,10.24874 43.0939,8.12205 3.5282,-1.26463 10.1344,-0.50375 9.4016,-5.72432 -0.01,-2.20185 1.8335,-5.38793 -1.5806,-5.81324 -14.3975,-7.45853 -32.4023,-6.3945 -45.0823,-17.35824 -2.7074,-2.51281 -5.1092,-5.52545 -6.8345,-8.76492 -2.8164,-9.04149 -1.7063,-19.71556 4.8063,-26.9579 8.4816,-11.07497 22.225,-16.85867 35.9113,-17.64096 4.6504,-0.40956 9.323,-0.47063 13.9886,-0.44748 z"
     style="fill:#4db0a8"
     id="path416" />
  <path
     d="m 3398.625,519.6875 c 13.6553,-0.0788 27.7293,0.68134 40.375,6.3125 -1.66,8.71772 -1.6669,18.03662 -6,26 -7.9288,-1.26138 -14.5579,-6.32175 -22.3303,-8.18462 -9.4822,-2.74529 -20.1599,-3.95248 -29.4571,0.0195 -5.4601,1.45914 -7.6914,9.13973 -2.646,12.30929 8.4331,4.94403 18.7129,4.29234 27.7301,7.6363 9.0915,2.79272 18.4155,7.74507 23.1796,16.30659 2.1683,6.72674 1.2177,14.10354 -0.4297,20.82727 -4.8376,12.68657 -18.2018,19.14745 -30.4447,22.70901 -21.0312,5.69358 -43.9655,4.40061 -64.2733,-3.43925 -7.5809,-1.38834 -2.463,-9.71319 -2.2832,-14.8608 1.2884,-4.77033 1.7657,-9.847 3.9546,-14.32328 7.4892,0.69406 12.6759,7.00193 19.6979,9.10136 11.692,4.30666 24.7942,4.55809 36.7927,1.43192 7.0293,0.0461 7.3529,-11.25496 0.4827,-12.29904 -11.8688,-3.87247 -24.3171,-6.13101 -35.6701,-11.43932 -7.3346,-3.69233 -14.1717,-10.29644 -14.6348,-18.94659 -0.8789,-7.37752 0.8849,-15.08571 5.7893,-20.81366 9.5289,-12.18582 25.2072,-18.10637 40.3826,-18.23065 3.2597,-0.13235 6.5229,-0.13273 9.7847,-0.11652 z"
     style="fill:#4db0a8"
     id="path418" />
  <path
     d="m 3331.5432,482.71875 c 7.4737,0.41196 15.1667,-0.78836 22.4568,1.28125 -1.0158,6.9705 -0.6329,14.34203 -3.2344,20.95312 -4.487,4.78066 -12.5989,-0.93002 -18.6193,0.70056 -5.6271,1.18459 -12.6079,2.28404 -14.5499,8.6108 -0.9417,3.03035 -4.9143,9.18801 0.7924,7.73552 6.8704,0 13.7408,0 20.6112,0 -1.1006,7.44803 -2.8157,14.79712 -5,22 -8,0 -16,0 -24,0 -1.0503,11.83148 -5.003,23.12366 -7.4565,34.69462 -3.4111,14.00948 -6.2467,28.15612 -9.5784,42.17937 -0.4179,3.51921 -4.3278,1.67158 -6.7261,2.12601 -9.0797,0 -18.1593,0 -27.239,0 4.6481,-23.68208 10.9773,-46.98883 15.9471,-70.60246 0.3521,-3.57232 4.4644,-9.96493 -1.6748,-8.39754 -3.0908,0 -6.1815,0 -9.2723,0 1.1975,-7.35706 2.4966,-14.69882 4,-22 5,0 10,0 15,0 -0.1036,-12.65664 7.1787,-24.68769 16.9793,-32.31138 9.1419,-6.54869 20.7126,-7.25732 31.5639,-6.96987 z"
     style="fill:#4eb0a8"
     id="path420" />
  <path
     d="m 225,139 c 8.05112,3.30449 8.61839,15.16616 1.97547,20.17519 -10.87551,10.0454 -22.9546,18.70948 -34.16258,28.38617 C 169.54182,206.70742 146.32003,225.91354 123,245 c 15.82218,0.40005 31.69555,-0.0519 47.48421,0.95934 10.72048,1.11556 19.68608,9.78593 21.44109,20.35466 1.09052,5.99329 3.28913,14.25116 -5.77143,13.3944 -4.56136,-0.0458 -13.00036,5.22117 -15.39429,1.72895 -0.58653,-3.81243 -1.17305,-7.62485 -1.75958,-11.43728 -16.55997,-0.3567 -33.15083,-0.0412 -49.69106,-0.8801 -9.48211,-0.66805 -20.34371,-5.67919 -22.14206,-16.0043 -2.44547,-10.11427 2.7549,-20.46407 10.80281,-26.50204 35.23499,-28.04727 69.64995,-57.12118 104.59988,-85.51381 C 216.14851,138.4919 220.76779,137.9876 225,139 Z"
     style="fill:#4eb0a8"
     id="path422" />
  <path
     d="m 3061,527 c -1.0731,8.97905 -2.826,17.91639 -5.3245,26.59812 -3.8787,4.94769 -9.9939,-1.12141 -13.3164,-4.26175 -8.3521,-6.237 -19.7668,-6.86344 -29.5939,-4.43814 -13.5486,3.99146 -22.0837,18.18836 -22.0354,31.91286 -0.3085,6.52182 -0.2087,13.99032 4.2806,19.16357 7.6616,7.74866 19.7195,7.36733 29.405,4.36237 6.1136,-1.83694 12.0186,-4.80722 16.5846,-9.33703 2.8681,0.12923 7.7014,-1.28795 5.5844,3.28877 -1.2525,7.26895 -1.1276,15.0011 -4.161,21.82628 -3.1519,5.41016 -10.0041,5.16221 -15.1109,7.57245 -16.2597,5.09039 -34.384,3.92759 -50.0613,-2.62682 -12.1708,-6.05763 -21.313,-18.50285 -22.0026,-32.26037 -1.7498,-16.54941 3.4755,-33.75129 14.702,-46.12486 16.4631,-18.52271 42.8224,-25.91767 66.9555,-22.95068 8.3628,1.02668 16.6242,3.33108 24.0939,7.27523 z"
     style="fill:#4db0a8"
     id="path424" />
  <path
     d="m 3184,483 c 11,0 22,0 33,0 -7.8833,39.60474 -17.7857,78.77056 -26.6324,118.16495 -1.829,7.26708 -3.0484,14.70112 -5.3676,21.83505 -11,0 -22,0 -33,0 2.3879,-17.12051 7.659,-33.63586 11.211,-50.52052 C 3169.6313,542.53325 3177.0898,512.83272 3184,483 Z"
     style="fill:#4db0a8"
     id="path426" />
  <path
     d="m 3084,522 c 11,0 22,0 33,0 -0.8145,4.3171 -2.4156,8.54786 -2,13 10.8764,-7.53729 23.556,-13.3186 37.0346,-13.12334 3.4723,-0.48945 6.1585,0.0354 4.5408,4.04137 -1.1302,9.16347 -3.5274,18.09757 -5.5754,27.08197 -11.3297,0.19776 -22.8335,-1.17761 -34.0106,1.22031 -2.3965,2.00073 -7.9768,-1.10792 -8.2742,2.42851 -3.8266,20.65609 -9.0006,41.0324 -13.5322,61.53955 -0.2282,3.34292 -1.2288,5.73528 -4.8084,4.81163 -9.7915,0 -19.5831,0 -29.3746,0 1.6231,-14.12052 5.599,-27.81366 8.6292,-41.66732 C 3074.3273,561.53299 3079,541.72626 3084,522 Z"
     style="fill:#4eb0a8"
     id="path428" />
  <path
     d="M0 0 C0.33 0.99 0.66 1.98 1 3 C-2.05269846 4.52634923 -4.75845689 3.83794444 -8.125 3.5625 C-9.40632813 3.46066406 -10.68765625 3.35882813 -12.0078125 3.25390625 C-13.48894531 3.12822266 -13.48894531 3.12822266 -15 3 C-15 2.67 -15 2.34 -15 2 C-14.00097656 1.93941406 -13.00195312 1.87882812 -11.97265625 1.81640625 C-10.68230469 1.73261719 -9.39195312 1.64882813 -8.0625 1.5625 C-6.77472656 1.48128906 -5.48695313 1.40007812 -4.16015625 1.31640625 C-1.13976043 1.35080812 -1.13976043 1.35080812 0 0 Z "
     transform="translate(266,288)"
     style="fill: #F8F79E;"
     id="path430" />
</svg>
