<svg xmlns="http://www.w3.org/2000/svg" viewBox="0 0 283.46 283.46"><defs><style>.cls-1{isolation:isolate;}.cls-2{mix-blend-mode:color-burn;}.cls-3{fill:#e90000;}.cls-4{fill:#a4e0e7;}.cls-5{fill:#71ced0;}.cls-6{fill:#00c6c1;}.cls-7{fill:#fff;}</style></defs><g class="cls-1"><g id="Calque_1" data-name="Calque 1"><path d="M13.67,202.25a.92.92,0,0,1,.91-.92H20.3a1,1,0,0,1,.91.92V227.9H32.64a.92.92,0,0,1,.92.91v5.24a.92.92,0,0,1-.92.91H14.58a.91.91,0,0,1-.91-.91Z"/><path d="M35.48,233.71l15-32.33a1,1,0,0,1,.82-.53h.48a1,1,0,0,1,.82.53l15,32.33a.85.85,0,0,1-.82,1.25H61.51c-.86,0-1.25-.29-1.68-1.2L58.1,230H45l-1.73,3.85A1.8,1.8,0,0,1,41.58,235H36.29A.85.85,0,0,1,35.48,233.71Zm19.74-10.28-3.65-7.93h0l-3.6,7.93Z"/><path d="M79.17,202.25a.92.92,0,0,1,.91-.92H100a.92.92,0,0,1,.91.92v5.23a.91.91,0,0,1-.91.91H86.66v6.92h11a1,1,0,0,1,.91.92v5.23a.94.94,0,0,1-.91.91h-11v11.68a.94.94,0,0,1-.91.91H80.08a.91.91,0,0,1-.91-.91Z"/><path d="M104.69,202.25a.92.92,0,0,1,.91-.92H120a10.45,10.45,0,0,1,10.47,10.38c0,4.42-2.93,8-7.11,9.65l6.58,12.21a.91.91,0,0,1-.82,1.39h-6.38a.87.87,0,0,1-.77-.43l-6.39-12.73h-3.32v12.25a.94.94,0,0,1-.91.91H105.6a.91.91,0,0,1-.91-.91Zm14.65,13.45a3.86,3.86,0,0,0,3.65-3.85,3.68,3.68,0,0,0-3.65-3.65h-7.11v7.5Z"/><path d="M132.31,202.25a.92.92,0,0,1,.91-.92h19.89a.92.92,0,0,1,.91.92v5.23a.91.91,0,0,1-.91.91H139.8v6h11a.94.94,0,0,1,.91.91v5.24a.91.91,0,0,1-.91.91h-11v6.49h13.31a.91.91,0,0,1,.91.91v5.24a.91.91,0,0,1-.91.91H133.22a.91.91,0,0,1-.91-.91Z"/><path d="M158.53,230.4l2.26-4a1.24,1.24,0,0,1,1.63-.29c.2.1,3.66,2.64,6.83,2.64,1.92,0,3.31-1.2,3.31-2.88,0-2-1.68-3.55-4.95-4.85-4.13-1.63-9.32-4.85-9.32-10.62,0-4.75,3.7-9.56,11.1-9.56a17.82,17.82,0,0,1,10.28,3.61A1.21,1.21,0,0,1,180,206l-2.45,3.7c-.34.53-1.2,1-1.63.63s-3.94-2.89-6.87-2.89a2.79,2.79,0,0,0-3,2.45c0,1.78,1.44,3.13,5.24,4.66s9.7,4.42,9.7,11c0,4.95-4.27,9.94-11.34,9.94-6.24,0-9.7-2.59-10.81-3.7C158.29,231.26,158.15,231.07,158.53,230.4Z"/><path class="cls-2" d="M200.05,200.85a17.27,17.27,0,0,1,17.3,17.34,18,18,0,0,1-8.89,15.14l6.2,9.7a.92.92,0,0,1-.77,1.44H207.4a.9.9,0,0,1-.77-.48l-5.09-8.6c-.57.05-1.15.05-1.49.05a17.3,17.3,0,0,1,0-34.59Zm0,26.9a9.61,9.61,0,1,0-9.56-9.56A9.62,9.62,0,0,0,200.05,227.75Z"/><path d="M200.05,200.85a17.27,17.27,0,0,1,17.3,17.34,18,18,0,0,1-8.89,15.14l6.2,9.7a.92.92,0,0,1-.77,1.44H207.4a.9.9,0,0,1-.77-.48l-5.09-8.6c-.57.05-1.15.05-1.49.05a17.3,17.3,0,0,1,0-34.59Zm0,26.9a9.61,9.61,0,1,0-9.56-9.56A9.62,9.62,0,0,0,200.05,227.75Z"/><path d="M219.78,202.25a1,1,0,0,1,.91-.92h5.91a.92.92,0,0,1,.91.92V221.7a6,6,0,1,0,11.91,0V202.25a.92.92,0,0,1,.92-.92h5.91a1,1,0,0,1,.91.92v19.84a13.69,13.69,0,0,1-27.38,0Z"/><path d="M253.37,202.25a.92.92,0,0,1,.91-.92h19.89a.92.92,0,0,1,.91.92v5.23a.91.91,0,0,1-.91.91H260.86v6h11a.94.94,0,0,1,.91.91v5.24a.91.91,0,0,1-.91.91h-11v6.49h13.31a.91.91,0,0,1,.91.91v5.24a.91.91,0,0,1-.91.91H254.28a.91.91,0,0,1-.91-.91Z"/><path d="M24.32,241.62a.91.91,0,0,1,.87-.91H36.91a16.82,16.82,0,1,1,0,33.63H25.19a.9.9,0,0,1-.87-.91Zm12.11,25.61c5.43,0,9.36-4.28,9.36-9.75s-3.93-9.71-9.36-9.71H31.82v19.46Z"/><path d="M56.1,241.62a1,1,0,0,1,.92-.91h5.9a.92.92,0,0,1,.92.91v19.46a5.87,5.87,0,0,0,5.9,6.05,5.93,5.93,0,0,0,6-6.05V241.62a.91.91,0,0,1,.91-.91h5.91a1,1,0,0,1,.91.91v19.85a13.69,13.69,0,0,1-27.38,0Z"/><path d="M116.72,240.23a16.14,16.14,0,0,1,11.63,4.47.88.88,0,0,1,0,1.34l-3.74,3.9a.85.85,0,0,1-1.2,0,9.8,9.8,0,0,0-6.49-2.45c-5.43,0-9.41,4.51-9.41,9.89a9.51,9.51,0,0,0,9.46,9.75,10.15,10.15,0,0,0,6.44-2.3.94.94,0,0,1,1.25.05l3.74,4a1,1,0,0,1-.05,1.3,16.46,16.46,0,0,1-11.67,4.66,17.3,17.3,0,1,1,0-34.59Z"/><path d="M134.16,241.62a.91.91,0,0,1,.91-.91h5.72a1,1,0,0,1,.91.91v25.66h11.43a.92.92,0,0,1,.92.91v5.24a.92.92,0,0,1-.92.91H135.07a.91.91,0,0,1-.91-.91Z"/><path d="M174.82,241a.92.92,0,0,1,.87-.77h.77a1,1,0,0,1,.81.48l11.15,20.76h.09l11.15-20.76a1.05,1.05,0,0,1,.82-.48h.77a.92.92,0,0,1,.86.77l5.43,32.28a.89.89,0,0,1-.92,1.06H201a1,1,0,0,1-.92-.77l-2.16-14.84h-.09l-8.07,15.56a1.14,1.14,0,0,1-.82.53H188a1,1,0,0,1-.82-.53l-8.12-15.56H179l-2.11,14.84a.94.94,0,0,1-.91.77h-5.67a.89.89,0,0,1-.92-1.06Z"/><path d="M210.88,273.09l15-32.33a1,1,0,0,1,.81-.53h.49a1,1,0,0,1,.81.53l15,32.33a.85.85,0,0,1-.82,1.25h-5.33c-.86,0-1.25-.29-1.68-1.2l-1.73-3.8H220.44l-1.73,3.85a1.8,1.8,0,0,1-1.73,1.15H211.7A.85.85,0,0,1,210.88,273.09Zm19.75-10.28L227,254.88h0l-3.61,7.93Z"/><path d="M248.08,247.77h-6.87a.92.92,0,0,1-.92-.91v-5.24a.92.92,0,0,1,.92-.91h21.33a.92.92,0,0,1,.91.91v5.24a.91.91,0,0,1-.91.91h-6.87v25.66a1,1,0,0,1-.92.91H249a.94.94,0,0,1-.91-.91Z"/><path class="cls-3" d="M161.67,266.62a3.83,3.83,0,0,1,4,3.86,4,4,0,0,1-3.86,4,4,4,0,0,1-4-3.92A3.87,3.87,0,0,1,161.67,266.62Z"/><path class="cls-3" d="M157.25,240.07h9c0,.35.06.69.05,1-.24,6.41-2.38,12.82-2.59,19.23,0,1.1-.38,1.53-1.51,1.44s-.39,0-1.51-.06c-.31,0-.84-.46-.85-.73-.32-6.87-2.45-13.75-2.72-20.63C157.12,240.29,157.18,240.22,157.25,240.07Z"/><rect class="cls-4" x="79.43" y="41.15" width="139.94" height="105.83" rx="4.43" transform="translate(35.08 228.59) rotate(-81.84)"/><rect class="cls-5" x="95.61" y="22.13" width="105.83" height="139.94" rx="4.43" transform="translate(-20.07 46.1) rotate(-16.54)"/><rect class="cls-6" x="96.48" y="25.08" width="105.83" height="139.94" rx="4.43" transform="translate(-26.94 111.22) rotate(-37.7)"/><path class="cls-7" d="M102.56,181.24c6.57,4.69,18.26,10.31,30.71,9.92a145,145,0,0,0,38.18-6.84c10-3.48,17.63-6.28,20.94-8.42,3.78-2.44,4.21-4.69,2.47-7-1.88-2.5-9-4.3-12.42-3.72s-16.63,5.5-20.39,3.14-2.79-7.75.82-14.14,33-41.08,34.2-45.07,5.3-12.22-4.42-11.16-13.39,8.59-17.14,13-10.79,9.73-15.1,11.28.24-4.81,4.54-10.39,16.53-24.05,17.5-29.45-.29-13.65-5.94-11c-8.95,4.25-13.63,12.36-18.11,19.09s-11.67,18.92-14.45,20-2.81-.64,2-9.64a151.41,151.41,0,0,0,9.73-23.5c3-8.77,4.08-16.93-6.58-11.42s-16.5,24.46-20.82,31-9.42,21.72-14.15,9.07-4.55-20.78-8.75-25.42c-2.81-3.1-5-2-7,1.71s-1.53,27.71-2.86,35.41S89.93,151,90.62,159C91.43,168.28,96.19,176.71,102.56,181.24Z"/><path class="cls-3" d="M98.82,179.3c6.57,4.68,18.26,10.31,30.71,9.91a144.63,144.63,0,0,0,38.18-6.84c10-3.48,17.63-6.28,20.94-8.42,3.78-2.44,4.21-4.68,2.47-7-1.88-2.5-9-4.3-12.42-3.72s-16.63,5.51-20.39,3.14-2.78-7.75.82-14.14,33.05-41.08,34.2-45.07,5.31-12.22-4.42-11.16-13.39,8.59-17.14,13-10.79,9.73-15.1,11.28.24-4.81,4.54-10.38,16.53-24.06,17.5-29.45-.29-13.66-5.94-11c-9,4.25-13.63,12.36-18.11,19.09s-11.67,18.92-14.45,20-2.81-.64,2-9.64a151.41,151.41,0,0,0,9.73-23.5c2.95-8.77,4.08-16.93-6.58-11.42s-16.5,24.47-20.82,31-9.42,21.72-14.15,9.07-4.55-20.78-8.75-25.42c-2.81-3.1-5-2-7,1.71S93.08,108,91.75,115.65,86.19,149,86.88,157C87.69,166.33,92.46,174.76,98.82,179.3Z"/></g></g></svg>