<?xml version="1.0" encoding="UTF-8" standalone="no"?>
<!-- Generator: visioncortex VTracer -->

<svg
   id="svg"
   version="1.1"
   style="display: block;"
   viewBox="0 0 2000 2000"
   sodipodi:docname="logo-2tonnes.svg"
   inkscape:version="1.2.2 (b0a8486541, 2022-12-01)"
   xmlns:inkscape="http://www.inkscape.org/namespaces/inkscape"
   xmlns:sodipodi="http://sodipodi.sourceforge.net/DTD/sodipodi-0.dtd"
   xmlns="http://www.w3.org/2000/svg"
   xmlns:svg="http://www.w3.org/2000/svg">
  <defs
     id="defs2923" />
  <sodipodi:namedview
     id="namedview2921"
     pagecolor="#ffffff"
     bordercolor="#666666"
     borderopacity="1.0"
     inkscape:showpageshadow="2"
     inkscape:pageopacity="0.0"
     inkscape:pagecheckerboard="0"
     inkscape:deskcolor="#d1d1d1"
     showgrid="false"
     inkscape:zoom="0.72690577"
     inkscape:cx="1247.7546"
     inkscape:cy="1286.274"
     inkscape:window-width="3774"
     inkscape:window-height="2091"
     inkscape:window-x="0"
     inkscape:window-y="0"
     inkscape:window-maximized="1"
     inkscape:current-layer="svg" />
  <path
     d="M 3.5999999e-6,-9.8999998e-6 C 660,-9.8999998e-6 1320,-9.8999998e-6 2000,-9.8999998e-6 2000,659.99999 2000,1320 2000,2000 c -660,0 -1320,0 -1999.9999964000001,0 0,-660 0,-1320.00001 0,-2000.0000098999998 z"
     style="fill:#27423a"
     id="path2876" />
  <path
     d="m 371.8374,993.83887 c 40.47426,-0.0753 80.9488,-0.16765 121.42289,-0.2108 9.37059,0.15616 10.90872,9.95503 10.02985,17.28613 -0.0673,24.6921 0.25777,49.3946 -0.0297,74.0803 0.16622,10.2617 -11.02246,11.1365 -18.7486,10.2857 -69.24437,0.041 -138.49434,0.2706 -207.73534,0.1559 -7.6571,0.2491 -11.17202,-7.5137 -9.81345,-14.1361 3.15129,-14.4367 6.21683,-29.4348 15.42859,-41.4591 5.07265,-8.3219 11.76598,-14.7809 18.9782,-21.2272 12.72529,-10.6143 27.50826,-19.68238 43.7773,-23.49298 8.79966,-1.62185 17.78794,-1.27342 26.69023,-1.28185 z"
     style="fill:#fefefe"
     id="path2878"
     sodipodi:nodetypes="ccscscccccccccccccccccccccccccscssccccccccccccccc" />
  <path
     d="m 430,744 c 8.27798,2.46137 16.83639,3.844 24.63966,7.91932 11.1348,5.81525 22.62035,11.52682 30.69237,20.49425 12.56452,13.95826 23.84667,29.79768 28.41964,48.06368 2.23369,13.10085 1.64487,26.51564 1.09087,39.73376 -3.81345,20.07966 -11.67692,40.07669 -25.48463,53.30697 -11.06519,11.22136 -23.48835,20.0238 -38.35217,26.24034 C 441.2614,943.69757 430.80886,948.00313 420,946 c -9.01928,-3.94582 -5.25024,-14.89705 -6.06314,-22.53955 -0.19999,-55.93914 -0.61377,-111.88643 -0.23833,-167.82164 C 414.32357,746.54824 421.02417,741.33113 430,744 Z"
     style="fill:#fdfdfd"
     id="path2880"
     sodipodi:nodetypes="ssscccccccs" />
  <path
     d="m 1492.388,893.50354 c 4.1309,1.22829 8.4018,1.91825 12.2958,3.95194 5.5566,2.90197 11.2881,5.75219 15.3163,10.22717 6.27,6.96553 11.9001,14.86981 14.1821,23.98499 1.1147,6.53769 0.8209,13.23202 0.5444,19.82818 -1.903,10.02029 -5.8271,19.99931 -12.7175,26.60157 -5.5218,5.59972 -11.7213,9.9924 -19.1387,13.09459 -4.8627,1.96582 -10.0788,4.11437 -15.4727,3.11477 -4.5008,-1.96905 -2.62,-7.43404 -3.0256,-11.24784 -0.1,-27.91506 -0.3063,-55.83418 -0.119,-83.7473 0.3119,-4.53643 3.6557,-7.13991 8.1349,-5.80807 z"
     style="display:block;fill:#fdfdfd;stroke-width:0.499026"
     id="path2880-6"
     sodipodi:nodetypes="ssscccccccs" />
  <path
     d="m 1692.2951,994.66563 c 4.1309,1.22829 8.4018,1.91825 12.2958,3.95194 5.5566,2.90193 11.2881,5.75223 15.3163,10.22713 6.27,6.9656 11.9001,14.8699 14.1821,23.985 1.1147,6.5377 0.8209,13.2321 0.5444,19.8282 -1.903,10.0203 -5.8271,19.9993 -12.7175,26.6016 -5.5218,5.5997 -11.7213,9.9924 -19.1387,13.0946 -4.8627,1.9658 -10.0788,4.1143 -15.4727,3.1147 -4.5008,-1.969 -2.62,-7.434 -3.0256,-11.2478 -0.1,-27.9151 -0.3063,-55.8342 -0.119,-83.7473 0.3119,-4.53643 3.6557,-7.13991 8.1349,-5.80807 z"
     style="display:block;fill:#fdfdfd;stroke-width:0.499026"
     id="path2880-6-2"
     sodipodi:nodetypes="ssscccccccs" />
  <path
     d="m 1635.8679,897.11675 c -4.1309,1.22829 -8.4018,1.91825 -12.2958,3.95194 -5.5566,2.90193 -11.2881,5.75223 -15.3163,10.22713 -6.27,6.9656 -11.9001,14.8699 -14.1821,23.985 -1.1147,6.5377 -0.8209,13.2321 -0.5444,19.8282 1.903,10.0203 5.8271,19.9993 12.7175,26.6016 5.5218,5.5997 11.7213,9.9924 19.1387,13.0946 4.8627,1.9658 10.0788,4.1143 15.4727,3.1147 4.5008,-1.969 2.62,-7.434 3.0256,-11.2478 0.1,-27.9151 0.3063,-55.8342 0.119,-83.7473 -0.3119,-4.53643 -3.6557,-7.13991 -8.1349,-5.80807 z"
     style="display:block;fill:#fdfdfd;stroke-width:0.499026"
     id="path2880-6-2-9"
     sodipodi:nodetypes="ssscccccccs" />
  <path
     d="m 601.51562,841.61182 c 13.13213,-0.0195 26.26529,-0.0343 39.39746,0.007 6.89681,0.64315 5.34844,8.19156 5.46787,13.0986 0.0256,78.44295 0.0358,156.88675 -0.005,235.32945 -1.0036,6.8123 -8.44766,5.1969 -13.42318,5.3541 -12.14423,-0.279 -24.38124,0.5151 -36.47651,-0.3101 -4.31369,-3.8756 -2.24647,-10.5828 -2.74865,-15.866 -0.0378,-77.4238 -0.10334,-154.8482 -0.1026,-232.27164 0.36965,-4.02594 4.31953,-5.6245 7.89039,-5.34164 z"
     style="fill:#fafbfa"
     id="path2882"
     sodipodi:nodetypes="ccccccccccscccccccssccssscsccccccccccccccccccccccccsssccsssccccccc" />
  <path
     d="m 1290.5625,892.6875 c 13.658,0.85959 26.3306,8.87231 34.7833,19.34663 8.9671,11.44515 11.526,26.36742 10.8292,40.56574 0.1118,45.51171 0.2384,91.02363 0.3199,136.53523 -1.1016,9.6957 -12.3883,7.2016 -19.2189,7.3618 -9.821,-0.2727 -19.7293,0.3636 -29.4964,-0.3805 -5.4394,-4.2831 -2.0827,-12.4866 -3.0447,-18.5384 0.077,-60.1699 -0.1606,-120.34837 0.1213,-180.51282 -0.082,-3.18979 3.0465,-4.31001 5.7063,-4.37768 z"
     style="display:inline;fill:#fcfcfc"
     id="path2886" />
  <path
     d="m 1090.3471,892.03333 c 13.658,0.85959 26.3306,8.87231 34.7833,19.34663 8.9671,11.44515 11.526,26.36742 10.8292,40.56574 0.1118,45.51171 0.2384,91.0236 0.3199,136.5352 -1.1016,9.6957 -12.3883,7.2016 -19.2189,7.3618 -9.821,-0.2727 -19.7293,0.3636 -29.4964,-0.3805 -5.4394,-4.2831 -2.0827,-12.4866 -3.0447,-18.5384 0.077,-60.1699 -0.1606,-120.34834 0.1213,-180.51279 -0.082,-3.18979 3.0465,-4.31001 5.7063,-4.37768 z"
     style="display:block;fill:#fcfcfc"
     id="path2886-6" />
  <path
     d="m 1038.1554,891.64196 c -13.658,0.85959 -26.3306,8.87231 -34.7833,19.34663 -8.96707,11.44515 -11.52597,26.36742 -10.82917,40.56574 -0.1118,45.51171 -0.2384,91.02357 -0.3199,136.53517 1.1016,9.6957 12.38827,7.2016 19.21887,7.3618 9.821,-0.2727 19.7293,0.3636 29.4964,-0.3805 5.4394,-4.2831 2.0827,-12.4866 3.0447,-18.5384 -0.077,-60.1699 0.1606,-120.34831 -0.1213,-180.51276 0.082,-3.18979 -3.0465,-4.31001 -5.7063,-4.37768 z"
     style="display:block;fill:#fcfcfc"
     id="path2886-6-7" />
  <path
     d="m 1238.44,892.33924 c -13.658,0.85959 -26.3306,8.87231 -34.7833,19.34663 -8.9671,11.44515 -11.526,26.36742 -10.8292,40.56574 -0.1118,45.51171 -0.2384,91.02359 -0.3199,136.53519 1.1016,9.6957 12.3883,7.2016 19.2189,7.3618 9.821,-0.2727 19.7293,0.3636 29.4964,-0.3805 5.4394,-4.2831 2.0827,-12.4866 3.0447,-18.5384 -0.077,-60.1699 0.1606,-120.34833 -0.1213,-180.51278 0.082,-3.18979 -3.0465,-4.31001 -5.7063,-4.37768 z"
     style="display:block;fill:#fcfcfc"
     id="path2886-6-7-5" />
  <path
     d="m 845.25578,895.03729 c 0.37659,42.1701 0.003,84.37174 0.15129,126.55371 -0.0822,22.6268 0.16202,45.2637 -0.12696,67.8844 -0.63192,8.6177 -11.78738,5.9411 -17.18837,3.3337 -12.57022,-4.938 -22.27896,-15.0789 -29.74693,-26.017 -6.23058,-12.0598 -4.00286,-26.0227 -4.47995,-39.0949 0.13125,-29.69431 -0.24829,-59.39662 0.17962,-89.08612 C 793.94054,931.25449 795.9857,924.16551 800,918 c 8.91039,-11.52972 19.86074,-23.7711 35.33316,-25.22758 3.42712,-0.27679 7.03107,0.31128 9.92262,2.26487 z"
     style="fill:#fbfcfb"
     id="path2896"
     sodipodi:nodetypes="cccccccscsccccccccccccccccccccccsccc" />
  <path
     d="m 1444.304,894.2182 c 0.3766,42.1701 0,84.37174 0.1513,126.5537 -0.082,22.6268 0.162,45.2637 -0.127,67.8844 -0.6319,8.6177 -11.7874,5.9411 -17.1884,3.3337 -12.5702,-4.938 -22.2789,-15.0789 -29.7469,-26.017 -6.2306,-12.0598 -4.0028,-26.0227 -4.4799,-39.0949 0.1312,-29.6943 -0.2483,-59.39661 0.1796,-89.08611 -0.104,-7.35659 1.9412,-14.44557 5.9555,-20.61108 8.9104,-11.52972 19.8607,-23.7711 35.3332,-25.22758 3.4271,-0.27679 7.031,0.31128 9.9226,2.26487 z"
     style="display:block;fill:#fbfcfb"
     id="path2896-35"
     sodipodi:nodetypes="cccccccscsccccccccccccccccccccccsccc" />
  <path
     d="m 884.89548,894.96202 c -0.37659,42.1701 -0.003,84.37174 -0.15129,126.55368 0.0822,22.6268 -0.16202,45.2637 0.12696,67.8844 0.63192,8.6177 11.78738,5.9411 17.18837,3.3337 12.57022,-4.938 22.27896,-15.0789 29.74693,-26.017 6.23058,-12.0598 4.00286,-26.0227 4.47995,-39.0949 -0.13125,-29.69428 0.24829,-59.39659 -0.17962,-89.08609 0.10394,-7.35659 -1.94122,-14.44557 -5.95552,-20.61108 -8.91039,-11.52972 -19.86074,-23.7711 -35.33316,-25.22758 -3.42712,-0.27679 -7.03107,0.31128 -9.92262,2.26487 z"
     style="display:block;fill:#fbfcfb"
     id="path2896-3"
     sodipodi:nodetypes="cccccccscsccccccccccccccccccccccsccc" />
  <path
     d="m 694.36963,892.75708 c 12.58338,0.006 25.17127,0.094 37.75196,0.0862 3.49153,-0.99552 3.6247,3.74617 4.21293,6.03748 1.2133,8.75987 -3.19461,17.16391 -8.60962,23.72923 -6.68548,7.93717 -14.97253,14.81083 -24.64397,18.75583 -4.46107,1.73726 -9.34599,2.13497 -14.08093,1.63414 -2.27098,-1.32062 -3.64477,-3.88737 -3.34871,-6.50306 0.0981,-13.83215 0.2129,-27.66482 0.34871,-41.49694 2.52385,-1.53833 5.40941,-2.33769 8.36963,-2.24292 z"
     style="fill:#fcfcfc"
     id="path2912"
     sodipodi:nodetypes="ccccccccccssscccccccccc" />
  <path
     d="m 1492.0046,1045.0473 c 12.5834,0.01 25.1713,0.094 37.752,0.086 3.4915,-0.9956 3.6247,3.7461 4.2129,6.0374 1.2133,8.7599 -3.1946,17.1639 -8.6096,23.7293 -6.6855,7.9371 -14.9725,14.8108 -24.644,18.7558 -4.461,1.7372 -9.346,2.135 -14.0809,1.6341 -2.271,-1.3206 -3.6448,-3.8873 -3.3487,-6.503 0.098,-13.8322 0.2129,-27.6648 0.3487,-41.497 2.5239,-1.5383 5.4094,-2.3377 8.3696,-2.2429 z"
     style="display:block;fill:#fcfcfc"
     id="path2912-1"
     sodipodi:nodetypes="ccccccccccssscccccccccc" />
  <path
     d="m 1692.4381,943.62587 c 12.5834,-0.01 25.1713,-0.094 37.752,-0.086 3.4915,0.9956 3.6247,-3.7461 4.2129,-6.0374 1.2133,-8.7599 -3.1946,-17.1639 -8.6096,-23.7293 -6.6855,-7.9371 -14.9725,-14.8108 -24.644,-18.7558 -4.461,-1.7372 -9.346,-2.135 -14.0809,-1.6341 -2.271,1.3206 -3.6448,3.8873 -3.3487,6.503 0.098,13.8322 0.2129,27.6648 0.3487,41.497 2.5239,1.5383 5.4094,2.3377 8.3696,2.2429 z"
     style="display:block;fill:#fcfcfc"
     id="path2912-1-2"
     sodipodi:nodetypes="ccccccccccssscccccccccc" />
  <circle
     style="fill:#b88860;stroke-width:1.6;stroke-linecap:round;stroke-linejoin:round;stop-color:#000000;fill-opacity:1"
     id="path3148"
     cx="319.3331"
     cy="845.2652"
     r="51" />
  <ellipse
     style="fill:#b88860;fill-opacity:1;stroke-width:1.64329;stroke-linecap:round;stroke-linejoin:round;stop-color:#000000"
     id="path3841"
     cx="1618.001"
     cy="1070.4355"
     rx="25.381155"
     ry="25.465456" />
</svg>
