<?xml version="1.0" encoding="UTF-8" standalone="no"?>
<svg
   version="1.1"
   viewBox="0.00 0.00 984.00 1080.00"
   id="svg3505"
   sodipodi:docname="logo_Fresque-verti-couleurs-fondTrans.svg"
   inkscape:version="1.2.2 (b0a8486541, 2022-12-01)"
   xmlns:inkscape="http://www.inkscape.org/namespaces/inkscape"
   xmlns:sodipodi="http://sodipodi.sourceforge.net/DTD/sodipodi-0.dtd"
   xmlns="http://www.w3.org/2000/svg"
   xmlns:svg="http://www.w3.org/2000/svg">
  <defs
     id="defs3509" />
  <sodipodi:namedview
     id="namedview3507"
     pagecolor="#ffffff"
     bordercolor="#666666"
     borderopacity="1.0"
     inkscape:showpageshadow="2"
     inkscape:pageopacity="0.0"
     inkscape:pagecheckerboard="0"
     inkscape:deskcolor="#d1d1d1"
     showgrid="false"
     inkscape:zoom="0.532949"
     inkscape:cx="505.6769"
     inkscape:cy="519.74954"
     inkscape:window-width="1452"
     inkscape:window-height="991"
     inkscape:window-x="26"
     inkscape:window-y="23"
     inkscape:window-maximized="0"
     inkscape:current-layer="svg3505" />
  <path
     id="path3403"
     d="M 440.43164 185.95312 C 432.40663 185.99428 424.21552 186.66448 415.85938 187.96094 C 354.56004 197.47083 294.2587 225.33039 252.86914 271.33984 C 227.15947 299.91962 209.74914 335.46963 205.36914 373.2793 C 202.78914 395.52564 203.74081 416.9696 208.2207 437.60938 C 217.06726 478.36217 237.87119 511.93397 270.63086 538.32031 C 278.67075 544.79031 287.69972 543.92953 295.59961 538.01953 C 314.29939 524.01308 333.83277 511.13718 354.19922 499.39062 A 1.62 1.57 82.9 0 0 354.93945 498.41016 C 359.53945 480.93027 361.42927 463.81686 360.60938 447.07031 C 360.03938 435.55042 357.61927 423.54903 351.60938 413.61914 C 342.47938 398.54936 322.45931 391.15094 306.01953 389.21094 C 305.73286 389.1776 305.58365 389.01714 305.57031 388.73047 L 304.73047 371.56055 A 0.34 0.34 0 0 1 305.18945 371.2207 L 340.88086 384.61914 C 341.42753 384.81914 341.59729 384.64927 341.39062 384.10938 L 326.15039 343.82031 C 326.01039 343.44031 326.14411 343.25 326.55078 343.25 L 340.75 343.25 C 341.13667 343.25 341.39596 343.43721 341.5293 343.81055 C 344.57919 352.67044 361.72081 399.3493 371.9707 399.5293 C 382.56059 399.7193 402.3593 316.27955 405.0293 305.00977 C 405.1093 304.6631 405.32635 304.49023 405.67969 304.49023 L 420.93945 304.50977 C 421.25279 304.50977 421.35047 304.65279 421.23047 304.93945 L 410.58008 331.56055 A 0.52 0.52 0 0 0 411.03906 332.2793 L 433.21094 333.15039 C 433.57094 333.16372 433.75 333.35094 433.75 333.71094 L 433.75977 342.60938 A 0.58 0.57 82.9 0 1 433.33008 343.16992 L 407.40039 350.24023 A 2.09 2.08 9.5 0 0 406.18945 351.09961 C 402.35956 356.7295 403.97055 364.37011 407.31055 370 C 412.59044 378.89989 423.1705 380.83992 432.65039 379.41992 C 443.57695 377.79326 456.38386 375.61419 471.07031 372.88086 C 471.19698 372.86086 471.25667 372.9093 471.25 373.0293 L 471.24023 381.50977 A 0.34 0.35 82.2 0 1 470.98047 381.83984 C 455.34058 385.71317 441.17059 390.49303 428.4707 396.17969 C 420.27081 399.85958 410.80906 404.95964 405.03906 412.01953 C 399.88917 418.33942 398.62977 429.00016 398.50977 437.16016 C 398.3431 448.67328 399.48922 461.37321 401.94922 475.25977 A 0.51 0.5 73.7 0 0 402.64062 475.64062 C 430.3504 464.14084 460.60103 456.59094 490.7207 456.46094 C 499.60726 456.42094 506.09622 456.8531 510.18945 457.75977 C 522.43934 460.46966 533.74956 468.19941 538.93945 479.5293 C 547.82934 498.96908 535.14939 515.10081 517.34961 521.9707 C 516.54961 522.27737 516.33255 522.04286 516.69922 521.26953 C 519.55922 515.17964 523.54945 508.06911 523.43945 500.94922 C 523.29945 492.55933 516.77942 488.49906 509.51953 486.53906 C 481.97986 479.11917 462.63906 500.25952 461.03906 526.0293 C 460.12906 540.70908 468.77053 552.43097 481.82031 558.63086 C 493.6702 564.25075 508.18967 564.05075 520.18945 557.88086 C 582.88879 525.66119 616.97961 464.89017 614.34961 394.21094 C 612.58294 346.87805 599.33572 303.88956 574.60938 265.25 C 559.76949 242.07022 541.59319 223.49575 520.08008 209.5293 C 495.6428 193.66483 469.09244 185.80625 440.43164 185.95312 z M 428.0625 256.18555 A 0.82 0.81 66.5 0 1 428.68945 256.64062 C 436.39945 272.40057 429.30037 285.59966 413.98047 291.59961 C 413.5938 291.75294 413.31086 291.64596 413.13086 291.2793 C 405.51091 275.89935 412.05002 262.14042 427.66992 256.23047 A 0.82 0.81 66.5 0 1 428.0625 256.18555 z M 374.45898 270.0918 C 389.00289 270.12795 397.63487 280.11667 398.57031 295.21094 C 398.59698 295.6976 398.37062 295.98055 397.89062 296.06055 C 381.22074 298.94049 369.74023 287.43074 369.24023 271.13086 C 369.2269 270.69086 369.43581 270.44396 369.86914 270.39062 C 370.95101 270.2513 372.00621 270.16119 373.0332 270.11914 C 373.51461 270.09943 373.98982 270.09063 374.45898 270.0918 z M 463.4375 278.72852 C 464.91626 278.71809 466.44 278.80461 468 278.99023 C 468.48 279.05023 468.71255 279.32388 468.69922 279.81055 C 468.19922 296.83047 455.60914 306.47945 439.19922 303.93945 C 438.88589 303.88612 438.73047 303.70086 438.73047 303.38086 C 438.94922 288.47965 448.45413 279.4656 461.97461 278.77148 C 462.45748 278.74669 462.94458 278.73199 463.4375 278.72852 z M 317.35156 290.05859 A 0.83 0.83 0 0 1 317.7207 290.24023 C 322.4607 294.28023 326.04031 298.72078 327.49023 304.9707 C 329.43023 313.30062 325.33078 322.26039 319.30078 328.07031 C 319.03411 328.32365 318.75427 328.33914 318.46094 328.11914 C 304.84102 317.92922 305.17 302.02898 316.58984 290.28906 A 0.83 0.83 0 0 1 317.35156 290.05859 z M 359.66016 296.53516 C 359.93645 296.54132 360.13953 296.69976 360.26953 297.00977 C 367.09946 313.42963 359.29924 325.78069 343.85938 331.14062 A 0.82 0.82 0 0 1 342.84961 330.71094 C 335.87968 315.06101 343.61945 301.40001 359.35938 296.58008 C 359.46766 296.54841 359.56806 296.5331 359.66016 296.53516 z M 269.24023 307.9707 C 286.67014 307.7007 296.01094 319.44979 294.96094 336.09961 C 294.9276 336.55961 294.6807 336.79411 294.2207 336.80078 C 276.78088 337.09078 267.20992 325.00959 268.66992 308.50977 C 268.70326 308.15643 268.89357 307.97737 269.24023 307.9707 z M 492.51953 323.06055 A 0.39 0.4 71.9 0 1 492.98047 323.28906 C 499.63044 339.25903 491.19994 352.93956 475.25 357.01953 C 474.85 357.1262 474.57635 356.98318 474.42969 356.58984 C 468.23969 340.2499 476.50959 327.26052 492.51953 323.06055 z M 256.75391 338.45117 C 257.75709 338.45026 258.75625 338.51664 259.75 338.65039 C 268.7399 339.85039 275.70055 347.11088 279.06055 355.30078 C 279.22055 355.69411 279.11357 355.99255 278.74023 356.19922 C 263.65043 364.55912 249.63062 358.41941 243.14062 343.09961 C 242.98738 342.72628 243.08612 342.44333 243.43945 342.25 C 247.61945 339.915 251.72375 338.65711 255.75 338.47461 C 256.08552 338.4594 256.41951 338.45148 256.75391 338.45117 z M 501.19336 365.81445 C 507.90084 365.8307 514.70477 369.00447 520.50977 374.93945 A 0.72 0.73 42.2 0 1 520.55078 375.91016 C 509.4908 389.32012 494.10021 388.18959 482.49023 376.34961 A 0.53 0.54 42.4 0 1 482.46094 375.64062 C 487.87592 368.94064 494.48588 365.7982 501.19336 365.81445 z M 285.96094 373.57031 C 286.30094 373.53698 286.50055 373.6893 286.56055 374.0293 C 289.77044 390.98908 279.16056 402.49992 262.55078 403.66992 A 0.71 0.72 83.8 0 1 261.80078 403.07031 C 259.07078 385.52053 269.44105 374.88031 285.96094 373.57031 z M 483.41992 394.25 C 495.54739 394.56043 504.12172 402.99306 506.33984 416.5293 A 0.6 0.6 0 0 1 505.90039 417.21094 C 492.9004 420.7376 483.31705 416.83952 477.15039 405.51953 C 475.72373 402.9062 474.73612 399.67674 474.18945 395.83008 C 474.14945 395.59008 474.25023 395.43581 474.49023 395.36914 C 477.63273 394.53852 480.62127 394.17836 483.41992 394.25 z "
     style="fill:#ff7810;fill-opacity:1" />
  <g
     id="g4200">
    <g
       id="g5348">
      <path
         fill="#402021"
         d="   M 228.25 686.60   L 228.25 710.41   A 0.35 0.35 0.0 0 1 227.90 710.76   L 214.85 710.75   A 0.35 0.35 0.0 0 1 214.50 710.40   L 214.50 645.60   A 0.35 0.35 0.0 0 1 214.85 645.25   L 258.90 645.25   A 0.35 0.35 0.0 0 1 259.25 645.60   L 259.25 657.15   A 0.35 0.35 0.0 0 1 258.90 657.50   L 228.60 657.50   A 0.35 0.35 0.0 0 0 228.25 657.85   L 228.25 673.40   A 0.35 0.35 0.0 0 0 228.60 673.75   L 253.40 673.75   A 0.35 0.35 0.0 0 1 253.75 674.10   L 253.75 685.90   A 0.35 0.35 0.0 0 1 253.40 686.25   L 228.60 686.25   A 0.35 0.35 0.0 0 0 228.25 686.60   Z"
         id="path3427" />
      <path
         id="path3429"
         d="M 336.85742 659.92969 C 335.22262 659.91975 333.53906 660.05133 331.82031 660.33008 C 320.49032 662.17008 312.26984 672.45962 311.33984 683.84961 C 309.42985 707.23959 335.12041 719.92944 353.65039 706.93945 C 354.49039 706.35945 355.09078 705.99055 355.05078 704.81055 C 354.89745 701.19722 354.95404 697.84953 355.2207 694.76953 A 0.44 0.44 0 0 0 354.50977 694.39062 C 348.65977 699.17062 340.46984 702.20008 333.08984 699.83008 C 328.54985 698.37008 325.55604 695.2507 324.10938 690.4707 A 0.37 0.37 0 0 1 324.46094 690 L 358.81055 690 C 359.30388 690 359.55698 689.7531 359.57031 689.25977 C 359.67698 685.04644 359.5576 681.79643 359.21094 679.50977 C 357.34719 667.03228 348.30104 659.99928 336.85742 659.92969 z M 335.86914 671.13086 L 336.13086 671.13086 A 9.9 11.23 89.7 0 1 347.41992 680.9707 L 347.41992 681.06055 A 0.13 0.13 0 0 1 347.28906 681.18945 L 324.83008 681.31055 A 0.13 0.13 0 0 1 324.69922 681.17969 L 324.69922 681.08984 A 9.9 11.23 89.7 0 1 335.86914 671.13086 z "
         style="fill:#402021;fill-opacity:1" />
      <path
         fill="#402021"
         d="   M 382.20 673.45   C 379.23 676.50 382.15 679.78 385.23 680.77   Q 390.08 682.33 394.84 684.07   C 403.47 687.23 406.23 697.38 400.77 704.54   C 393.50 714.08 379.88 713.55 369.88 708.70   Q 368.81 708.18 367.85 707.47   Q 367.25 707.03 367.25 706.28   L 367.25 696.74   Q 367.25 695.90 367.96 696.34   Q 374.84 700.58 382.25 701.09   C 385.48 701.32 390.36 700.18 390.09 696.03   C 389.94 693.75 387.34 692.60 385.48 691.95   Q 380.39 690.16 375.47 688.29   Q 369.32 685.95 368.01 679.23   C 365.95 668.73 373.00 661.29 383.05 660.17   Q 393.42 659.00 401.02 664.13   Q 401.27 664.30 401.27 664.60   Q 401.28 673.56 401.15 675.58   A 0.05 0.04 21.2 0 1 401.08 675.61   C 396.24 672.38 387.12 668.42 382.20 673.45   Z"
         id="path3431" />
      <path
         id="path3433"
         d="M 433.125 659.9082 C 430.49023 659.90204 427.78208 660.4263 425 661.48047 C 413.15001 665.97046 409.3507 678.6397 410.4707 690.17969 C 411.5607 701.48968 418.54923 710.78094 430.19922 711.96094 C 437.39921 712.69094 443.39954 709.88976 447.26953 704.00977 C 447.7562 703.26977 448 703.3438 448 704.23047 L 448 733.25 C 448 733.75 448.25 734 448.75 734 L 460.25 734 C 460.58333 734 460.75 733.83333 460.75 733.5 L 460.75 661.75 C 460.75 661.41 460.58333 661.24023 460.25 661.24023 L 448.75 661.25 C 448.25667 661.25 448.00977 661.5 448.00977 662 L 447.99023 665.48047 C 447.98357 665.98713 447.79016 666.07357 447.41016 665.74023 C 442.91704 661.86399 438.15501 659.91996 433.125 659.9082 z M 435.91406 672.36914 C 440.10406 672.35039 444.46086 674.42485 447.63086 678.08984 C 447.85753 678.34984 447.9738 678.65023 447.98047 678.99023 C 448.15047 685.52023 448.80085 692.02032 443.13086 696.57031 C 436.48087 701.90031 426.92047 699.42905 424.23047 691.03906 C 422.8838 686.8724 423.20279 682.93093 425.18945 679.21094 C 427.69945 674.50094 431.72407 672.38789 435.91406 672.36914 z "
         style="fill:#402021;fill-opacity:1" />
      <path
         id="path3435"
         d="M 555.20898 659.91016 C 553.20923 659.9252 551.14961 660.16367 549.06055 660.63086 C 542.62722 662.06419 537.52023 665.85954 533.74023 672.01953 C 528.21024 681.00952 528.24087 694.03024 535.13086 702.24023 C 544.85085 713.83022 561.0204 715.35093 573.15039 706.21094 A 0.97 0.99 71.6 0 0 573.53906 705.44922 L 573.83008 694.76953 A 0.47 0.46 71.6 0 0 573.08008 694.39062 C 569.50675 697.19729 565.91411 699.06357 562.30078 699.99023 C 554.05079 702.09023 545.57 699.44976 542.75 690.75977 C 542.59 690.2531 542.77412 690 543.30078 690 L 577.71094 690 C 578.0376 690 578.20737 689.83643 578.2207 689.50977 C 578.4407 685.11644 578.2062 681.2707 577.51953 677.9707 C 575.05578 666.23415 566.00768 659.82895 555.20898 659.91016 z M 554.41992 671.13086 L 554.67969 671.13086 A 9.9 11.24 89.7 0 1 565.98047 680.9707 L 565.98047 681.06055 A 0.13 0.13 0 0 1 565.84961 681.18945 L 543.36914 681.31055 A 0.13 0.13 0 0 1 543.24023 681.17969 L 543.24023 681.08984 A 9.9 11.24 89.7 0 1 554.41992 671.13086 z "
         style="fill:#402021;fill-opacity:1" />
      <path
         fill="#402021"
         d="   M 287.32 669.13   C 291.27 662.96 296.55 658.72 304.55 660.77   Q 305.25 660.95 305.25 661.68   L 305.25 674.72   Q 305.25 675.37 304.68 675.08   C 296.93 671.23 291.84 674.81 287.83 681.20   Q 286.72 682.97 286.73 684.85   Q 286.77 697.94 286.75 710.23   A 0.53 0.52 0.0 0 1 286.22 710.75   L 274.75 710.75   A 0.50 0.50 0.0 0 1 274.25 710.25   L 274.25 661.75   A 0.50 0.50 0.0 0 1 274.75 661.25   L 286.25 661.24   A 0.51 0.50 90.0 0 1 286.75 661.75   L 286.75 668.97   Q 286.75 670.02 287.32 669.13   Z"
         id="path3437" />
      <path
         fill="#402021"
         d="   M 487.54 689.75   C 487.62 703.07 506.49 703.26 506.50 688.92   Q 506.51 675.16 506.49 661.77   Q 506.49 661.25 507.02 661.25   L 518.72 661.25   A 0.55 0.55 0.0 0 1 519.27 661.81   Q 519.19 675.51 519.29 691.11   C 519.42 711.18 495.52 717.15 482.09 707.10   C 476.71 703.08 474.64 696.91 474.69 689.97   Q 474.81 675.71 474.72 661.82   Q 474.71 661.25 475.28 661.25   L 486.97 661.25   A 0.55 0.54 -0.0 0 1 487.52 661.79   Q 487.46 677.53 487.54 689.75   Z"
         id="path3439" />
      <path
         id="path3447"
         d="M 248.75 732 C 248.25 732 248 732.25 248 732.75 L 248 757.0293 C 248 757.78263 247.7376 757.89271 247.21094 757.35938 C 242.83094 752.88938 236.1196 751.09063 230.09961 751.89062 C 219.35962 753.31062 212.14039 761.84923 210.65039 772.44922 C 209.03039 783.99921 212.08095 796.27993 222.96094 801.66992 C 231.60093 805.94992 241.51071 804.08929 247.2207 795.7793 C 247.7407 795.03263 248 795.11287 248 796.01953 L 248 801.5 C 248 802 248.25 802.25 248.75 802.25 L 260.25 802.25 C 260.58333 802.25 260.75 802.08333 260.75 801.75 L 260.75 732.61914 C 260.75 732.20581 260.54419 732 260.13086 732 L 248.75 732 z M 235.5918 764.10938 C 239.943 764.04915 244.48477 766.23078 247.61914 769.80078 A 1.57 1.58 24 0 1 248 770.80078 C 248.05 775.15078 248.58078 779.96946 246.55078 783.93945 C 241.57079 793.64944 227.59015 793.93944 224.16016 782.68945 C 222.80016 778.24279 223.28581 774.04317 225.61914 770.08984 C 228.06133 765.96016 231.7525 764.16252 235.5918 764.10938 z "
         style="fill:#402021;fill-opacity:1" />
      <rect
         fill="#402021"
         x="352.50"
         y="732.00"
         width="12.76"
         height="70.24"
         rx="0.38"
         id="rect3449"
         style="fill:#402021;fill-opacity:1" />
      <path
         id="path3451"
         d="M 297.2168 751.61328 C 290.25803 751.72625 283.15437 754.7279 278.14062 760.90039 C 265.97064 775.88038 273.01064 799.07063 292.39062 803.14062 C 300.91062 804.93396 308.61954 803.2076 315.51953 797.96094 C 315.8462 797.71427 316.00667 797.38714 316 796.98047 L 315.99023 786.32031 A 0.32 0.32 0 0 0 315.4707 786.08008 C 310.94404 789.78674 306.14674 791.86078 301.08008 792.30078 C 293.85009 792.92078 287.38015 789.62976 285.16016 782.50977 C 285.00682 782.0031 285.19714 781.75 285.73047 781.75 L 319.98047 781.75 C 320.32047 781.75 320.49333 781.58023 320.5 781.24023 C 320.54667 778.75357 320.53427 776.27721 320.46094 773.81055 C 320.01094 759.26056 308.81473 751.425 297.2168 751.61328 z M 296.88086 762.88086 L 297.11914 762.88086 A 9.92 11.26 89.8 0 1 308.41992 772.75977 L 308.41992 772.83984 A 0.12 0.12 0 0 1 308.30078 772.96094 L 285.7793 773.03906 A 0.12 0.12 0 0 1 285.66016 772.91992 L 285.66016 772.83984 A 9.92 11.26 89.8 0 1 296.88086 762.88086 z "
         style="fill:#402021;fill-opacity:1" />
      <path
         id="path3453"
         d="M 398.86719 751.68555 C 390.0588 751.81357 381.53789 757.43595 378.36914 766.92969 C 373.87915 780.38967 377.29095 798.02079 392.21094 802.80078 C 399.10426 805.00745 405.19071 803.87372 410.4707 799.40039 C 411.8207 798.24039 412.90094 796.75961 413.96094 795.34961 C 414.32094 794.85628 414.5 794.91596 414.5 795.5293 L 414.5 801.75 A 0.5 0.5 0 0 0 415 802.25 L 426.5 802.25 C 426.83333 802.25 427 802.08333 427 801.75 L 427 753.75 A 0.75 0.75 0 0 0 426.25 753 L 414.99023 753 C 414.65023 753 414.48357 753.16977 414.49023 753.50977 L 414.51953 757.5 C 414.51953 758.04 414.32612 758.12023 413.93945 757.74023 C 409.54071 753.51024 404.15222 751.60873 398.86719 751.68555 z M 401.5293 764.08008 C 402.90583 764.01026 404.38914 764.16289 405.9707 764.58008 C 408.5707 765.26674 411.25907 766.96946 414.03906 769.68945 C 414.33906 769.98945 414.49333 770.34953 414.5 770.76953 C 414.59 778.12952 414.77952 785.26977 407.76953 789.50977 C 404.6962 791.3631 401.47914 791.73247 398.11914 790.61914 C 384.84259 786.22383 388.2228 764.75495 401.5293 764.08008 z "
         style="fill:#402021;fill-opacity:1" />
      <circle
         fill="#402021"
         cx="289.73"
         cy="829.05"
         r="8.60"
         id="circle3461"
         style="fill:#402021;fill-opacity:1" />
      <circle
         fill="#402021"
         cx="445.76"
         cy="829.05"
         r="8.60"
         id="circle3463"
         style="fill:#402021;fill-opacity:1" />
      <circle
         fill="#402021"
         cx="672.10"
         cy="829.06"
         r="8.60"
         id="circle3465"
         style="fill:#402021;fill-opacity:1" />
      <path
         id="path3467"
         d="M 408.25 825.25 C 407.91667 825.25 407.75 825.41667 407.75 825.75 L 407.75 850.4707 C 407.75 851.06404 407.53294 851.15667 407.09961 850.75 C 401.41962 845.44001 393.4896 843.57094 386.09961 845.96094 C 373.92962 849.88093 369.45047 861.19939 369.98047 873.35938 C 370.51047 885.53936 377.67923 895.95 390.19922 897 C 397.45921 897.62 403.40946 894.47007 407.18945 888.58008 C 407.55612 888.01341 407.74023 888.07 407.74023 888.75 L 407.75 894.88086 C 407.75 895.29419 407.96086 895.5 408.38086 895.5 L 419.75 895.5 C 420.08333 895.5 420.25 895.33333 420.25 895 L 420.25 825.75 C 420.25 825.41667 420.08333 825.25 419.75 825.25 L 408.25 825.25 z M 395.18555 857.32031 C 399.65429 857.29082 404.25586 859.72969 407.34961 862.96094 C 407.57628 863.20094 407.6976 863.48388 407.71094 863.81055 C 407.8176 866.27721 407.80326 868.75977 407.66992 871.25977 C 407.30992 878.42976 401.94921 884.79945 394.44922 884.43945 C 390.68256 884.25945 387.71745 882.59278 385.55078 879.43945 C 381.48079 873.49946 382.40063 865.46039 387.64062 860.40039 C 389.87187 858.24414 392.5043 857.33801 395.18555 857.32031 z "
         style="fill:#402021;fill-opacity:1" />
      <path
         fill="#402021"
         d="   M 778.56 826.00   L 765.33 839.63   A 0.30 0.30 0.0 0 1 765.11 839.72   L 755.49 839.78   A 0.30 0.30 0.0 0 1 755.24 839.30   L 765.31 825.63   A 0.30 0.30 0.0 0 1 765.55 825.51   L 778.35 825.49   A 0.30 0.30 0.0 0 1 778.56 826.00   Z"
         id="path3469"
         style="fill:#402021;fill-opacity:1" />
      <path
         id="path3471"
         d="M 238.09961 828.50977 C 230.02629 828.5831 222.10339 829.35055 214.33008 830.81055 C 213.94341 830.88388 213.75 831.11953 213.75 831.51953 L 213.75 893.68945 C 213.75 894.04279 213.92286 894.25365 214.26953 894.32031 C 224.92951 896.30031 234.67335 897.07396 243.5 896.64062 C 253.17998 896.16064 264.96969 890.05904 266.42969 879.28906 C 267.59635 870.72908 264.03045 864.94612 255.73047 861.93945 A 0.3 0.3 0 0 1 255.66992 861.41016 C 260.68992 858.19683 263.38953 853.87587 263.76953 848.44922 C 264.77953 834.00924 249.87959 828.39977 238.09961 828.50977 z M 237.11914 841.21875 C 238.16414 841.2175 239.21453 841.24888 240.26953 841.31055 C 244.38953 841.54055 250.09031 843.92961 250.07031 848.84961 C 250.04031 855.50959 244.34078 857.83953 238.55078 857.76953 C 235.01745 857.72953 231.57403 857.72953 228.2207 857.76953 C 227.7407 857.7762 227.5 857.54055 227.5 857.06055 L 227.5 842.50977 C 227.5 842.2631 227.61628 842.12008 227.84961 842.08008 C 230.89461 841.51008 233.98414 841.2225 237.11914 841.21875 z M 235.16211 867.97656 C 237.40044 867.98823 239.49589 868.02651 241.44922 868.08984 C 245.47921 868.22984 251.33078 870.15961 252.05078 874.84961 C 252.91078 880.4696 247.37921 883.72914 242.44922 884.11914 C 237.63589 884.49914 232.82929 884.24604 228.0293 883.35938 A 0.65 0.65 0 0 1 227.5 882.7207 L 227.5 868.53906 C 227.5 868.1924 227.67286 868.01953 228.01953 868.01953 C 230.54286 867.97953 232.92378 867.9649 235.16211 867.97656 z "
         style="fill:#402021;fill-opacity:1" />
      <path
         fill="#402021"
         d="   M 712.75 857.43   Q 712.70 868.11 712.81 878.38   C 712.89 886.51 721.68 885.73 726.30 882.81   Q 727.00 882.37 727.00 883.19   L 727.00 892.00   Q 727.00 892.68 726.50 893.14   Q 723.06 896.24 718.66 896.81   C 706.73 898.35 700.17 891.80 700.22 880.59   Q 700.27 868.32 700.24 857.27   Q 700.24 856.75 699.72 856.75   L 691.75 856.75   Q 691.25 856.75 691.25 856.25   L 691.25 850.79   Q 691.24 850.28 691.72 850.07   C 699.09 846.86 703.75 839.90 706.08 832.27   Q 706.24 831.75 706.79 831.75   L 712.25 831.75   Q 712.75 831.75 712.75 832.25   L 712.75 845.75   Q 712.75 846.25 713.25 846.25   L 726.00 846.25   Q 726.50 846.25 726.50 846.75   L 726.50 856.25   Q 726.50 856.75 726.00 856.75   L 713.44 856.75   Q 712.76 856.75 712.75 857.43   Z"
         id="path3473"
         style="fill:#402021;fill-opacity:1" />
      <path
         id="path3477"
         d="M 335.44531 844.90039 A 26.53 26.11 0.1 0 0 308.86914 870.96289 A 26.53 26.11 0.1 0 0 335.35352 897.11914 A 26.53 26.11 0.1 0 0 361.92969 871.05664 A 26.53 26.11 0.1 0 0 335.44531 844.90039 z M 335.39062 857.10938 A 13.22 13.92 0 0 1 348.60938 871.0293 A 13.22 13.92 0 0 1 335.39062 884.94922 A 13.22 13.92 0 0 1 322.16992 871.0293 A 13.22 13.92 0 0 1 335.39062 857.10938 z "
         style="fill:#402021;fill-opacity:1" />
      <path
         id="path3479"
         d="M 543.35938 844.99023 C 542.56229 844.99781 541.74599 845.03109 540.91016 845.08984 C 529.81017 845.87984 520.77008 855.54915 519.08008 866.36914 C 515.12008 891.83912 542.33096 905.62952 561.96094 891.26953 C 562.32094 891.00953 562.5 890.6576 562.5 890.21094 L 562.50977 879.78906 C 562.50977 879.25573 562.29581 879.1507 561.86914 879.4707 C 559.64248 881.15737 557.48706 882.47326 555.40039 883.41992 C 546.3004 887.52992 535.17961 886.3503 531.59961 875.82031 C 531.41294 875.27365 531.60945 875 532.18945 875 L 566.44922 875 C 566.75589 875 566.91945 874.84573 566.93945 874.53906 C 567.19279 868.87907 566.93039 864.67325 566.15039 861.91992 C 562.91289 850.51993 555.31561 844.87656 543.35938 844.99023 z M 543.25 856.10938 L 543.49023 856.10938 A 9.92 11.23 89.7 0 1 554.7793 865.9707 L 554.7793 866.05078 A 0.14 0.14 0 0 1 554.64062 866.18945 L 532.2207 866.31055 A 0.14 0.14 0 0 1 532.08008 866.16992 L 532.08008 866.08984 A 9.92 11.23 89.7 0 1 543.25 856.10938 z "
         style="fill:#402021;fill-opacity:1" />
      <path
         fill="#402021"
         d="   M 630.32 858.22   C 627.72 860.73 629.15 864.33 632.29 865.39   C 641.90 868.64 653.26 870.56 651.03 884.22   C 649.89 891.26 642.30 895.97 635.81 896.80   Q 625.39 898.12 615.73 892.55   A 0.96 0.94 -75.6 0 1 615.25 891.72   L 615.25 881.75   Q 615.25 880.93 615.95 881.35   C 621.70 884.79 628.74 887.08 634.38 885.57   C 638.76 884.39 639.46 879.24 634.72 877.46   Q 629.25 875.40 624.01 873.56   Q 617.22 871.17 615.79 863.79   C 613.77 853.36 621.49 846.16 631.23 845.12   Q 641.32 844.04 648.99 849.17   Q 649.24 849.34 649.24 849.64   Q 649.29 855.67 649.12 860.61   A 0.04 0.04 0.0 0 1 649.06 860.64   C 643.22 856.85 634.92 853.79 630.32 858.22   Z"
         id="path3481"
         style="fill:#402021;fill-opacity:1" />
      <path
         id="path3483"
         d="M 761.08984 844.93359 C 744.299 844.97979 733.54149 860.26595 736.41992 876.64062 C 737.88992 884.93062 744.51024 892.57071 751.99023 895.2207 C 761.64356 898.63403 770.64048 897.39023 778.98047 891.49023 C 779.4938 891.12357 779.75 890.62357 779.75 889.99023 L 779.75977 879.49023 A 0.24 0.24 0 0 0 779.36914 879.30078 C 772.96915 884.29078 765.08976 887.26062 757.25977 884.64062 C 753.23977 883.30063 750.42078 880.32737 748.80078 875.7207 C 748.62745 875.2407 748.79721 875 749.31055 875 L 783.7207 875 C 784.00737 875 784.15659 874.85698 784.16992 874.57031 C 784.70992 866.14032 783.89906 858.03968 778.03906 851.67969 C 774.42573 847.75969 769.61604 845.54573 763.60938 845.03906 C 762.75531 844.96594 761.91562 844.93132 761.08984 844.93359 z M 760.5293 856.10938 L 760.76953 856.10938 A 9.9 11.23 89.7 0 1 772.06055 865.94922 L 772.06055 866.05078 A 0.14 0.14 0 0 1 771.91992 866.18945 L 749.5 866.31055 A 0.14 0.14 0 0 1 749.35938 866.16992 L 749.35938 866.07031 A 9.9 11.23 89.7 0 1 760.5293 856.10938 z "
         style="fill:#402021;fill-opacity:1" />
      <path
         fill="#402021"
         d="   M 590.75 853.53   Q 590.75 854.95 591.50 853.74   C 595.38 847.53 600.94 843.68 608.70 845.81   Q 609.25 845.96 609.25 846.53   L 609.25 859.81   A 0.36 0.36 0.0 0 1 608.73 860.13   C 600.93 856.22 595.71 859.76 591.75 866.13   Q 590.72 867.80 590.72 869.62   Q 590.77 882.70 590.75 894.96   A 0.54 0.53 -90.0 0 1 590.22 895.50   L 578.50 895.50   Q 578.00 895.50 578.00 895.00   L 578.00 846.75   Q 578.00 846.25 578.50 846.25   L 590.13 846.25   Q 590.75 846.25 590.75 846.88   L 590.75 853.53   Z"
         id="path3485"
         style="fill:#402021;fill-opacity:1" />
      <path
         fill="#402021"
         d="   M 284.16 857.00   L 276.84 857.00   A 0.34 0.34 0.0 0 1 276.50 856.66   L 276.50 846.59   A 0.34 0.34 0.0 0 1 276.84 846.25   L 296.66 846.25   A 0.34 0.34 0.0 0 1 297.00 846.59   L 297.00 895.16   A 0.34 0.34 0.0 0 1 296.66 895.50   L 284.84 895.50   A 0.34 0.34 0.0 0 1 284.50 895.16   L 284.50 857.34   A 0.34 0.34 0.0 0 0 284.16 857.00   Z"
         id="path3487"
         style="fill:#402021;fill-opacity:1" />
      <path
         fill="#402021"
         d="   M 440.16 857.00   L 432.84 857.00   A 0.34 0.34 0.0 0 1 432.50 856.66   L 432.50 846.59   A 0.34 0.34 0.0 0 1 432.84 846.25   L 452.66 846.25   A 0.34 0.34 0.0 0 1 453.00 846.59   L 453.00 895.16   A 0.34 0.34 0.0 0 1 452.66 895.50   L 440.84 895.50   A 0.34 0.34 0.0 0 1 440.50 895.16   L 440.50 857.34   A 0.34 0.34 0.0 0 0 440.16 857.00   Z"
         id="path3489"
         style="fill:#402021;fill-opacity:1" />
      <path
         fill="#402021"
         d="   M 488.98 875.62   L 501.38 846.47   A 0.34 0.34 0.0 0 1 501.69 846.26   L 515.71 846.24   A 0.34 0.34 0.0 0 1 516.02 846.73   L 493.04 895.30   A 0.34 0.34 0.0 0 1 492.73 895.49   L 484.90 895.49   A 0.34 0.34 0.0 0 1 484.59 895.29   L 461.90 846.72   A 0.34 0.34 0.0 0 1 462.20 846.24   L 476.22 846.25   A 0.34 0.34 0.0 0 1 476.54 846.46   L 488.35 875.61   A 0.34 0.34 0.0 0 0 488.98 875.62   Z"
         id="path3491"
         style="fill:#402021;fill-opacity:1" />
      <path
         fill="#402021"
         d="   M 666.39 857.00   L 659.36 857.00   A 0.36 0.36 0.0 0 1 659.00 856.64   L 659.00 846.61   A 0.36 0.36 0.0 0 1 659.36 846.25   L 679.14 846.25   A 0.36 0.36 0.0 0 1 679.50 846.61   L 679.50 895.13   A 0.36 0.36 0.0 0 1 679.14 895.49   L 667.11 895.51   A 0.36 0.36 0.0 0 1 666.75 895.15   L 666.75 857.36   A 0.36 0.36 0.0 0 0 666.39 857.00   Z"
         id="path3493"
         style="fill:#402021;fill-opacity:1" />
    </g>
  </g>
</svg>
